<svg width="36" height="13" viewBox="0 0 36 13" fill="none" xmlns="http://www.w3.org/2000/svg">
<path d="M17.8936 12.3536C27.776 12.3536 35.7873 9.588 35.7873 6.1768C35.7873 2.7656 27.776 0 17.8936 0C8.01127 0 0 2.7656 0 6.1768C0 9.588 8.01127 12.3536 17.8936 12.3536ZM17.8747 0.544528C27.4425 0.544528 35.1998 3.08019 35.1998 6.20838C35.1998 9.33658 27.4425 11.8722 17.8747 11.8722C8.3069 11.8722 0.549579 9.33658 0.549579 6.20838C0.549579 3.08019 8.3069 0.544528 17.8747 0.544528Z" fill="black"/>
<path d="M17.8751 11.3969C27.1511 11.3969 34.6721 9.07226 34.6721 6.20432C34.6721 3.33639 27.1511 1.01172 17.8751 1.01172C8.59918 1.01172 1.07812 3.33639 1.07812 6.20432C1.07812 9.07226 8.59792 11.3969 17.8751 11.3969ZM25.0513 5.87836C25.3254 5.90742 25.6008 6.00976 25.7348 6.2536C25.7866 6.35593 25.8308 6.45321 25.8497 6.56692L27.5933 4.1437L28.6659 4.21193L25.7095 8.35843C25.6653 8.46708 25.5882 8.59722 25.6653 8.72229C25.7032 8.76778 25.755 8.82463 25.8245 8.836C26.0986 8.85874 26.3096 8.71092 26.5269 8.57448C26.9097 8.29021 27.261 7.9314 27.6185 7.61302C27.6893 7.56754 27.7524 7.50563 27.8421 7.52206C27.9445 7.55617 28.0784 7.63071 28.1037 7.7381L28.091 7.78864C27.3759 8.47088 26.6419 9.4159 25.5693 9.50687C25.2825 9.52456 25.0399 9.42727 24.8668 9.22766C24.7518 9.09121 24.7329 8.90928 24.7519 8.7324C24.196 9.1708 23.5061 9.637 22.7342 9.33505C22.2806 9.09626 22.1404 8.64649 22.172 8.18661C22.1972 8.03879 22.2554 7.90234 22.3059 7.75958C21.8523 8.02616 21.3482 8.43045 20.7481 8.20303C20.4613 8.08301 20.3072 7.81643 20.2882 7.54859C20.2693 7.46268 20.2945 7.36666 20.2945 7.28706L18.8265 9.35779L17.8688 9.35273C17.8499 9.34136 17.8183 9.32368 17.8246 9.30093L17.8499 9.22134L19.3824 7.0546C19.4658 6.88404 19.606 6.67305 19.4847 6.47469C19.3634 6.37741 19.1979 6.46332 19.0766 6.50375C18.4323 6.82718 17.9332 7.44246 17.4873 7.95414C16.8871 8.68818 16.0634 9.61552 14.9137 9.42727C14.3704 9.37042 14.0003 8.88148 13.8853 8.45445C13.8853 8.43676 13.879 8.42034 13.8663 8.41402C13.6048 8.61364 13.4064 8.89159 13.1197 9.03436C13.0742 9.04573 13.0249 9.04573 12.9794 9.03436C12.8644 8.94971 12.8329 8.82968 12.8063 8.70966C12.8518 8.56184 13.0363 8.50499 13.1449 8.39128C13.9434 7.6345 14.1733 6.5088 15.3344 6.04766C15.6212 5.92764 15.9282 5.85436 16.2731 5.85941C16.3691 5.85941 16.4513 5.93395 16.4904 6.01355C16.5271 6.06787 16.5675 6.15252 16.5283 6.21822C16.4134 6.32056 16.2415 6.32056 16.1076 6.37741C15.4494 6.64525 14.8114 7.24158 14.7545 7.89603C14.7292 8.16892 14.8189 8.44182 15.0994 8.58964C15.4506 8.74882 15.865 8.61238 16.1468 8.40139C16.6572 7.98573 16.9061 7.46899 16.9768 6.88277C16.9958 6.64399 16.9061 6.44437 16.8429 6.23464C16.8429 6.09314 17.0021 5.98449 17.1297 5.92764C17.2257 5.88721 17.3786 5.85309 17.4746 5.91626C17.6983 6.12094 17.7361 6.40015 17.7488 6.6781C17.7488 6.7577 17.7551 6.83729 17.7361 6.91183C18.3679 6.42795 18.8985 5.57515 19.8246 5.68885C20.0545 5.71791 20.2718 5.89984 20.3223 6.10451C20.3602 6.24096 20.3413 6.41152 20.316 6.54292C20.6799 6.11083 21.165 5.69012 21.8043 5.78108C22.0469 5.81519 22.2958 6.00218 22.3602 6.21948C22.4373 6.47596 22.3413 6.72611 22.1429 6.90804C22.0027 7.01669 21.8498 7.08492 21.6578 7.06723C21.4986 7.04954 21.3508 6.98764 21.2623 6.85119C21.1789 6.73243 21.1789 6.53913 21.2623 6.42416C21.0513 6.4469 20.9174 6.66294 20.8542 6.82213C20.7835 7.03817 20.6824 7.34013 20.8921 7.53343C21.0324 7.71536 21.3065 7.65345 21.5049 7.62439C22.7759 7.23779 23.5352 5.71286 25.0551 5.87836H25.0513ZM8.09508 6.05019C8.36924 5.87963 8.6952 5.77224 9.04643 5.8114C9.1235 5.82783 9.19931 5.87963 9.2309 5.94785C9.24985 6.0047 9.24984 6.07925 9.21194 6.11841C8.89862 6.38625 8.47158 6.53913 8.25427 6.89793C8.07613 7.17083 8.01802 7.59786 8.23533 7.87076C8.57392 8.2801 9.20562 8.34327 9.71604 8.19545C11.0881 7.76842 12.066 6.46079 12.9339 5.45891C12.4488 5.50439 11.97 5.58904 11.5871 5.8632C11.5492 5.87963 11.4848 5.89226 11.4406 5.86826C11.3825 5.8392 11.3761 5.78234 11.3635 5.73181C11.3951 5.47028 11.7211 5.36163 11.9447 5.27698C12.373 5.12916 12.8518 5.08873 13.3104 5.01546C13.9687 4.14497 14.9188 3.26943 15.9409 2.78049C14.2871 2.43305 11.8423 1.92769 10.6093 3.35534C10.4501 3.56001 10.3414 3.82154 10.4311 4.08306C10.5335 4.27636 10.7508 4.38502 10.9807 4.39639C11.6187 4.40776 12.0597 3.92387 12.4804 3.52085C12.5246 3.49179 12.5827 3.46399 12.6459 3.48042C12.6964 3.49179 12.7229 3.54359 12.7419 3.57644C12.7545 3.98073 12.4551 4.28142 12.1923 4.58842C11.6554 5.11779 10.9213 5.47534 10.1241 5.24792C9.69582 5.1279 9.39008 4.72487 9.35218 4.33827C9.25616 3.55875 9.81206 2.88788 10.5524 2.53539C11.6819 1.95548 13.126 1.88726 14.5107 2.02371L15.4936 2.12604L18.2516 2.4899C19.6628 2.67689 21.3028 2.71732 22.6698 2.39894C22.8226 2.39389 23.021 2.33703 23.1423 2.44442C23.2067 2.49496 23.2193 2.56445 23.2004 2.63772C23.136 2.91694 22.7986 3.10392 22.5422 3.24037C21.3419 3.85439 19.6565 3.58781 18.3666 3.31996L16.2794 2.83102H16.2731C16.2542 2.91062 16.2921 3.01296 16.2415 3.08118C15.4304 3.51958 14.6838 4.23593 14.2176 4.95229C14.6774 4.93586 15.15 4.91817 15.5896 4.83226C15.5252 4.4962 15.654 4.18413 15.9598 3.97315C16.1253 3.87586 16.3363 3.81901 16.5346 3.86449C16.6749 3.90998 16.7962 4.03505 16.8353 4.16013C16.9061 4.4166 16.7911 4.65538 16.5864 4.831C16.4462 4.93965 16.2933 5.0243 16.1266 5.0761L16.1329 5.09252C16.2478 5.18349 16.3944 5.25171 16.4841 5.36542C16.4904 5.40206 16.4778 5.44123 16.4525 5.46776C16.402 5.51829 16.3376 5.51829 16.2681 5.52461C16.0318 5.50819 15.8916 5.2972 15.7248 5.15443C15.1499 5.23403 14.5562 5.28456 13.9624 5.33131L13.5859 5.80888L12.5637 7.23021C11.759 8.31169 10.5524 9.56878 8.93778 9.3919C8.18479 9.32368 7.39264 8.82842 7.17533 8.16387C6.88222 7.32749 7.36104 6.55429 8.09508 6.04766V6.05019Z" fill="black"/>
<path d="M16.4924 4.3536C16.5063 4.27906 16.5277 4.17294 16.4507 4.11608C16.3951 4.06555 16.2902 4.06555 16.2195 4.09082C15.9529 4.22221 15.8834 4.49637 15.9327 4.75916C16.1563 4.69725 16.4166 4.57849 16.4936 4.3536H16.4924Z" fill="black"/>
<path d="M23.4122 8.64904C23.5398 8.73369 23.7571 8.72232 23.9037 8.67684C24.5619 8.46079 24.9447 7.83541 25.3149 7.35152L25.1229 7.28962C25.2252 7.08494 25.3591 6.82342 25.2315 6.596C25.1418 6.48735 25.0079 6.41913 24.8424 6.44187C24.0123 6.57326 23.4122 7.36921 23.2265 8.04008C23.1823 8.26244 23.2012 8.50628 23.4122 8.64904Z" fill="black"/>
</svg>
