<svg width="26" height="22" viewBox="0 0 26 22" fill="none" xmlns="http://www.w3.org/2000/svg">
<path d="M10.6497 18.9833C11.0543 19.2389 11.6493 19.5793 12.1371 19.8469C12.569 20.0961 12.9082 20.2818 12.9531 20.3064C12.9565 20.3082 12.9582 20.3092 12.9582 20.3092C15.3142 19.2267 22.0136 14.823 23.8935 9.43399C24.4645 7.79176 24.6076 5.69944 24.3337 4.28836C24.311 4.14804 24.1453 4.12011 24.0058 4.09659C24.0001 4.09562 23.9944 4.09467 23.9888 4.09372C20.9784 3.54631 18.1104 3.33945 15.1475 3.29086C14.1439 3.27852 13.1402 3.29069 12.1371 3.32737C11.8337 3.33341 11.5302 3.34254 11.2268 3.35167C10.9233 3.36079 10.6199 3.36992 10.3165 3.37596C7.50824 3.44884 4.75951 3.66792 1.91559 4.10579C1.82039 4.13009 1.67753 4.19104 1.65377 4.31265C1.57052 4.70194 1.53481 5.04249 1.57052 5.43177C1.58247 5.54117 1.68962 5.61419 1.77287 5.60212C5.2594 5.23713 8.68631 4.9939 12.1371 4.94517H12.8035C13.0055 4.94517 13.2074 4.9442 13.4095 4.94323C14.2193 4.93934 15.0307 4.93545 15.8496 4.9939C16.003 5.00451 16.1548 5.03307 16.3018 5.079C16.6233 5.17695 16.8725 5.31864 17.0939 5.44451C17.3398 5.58427 17.5513 5.70452 17.7893 5.72373C18.9434 5.79661 20.5736 5.95474 22.0849 6.19812C22.43 6.25692 22.5305 6.34986 22.6442 6.45498C22.6481 6.45857 22.652 6.46217 22.6559 6.46578C22.8462 6.64821 22.9653 6.85507 23.0247 7.0983C23.0962 7.37804 23.0962 7.64571 23.0247 7.93767C22.8581 8.76482 22.644 9.4948 22.2037 10.2124C22.1948 10.2267 22.186 10.241 22.1773 10.2552C22.1042 10.3742 22.0336 10.4892 21.9062 10.5652C21.8823 10.5774 21.8467 10.5652 21.8586 10.5409C21.9775 9.94475 21.8941 9.22699 21.323 8.94725C20.966 8.7769 20.5733 8.83771 20.2044 8.92295C19.3478 9.11759 18.5742 9.34875 17.789 9.665C17.2179 9.89616 16.4444 10.2854 16.1349 10.4556L16.1282 10.4595C16.0225 10.5197 15.8971 10.591 15.9088 10.6625C15.9088 10.7112 15.9683 10.7112 15.9803 10.7112C16.5634 10.7357 17.313 10.7722 17.7772 10.8208C18.008 10.8449 18.237 10.8651 18.4656 10.8854C18.8143 10.9162 19.1622 10.947 19.5143 10.9911C19.5898 10.9996 19.6564 11.0067 19.7241 11.0138C19.8485 11.0269 19.9763 11.0404 20.169 11.0641C19.4557 11.1664 18.7453 11.2373 18.0343 11.3083C16.7169 11.4398 15.3972 11.5715 14.0526 11.9035C13.3626 12.0736 12.8389 12.4265 12.3749 12.9496C12.3 13.0263 12.2348 13.1027 12.1617 13.1882C12.1536 13.1977 12.1453 13.2074 12.137 13.2171C11.4588 14.0689 11.1137 15.0419 10.8162 16.1733C10.8088 16.2019 10.8015 16.2306 10.7941 16.2592C10.6113 16.9709 10.4336 17.6627 10.3877 18.3996C10.3759 18.5577 10.3997 18.6793 10.4711 18.8008C10.5181 18.8732 10.5789 18.9353 10.6497 18.9833Z" fill="black"/>
<path d="M21.9031 6.75434C22.1151 6.78723 22.3474 6.82325 22.4894 7.01319C22.6561 7.23213 22.668 7.41469 22.6317 7.69472C22.5723 8.20576 22.4295 8.76525 22.2393 9.25185C22.2155 9.31266 22.1797 9.3371 22.1321 9.28837C22.0728 9.09387 21.9894 8.87479 21.8108 8.72888C21.704 8.63156 21.5967 8.55853 21.4539 8.50994C21.2686 8.43865 21.0605 8.42536 20.8737 8.41342L20.859 8.41248C20.4307 8.38819 19.7168 8.55853 19.1338 8.74095C18.8867 8.81676 18.5851 8.91548 18.2707 9.01843C17.9793 9.11382 17.6768 9.21284 17.3964 9.30058C16.5873 9.56825 15.8257 9.88451 15.0643 10.2616C14.374 10.6023 13.7315 10.9428 13.1008 11.4294C12.9343 11.5753 12.7676 11.7214 12.613 11.8673L12.5935 11.8858C12.4344 12.0369 12.2856 12.1781 12.137 12.3418C11.9604 12.522 11.784 12.7264 11.6076 12.9308L11.6015 12.9378C11.4111 13.169 11.2565 13.3757 11.0898 13.6435C10.8398 14.0083 10.7209 14.2395 10.5662 14.5556C10.3108 15.0979 10.0987 15.7324 9.8822 16.3798C9.7053 16.9089 9.52549 17.4466 9.31682 17.9499C9.29292 17.9985 9.19773 17.9863 9.13825 17.9618C9.11475 17.947 9.09104 17.9323 9.06729 17.9175C8.83849 17.7753 8.60578 17.6306 8.51954 17.3658C8.41239 17.0376 8.48383 16.6968 8.57902 16.3683C8.90033 15.2128 9.01928 14.7628 8.98357 14.8236C8.81694 15.1398 8.62655 15.5047 8.48383 15.8211C8.32915 16.1615 8.18643 16.4293 7.9246 16.6116C7.87983 16.6422 7.82573 16.6488 7.77109 16.6555C7.73854 16.6595 7.7058 16.6635 7.67473 16.6727C7.63902 16.6727 7.56758 16.6482 7.53187 16.6238C7.32952 16.5263 7.04408 16.344 7.0916 16.0643C7.14893 15.7052 7.38316 15.1611 7.59424 14.6707C7.73371 14.3467 7.86306 14.0461 7.9246 13.838C7.67775 14.1555 7.45229 14.4892 7.22318 14.8283C7.10984 14.996 6.99561 15.1651 6.87745 15.3342C6.72277 15.5653 6.46095 15.6504 6.22303 15.5167C6.05297 15.4258 5.91243 15.2863 5.81848 15.1152C5.78277 15.0422 5.759 14.9449 5.759 14.8719C5.759 14.7625 5.80653 14.6529 5.8542 14.5555C6.0721 14.1183 6.394 13.6812 6.7048 13.2591C6.85228 13.0588 6.99727 12.8619 7.12746 12.67C6.84516 12.8623 6.68198 13.0015 6.53192 13.1296C6.4922 13.1634 6.45341 13.1965 6.41356 13.2296C6.25297 13.3665 6.10443 13.5033 5.95711 13.6389C5.77693 13.8049 5.59855 13.9692 5.40212 14.1298C5.27121 14.2516 5.0451 14.2394 4.90238 14.1054C4.89278 14.0956 4.88301 14.0856 4.87311 14.0756C4.64991 13.8487 4.36305 13.557 4.54536 13.2541C4.87861 12.7187 5.37836 12.2809 5.8781 11.8671C6.04572 11.7216 6.21632 11.5797 6.3898 11.4415C6.40175 11.4293 6.4137 11.4293 6.37798 11.4415C6.09304 11.5505 5.83175 11.7083 5.57052 11.8661L5.56875 11.8671C5.42304 11.9654 5.28219 12.0678 5.1466 12.1663C4.76179 12.446 4.41941 12.6948 4.129 12.731C3.7916 12.7783 3.52228 12.2907 3.36592 12.0075C3.36243 12.0012 3.359 11.995 3.35562 11.9889C3.33172 11.9524 3.3199 11.9157 3.3199 11.8671C3.30795 11.7578 3.34367 11.6238 3.40315 11.5507C3.73986 11.1873 4.41489 10.7714 5.09873 10.35C5.28364 10.236 5.4692 10.1217 5.64888 10.0079C5.65361 10.0066 5.65506 10.0058 5.65213 10.0058C5.65105 10.0065 5.64997 10.0072 5.64888 10.0079C5.6345 10.0119 5.58974 10.021 5.54498 10.0301C5.31295 10.1205 5.08205 10.2051 4.85228 10.2892C4.33976 10.4768 3.83289 10.6624 3.33172 10.906C3.22673 10.9596 3.10312 10.9469 2.98564 10.9349C2.97001 10.9333 2.95448 10.9317 2.93912 10.9303C2.83197 10.9059 2.71301 10.8451 2.64158 10.7477C2.63144 10.7303 2.6212 10.7127 2.61091 10.695C2.42815 10.3816 2.23268 10.0464 2.36781 9.68944C2.40818 9.61177 2.47038 9.54823 2.54638 9.50702C3.34625 9.04773 4.25698 8.72262 5.11152 8.41757C5.18508 8.39131 5.25821 8.3652 5.33083 8.33917C5.33083 8.33917 3.56977 8.50952 2.47495 8.82577C2.17755 8.92309 1.83249 8.63113 1.76105 8.30266C1.75133 8.25793 1.74074 8.21125 1.72981 8.16312C1.60704 7.62222 1.44265 6.89798 2.01093 6.69694C2.60586 6.49008 6.84201 6.01569 9.30515 5.86964C9.62632 5.85325 9.94614 5.83131 10.265 5.80943C10.8914 5.76646 11.5143 5.72373 12.1371 5.72373C12.5309 5.72347 12.9242 5.74786 13.3151 5.79676C13.5175 5.82105 13.7078 5.93045 13.8864 6.03999C14.0476 6.12699 14.2003 6.22087 14.3517 6.31386C14.6024 6.46795 14.8492 6.6196 15.1238 6.73345C15.4808 6.87936 15.8496 6.73345 16.0877 6.42927C16.2305 6.25892 16.3494 6.06442 16.3733 5.84535C16.6589 6.03999 17.1824 6.31987 17.4204 6.34417C17.8309 6.38788 18.3091 6.41901 18.8284 6.45283C19.754 6.5131 20.8103 6.58189 21.847 6.74553C21.8654 6.74851 21.8842 6.75142 21.9031 6.75434Z" fill="black"/>
<path d="M5.20015 3.18297C5.75514 3.12396 6.28471 3.06765 6.58019 3.03526L6.6398 2.64612C6.6398 2.64612 5.22368 2.79203 4.43835 2.87727C4.29664 2.89536 4.3066 2.85284 4.33075 2.74966C4.33905 2.71421 4.34903 2.6716 4.3551 2.62183C4.36398 2.53153 4.39905 2.52833 4.46038 2.52272C4.48165 2.52078 4.50609 2.51854 4.53368 2.51229L6.3185 2.34208L6.35422 1.98931L4.46242 2.18394C4.46536 2.18332 4.46601 2.16608 4.46698 2.14061C4.46976 2.06714 4.47514 1.92521 4.5455 1.91629C5.27135 1.80675 6.74681 1.70943 6.74681 1.70943L6.79434 1.36888C6.05395 1.40814 5.49224 1.46327 4.83305 1.52796C4.67648 1.54333 4.51442 1.55923 4.34315 1.57559C4.29045 1.58206 4.23736 1.58739 4.18423 1.59272C3.93755 1.61746 3.68988 1.6423 3.47458 1.78245C3.18076 1.96478 3.1275 2.33645 3.07821 2.68045C3.07162 2.72646 3.06509 2.77197 3.05808 2.81647C3.04017 2.8806 3.04254 2.95168 3.0448 3.01923C3.04554 3.04132 3.04627 3.06302 3.04627 3.08399C3.04627 3.23004 3.24847 3.38803 3.40315 3.37595C3.76733 3.33532 4.50375 3.25701 5.20015 3.18297Z" fill="black"/>
<path d="M23.1322 3.43676L23.1202 3.08399C23.1202 3.08399 21.1211 2.79203 20.8833 2.73136C20.7762 2.70707 20.7526 2.42718 20.8833 2.41511C21.127 2.39348 22.0029 2.53575 22.4608 2.61011C22.5171 2.61926 22.5671 2.62738 22.6088 2.63404L22.5969 2.32986C22.0255 2.19603 21.4307 2.13522 20.8358 2.07442C20.788 2.0622 20.7524 1.9528 20.7644 1.89199C20.7644 1.86756 20.8238 1.81897 20.8358 1.81897C20.9702 1.79317 21.6094 1.88876 22.229 1.98141C22.4865 2.01992 22.7406 2.05792 22.9537 2.08649L22.9418 1.77024C22.1446 1.58781 21.1093 1.45384 20.3238 1.38095C19.9668 1.34444 19.6099 1.36873 19.5863 1.62418C19.5743 1.70929 19.4551 2.80425 19.7407 2.93794C19.9198 3.01934 20.7198 3.11583 21.5227 3.21268C22.1606 3.2896 22.8003 3.36676 23.1322 3.43676Z" fill="black"/>
<path fill-rule="evenodd" clip-rule="evenodd" d="M10.1262 1.18631C9.75736 1.18631 9.37644 1.19853 9.00761 1.22282C8.88346 1.2349 8.75925 1.24396 8.63504 1.25302C8.50938 1.26218 8.38372 1.27134 8.25813 1.28363C8.10346 1.30793 7.93683 1.35652 7.80592 1.46605C7.71086 1.55116 7.63943 1.67277 7.62748 1.80661C7.60962 2.00124 7.58582 2.19283 7.56202 2.38441C7.53822 2.576 7.51442 2.76759 7.49657 2.96223L8.1867 2.92572L8.19851 2.37831L9.00761 2.35402L9.76918 2.3175V2.84062L10.7331 2.81633C10.7331 2.81633 10.7688 1.95266 10.7211 1.52686C10.6854 1.24712 10.3761 1.17424 10.1262 1.18631ZM9.65445 2.00796C9.45353 2.01823 9.22256 2.03003 9.00761 2.04998C8.99081 2.05069 8.97405 2.0514 8.95734 2.05211C8.6901 2.06345 8.43509 2.07427 8.22242 2.07427C8.23437 1.86756 8.25813 1.6607 8.44852 1.59989C8.5674 1.56522 8.6923 1.56144 8.81462 1.55773C8.86375 1.55624 8.91247 1.55476 8.96022 1.5513H9.00775L9.02326 1.54963C9.24366 1.52592 9.45291 1.5034 9.66217 1.53908C9.7097 1.53908 9.78113 1.57559 9.78113 1.62433V2.00139C9.74065 2.00355 9.69827 2.00572 9.65445 2.00796Z" fill="black"/>
<path d="M16.7542 2.79203C17.1466 2.81647 18.5626 2.87727 18.8721 2.87727V2.51229C18.7856 2.50858 18.6609 2.50377 18.5161 2.49819C18.183 2.48535 17.7439 2.46841 17.4206 2.45148C17.2778 2.45148 17.2184 2.31779 17.2064 2.09871C17.1705 1.70943 17.1705 1.1255 17.1705 1.1255C17.0398 1.10107 16.0759 1.08899 16.0759 1.08899C16.0759 1.08899 15.9925 2.17174 16.0878 2.43926C16.1473 2.64612 16.3376 2.75552 16.7542 2.79203Z" fill="black"/>
<path d="M14.394 1.08522C14.6112 1.08712 14.8242 1.08899 15.0287 1.08899L15.0286 1.41747H13.1367C12.851 1.41747 12.7321 1.45398 12.7321 1.60003V2.28127C12.7321 2.31765 12.7558 2.39081 12.8035 2.40289C12.9821 2.41511 14.0887 2.42719 14.2314 2.36638C14.2909 2.34208 14.3384 2.07442 14.279 2.0379H13.0891V1.69735H15.0408C15.0408 1.72472 15.0411 1.7542 15.0414 1.78531C15.0451 2.14134 15.0511 2.70986 14.6244 2.74344C13.9697 2.77995 12.6371 2.77995 12.066 2.74344C11.9826 2.74344 11.8993 2.69485 11.8041 2.60975C11.6257 2.41511 11.6495 1.84326 11.7447 1.4662C11.7922 1.28363 11.9945 1.16202 12.1849 1.13772C12.8571 1.07175 13.6504 1.0787 14.394 1.08522Z" fill="black"/>
<path fill-rule="evenodd" clip-rule="evenodd" d="M25.4525 1.14966C25.7738 2.60947 25.9999 4.0815 25.9999 5.57768H26V5.60183C26 6.62363 25.8929 7.64556 25.6548 8.67944C25.0836 11.1125 23.9176 13.1438 22.3113 15.0172C21.8488 15.5537 21.3798 16.0153 20.899 16.4885C20.7365 16.6485 20.5726 16.8097 20.4072 16.9757C19.6898 17.687 18.9526 18.2561 18.1592 18.8685C18.0841 18.9265 18.0084 18.9849 17.9323 19.0439C17.135 19.6643 16.3615 20.1388 15.5048 20.6253C14.636 21.1365 13.8033 21.5866 12.9345 22C12.75 21.9261 12.5762 21.8467 12.3986 21.7656C12.3129 21.7264 12.2264 21.6869 12.1373 21.6474C8.78164 20.1268 5.93786 17.6815 3.45081 14.8106C1.76119 12.8521 0.618842 10.6625 0.178579 8.05928C0.0725903 7.44854 0.0128866 6.83034 0 6.21019V5.57754C0.0357158 4.05692 0.309491 2.5606 0.678323 1.08871C1.17548 0.961623 1.67263 0.888782 2.17966 0.814496C2.35223 0.789211 2.52595 0.763759 2.7012 0.735943C3.64135 0.565596 4.54564 0.468275 5.48564 0.383173C7.43737 0.213081 9.3937 0.103539 11.3519 0.0546984C11.4828 0.0546984 11.6137 0.0516793 11.7446 0.0486603C11.8755 0.0456412 12.0064 0.0426222 12.1373 0.0426222C13.7555 -0.00610915 15.3738 -0.0304038 17.0159 0.0669168C19.8599 0.237263 22.6918 0.444123 25.4525 1.14966ZM12.9344 21.2705C12.6608 21.1731 12.4109 21.0635 12.1371 20.942C9.61464 19.8106 7.4489 18.0103 5.40212 16.0396C3.86718 14.5434 2.5821 12.9131 1.70157 10.9668C1.58261 10.7114 1.47547 10.468 1.40403 10.2126C1.39215 10.1822 1.37728 10.1456 1.36241 10.1091C1.34754 10.0726 1.33267 10.0361 1.32079 10.0057C0.809095 8.61905 0.582988 7.14703 0.606891 5.68736C0.630655 4.3128 0.785331 2.86506 1.26131 1.58782C4.28381 0.906573 9.93594 0.699714 12.1373 0.638906C12.7084 0.626688 13.0416 0.614612 13.0416 0.614612C13.0417 0.614612 13.0432 0.614581 13.0461 0.614522C13.2536 0.610262 20.5494 0.460526 24.8693 1.64863C24.9623 1.67719 24.9825 1.79506 25.0041 1.92073C25.0101 1.9557 25.0162 1.99127 25.024 2.02569C25.274 3.26656 25.3809 4.43441 25.3928 5.65085C25.3928 6.73359 25.2501 7.75525 25.024 8.83799C24.7384 10.1883 24.1674 11.2586 23.4771 12.4144C22.0136 14.8109 20.1573 16.5505 17.9557 18.2656C16.3374 19.5187 14.7073 20.4675 12.9344 21.2705Z" fill="black"/>
</svg>
