<svg width="22" height="22" viewBox="0 0 22 22" fill="none" xmlns="http://www.w3.org/2000/svg">
<path d="M10.8281 0C9.27979 2.15704 8.4004 4.72356 8.29988 7.37869C12.1648 4.44184 17.029 1.96401 21.8636 0.532157V0H10.8281Z" fill="black"/>
<path d="M8.39697 9.64181C9.15826 15.6342 13.8165 20.4102 19.744 21.334H21.8634V1.76436C16.7807 3.65522 13.5456 5.49799 9.99743 8.26314C9.44211 8.69661 8.908 9.1567 8.39697 9.64181Z" fill="black"/>
<path d="M7.47629 10.5749C8.36328 15.4108 11.6203 19.4168 15.9968 21.334L11.8277 21.3342C7.63333 21.3342 4.68708 19.5802 4.58257 16.521C4.52732 14.9006 5.48749 12.748 7.47629 10.5749Z" fill="black"/>
<path d="M7.23412 7.91428C7.23412 8.01537 7.23412 8.11756 7.23648 8.21702C3.73398 11.1 1.23095 14.3541 0.629062 17.4653C0.525598 18.035 0.525852 18.424 0.526148 18.8782C0.526164 18.9026 0.52618 18.9273 0.52618 18.9522H0V0.000163993H9.55258C8.08633 2.28089 7.23412 4.99939 7.23412 7.91428Z" fill="black"/>
</svg>
