<svg width="34" height="22" viewBox="0 0 34 22" fill="none" xmlns="http://www.w3.org/2000/svg">
<path d="M15.9339 20.8808C14.151 19.7715 12.8385 15.9441 12.8385 11.396C12.8385 11.2288 12.8385 11.0652 12.8435 10.9004L12.846 10.9028C7.88711 10.1292 4.3051 8.00771 4.21347 5.50123L4.19862 5.53075C2.98522 7.02873 2.29308 8.7604 2.29308 10.6052C2.29308 16.0339 8.29323 20.4823 15.903 20.8759L15.9352 20.882L15.9339 20.8808ZM0 11C0 4.92565 7.611 0 17 0C26.389 0 34 4.92565 34 11C34 17.0743 26.389 22 17 22C7.611 22 0 17.0743 0 11ZM17 1.58654C18.8127 1.58654 20.3542 4.31809 20.925 8.12824L20.9275 8.12209C24.4538 7.57726 26.9227 6.3191 26.9227 4.85555C26.9227 2.89144 22.4801 1.30121 17 1.30121C11.5199 1.30121 7.07735 2.89144 7.07735 4.85555C7.07735 6.3191 9.54625 7.57726 13.0725 8.12209L13.075 8.12824C13.6458 4.31809 15.1886 1.58654 17 1.58654ZM18.097 20.8747C25.7068 20.4811 31.7082 16.0326 31.7082 10.604C31.7082 8.75917 31.0148 7.0275 29.8014 5.52952L29.7865 5.50123C29.6949 8.00894 26.1129 10.1292 21.154 10.9041L21.1565 10.9016C21.1602 11.0664 21.1615 11.23 21.1615 11.3972C21.1615 15.9453 19.8478 19.7727 18.0661 20.882L18.097 20.8759V20.8747ZM17 8.41111C17.8122 8.41111 18.601 8.37668 19.3562 8.31026C18.9798 5.86896 18.0673 4.14468 17.0012 4.14468C15.9352 4.14468 15.0214 5.86896 14.645 8.31149C15.4003 8.37668 16.1902 8.41111 17.0025 8.41111H17ZM17 17.4568C18.3645 17.4568 19.4776 14.6367 19.537 11.0984L19.5444 11.1008C18.7223 11.1759 17.8717 11.2165 17 11.2165C16.1283 11.2165 15.279 11.1771 14.4556 11.1008L14.463 11.0984C14.5212 14.6355 15.6343 17.4568 16.9988 17.4568H17Z" fill="black"/>
</svg>
