<svg width="34" height="8" viewBox="0 0 34 8" fill="none" xmlns="http://www.w3.org/2000/svg">
<path d="M0.00101568 1.99874V5.28324C0.00101568 6.52091 0.741537 7.26351 2.02913 7.26351H8.3839C9.71621 7.26351 10.5597 6.58644 10.5597 5.34773V2.75382H5.35732V4.36903H8.776V5.02843C8.776 5.45589 8.53991 5.57446 8.22997 5.57446H2.39005C1.96467 5.57446 1.82945 5.35397 1.82945 5.00971V2.19427C1.82945 1.81985 2.03849 1.69608 2.26731 1.69608H10.5587V0.00390625H2.01039C0.695756 0.00390625 0 0.808913 0 2.00082L0.00101568 1.99874Z" fill="black"/>
<path d="M18.1299 7.26065L21.0504 1.75354V7.26065H22.8861V0H20.0655L17.2833 5.21485L14.498 0H11.6836V7.26065H13.5141V1.75354L16.4377 7.26065H18.1299Z" fill="black"/>
<path d="M33.6293 7.26168V5.43534H26.3343C25.91 5.43534 25.7737 5.21589 25.7737 4.87371V2.32453C25.7737 1.95323 25.9818 1.82322 26.2137 1.82322H33.6293V0H25.9527C24.638 0 23.9453 0.805 23.9453 1.99691V5.28141C23.9453 6.51908 24.6817 7.26168 25.9693 7.26168H33.6293Z" fill="black"/>
</svg>
