<svg width="40" height="15" viewBox="0 0 40 15" fill="none" xmlns="http://www.w3.org/2000/svg">
<path d="M39.3041 3.01787H27.8601C27.5681 3.01916 27.3768 2.92983 27.3768 2.51683V0.770326C27.3768 0.266701 27.1138 0 26.6344 0H13.5342C13.0447 0 12.793 0.283532 12.793 0.765148V2.51165C12.793 2.88063 12.6231 3.01398 12.3085 3.01398L4.8084 3.01657C4.23457 3.01657 3.89856 3.29881 3.72615 3.66779L0.0742269 11.0111C0.0264071 11.1069 0 11.2144 0 11.3219C0 11.6132 0.184991 11.9873 0.695908 11.9873H12.3073C12.6659 11.986 12.7905 12.153 12.7905 12.4883V14.2349C12.7905 14.7605 13.0863 15 13.533 15H20.0843H26.6331C27.0786 15 27.3756 14.7773 27.3756 14.24V12.4935C27.3756 12.1362 27.5215 11.9912 27.8588 11.9912H35.14C35.6421 11.9899 36.0033 11.854 36.2549 11.3723L39.8654 4.11574C39.9446 3.95909 40 3.86976 40 3.68332C40.0013 3.19006 39.5885 3.01657 39.3053 3.01657L39.3041 3.01787ZM36.4198 5.94252L34.6794 9.44459C34.5712 9.64785 34.3761 9.65691 34.2402 9.65691H25.6012C25.2426 9.65691 25.1117 9.82393 25.1117 10.1592V12.1737C25.1104 12.5091 24.9682 12.6683 24.6196 12.6683H15.5465C15.2432 12.6683 15.0569 12.5596 15.0569 12.1686V10.1541C15.0569 9.78638 14.8921 9.65432 14.5674 9.65432H3.97532C3.71482 9.65432 3.53487 9.48602 3.53487 9.25168C3.53487 9.18436 3.55124 9.11963 3.58019 9.06396L5.32059 5.56189C5.38728 5.4376 5.49676 5.35215 5.75977 5.35215H14.5674C14.872 5.35215 15.0607 5.22657 15.0607 4.84723V2.83273C15.0607 2.4754 15.2117 2.33169 15.5477 2.33169H24.6222C24.9481 2.33169 25.1104 2.48058 25.1104 2.83791V4.85241C25.1104 5.19808 25.2665 5.35215 25.6025 5.35215H36.0259C36.3582 5.35215 36.4664 5.57742 36.4664 5.75479C36.4664 5.82082 36.45 5.88555 36.4211 5.94381L36.4198 5.94252Z" fill="black"/>
</svg>
