<svg width="39" height="9" viewBox="0 0 39 9" fill="none" xmlns="http://www.w3.org/2000/svg">
<path d="M35.0598 9H34.8921V2.88495C34.7102 2.99343 34.6032 3.0515 34.5006 3.11724C31.6654 4.93828 28.8345 6.76589 25.9893 8.57378C25.7346 8.73594 25.3982 8.84332 25.0972 8.8466C23.239 8.87071 21.3797 8.86194 19.5215 8.85756C18.8609 8.85646 18.6183 8.60446 18.6172 7.94814C18.6172 5.71293 18.6172 3.47772 18.6172 1.24142V0.704528C16.5142 1.958 14.495 3.16326 12.3931 4.41673C13.9017 5.92549 15.3486 7.37509 16.8153 8.84113C16.6785 8.8466 16.5429 8.85756 16.4083 8.85756C15.3188 8.85866 14.2281 8.84003 13.1386 8.86633C12.6379 8.87838 12.263 8.72717 11.9211 8.36231C11.18 7.57231 10.407 6.81191 9.65268 6.04383C8.18046 6.92476 6.78985 7.77173 5.37939 8.58583C5.10479 8.74361 4.75631 8.83784 4.43871 8.8466C3.29402 8.87728 2.14713 8.84441 1.00134 8.86633C0.576765 8.874 0.245921 8.76004 0 8.416V2.83236C0.141156 2.38532 0.459862 2.10701 0.855762 1.87363C1.89238 1.26114 2.91356 0.625639 3.94135 0H4.10898V6.9401C4.33725 6.81958 4.47071 6.75603 4.59753 6.68042C8.1485 4.56136 11.6961 2.43681 15.2548 0.329802C15.5151 0.17531 15.8514 0.0788891 16.1547 0.0756021C17.9853 0.0525926 19.8159 0.0624539 21.6466 0.0646453C22.4152 0.0646453 22.6435 0.295836 22.6446 1.06172C22.6457 3.2553 22.6446 5.44996 22.6446 7.64353V8.12454C22.831 8.01717 22.9401 7.95909 23.0438 7.89226C26.6256 5.60993 30.2262 3.35719 33.7739 1.02337C34.8204 0.335281 35.8526 -0.109569 37.1153 0.0580715C37.4032 0.0964206 37.7031 0.0832723 37.9942 0.0580715C38.4188 0.0219137 38.7508 0.157779 39 0.499635V6.16654C38.861 6.59715 38.5534 6.87107 38.1729 7.09898C37.1297 7.72352 36.0953 8.3645 35.0575 9H35.0598Z" fill="black"/>
</svg>
