<svg width="30" height="30" viewBox="0 0 30 30" fill="none" xmlns="http://www.w3.org/2000/svg">
<path d="M14.9577 0.00116404C13.6698 0.00454427 13.1413 0.0529932 11.9965 0.281722C7.71134 1.13692 3.9321 3.94139 1.81262 7.83992C-0.848843 12.7334 -0.561509 18.7468 2.5563 23.3777C3.53661 24.8346 5.03973 26.3568 6.49554 27.3675C8.49333 28.7545 11.0275 29.6931 13.3937 29.923C13.6529 29.9478 13.9425 29.9759 14.0371 29.985C14.4957 30.03 16.3391 29.9669 16.9307 29.8869C19.395 29.5534 21.6147 28.6915 23.5956 27.2988C26.5546 25.2188 28.6999 22.1045 29.5541 18.6454C30.5175 14.7469 29.9056 10.6444 27.8571 7.25402C25.803 3.85576 22.4801 1.38818 18.6659 0.429325C17.3555 0.100316 16.4777 -0.00221729 14.9577 3.61968e-05V0.00116404ZM14.8135 0.422565C15.5909 0.427072 16.5205 0.460874 16.8653 0.510451C18.64 0.763969 20.3009 1.29128 21.759 2.0631C26.3517 4.49349 29.3388 9.17512 29.5597 14.2939L29.5867 14.9294L29.3062 14.6624C29.1518 14.5159 28.9287 14.3041 28.8104 14.1936C28.4419 13.8489 28.0611 12.9396 27.8436 11.8872L27.7501 11.4354L27.767 12.4089C27.8289 15.9773 26.9996 19.6178 25.3726 22.9203C24.9173 23.8442 24.4914 24.5338 24.1376 24.9191C23.697 25.398 22.5319 26.2149 21.6339 26.6723C20.2029 27.4025 18.7054 27.7743 16.6512 27.9106C16.0439 27.9512 13.8782 27.9726 13.8399 27.9388C13.8298 27.9298 13.5875 27.9106 13.3013 27.8948C11.592 27.8036 9.87814 27.3844 8.6015 26.7478C7.63133 26.2622 6.31413 25.3394 5.91299 24.8628C5.78792 24.714 5.57157 24.4177 5.43185 24.2059C5.09156 23.6865 4.35465 22.1845 4.0076 21.3034C2.87856 18.4358 2.34559 15.7418 2.33771 12.8506C2.33545 11.8511 2.32869 11.761 2.28137 11.992C2.09996 12.881 1.78558 13.4286 1.24585 13.7925C0.919085 14.0134 0.743306 14.1925 0.548372 14.499L0.426678 14.6905V14.4145C0.426678 14.2624 0.455975 13.868 0.490905 13.539C0.796264 10.659 1.85319 8.09569 3.67858 5.80615C4.1214 5.25066 5.31805 4.05969 5.89158 3.60449C7.82514 2.06874 10.1114 1.02875 12.4348 0.626506C12.9114 0.544253 13.0376 0.527353 13.7363 0.450734C13.9346 0.429326 14.347 0.42144 14.8135 0.423693V0.422565ZM15.1256 2.52845C14.4168 2.52394 13.7137 2.54085 13.3498 2.58254C10.8325 2.87098 8.56206 3.61013 6.4268 4.83828C5.61777 5.30362 5.2403 5.58531 4.75916 6.08558C4.06394 6.80783 3.70112 7.42979 3.32364 8.5554C2.67011 10.5013 2.53377 12.739 2.89434 15.6156C3.18618 17.9434 3.94112 20.4764 4.971 22.5868C5.26284 23.1839 5.34622 23.318 5.5682 23.5355C5.71017 23.6752 5.92651 23.8397 6.04933 23.9005C6.30399 24.0279 6.5192 24.0436 6.60258 23.9422C6.68146 23.8476 6.7085 23.051 6.64314 22.7242C6.6161 22.5845 6.50681 22.1856 6.40089 21.8386C5.54003 19.0161 4.86057 15.4466 4.67127 12.7458C4.60705 11.8263 4.61719 10.0844 4.69155 9.38243C4.83127 8.0664 5.10846 7.05796 5.4803 6.51825C5.63467 6.29403 6.0313 5.97178 6.44821 5.73178C7.84768 4.92729 10.3525 4.35603 13.2213 4.18815C14.0867 4.13744 16.6648 4.15321 17.3791 4.21406C20.648 4.49011 22.9657 5.1256 24.2221 6.08896C24.621 6.39431 24.8182 6.68952 25.021 7.28444C25.3714 8.30865 25.5168 9.44779 25.5134 11.139C25.5078 14.0719 24.8621 18.0257 23.8075 21.5918C23.4773 22.7084 23.4446 22.8617 23.4446 23.318C23.4446 23.8397 23.51 24.0132 23.7117 24.0132C23.9134 24.0132 24.2751 23.8205 24.5387 23.5636C24.7292 23.3777 24.8261 23.22 25.1089 22.6375C26.2131 20.3614 26.9501 17.8544 27.2351 15.4026C27.3692 14.2545 27.3816 13.9886 27.3692 12.597C27.3591 11.423 27.3422 11.0883 27.2689 10.6252C27.0098 8.98695 26.5872 7.76105 25.9574 6.81797C25.679 6.40107 25.1123 5.80277 24.7089 5.49855C24.0182 4.97799 22.4835 4.16674 21.3364 3.71491C19.8829 3.14365 18.5307 2.80338 16.9296 2.60845C16.5476 2.56225 15.8343 2.53521 15.1267 2.5307L15.1256 2.52845ZM15.1075 4.8011C13.0782 4.8011 12.4517 4.83602 11.0782 5.03658C8.8077 5.36785 7.05668 5.9684 6.25666 6.6929C5.7282 7.17064 5.40819 8.1971 5.26735 9.87032C5.20425 10.6151 5.23805 12.5475 5.33045 13.4951C5.63355 16.5981 6.43357 20.2657 7.40035 22.9822C7.77782 24.0448 7.87923 24.1912 8.526 24.6171C9.75307 25.4239 11.3238 25.8644 13.5436 26.0222C14.2647 26.0729 15.787 26.0752 16.5014 26.0256C18.8147 25.8645 20.3099 25.4566 21.5753 24.6397C22.1545 24.2656 22.3336 24.0583 22.5409 23.5231C23.5629 20.8797 24.4035 17.1953 24.8047 13.6021C24.8621 13.0906 24.879 12.5599 24.8802 11.2889C24.8813 9.77229 24.8734 9.59088 24.7832 9.03089C24.6007 7.90077 24.3168 7.10528 23.9708 6.76613C23.0807 5.88953 20.8891 5.21236 17.9245 4.89799C17.1482 4.81574 16.791 4.80335 15.1075 4.80222V4.8011ZM14.4089 10.223H18.0924C19.2902 12.259 19.724 15.1829 19.5843 20.3569H18.1048C18.0958 19.1896 18.0608 16.9057 17.9177 16.1666H16.0901L16.0732 20.3569H14.5487L14.4089 10.223ZM7.39133 10.223H11.0218L11.0308 11.5469H9.28433L9.27982 14.8449H10.6173V16.1553H9.27982L9.31475 20.3581H7.71922L7.39133 10.2241V10.223ZM11.6517 10.223H13.5346L13.5008 20.3569H11.8534L11.6517 10.223ZM19.3736 10.223H23.8503L23.8604 11.4996H22.5702L22.2322 20.3569H20.6389L20.6761 11.5007H19.3747V10.223H19.3736ZM16.036 11.4714L16.018 14.9136H17.8501C17.6406 13.2517 17.3724 12.2376 16.9555 11.4714H16.036ZM8.83136 25.8543C8.6939 25.8543 8.65559 25.8701 8.65559 25.9276C8.65559 26.0515 9.21109 26.5506 9.53898 26.7219C10.2207 27.0768 11.7204 27.4025 13.2416 27.5241C13.9796 27.5839 16.862 27.5444 17.5065 27.4656C19.0276 27.2808 20.2277 26.9596 20.8125 26.5788C21.1302 26.3715 21.4288 26.0628 21.4288 25.9399C21.4288 25.8678 21.4006 25.8532 21.262 25.8532C21.0536 25.8532 20.4271 25.9805 19.6969 26.1732C19.0006 26.3557 18.6197 26.4267 17.7566 26.536C15.2337 26.8537 12.4697 26.7118 10.3491 26.1529C9.71138 25.985 9.04433 25.8532 8.83136 25.8532V25.8543Z" fill="black"/>
</svg>
