<svg width="27" height="20" viewBox="0 0 27 20" fill="none" xmlns="http://www.w3.org/2000/svg">
<path d="M26.3341 13.5126C24.2829 8.66849 20.8965 4.5031 16.5678 1.50037C16.5678 1.50037 14.4256 0.0193553 13.5027 0H13.4973C12.5751 0.0200227 10.4329 1.50037 10.4329 1.50037C6.10351 4.50244 2.71713 8.66782 0.665229 13.5126C0.665229 13.5126 0 15.0891 0 15.88C0 15.9708 0.0174004 16.0609 0.0501933 16.1463C0.0843248 16.2311 0.133849 16.3085 0.196758 16.3746C0.741523 16.9499 2.3109 17.6413 2.3109 17.6413C5.8338 19.1971 9.64448 20 13.4973 20H13.5027C17.3555 20 21.1662 19.1971 24.6898 17.6413C24.6898 17.6413 26.2591 16.9505 26.8039 16.3746C26.8668 16.3085 26.917 16.2311 26.9505 16.1463C26.9833 16.0615 27 15.9714 27 15.88C27 15.0898 26.3348 13.5126 26.3348 13.5126M5.23349 17.8529C4.00409 17.4771 2.82153 16.9639 1.70858 16.3232C1.58611 16.2431 1.19862 16.0001 1.10024 15.7338C1.00922 15.4882 1.1163 15.0043 1.18858 14.7734C1.58879 13.3425 2.49026 11.6439 3.2706 10.3617C3.90973 9.3219 4.61846 8.32677 5.39143 7.3817L5.23349 17.8536V17.8529ZM9.16664 18.7993C8.22836 18.6498 7.29945 18.4489 6.38325 18.1986L6.52915 9.16772L9.16664 10.7849V18.7993ZM9.16664 9.3833L5.56611 7.16812C6.64292 5.83128 7.8489 4.60388 9.16664 3.50264V9.3833ZM16.6963 18.9541C15.6356 19.0763 14.5674 19.1323 13.5 19.1223C12.4319 19.133 11.3644 19.077 10.3037 18.9541V11.4884L13.4973 13.4419V13.4452L13.5 13.4439L13.5027 13.4452V13.4412L16.697 11.4877V18.9541H16.6963ZM16.6963 10.0961L13.5 12.0497L10.303 10.0961V5.29867L13.4967 7.25088V7.25355L13.4993 7.25222L13.502 7.25355V7.25088L16.6963 5.29867V10.0961ZM13.5 5.85997L9.40021 3.31376C9.40556 3.30975 9.41025 3.30508 9.41627 3.30107C12.1033 1.26477 13.0784 0.935727 13.4993 0.915704C13.9203 0.935727 14.8954 1.26477 17.5831 3.30107C17.5884 3.30508 17.5931 3.30975 17.5991 3.31376L13.5 5.85997ZM17.8334 18.7986V10.7849L20.4709 9.16772L20.6161 18.1986C19.6999 18.4496 18.771 18.6505 17.8327 18.7993M17.8327 9.38263V3.5033C19.1504 4.60455 20.3564 5.83194 21.4332 7.16879L17.8327 9.3833V9.38263ZM25.8991 15.7332C25.8007 15.9995 25.4139 16.2431 25.2908 16.3225C24.1771 16.9639 22.9946 17.4771 21.7652 17.8522L21.6086 7.38103C22.3815 8.3261 23.0903 9.3219 23.7294 10.3611C24.5097 11.6425 25.4105 13.3411 25.8114 14.7727C25.883 15.0037 25.9894 15.4882 25.8998 15.7332" fill="black"/>
</svg>
