<svg width="32" height="32" viewBox="0 0 32 32" fill="none" xmlns="http://www.w3.org/2000/svg">
<path d="M15.9004 31.6621L20.3527 6.64351C24.5912 6.64351 25.9334 7.10758 26.1217 9.00115C26.1217 9.00115 28.968 7.93565 30.3984 5.79091C24.8051 3.19486 19.1744 3.08203 19.1744 3.08203L15.8886 7.08207H15.9014L12.6283 3.08203C12.6283 3.08203 6.99768 3.19486 1.4043 5.79091C2.83379 7.94742 5.68101 9.00115 5.68101 9.00115C5.86939 7.10758 7.21058 6.64351 11.4245 6.63075L15.9014 31.6621" fill="black"/>
<path d="M15.9011 1.93085C20.428 1.89357 25.6073 2.63333 30.9122 4.94093C31.6275 3.66155 31.8031 3.0974 31.8031 3.0974C26.0096 0.802558 20.5791 0.0255092 15.9011 0C11.224 0.0255092 5.79353 0.802558 0 3.0974C0 3.0974 0.262941 3.78713 0.89086 4.94093C6.19579 2.62058 11.3751 1.89357 15.902 1.93085" fill="black"/>
</svg>
