<svg width="15" height="28" viewBox="0 0 15 28" fill="none" xmlns="http://www.w3.org/2000/svg">
<path d="M14.7896 0.12945C14.6213 -0.00814865 14.3922 -0.0374249 14.1938 0.04894L7.49617 3.11855L0.790456 0.0482081C0.59211 -0.0374249 0.360827 -0.00814865 0.196881 0.12945C0.0329337 0.269244 -0.0344016 0.490279 0.0168318 0.701068L6.95456 27.1902C7.0197 27.4376 7.24001 27.6088 7.49544 27.6088C7.75088 27.6088 7.97118 27.4368 8.03632 27.1902L14.9697 0.701068C15.0216 0.491011 14.9514 0.269975 14.7896 0.12945ZM7.49617 27.0489L0.556978 0.557614L7.49617 3.73042L14.4273 0.557614L7.49617 27.0489Z" fill="black"/>
<path d="M7.26466 4.23859L1.39844 1.55469L7.49521 24.8373L13.5861 1.55762L7.72649 4.23859C7.58231 4.30665 7.41177 4.30665 7.26466 4.23859ZM7.95192 7.29722L11.3223 7.75246L7.95192 8.21283L7.49667 10.3332L7.03631 8.21283L3.66808 7.75246L7.03631 7.29722L7.49667 5.10663L7.95192 7.29722Z" fill="black"/>
</svg>
