<svg width="24" height="24" viewBox="0 0 24 24" fill="none" xmlns="http://www.w3.org/2000/svg">
<path d="M11.8827 0C5.33245 0 0 5.33245 0 11.8891C0 18.4457 5.33245 23.7781 11.8827 23.7781C18.4393 23.7781 23.7653 18.4457 23.7653 11.8891C23.7717 5.33245 18.4393 0 11.8827 0ZM10.9469 22.6437V19.5416C11.2546 19.5801 11.5622 19.5993 11.8827 19.5993C12.1903 19.5993 12.4979 19.5801 12.7992 19.5481V22.6501C12.4979 22.6757 12.1903 22.6886 11.8827 22.6886C11.5686 22.6822 11.2546 22.6693 10.9469 22.6437ZM14.1643 11.5942V5.71701L12.8056 5.32604V11.5878H10.9533V5.33245L9.59457 5.72342V11.6007H4.40312C4.51849 7.56286 7.82563 4.32621 11.8827 4.32621C15.9397 4.32621 19.2468 7.56926 19.3622 11.5942H14.1643ZM19.3622 11.9083C19.3173 15.1962 17.1446 17.9778 14.1579 18.9392V11.9083H19.3622ZM9.58816 11.9083V18.9328C6.61429 17.9714 4.44798 15.1898 4.40312 11.9083H9.58816ZM10.9469 11.9083H12.7992V19.234C12.4979 19.2725 12.1903 19.2917 11.8827 19.2917C11.5686 19.2917 11.2546 19.2725 10.9469 19.234V11.9083ZM14.1643 22.4386V19.2532C17.3497 18.279 19.6762 15.3052 19.6762 11.8057C19.6762 7.51158 16.1832 4.01216 11.8827 4.01216C7.58849 4.01216 4.08907 7.50517 4.08907 11.8057C4.08907 15.3052 6.40279 18.2662 9.58175 19.2532V22.4322C4.7364 21.3811 1.08956 17.0485 1.08956 11.8891C1.08956 5.93492 5.93492 1.08956 11.8827 1.08956C17.8368 1.08956 22.6822 5.93492 22.6822 11.8891C22.6822 17.0613 19.0289 21.3939 14.1643 22.4386ZM2.54445 7.07576L3.07642 7.26803L2.45472 8.97929L2.89696 9.13952L3.4866 7.5244L4.01857 7.72309L3.43533 9.3382L4.21725 9.62021L3.96729 10.3252L1.66639 9.48562L2.54445 7.07576ZM6.51739 5.84449L5.98203 6.3603L4.2834 4.59725L4.81876 4.08144L6.51739 5.84449ZM8.79983 3.55711C8.8447 3.67888 8.90238 3.74938 8.97288 3.7622C8.99852 3.76861 9.03697 3.7622 9.08184 3.75579C9.1267 3.74938 9.18438 3.73015 9.24848 3.71093L9.49843 3.62761L9.6843 3.56351C9.8253 3.51224 9.87658 3.42892 9.83171 3.30715C9.79326 3.2046 9.72916 3.16614 9.62662 3.17896L9.47921 3.21742L9.3382 3.25587L8.92802 3.37124L8.64601 3.44174C8.60115 3.45456 8.53705 3.46738 8.46014 3.4802C8.24864 3.51865 8.09482 3.46097 7.99227 3.30715C7.93459 3.22383 7.88332 3.12769 7.85127 3.01873C7.78077 2.82646 7.75513 2.67264 7.75513 2.5765C7.76154 2.40986 7.83204 2.28167 7.95382 2.18554C8.07559 2.0894 8.3576 1.96762 8.78701 1.82021C8.86392 1.79458 8.92801 1.77535 8.99852 1.75612C9.15875 1.71126 9.2677 1.67921 9.38307 1.66639C9.49843 1.64716 9.60098 1.64716 9.6843 1.65998C9.78044 1.6728 9.86376 1.71126 9.94067 1.78176C10.0112 1.85226 10.0753 1.9484 10.1137 2.07017L10.165 2.22399L9.45998 2.46754L9.42152 2.38422C9.38307 2.31372 9.32539 2.27527 9.24848 2.27527C9.24207 2.27527 9.22925 2.27527 9.1972 2.28167C9.14593 2.29449 9.09465 2.30731 9.03697 2.32013C9.03697 2.32013 8.94083 2.34577 8.89597 2.36499C8.8511 2.37781 8.71651 2.4355 8.71651 2.4355C8.66524 2.46113 8.62037 2.47395 8.58833 2.506C8.51783 2.55086 8.4986 2.62136 8.52424 2.71109C8.55628 2.80082 8.62037 2.84568 8.72933 2.83287C8.74856 2.83287 8.77419 2.82646 8.80624 2.82005C8.83829 2.81364 8.86392 2.80723 8.88956 2.80082L9.07543 2.74955L9.26129 2.69186L9.64585 2.58291C9.69712 2.56368 9.74839 2.55086 9.79967 2.54445C9.85094 2.53804 9.90862 2.53163 9.9599 2.53163C10.2163 2.53163 10.4085 2.71109 10.5303 3.07642C10.6713 3.4802 10.5624 3.76861 10.2099 3.94807C10.1906 3.96089 10.1586 3.9737 10.1137 3.99293C10.0753 4.01216 10.0368 4.02498 10.0112 4.03139C9.94067 4.05702 9.85094 4.08907 9.74198 4.12752C9.63303 4.16598 9.56893 4.19162 9.54971 4.19803C9.52407 4.20443 9.42152 4.24289 9.22925 4.30057C9.03697 4.36466 9.35102 4.2493 9.24848 4.28775C9.20361 4.30057 9.15875 4.3198 9.11388 4.32621C9.06902 4.33903 9.02415 4.35185 8.97929 4.35826C8.88315 4.3903 8.78701 4.40953 8.70369 4.40953C8.61396 4.40953 8.53705 4.3903 8.46014 4.36466C8.39605 4.33903 8.33837 4.29416 8.28069 4.22366C8.223 4.15316 8.17814 4.06343 8.13968 3.96089L8.07559 3.80066L8.79983 3.55711ZM13.9592 1.62794L13.7349 2.51241L13.9272 2.55727L14.9719 1.8779L15.8179 2.0894L14.3694 2.98669L15.3949 4.50567L14.5361 4.28775L13.7606 3.16614L13.5811 3.12769L13.3632 3.99934L12.6454 3.81988L13.235 1.44848L13.9592 1.62794ZM20.9517 8.03073L20.4133 8.23582L20.6248 8.7806C20.6312 8.79983 20.644 8.83829 20.6633 8.88315C20.6825 8.93442 20.6953 8.97288 20.7081 8.99852C20.7209 9.03056 20.7338 9.0562 20.7466 9.07543C20.7594 9.09465 20.7722 9.11388 20.7914 9.13311C20.8491 9.19079 20.9453 9.19079 21.0799 9.13952C21.1696 9.10106 21.2337 9.0562 21.2593 8.9857C21.2785 8.93442 21.2721 8.85751 21.2273 8.75497L21.1504 8.54987L20.9517 8.03073ZM21.8874 8.69087C21.9195 8.76779 21.9387 8.81906 21.9451 8.8511C21.9515 8.88315 21.9643 8.92161 21.9836 8.97929C22.0412 9.20361 22.022 9.37666 21.9195 9.50484C21.881 9.55612 21.8361 9.59457 21.7849 9.63303C21.7336 9.66507 21.6823 9.69712 21.631 9.72276C21.5798 9.74839 21.5221 9.77403 21.458 9.79967C21.2721 9.87017 21.1183 9.90221 21.0029 9.88299C20.8876 9.87017 20.7658 9.77403 20.6376 9.60739C20.6569 9.81889 20.6376 9.96631 20.5799 10.0368C20.5223 10.1137 20.3941 10.1906 20.1954 10.2675L19.9134 10.3765L19.6442 9.6843L19.8557 9.60098C19.9967 9.5433 20.0864 9.49202 20.1185 9.44075C20.1505 9.38307 20.1441 9.28693 20.0864 9.13952L19.8301 8.46655L19.2596 8.68447L18.9905 7.99227L21.2785 7.11421L21.8874 8.69087ZM18.0932 3.35201L19.9518 5.11454L19.5545 5.53114L18.2406 4.28135L18.0099 4.52489L19.2596 5.7106L18.8879 6.09515L17.6445 4.90945L17.3369 5.22991L18.67 6.49252L18.279 6.90912L16.4076 5.12736L18.0932 3.35201Z" fill="black"/>
</svg>
