<svg width="25" height="39" viewBox="0 0 25 39" fill="none" xmlns="http://www.w3.org/2000/svg">
<path d="M21.4796 36.1796V36.6313H20.0391V36.1796H20.3509V34.0299H20.0391V33.6094H21.1758V36.1796H21.4796Z" fill="black"/>
<path d="M21.1611 32.4336H20.3281V32.9869H21.1611V32.4336Z" fill="black"/>
<path d="M19.908 32.4336V32.9869H4.05014V34.2715H4.48672V33.8973H4.98467V35.1668H4.48672V34.7704H4.05014V36.1798H4.79857V36.6395H2.60156V36.1798H3.18602V32.9869H2.7263V32.4336H19.908Z" fill="black"/>
<path d="M19.6508 33.9663V35.3374H18.8722V34.1926C18.8722 34.1873 18.8695 34.1822 18.8642 34.1775H18.8481C18.833 34.1856 18.8249 34.2007 18.8169 34.2087C18.7938 34.2319 18.7706 34.263 18.7465 34.2862C18.7153 34.3174 18.6922 34.3566 18.661 34.3878C18.6147 34.4421 18.5755 34.4894 18.5282 34.5437C18.4507 34.6373 18.3723 34.7389 18.3099 34.8395C18.2707 34.8938 18.2395 34.9561 18.2083 35.0185V36.1864H18.489V36.6461H17.1027V36.1864H17.3834V34.0287H17.0957V33.6162H18.2093V34.3325C18.2405 34.2781 18.2797 34.2309 18.3109 34.1846C18.3733 34.0991 18.4356 34.0055 18.5061 33.9271C18.5684 33.8566 18.6227 33.7872 18.6932 33.7249C18.7555 33.6705 18.8259 33.6233 18.9034 33.5921C18.9577 33.5689 19.012 33.5609 19.0744 33.5528C19.168 33.5448 19.2615 33.5609 19.347 33.5921C19.3933 33.6072 19.4325 33.6313 19.4718 33.6625C19.511 33.6937 19.5422 33.7249 19.5653 33.7641C19.5885 33.8033 19.6116 33.8496 19.6277 33.8969C19.6357 33.92 19.6428 33.9432 19.6508 33.9673V33.9663Z" fill="black"/>
<path d="M16.7924 36.1864V36.6381H14.697C14.3851 36.6149 14.1517 36.4047 14.1055 36.0928V35.4933C14.1055 35.454 14.1135 35.4229 14.1206 35.3846C14.1356 35.3303 14.1517 35.283 14.1829 35.2368C14.2141 35.1824 14.2533 35.1352 14.2996 35.0969C14.3459 35.0577 14.4012 35.0265 14.4555 35.0034C14.526 34.9722 14.6034 34.9491 14.6819 34.933C14.697 34.9249 14.7211 34.9249 14.7362 34.9249H15.6939V34.1383C15.6939 34.1071 15.6858 34.0759 15.6707 34.0527C15.6627 34.0447 15.6627 34.0377 15.6556 34.0296C15.6406 34.0065 15.6245 33.9904 15.6013 33.9833C15.5701 33.9682 15.5309 33.9602 15.4927 33.9602C15.4152 33.9522 15.3368 33.9522 15.2513 33.9602C15.1889 33.9602 15.1265 33.9602 15.0641 33.9914C15.033 34.0065 14.9937 34.0306 14.9786 34.0618C14.9625 34.0849 14.9555 34.1161 14.9475 34.1785V34.5527H14.2071V34.2409C14.2071 34.1946 14.2151 34.1473 14.2222 34.1081C14.2302 34.0769 14.2302 34.0457 14.2372 34.0226C14.2453 33.9763 14.2523 33.9371 14.2765 33.8978C14.2996 33.8435 14.3469 33.7962 14.3932 33.758C14.4394 33.7188 14.4948 33.6876 14.5491 33.6645C14.6738 33.6101 14.8137 33.587 14.9464 33.5789C15.1024 33.5639 15.2583 33.5639 15.4142 33.5639C15.5701 33.5639 15.7261 33.5558 15.882 33.5789C15.9675 33.587 16.061 33.6101 16.1466 33.6413C16.2009 33.6564 16.2482 33.6805 16.2944 33.7037C16.3337 33.7268 16.3648 33.75 16.388 33.7811C16.4192 33.8204 16.4503 33.8586 16.4654 33.9059C16.4805 33.9371 16.4886 33.9763 16.4966 34.0075C16.5047 34.0306 16.5047 34.0538 16.5047 34.0779V36.2045C16.5982 36.1884 16.6918 36.1884 16.7924 36.1884V36.1864ZM15.6788 35.9681V35.2589H15.1255C14.9857 35.2589 14.876 35.3675 14.876 35.5084V35.9681C14.876 36.1079 14.9847 36.2176 15.1255 36.2176H15.4293C15.5691 36.2176 15.6788 36.1009 15.6788 35.9681Z" fill="black"/>
<path d="M13.7377 33.9663V35.3374H12.9591V34.1926C12.9591 34.1873 12.9564 34.1822 12.9511 34.1775H12.936C12.9279 34.1856 12.9128 34.2007 12.9048 34.2087C12.8816 34.2319 12.8585 34.263 12.8344 34.2862C12.8032 34.3174 12.78 34.3566 12.7489 34.3878C12.7026 34.4421 12.6634 34.4894 12.6161 34.5437C12.5386 34.6373 12.4602 34.7389 12.3978 34.8395C12.3585 34.8938 12.3274 34.9561 12.2962 35.0185V36.1864H12.5768V36.6461H11.1906V36.1864H11.4713V34.0287H11.1836V33.6162H12.2972V34.3325C12.3284 34.2781 12.3676 34.2309 12.3988 34.1846C12.4612 34.0991 12.5235 34.0055 12.5939 33.9271C12.6563 33.8566 12.7106 33.7872 12.7811 33.7249C12.8434 33.6705 12.9138 33.6233 12.9913 33.5921C13.0456 33.5689 13.0999 33.5609 13.1623 33.5528C13.2559 33.5448 13.3494 33.5609 13.4349 33.5921C13.4812 33.6072 13.5204 33.6313 13.5597 33.6625C13.5989 33.6937 13.6301 33.7249 13.6532 33.7641C13.6844 33.8033 13.6995 33.8496 13.7156 33.8969C13.7236 33.92 13.7317 33.9432 13.7387 33.9673L13.7377 33.9663Z" fill="black"/>
<path d="M12.1182 8.04068C12.1262 8.07992 12.1413 8.11814 12.1182 8.14228C12.1101 8.15033 12.095 8.15737 12.0789 8.16542C12.0397 8.18051 11.9934 8.16542 11.9542 8.15737C11.8918 8.13424 11.8375 8.11814 11.7902 8.08696C11.7671 8.07187 11.744 8.05577 11.7128 8.04773C11.6585 8.01654 11.6041 7.97731 11.573 7.92299C11.5579 7.89985 11.5498 7.86866 11.5579 7.84553C11.5659 7.83044 11.581 7.81434 11.5971 7.79925C11.6202 7.77612 11.6434 7.75298 11.6595 7.72884C11.6826 7.69765 11.6906 7.65842 11.6987 7.62019C11.7067 7.57392 11.7138 7.52664 11.7138 7.48741C11.7138 7.47936 11.7138 7.46427 11.7289 7.46427C11.7369 7.45622 11.752 7.46427 11.752 7.47232C11.7574 7.47768 11.7624 7.48271 11.7671 7.48741C11.7902 7.51859 11.7983 7.54978 11.8214 7.58096C11.8446 7.61215 11.8677 7.64333 11.8989 7.68256C11.9452 7.73688 11.9844 7.79925 12.0236 7.85358C12.0548 7.89985 12.094 7.96222 12.1172 8.04068H12.1182Z" fill="black"/>
<path d="M10.8744 33.9663V35.3374H10.0958V34.1926C10.0958 34.1873 10.0931 34.1822 10.0878 34.1775H10.0727C10.0646 34.1856 10.0495 34.2007 10.0415 34.2087C10.0184 34.2319 9.99523 34.263 9.97109 34.2862C9.9399 34.3174 9.91676 34.3566 9.88558 34.3878C9.83931 34.4421 9.80007 34.4894 9.75279 34.5437C9.67533 34.6373 9.59687 34.7389 9.5345 34.8395C9.49527 34.8938 9.46408 34.9561 9.4329 35.0185V36.1864H9.71356V36.6461H8.32735V36.1864H8.60802V34.0287H8.32031V33.6162H9.4339V34.3325C9.46509 34.2781 9.50432 34.2309 9.53551 34.1846C9.59788 34.0991 9.66025 34.0055 9.73066 33.9271C9.79303 33.8566 9.84735 33.7872 9.91777 33.7249C9.98014 33.6705 10.0506 33.6233 10.128 33.5921C10.1823 33.5689 10.2367 33.5609 10.299 33.5528C10.3926 33.5448 10.4861 33.5609 10.5716 33.5921C10.6179 33.6072 10.6571 33.6313 10.6964 33.6625C10.7356 33.6937 10.7668 33.7249 10.7899 33.7641C10.8211 33.8033 10.8362 33.8496 10.8523 33.8969C10.8603 33.92 10.8674 33.9432 10.8754 33.9673L10.8744 33.9663Z" fill="black"/>
<path d="M24.3009 1.36307V37.5885C24.3009 38.344 23.6933 38.9516 22.9378 38.9516H1.36307C0.615645 38.9516 0 38.344 0 37.5885V1.36307C0 0.615645 0.607597 0 1.36307 0H22.9378C23.6933 0 24.3009 0.607597 24.3009 1.36307ZM23.0937 0.530138H1.21519C0.840979 0.530138 0.53718 0.833937 0.53718 1.20815V37.7374C0.53718 38.1116 0.840979 38.4154 1.21519 38.4154H23.0937C23.4679 38.4154 23.7717 38.1116 23.7717 37.7374V1.20715C23.7717 0.832931 23.4679 0.529132 23.0937 0.529132V0.530138Z" fill="black"/>
<path d="M7.89766 34.0326V35.3414H6.27706V36.0194C6.27706 36.1129 6.33943 36.1834 6.43298 36.1985C6.45612 36.1985 6.47926 36.2065 6.5034 36.2065C6.62814 36.2146 6.72974 36.2146 6.83838 36.2065C6.88466 36.2065 6.92389 36.1985 6.97117 36.1914C7.00236 36.1834 7.03354 36.1683 7.05668 36.1451C7.07981 36.122 7.09591 36.0908 7.10295 36.0596C7.111 36.0365 7.111 36.0134 7.111 35.9973V35.6472H7.88257V36.2236C7.88257 36.2699 7.87452 36.3172 7.85138 36.3634C7.82824 36.4097 7.80511 36.465 7.76587 36.5033C7.71155 36.5576 7.64114 36.5888 7.57072 36.6119C7.44598 36.6582 7.32929 36.6743 7.1965 36.6823C7.0094 36.6974 6.81525 36.6974 6.61204 36.6974C6.43298 36.6974 6.25392 36.6894 6.08191 36.6662C5.93403 36.6431 5.7942 36.6119 5.67651 36.5264C5.60609 36.4801 5.54372 36.4178 5.51254 36.3473C5.4894 36.3081 5.48135 36.2699 5.46626 36.2306C5.45821 36.1995 5.45117 36.1683 5.45117 36.1371V34.1584C5.45117 34.1191 5.45922 34.088 5.46626 34.0497C5.48236 33.9874 5.50549 33.925 5.54372 33.8626C5.58295 33.8003 5.63727 33.7459 5.69964 33.7067C5.80124 33.6363 5.92598 33.6051 6.04972 33.59C6.27606 33.5508 6.49334 33.5508 6.71968 33.5508C6.85247 33.5508 6.98425 33.5508 7.10899 33.5588C7.24177 33.5669 7.37355 33.5981 7.49829 33.6363C7.55261 33.6594 7.61498 33.6826 7.66226 33.7137C7.70854 33.7449 7.76386 33.7842 7.79505 33.8385C7.82623 33.8777 7.84132 33.924 7.85742 33.9713C7.88055 34.0025 7.8886 34.0175 7.89665 34.0336L7.89766 34.0326ZM7.07177 35.0215V34.1493C7.07177 34.0477 6.99431 33.9703 6.89271 33.9703H6.46417C6.36257 33.9703 6.28511 34.0477 6.28511 34.1493V35.0215H7.07177Z" fill="black"/>
<path d="M5.65404 16.7061C5.63895 16.7292 5.6148 16.7524 5.58362 16.7765C5.56853 16.7846 5.55243 16.7916 5.54439 16.7916C5.5293 16.7916 5.5293 16.7765 5.5293 16.7604C5.5293 16.7373 5.53734 16.7142 5.54439 16.6981C5.55243 16.6749 5.55948 16.6518 5.57557 16.6206C5.58362 16.6055 5.59871 16.5814 5.60676 16.5663C5.62184 16.5431 5.63794 16.527 5.66912 16.512C5.68421 16.5039 5.70031 16.5039 5.7154 16.5039C5.73854 16.519 5.73049 16.5663 5.7154 16.6055C5.69226 16.6447 5.66912 16.6759 5.65303 16.7071L5.65404 16.7061Z" fill="white"/>
<path d="M12.018 9.35398C11.9717 9.31474 11.9164 9.28356 11.854 9.27652C11.7917 9.26847 11.7293 9.28456 11.6669 9.31575C11.6277 9.33889 11.5895 9.36202 11.5653 9.39321C11.5502 9.41634 11.5341 9.43948 11.5261 9.46362C11.5181 9.48676 11.5181 9.51795 11.5341 9.53404C11.5502 9.55014 11.5804 9.54913 11.6116 9.54209C11.6428 9.53404 11.6659 9.527 11.6891 9.51895C11.7202 9.5109 11.7514 9.5109 11.7826 9.51895C11.8289 9.53404 11.8681 9.57327 11.8993 9.61251C11.9224 9.63564 11.9456 9.65878 11.9697 9.68292C11.9929 9.70606 12.016 9.7292 12.0472 9.7292C12.0703 9.7292 12.0935 9.72115 12.1015 9.70606C12.1246 9.69097 12.1327 9.65979 12.1327 9.6286C12.1407 9.58937 12.1327 9.55114 12.1246 9.51191C12.1015 9.46564 12.0703 9.40327 12.016 9.35599L12.018 9.35398ZM12.1347 10.546C12.1659 10.5148 12.189 10.4837 12.2122 10.4444C12.2202 10.4293 12.2272 10.4213 12.2353 10.4052C12.2433 10.3901 12.2504 10.366 12.2433 10.3589C12.2353 10.3438 12.2041 10.367 12.1729 10.3821C12.1417 10.4052 12.1267 10.4213 12.1025 10.4364C12.0794 10.4595 12.0562 10.4827 12.0251 10.5068C11.9788 10.546 11.9315 10.5843 11.8772 10.6235C11.8229 10.6698 11.7605 10.709 11.6901 10.7321C11.6357 10.7553 11.5814 10.7784 11.5261 10.8026C11.511 10.8106 11.4949 10.8176 11.4718 10.8257C11.4637 10.8257 11.4567 10.8257 11.4567 10.8337C11.4416 10.8488 11.4416 10.873 11.4486 10.8881C11.4567 10.8961 11.4637 10.8961 11.4798 10.8961C11.503 10.8961 11.5191 10.8961 11.5422 10.9042C11.5653 10.9042 11.5814 10.9122 11.6046 10.9192C11.6669 10.9343 11.7293 10.9273 11.7836 10.9042C11.8299 10.8891 11.8691 10.8579 11.9003 10.8267C11.9395 10.7875 11.9707 10.7412 11.9939 10.6869C12.009 10.6557 12.0251 10.6325 12.0482 10.6094C12.0794 10.5863 12.1106 10.5702 12.1337 10.547L12.1347 10.546ZM12.1971 9.33889C12.2122 9.33889 12.2283 9.33889 12.2283 9.33084V9.3077C12.2283 9.28456 12.2202 9.26847 12.2202 9.25338C12.2051 9.2222 12.189 9.18296 12.1659 9.15983C12.1428 9.13669 12.1196 9.11355 12.0884 9.09746C12.0572 9.08941 12.0341 9.08237 12.0029 9.08237C11.9798 9.08237 11.9566 9.07432 11.9325 9.08237C11.9094 9.08237 11.8782 9.09042 11.8621 9.11355C11.854 9.12864 11.847 9.15278 11.854 9.15983C11.8621 9.17492 11.8772 9.17492 11.9003 9.17492H11.9778C12.0009 9.17492 12.024 9.19001 12.0482 9.19805C12.0713 9.21314 12.1025 9.22119 12.1186 9.24433C12.1337 9.25942 12.1417 9.27551 12.1498 9.2906C12.1498 9.29865 12.1498 9.30569 12.1578 9.31374C12.1659 9.33687 12.181 9.33687 12.1971 9.33687V9.33889ZM12.3138 29.1844C12.2906 29.1844 12.2675 29.1924 12.2433 29.2075C12.2202 29.2226 12.2041 29.2387 12.181 29.2538C12.1729 29.2689 12.1578 29.2769 12.1498 29.293C12.1347 29.3162 12.1267 29.3322 12.1267 29.3634C12.1267 29.3785 12.1347 29.3946 12.1417 29.4027C12.1498 29.4107 12.1649 29.4027 12.181 29.3946C12.2122 29.3795 12.2353 29.3715 12.2584 29.3554C12.2816 29.3403 12.3047 29.3242 12.3289 29.3011C12.3439 29.2779 12.36 29.2387 12.352 29.2156C12.352 29.1924 12.3289 29.1844 12.3128 29.1844H12.3138ZM12.5944 25.8818C12.5864 25.8667 12.5632 25.8667 12.5481 25.8667C12.525 25.8667 12.5019 25.8667 12.4858 25.8818C12.4707 25.8899 12.4546 25.905 12.4395 25.913C12.4315 25.9211 12.4164 25.9361 12.4083 25.9522C12.3932 25.9754 12.3771 26.0066 12.3932 26.0146C12.4013 26.0227 12.4164 26.0227 12.4325 26.0227C12.4486 26.0227 12.4636 26.0227 12.4787 26.0146C12.5019 26.0066 12.525 25.9995 12.5492 25.9915C12.5723 25.9764 12.6035 25.9683 12.6115 25.9452C12.6115 25.9221 12.6115 25.8909 12.5964 25.8828L12.5944 25.8818ZM12.696 10.6859C12.696 10.6778 12.688 10.6627 12.6809 10.6627C12.6739 10.6627 12.6578 10.6627 12.6578 10.6708C12.5562 10.8186 12.4164 10.9283 12.2454 10.9897C12.2373 10.9897 12.2303 11.0047 12.2303 11.0128C12.2303 11.0208 12.2383 11.0279 12.2534 11.0279H12.2685C12.346 11.0279 12.4164 10.9967 12.4948 10.9736C12.5411 10.9585 12.5803 10.9424 12.6115 10.9192C12.6427 10.8961 12.6578 10.8569 12.6739 10.8176C12.689 10.7784 12.697 10.7321 12.697 10.6849L12.696 10.6859ZM12.8359 10.9434C12.8278 10.9353 12.8208 10.9353 12.8127 10.9434C12.6176 11.052 12.4003 11.1305 12.182 11.1697C12.1739 11.1697 12.1669 11.1778 12.1669 11.1929C12.1669 11.2009 12.1749 11.216 12.182 11.216H12.1971C12.2826 11.2311 12.361 11.2311 12.4465 11.2311C12.517 11.2311 12.5864 11.223 12.6487 11.208C12.688 11.1999 12.7262 11.1848 12.7574 11.1536C12.7886 11.1224 12.8037 11.0832 12.8198 11.045C12.8278 11.0218 12.8429 10.9907 12.8509 10.9675C12.8509 10.9595 12.8429 10.9524 12.8359 10.9444V10.9434ZM13.0853 24.1375C13.0622 24.223 13.0622 24.3085 13.0702 24.4021C13.0783 24.4644 13.0783 24.5348 13.0934 24.5972C13.1014 24.6364 13.1095 24.6676 13.1246 24.6988C13.1326 24.722 13.1477 24.7531 13.1708 24.7692C13.1859 24.7773 13.202 24.7843 13.2101 24.7843C13.2181 24.7843 13.2252 24.7763 13.2332 24.7612C13.2413 24.7461 13.2413 24.73 13.2332 24.7149V24.6294C13.2332 24.5519 13.2332 24.4654 13.2252 24.388C13.2252 24.3256 13.2252 24.2632 13.2402 24.2009C13.2483 24.1465 13.2714 24.0993 13.2946 24.053C13.3097 24.0218 13.3338 23.9826 13.3489 23.9443C13.3569 23.9212 13.372 23.89 13.372 23.8588C13.372 23.8357 13.364 23.8126 13.3569 23.8045C13.3418 23.7894 13.3107 23.8045 13.2865 23.8196C13.2242 23.8508 13.193 23.8971 13.1618 23.9524C13.1306 24.0148 13.0994 24.0771 13.0843 24.1395L13.0853 24.1375ZM6.58887 21.3258C6.61201 21.3258 6.6281 21.3178 6.64319 21.3108C6.66633 21.2957 6.67438 21.2645 6.67438 21.2333C6.66633 21.1941 6.64319 21.1629 6.61201 21.1397C6.58082 21.1086 6.54964 21.0935 6.50336 21.0693C6.46413 21.0462 6.41786 21.0231 6.40176 21.0381C6.39372 21.0532 6.39372 21.0774 6.40176 21.0925C6.40981 21.1076 6.40981 21.1237 6.4249 21.1387C6.43999 21.1619 6.45609 21.1931 6.47117 21.2162C6.48626 21.2474 6.50236 21.2786 6.5255 21.3017C6.54059 21.3168 6.56473 21.3248 6.58786 21.3248L6.58887 21.3258ZM4.00357 18.4518C4.01161 18.4669 4.01161 18.475 4.01866 18.483C4.03374 18.4911 4.05789 18.4518 4.07298 18.4206C4.08807 18.3895 4.09611 18.3744 4.10416 18.3502C4.11221 18.3351 4.11221 18.319 4.11221 18.2959C4.11221 18.2728 4.12026 18.2496 4.11221 18.2255C4.11221 18.2024 4.10416 18.1863 4.08907 18.1631C4.08102 18.148 4.06594 18.14 4.04984 18.14C4.0267 18.14 4.01061 18.1631 3.99552 18.1863C3.96433 18.2325 3.95629 18.2718 3.95629 18.319C3.95629 18.3502 3.95629 18.3734 3.96433 18.4046C3.97942 18.4126 3.98747 18.4277 4.00357 18.4508V18.4518ZM13.5682 14.7207H13.5913C13.5994 14.7207 13.6145 14.7358 13.6225 14.7439C13.6306 14.7519 13.6376 14.7519 13.6456 14.7519C13.6607 14.76 13.6768 14.76 13.6849 14.767C13.701 14.7751 13.7161 14.7751 13.7392 14.7821C13.7543 14.7821 13.7704 14.7902 13.7784 14.7821C13.7865 14.7741 13.7865 14.759 13.7865 14.7509C13.7865 14.7117 13.7633 14.6966 13.7402 14.6735C13.7251 14.6584 13.709 14.6423 13.6939 14.6423C13.6708 14.6342 13.6477 14.6423 13.6235 14.6574C13.6155 14.6654 13.6084 14.6725 13.6004 14.6725C13.5923 14.6725 13.5772 14.6725 13.5692 14.6805C13.5611 14.6886 13.5611 14.7036 13.5611 14.7197C13.5611 14.7047 13.5611 14.7117 13.5692 14.7197L13.5682 14.7207ZM13.7312 27.9772C13.6607 28.0165 13.6225 28.0547 13.5833 28.0939C13.5129 28.1643 13.4354 28.2498 13.3569 28.3273C13.2714 28.4128 13.1859 28.4913 13.0994 28.5687C13.0451 28.615 12.9908 28.6703 12.9515 28.7166C12.9284 28.7478 12.9053 28.779 12.8741 28.8252C12.859 28.8484 12.8429 28.8715 12.859 28.8796C12.867 28.8876 12.8821 28.8947 12.8902 28.8947C12.9214 28.8947 12.9445 28.8715 12.9606 28.8484C13.0149 28.7941 13.0692 28.7548 13.1246 28.7086C13.1789 28.6623 13.2413 28.615 13.2956 28.5687C13.373 28.5064 13.4434 28.4289 13.5139 28.3585C13.5762 28.3042 13.6306 28.2418 13.6849 28.1794C13.7241 28.1331 13.7623 28.0778 13.8096 28.0466C13.8247 28.0315 13.8408 28.0235 13.8488 28.0004C13.8569 27.9853 13.8569 27.9692 13.8488 27.9541C13.8257 27.931 13.7784 27.9541 13.7322 27.9772H13.7312ZM13.6306 15.1181C13.6386 15.1101 13.6386 15.0869 13.6306 15.0718C13.6225 15.0487 13.6074 15.0326 13.5843 15.0175C13.5692 15.0095 13.5611 14.9944 13.5451 14.9944C13.53 14.9863 13.5058 14.9863 13.4827 14.9944C13.4746 15.0024 13.4595 15.0024 13.4515 15.0095C13.4435 15.0175 13.4364 15.0326 13.4364 15.0406C13.4364 15.0557 13.4445 15.0638 13.4595 15.0718C13.4746 15.0799 13.4907 15.0869 13.5058 15.0869C13.529 15.095 13.5451 15.095 13.5682 15.102C13.5833 15.1101 13.5913 15.1171 13.6074 15.1171C13.6155 15.1251 13.6225 15.1251 13.6306 15.1171V15.1181ZM13.8177 14.261C13.7945 14.253 13.7633 14.253 13.7322 14.253C13.709 14.253 13.6929 14.253 13.6778 14.2681C13.6698 14.2761 13.6547 14.2912 13.6547 14.2993C13.6547 14.3143 13.6627 14.3304 13.6698 14.3385C13.6929 14.3616 13.7161 14.3697 13.7472 14.3777C13.7704 14.3858 13.7935 14.3928 13.8177 14.4009C13.8328 14.4089 13.8489 14.4159 13.8639 14.4159C13.8871 14.424 13.9102 14.424 13.9263 14.4159C13.9414 14.4009 13.9183 14.3616 13.8951 14.3224C13.8639 14.2993 13.8488 14.2761 13.8177 14.26V14.261ZM4.28423 17.0576C4.26914 17.0807 4.26109 17.1119 4.245 17.1431C4.23695 17.1662 4.22991 17.1894 4.22991 17.2135C4.22991 17.2376 4.22991 17.2527 4.245 17.2759C4.25304 17.2839 4.26008 17.291 4.26813 17.291C4.29127 17.299 4.31441 17.2598 4.33855 17.2286C4.35364 17.2055 4.36973 17.1823 4.37778 17.1582C4.38583 17.1501 4.38583 17.135 4.39287 17.127C4.40796 17.0958 4.41601 17.0727 4.4321 17.0415C4.44015 17.0183 4.45524 17.0023 4.45524 16.9791C4.45524 16.956 4.45524 16.9328 4.44719 16.9167C4.44183 16.9114 4.4368 16.9064 4.4321 16.9017C4.41701 16.8936 4.39287 16.9248 4.37778 16.9479C4.35464 16.9791 4.33855 17.0023 4.31541 17.0183C4.30736 17.0334 4.29228 17.0495 4.28423 17.0576ZM13.8328 14.0588C13.8478 14.0669 13.872 14.0749 13.8871 14.0749C13.9183 14.083 13.9414 14.09 13.9806 14.0981H14.0199C14.035 14.09 14.0118 14.0437 13.9806 14.0126C13.9575 13.9733 13.9414 13.9502 13.9183 13.9421C13.8951 13.927 13.8559 13.9341 13.8167 13.9421C13.7935 13.9502 13.7704 13.9502 13.7623 13.9653C13.7543 13.9733 13.7543 13.9884 13.7543 14.0045C13.7543 14.0126 13.7623 14.0276 13.7694 14.0276C13.7774 14.0427 13.8006 14.0508 13.8317 14.0588H13.8328ZM13.8951 19.2697C13.9183 19.2848 13.9414 19.3009 13.9726 19.3089C13.9957 19.317 14.0118 19.324 14.035 19.324C14.043 19.324 14.05 19.3159 14.0581 19.3089C14.0661 19.2938 14.035 19.2697 14.0189 19.2546C13.9796 19.2154 13.9565 19.1922 13.9253 19.161C13.8629 19.0987 13.7694 19.0282 13.699 18.9588C13.6829 18.9437 13.6678 18.9277 13.6597 18.9126L13.4022 18.6088C13.2855 18.4609 13.1839 18.305 13.0904 18.141C13.0129 17.9931 12.9425 17.8452 12.8952 17.6813C12.8721 17.6038 12.856 17.5253 12.8489 17.4479C12.8409 17.3936 12.8409 17.3392 12.8338 17.2839C12.8338 17.2527 12.8258 17.2216 12.8027 17.1984C12.7876 17.1833 12.7715 17.1672 12.7483 17.1672C12.7332 17.1672 12.7171 17.1672 12.7021 17.1753C12.6709 17.1904 12.6477 17.2145 12.6397 17.2457C12.6316 17.2688 12.6316 17.292 12.6316 17.3232C12.6397 17.4559 12.6548 17.5807 12.686 17.7044C12.7322 17.8915 12.8188 18.0786 12.9123 18.2416C12.9666 18.3271 13.0209 18.4126 13.0763 18.4991C13.1467 18.6007 13.2161 18.6943 13.2946 18.7798C13.372 18.8653 13.4585 18.9437 13.544 19.0132C13.6064 19.0675 13.6688 19.1298 13.7392 19.1771C13.8016 19.2164 13.8478 19.2475 13.8951 19.2707V19.2697ZM6.92385 17.5948C6.97818 17.634 7.04054 17.6722 7.10291 17.7115C7.17333 17.7507 7.24274 17.797 7.31316 17.8281C7.34434 17.8432 7.37553 17.8513 7.41476 17.8674C7.4379 17.8754 7.46908 17.8754 7.48518 17.8593C7.49323 17.8513 7.49323 17.8201 7.48518 17.805C7.47713 17.7819 7.46204 17.7738 7.45399 17.7587C7.43086 17.7275 7.39967 17.7044 7.36849 17.6813C7.30612 17.635 7.24375 17.5958 7.17333 17.5646C7.11901 17.5334 7.06469 17.5103 7.00936 17.4871C6.97818 17.472 6.94699 17.4559 6.91581 17.4479C6.85344 17.4248 6.78302 17.4016 6.71361 17.3704C6.68242 17.3553 6.64319 17.3312 6.61201 17.3392C6.59692 17.3392 6.58082 17.3543 6.56573 17.3624C6.55064 17.3775 6.5426 17.3855 6.5426 17.4016C6.5426 17.4177 6.55769 17.4328 6.57378 17.4408C6.59692 17.4489 6.61301 17.4559 6.63615 17.464C6.66734 17.472 6.69852 17.4871 6.7297 17.5032C6.76894 17.5183 6.80012 17.5264 6.83835 17.5425C6.86149 17.5505 6.89267 17.5736 6.92385 17.5968V17.5948ZM13.9967 13.6927C14.0199 13.7007 14.051 13.7078 14.0822 13.7078C14.0973 13.7078 14.1134 13.7077 14.1215 13.6997C14.1366 13.6846 14.1064 13.6534 14.0822 13.6293C14.0742 13.6132 14.0591 13.6061 14.051 13.5981C14.036 13.583 14.0279 13.5589 14.0048 13.5518C13.9736 13.5287 13.9344 13.5287 13.8961 13.5367C13.8649 13.5448 13.8418 13.5599 13.8257 13.5911C13.8177 13.5991 13.8177 13.6061 13.8177 13.6061C13.8177 13.6212 13.8328 13.6293 13.8488 13.6373C13.9112 13.6605 13.9505 13.6766 13.9967 13.6917V13.6927ZM8.05354 26.1776H7.98312C7.96804 26.1776 7.95999 26.1776 7.94389 26.1856C7.92076 26.1856 7.90466 26.1937 7.88152 26.2088C7.85839 26.2168 7.83525 26.2319 7.8272 26.255C7.8272 26.2701 7.83525 26.2862 7.84229 26.3013C7.85738 26.3164 7.87348 26.3244 7.88856 26.3405C7.9117 26.3556 7.93484 26.3637 7.96602 26.3637C7.98111 26.3637 8.00526 26.3486 8.02035 26.3405C8.04348 26.3254 8.06662 26.3094 8.09076 26.2862C8.1139 26.255 8.12999 26.2088 8.1139 26.1927C8.09076 26.1766 8.06763 26.1766 8.05153 26.1766L8.05354 26.1776ZM5.63925 14.8998C5.58493 14.939 5.56179 14.9853 5.53765 15.0326C5.49137 15.1101 5.43605 15.1805 5.38977 15.2509C5.35054 15.3133 5.31936 15.3676 5.28817 15.4299C5.26503 15.4762 5.24894 15.5155 5.2258 15.5627C5.21071 15.5939 5.19462 15.6251 5.20266 15.6563C5.21071 15.6714 5.21775 15.6875 5.23385 15.6955C5.25699 15.7036 5.28817 15.6804 5.31131 15.6492C5.34249 15.61 5.36563 15.5788 5.39681 15.5406C5.4119 15.5175 5.428 15.5014 5.44309 15.4782C5.46622 15.439 5.49741 15.3927 5.52055 15.3535C5.55173 15.2992 5.58292 15.2448 5.6141 15.1895C5.64529 15.1503 5.67647 15.1121 5.69961 15.0648C5.7147 15.0336 5.73079 15.0024 5.73884 14.9632C5.73884 14.932 5.73884 14.8857 5.72375 14.8777C5.70061 14.8626 5.66138 14.8777 5.63824 14.9008L5.63925 14.8998ZM8.89452 10.4364C8.88647 10.4676 8.88647 10.4988 8.89452 10.5299C8.90257 10.5531 8.91766 10.5692 8.93375 10.5762C8.95689 10.5762 8.97298 10.545 8.98807 10.5219C8.99612 10.5068 9.01121 10.4988 9.01926 10.4827C9.03435 10.4676 9.05849 10.4434 9.07358 10.4283C9.09672 10.4052 9.11985 10.3821 9.15104 10.3821C9.17418 10.3821 9.19027 10.3901 9.21341 10.3821C9.2285 10.3821 9.24459 10.366 9.25968 10.3509C9.27477 10.3197 9.26773 10.2805 9.25163 10.2422C9.23554 10.203 9.20536 10.1799 9.17418 10.1648C9.14299 10.1497 9.11181 10.1497 9.08062 10.1497C9.04944 10.1577 9.01825 10.1648 8.99512 10.1889C8.95588 10.2201 8.94079 10.2664 8.9247 10.3137C8.91665 10.3529 8.90961 10.3911 8.89351 10.4384L8.89452 10.4364ZM14.3076 10.8881C14.2995 10.8649 14.2925 10.8488 14.2764 10.8337C14.2613 10.8106 14.2452 10.7945 14.2301 10.7714C14.2221 10.7633 14.215 10.7482 14.207 10.7402C14.1919 10.7251 14.1758 10.709 14.1526 10.7009C14.1295 10.6929 14.0983 10.6929 14.0752 10.6929C14.036 10.6929 14.0048 10.7009 13.9736 10.7321C13.9585 10.7472 13.9424 10.7714 13.9505 10.7865C13.9505 10.8015 13.9655 10.8096 13.9816 10.8257C14.0048 10.8408 14.0279 10.8569 14.0521 10.8649C14.0832 10.88 14.1295 10.8881 14.1607 10.8961C14.1919 10.9042 14.2231 10.9112 14.2623 10.9192C14.2774 10.9192 14.2935 10.9273 14.3015 10.9112C14.3096 10.9031 14.3096 10.8961 14.3096 10.8881H14.3076ZM14.2613 12.8899H14.2925C14.3156 12.8819 14.2925 12.8356 14.2693 12.8124C14.2462 12.7893 14.2301 12.7662 14.215 12.7501C14.207 12.742 14.1999 12.7269 14.1919 12.7189C14.1768 12.7038 14.1607 12.6797 14.1456 12.6726C14.1225 12.6575 14.0832 12.6495 14.0521 12.6495C14.0209 12.6495 13.9816 12.6575 13.9505 12.6726C13.9354 12.6807 13.9112 12.6877 13.8961 12.7038C13.881 12.7119 13.873 12.7269 13.873 12.735C13.8649 12.7581 13.9042 12.7813 13.9434 12.7974C13.9826 12.8205 14.0138 12.8366 14.0521 12.8436C14.0983 12.8587 14.1456 12.8829 14.1919 12.8899H14.2623H14.2613ZM6.38667 14.3073C6.40981 14.2993 6.43295 14.2922 6.45709 14.2922H6.51141C6.53455 14.2922 6.55769 14.2922 6.57378 14.2842C6.58887 14.2761 6.59692 14.2691 6.60497 14.253C6.61301 14.2379 6.60497 14.2218 6.59692 14.2067C6.58183 14.1755 6.55064 14.1675 6.51946 14.1604C6.48828 14.1524 6.45709 14.1524 6.42591 14.1604C6.38667 14.1685 6.35549 14.1836 6.3243 14.2067C6.30922 14.2218 6.29312 14.2298 6.27803 14.253C6.26998 14.261 6.26998 14.2761 6.26998 14.2842C6.26998 14.2993 6.29312 14.2993 6.31626 14.3073C6.34744 14.3153 6.36253 14.3153 6.38667 14.3073ZM14.3699 11.3166C14.3619 11.2854 14.3388 11.2703 14.3237 11.2462C14.3076 11.2311 14.2844 11.2069 14.2693 11.1838L14.2231 11.1375C14.208 11.1295 14.1919 11.1224 14.1687 11.1144C14.1376 11.1063 14.0983 11.1063 14.0671 11.1144C14.036 11.1224 13.9967 11.1375 13.9816 11.1687C13.9736 11.1838 13.9665 11.208 13.9736 11.223C13.9816 11.2311 13.9887 11.2381 13.9967 11.2381C14.0279 11.2532 14.0591 11.2774 14.0903 11.2844C14.1215 11.2995 14.1526 11.3075 14.1838 11.3156C14.215 11.3236 14.2462 11.3307 14.2925 11.3468C14.3237 11.3548 14.3629 11.3699 14.3699 11.3548C14.378 11.3468 14.378 11.3317 14.3699 11.3156V11.3166ZM5.70866 16.4963C5.70061 16.4882 5.67748 16.4963 5.66239 16.5043C5.6312 16.5124 5.61611 16.5355 5.60002 16.5586C5.59197 16.5737 5.57688 16.5979 5.56883 16.6129C5.55374 16.6441 5.5457 16.6673 5.53765 16.6904C5.5296 16.7135 5.52256 16.7367 5.52256 16.7528C5.52256 16.7689 5.52256 16.784 5.53765 16.784C5.5457 16.784 5.56078 16.7759 5.57688 16.7689C5.61611 16.7457 5.6312 16.7226 5.6473 16.6985C5.67043 16.6673 5.68653 16.6361 5.70967 16.5898C5.72476 16.5586 5.7328 16.5124 5.70967 16.4963H5.70866ZM16.3486 22.9927C16.3486 23.0239 16.3406 23.0551 16.3336 23.0863C16.3255 23.1255 16.3104 23.1637 16.2943 23.211C16.2792 23.2502 16.2631 23.2814 16.2631 23.3197C16.2631 23.3428 16.2712 23.3659 16.2863 23.382C16.3014 23.3981 16.3255 23.4052 16.3486 23.3971C16.3637 23.3891 16.3798 23.382 16.3879 23.374C16.411 23.3508 16.4271 23.3197 16.4422 23.2965C16.4653 23.2502 16.4814 23.1949 16.4965 23.1406C16.5197 23.0551 16.5508 22.9766 16.5589 22.8911C16.5669 22.8287 16.5669 22.7664 16.5669 22.704C16.5669 22.6809 16.5669 22.6648 16.5589 22.6497C16.5508 22.6265 16.5438 22.6105 16.5358 22.5873C16.5126 22.5561 16.4814 22.5099 16.4422 22.5099C16.4271 22.5099 16.411 22.5179 16.403 22.5249C16.3798 22.54 16.3637 22.5561 16.3486 22.5793C16.3336 22.6024 16.3336 22.6255 16.3255 22.6567C16.3175 22.696 16.3255 22.7342 16.3336 22.7734C16.3416 22.8438 16.3567 22.9213 16.3486 22.9917V22.9927ZM11.0362 30.3764C11.0211 30.3996 11.005 30.4307 11.0131 30.4539C11.0211 30.469 11.0282 30.477 11.0442 30.4851C11.0674 30.5002 11.0905 30.5002 11.1147 30.5002C11.1458 30.5002 11.1851 30.4921 11.1921 30.477C11.2002 30.4619 11.2002 30.4378 11.1921 30.4147C11.1921 30.3915 11.1841 30.3754 11.1921 30.3603C11.2002 30.3452 11.2072 30.3372 11.2233 30.3291C11.2464 30.3141 11.2776 30.3141 11.3088 30.3141C11.34 30.3141 11.3712 30.299 11.3792 30.2829C11.3873 30.2748 11.3792 30.2597 11.3792 30.2436C11.3712 30.2044 11.3561 30.1732 11.3249 30.1501C11.3098 30.142 11.2857 30.135 11.2706 30.135C11.2555 30.135 11.2394 30.143 11.2243 30.1581C11.1931 30.1813 11.1619 30.1974 11.1388 30.2286C11.1076 30.2597 11.0925 30.2909 11.0684 30.3221C11.0533 30.3452 11.0453 30.3613 11.0372 30.3764H11.0362ZM11.1066 9.22924C10.8189 9.46262 10.4759 9.61854 10.1097 9.69701C10.0946 9.69701 10.0866 9.7121 10.0866 9.72819C10.0866 9.74429 10.1017 9.75938 10.1178 9.75938H10.1721C10.2968 9.75938 10.4296 9.72819 10.5533 9.69701C10.6469 9.67387 10.7324 9.64268 10.8179 9.60345C10.8803 9.57227 10.9346 9.52599 10.9889 9.47871C11.0513 9.41635 11.1056 9.34593 11.1529 9.26847C11.1609 9.25338 11.1609 9.24533 11.1448 9.22924C11.1298 9.22119 11.1137 9.22119 11.1056 9.22924H11.1066ZM10.8732 20.8661C10.9899 20.9597 11.1066 21.0452 11.2314 21.1387C11.2937 21.178 11.3561 21.2242 11.4104 21.2635C11.4416 21.2866 11.4728 21.3098 11.5191 21.3178C11.5341 21.3178 11.5502 21.3178 11.5583 21.3098C11.5663 21.3017 11.5502 21.2786 11.5432 21.2705C11.5281 21.2474 11.512 21.2313 11.4889 21.2162C11.4657 21.1931 11.4265 21.1619 11.4034 21.1387C11.333 21.0764 11.2786 21.014 11.2163 20.9436C11.0372 20.7565 10.835 20.5774 10.6479 20.3984C10.4688 20.2273 10.2978 20.0483 10.1258 19.8531C9.96184 19.666 9.79887 19.4638 9.65804 19.2999C9.60372 19.2375 9.55644 19.1751 9.46288 19.0896C9.41661 19.0433 9.34619 18.988 9.32306 19.0122C9.31501 19.0202 9.30797 19.0514 9.30797 19.0745C9.30797 19.0977 9.32306 19.1208 9.3311 19.1369C9.34619 19.1681 9.36229 19.2073 9.38543 19.2385C9.43975 19.332 9.50212 19.4176 9.57253 19.5031C9.64999 19.6047 9.72041 19.6982 9.79887 19.7988C9.83006 19.838 9.8532 19.8692 9.88438 19.9075C9.98598 20.0322 10.0946 20.1489 10.2113 20.2656C10.4135 20.4758 10.6399 20.678 10.8732 20.8651V20.8661ZM10.9899 26.1776C10.8883 26.1695 10.7877 26.1544 10.6861 26.1383C10.6157 26.1303 10.5463 26.1152 10.4839 26.1152C10.4527 26.1152 10.4216 26.1152 10.3823 26.1072C10.3672 26.1072 10.3431 26.0991 10.3361 26.1072C10.321 26.1222 10.3361 26.1615 10.3511 26.1846C10.3662 26.1997 10.3823 26.2158 10.3974 26.2238C10.4366 26.2389 10.4749 26.255 10.5141 26.2701C10.5916 26.2933 10.6781 26.3093 10.7636 26.3164H10.9115C11.005 26.3083 11.0905 26.3083 11.1841 26.3013C11.2696 26.3013 11.3551 26.3013 11.4416 26.2933H11.4959C11.5191 26.2933 11.5352 26.2852 11.5583 26.2782C11.5814 26.2701 11.6046 26.2631 11.6207 26.247C11.6357 26.2319 11.6438 26.2077 11.6357 26.1927C11.6277 26.1695 11.5734 26.1695 11.5341 26.1776C11.4325 26.1856 11.3702 26.1856 11.2927 26.1856C11.1911 26.1856 11.0905 26.1856 10.9889 26.1776H10.9899ZM19.0979 21.1931C19.0356 21.3098 18.95 21.4194 18.8565 21.52C18.7861 21.5975 18.7167 21.6759 18.6302 21.7534C18.5839 21.7926 18.5366 21.8308 18.4974 21.8781C18.4662 21.9093 18.4511 21.9485 18.427 21.9948C18.4189 22.0179 18.4038 22.0411 18.4119 22.0723C18.4119 22.0803 18.4199 22.0954 18.427 22.1035C18.4581 22.1266 18.5044 22.0954 18.5517 22.0723C18.6141 22.033 18.6533 22.0018 18.6996 21.9636C18.8012 21.8862 18.8947 21.7926 18.9953 21.691C19.0657 21.6206 19.1351 21.5431 19.1905 21.4647C19.2609 21.3792 19.3152 21.2776 19.3615 21.177C19.3927 21.0995 19.4158 21.006 19.4319 20.9194C19.4711 20.7012 19.4943 20.4758 19.4782 20.2495C19.4701 20.1016 19.447 19.9537 19.4239 19.8129C19.4158 19.7505 19.4007 19.6801 19.3846 19.6177C19.3766 19.5946 19.3766 19.5634 19.3534 19.5473C19.3454 19.5393 19.3303 19.5242 19.3142 19.5242C19.2981 19.5242 19.283 19.5393 19.275 19.5554C19.2669 19.5785 19.275 19.5946 19.275 19.6177C19.2901 19.6882 19.2901 19.7576 19.2901 19.836C19.2901 20.007 19.3062 20.1861 19.2901 20.3581C19.282 20.4909 19.2589 20.6307 19.2277 20.7635C19.2046 20.9194 19.1653 21.0673 19.0949 21.1921L19.0979 21.1931ZM9.65804 26.1705C9.66609 26.1786 9.68118 26.1786 9.69727 26.1786H9.77473C9.78982 26.1786 9.80592 26.1786 9.81396 26.1635C9.82905 26.1484 9.82905 26.1243 9.82201 26.1092C9.81396 26.0941 9.79887 26.0941 9.78278 26.0941H9.68118C9.66609 26.0941 9.64999 26.1021 9.64194 26.1172V26.1484C9.64194 26.1484 9.64999 26.1635 9.65703 26.1715L9.65804 26.1705ZM5.44409 18.1712C5.44409 18.2486 5.45918 18.3351 5.47528 18.4206C5.48333 18.4911 5.49842 18.5534 5.52155 18.6158C5.54469 18.6701 5.56783 18.7244 5.59901 18.7798C5.6141 18.811 5.6302 18.8341 5.65333 18.8572C5.66138 18.8653 5.67647 18.8804 5.69256 18.8723C5.70061 18.8723 5.70765 18.8723 5.7157 18.8643C5.73884 18.8492 5.72375 18.8019 5.70765 18.7627C5.69257 18.7164 5.68452 18.6852 5.66842 18.646C5.66842 18.6309 5.66037 18.6228 5.66037 18.6068C5.64528 18.5363 5.62919 18.4669 5.6141 18.4046C5.60605 18.3583 5.59901 18.311 5.59096 18.2647C5.58292 18.1873 5.59096 18.1088 5.59096 18.0313C5.59096 18.0002 5.59901 17.969 5.58292 17.9297C5.57487 17.9147 5.55978 17.8905 5.54368 17.8905C5.52859 17.8825 5.50445 17.8905 5.48936 17.9056C5.45818 17.9287 5.45818 17.968 5.45818 18.0072C5.45013 18.0615 5.44309 18.1158 5.44309 18.1712H5.44409ZM20.0325 15.0708C20.0174 15.102 19.9932 15.1171 19.9701 15.1412C19.9077 15.1956 19.8453 15.2499 19.791 15.3052C19.7136 15.3827 19.6432 15.4531 19.5727 15.5386C19.4711 15.6553 19.3856 15.7881 19.3082 15.9279C19.2146 16.0919 19.1372 16.2629 19.0818 16.4419C19.0426 16.5747 19.0195 16.7146 19.0114 16.8544C19.0034 16.9479 19.0114 17.0334 19.0114 17.127C19.0114 17.135 19.0195 17.1501 19.0265 17.1501C19.0345 17.1582 19.0496 17.1501 19.0577 17.1421C19.1663 17.0405 19.276 16.9469 19.3846 16.8463C19.4782 16.7689 19.5637 16.6824 19.6492 16.5888C19.7427 16.4872 19.8282 16.3866 19.8987 16.2699C19.961 16.1764 20.0154 16.0828 20.0697 15.9893C20.1009 15.943 20.132 15.9037 20.1632 15.8494C20.1864 15.8102 20.2176 15.7559 20.2487 15.7478C20.2638 15.7398 20.2799 15.7398 20.295 15.7478C20.3342 15.7629 20.3342 15.8414 20.3342 15.9038C20.3342 16.0597 20.295 16.1683 20.2487 16.278C20.2025 16.3796 20.1471 16.4882 20.0777 16.5818C20.0003 16.7065 19.9067 16.8081 19.8202 16.9167C19.7035 17.0646 19.5868 17.2205 19.5244 17.4077C19.4852 17.5243 19.454 17.6491 19.454 17.7738C19.454 17.8513 19.454 17.9217 19.4691 18.0002C19.4772 18.0394 19.4842 18.0857 19.5003 18.1329C19.5084 18.1561 19.5234 18.1722 19.5466 18.1873C19.5778 18.2024 19.6321 18.1792 19.6713 18.1561C19.7417 18.1098 19.788 18.0474 19.8353 17.9921C19.9057 17.8986 19.9832 17.797 20.0616 17.6964C20.116 17.6189 20.1703 17.5485 20.2095 17.463C20.2638 17.3694 20.295 17.2608 20.3342 17.1672C20.3574 17.1049 20.3735 17.0425 20.4197 16.9801C20.4348 16.957 20.4509 16.9409 20.466 16.9338C20.5053 16.9258 20.5284 16.9962 20.5435 17.0586C20.5827 17.1984 20.5666 17.292 20.5435 17.3936C20.5123 17.5022 20.466 17.627 20.3956 17.7366C20.3252 17.8452 20.2397 17.9468 20.1693 18.0484C20.1069 18.142 20.0526 18.2356 20.0133 18.3522C19.951 18.5394 19.9278 18.7808 19.9278 18.9679C19.9198 19.2174 19.9359 19.3884 19.9741 19.5835C20.0053 19.7626 20.0445 19.9577 20.0677 20.175C20.1069 20.5412 20.0757 20.9617 19.9429 21.3429C19.8494 21.6236 19.6934 21.8882 19.4993 22.0984C19.3907 22.2232 19.2659 22.3248 19.1251 22.4173C19.0235 22.4797 18.9229 22.534 18.8132 22.5813C18.7046 22.6205 18.5949 22.6517 18.4863 22.6829C18.4783 22.6829 18.4712 22.6909 18.4712 22.698V22.7211C18.4944 22.7603 18.5104 22.7915 18.5336 22.8298C18.596 22.9625 18.6422 23.1104 18.6583 23.2502C18.6734 23.3518 18.6815 23.4454 18.6664 23.546C18.6583 23.6084 18.6432 23.6707 18.612 23.7331C18.597 23.7643 18.5728 23.8035 18.5658 23.8347C18.5265 23.9433 18.5346 24.0761 18.5658 24.1928C18.5809 24.2471 18.597 24.2944 18.605 24.3407C18.6131 24.395 18.6131 24.4574 18.6131 24.5198V24.5509C18.6131 24.566 18.605 24.5741 18.5899 24.5741C18.5819 24.5821 18.5668 24.5741 18.5587 24.566C18.5044 24.4956 18.4571 24.4182 18.4189 24.3397C18.3726 24.2461 18.3414 24.1526 18.3254 24.052C18.3103 23.9665 18.3173 23.8729 18.3173 23.7874V23.6003C18.3093 23.5148 18.3022 23.4293 18.271 23.3508C18.2398 23.2653 18.1936 23.1798 18.1463 23.1014C18.1151 23.039 18.0759 22.9847 18.0065 22.9454C17.9833 22.9303 17.9602 22.9223 17.9521 22.9303C17.9441 22.9384 17.9371 22.9615 17.9441 22.9766C17.9441 23.0078 17.9521 23.0309 17.9672 23.0541C17.9904 23.1084 18.0376 23.1557 18.0608 23.202C18.1 23.2643 18.1151 23.3347 18.1312 23.4122C18.1624 23.5762 18.1624 23.7472 18.1392 23.9112C18.1161 24.0822 18.0618 24.2461 17.9994 24.4101C17.9371 24.566 17.8596 24.722 17.758 24.8618C17.6725 24.9785 17.5709 25.0881 17.4703 25.2048C17.3616 25.3295 17.26 25.4694 17.2289 25.6333C17.2208 25.7038 17.2208 25.7732 17.2208 25.8436V25.8748C17.2208 25.8899 17.2128 25.8979 17.2057 25.906C17.1977 25.914 17.1826 25.906 17.1745 25.8979C17.1665 25.8899 17.1594 25.8748 17.1434 25.8667C17.1122 25.8275 17.089 25.7893 17.0729 25.75C17.0337 25.6726 17.0106 25.579 17.0186 25.4925C17.0267 25.4301 17.0498 25.3597 17.0729 25.2974C17.1122 25.2119 17.1584 25.1263 17.2057 25.0479C17.2681 24.9463 17.3305 24.8376 17.3928 24.736C17.4552 24.6193 17.5176 24.4946 17.5568 24.3618C17.596 24.2371 17.6272 24.1043 17.6272 23.9806C17.6272 23.887 17.6121 23.8015 17.596 23.6929C17.588 23.6466 17.588 23.6074 17.5568 23.5913C17.5417 23.5832 17.5176 23.5832 17.4944 23.5913C17.4713 23.5993 17.4482 23.6144 17.4321 23.6375C17.4009 23.6768 17.3777 23.723 17.3777 23.7623C17.3777 23.7935 17.3858 23.8246 17.3858 23.8478C17.3858 23.887 17.3777 23.9182 17.3707 23.9564C17.3556 24.0188 17.3315 24.0731 17.3083 24.1274C17.2691 24.2129 17.2228 24.2984 17.1997 24.392C17.1765 24.4695 17.1765 24.556 17.1685 24.6415V24.6807C17.1685 24.6888 17.1605 24.6958 17.1534 24.7038C17.1454 24.7038 17.1303 24.7038 17.1303 24.6958C17.1071 24.6566 17.091 24.6183 17.076 24.5791C17.0528 24.5087 17.0448 24.4312 17.0448 24.3608C17.0448 24.2129 17.0599 24.057 17.0991 23.9172C17.1222 23.8317 17.1534 23.7462 17.1765 23.6526C17.2077 23.5359 17.2158 23.4112 17.2077 23.2865C17.1997 23.209 17.1846 23.1305 17.1373 23.0682C17.1142 23.045 17.083 23.0219 17.0518 23.0138C17.0206 23.0058 16.9894 23.0138 16.9744 23.037C16.9512 23.0521 16.9512 23.0833 16.9432 23.1144C16.9351 23.1688 16.9351 23.216 16.9281 23.2623C16.913 23.371 16.8969 23.4887 16.8657 23.5973C16.8114 23.7764 16.7259 23.9474 16.6323 24.1033C16.4845 24.3447 16.3134 24.5781 16.1102 24.7733C15.9392 24.9443 15.7441 25.0851 15.5499 25.233C15.402 25.3497 15.2542 25.4593 15.0902 25.5599C15.0127 25.6062 14.9262 25.6535 14.8568 25.7158C14.7864 25.7782 14.7321 25.8486 14.6858 25.9341C14.6083 26.0669 14.5379 26.2067 14.5299 26.3546C14.5148 26.5105 14.553 26.6735 14.6003 26.8063C14.6315 26.8918 14.6627 26.9622 14.725 27.0558C14.7713 27.1181 14.8337 27.1956 14.8578 27.2741C14.8729 27.3203 14.8729 27.3676 14.8729 27.4068C14.8729 27.4773 14.8729 27.5467 14.881 27.6251C14.889 27.7026 14.9041 27.7891 14.8729 27.8666C14.8578 27.9058 14.8337 27.944 14.8025 27.9752C14.7633 28.0064 14.717 28.0295 14.6627 28.0527C14.6003 28.0839 14.5379 28.115 14.4756 28.1462C14.374 28.2005 14.2804 28.271 14.1798 28.3333C14.0007 28.45 13.8297 28.5748 13.6738 28.7146C13.5028 28.8625 13.3388 29.0264 13.191 29.1974C13.1135 29.283 13.0431 29.3765 12.9576 29.462C12.9183 29.5012 12.8801 29.5395 12.856 29.5868C12.8479 29.6179 12.8409 29.6491 12.8328 29.6803C12.8248 29.7115 12.8097 29.7427 12.7936 29.7739C12.7705 29.8201 12.7473 29.8594 12.7081 29.8906C12.6769 29.9137 12.6377 29.9368 12.5995 29.9529C12.5602 29.968 12.529 29.9841 12.4908 29.9992C12.4365 30.0223 12.3822 30.0535 12.351 30.1008C12.3278 30.14 12.3198 30.1863 12.3278 30.2336C12.3359 30.2879 12.359 30.3352 12.3741 30.3815C12.3892 30.4277 12.4053 30.4831 12.3892 30.5213C12.3741 30.5676 12.3349 30.5987 12.2957 30.6299C12.2413 30.6692 12.179 30.6923 12.1166 30.7154C12.015 30.7466 11.9064 30.7698 11.7977 30.7859C11.673 30.8009 11.5402 30.809 11.4164 30.8009C11.3229 30.8009 11.2374 30.7929 11.1438 30.7859C11.0352 30.7778 10.9105 30.7708 10.8089 30.7235C10.7857 30.7084 10.7626 30.7003 10.7384 30.6842C10.7223 30.6762 10.7223 30.6611 10.7153 30.6531C10.7153 30.6068 10.7233 30.5595 10.7384 30.5203C10.7616 30.466 10.7928 30.4187 10.8239 30.3724C10.9094 30.2477 11.003 30.139 11.1116 30.0374C11.2203 29.9439 11.338 29.8664 11.4617 29.7799C11.5704 29.7095 11.6881 29.632 11.7494 29.5224C11.7726 29.4831 11.7887 29.4369 11.8037 29.3976C11.8188 29.3584 11.8349 29.3202 11.85 29.289C11.8892 29.2266 11.9516 29.1874 12.014 29.1492C12.0914 29.0948 12.1619 29.0325 12.2403 28.9782C12.4898 28.783 12.7463 28.5969 12.9878 28.3866C13.198 28.2076 13.3851 28.0124 13.5953 27.7871C13.6809 27.6935 13.7664 27.5919 13.7905 27.4913C13.8066 27.429 13.7905 27.3666 13.7593 27.3123C13.7281 27.258 13.6889 27.1956 13.6507 27.1413C13.5259 26.9622 13.4173 26.7832 13.3237 26.596C13.2071 26.3697 13.1135 26.1363 13.028 25.8868C12.9113 25.5368 12.8177 25.1626 12.8097 24.7964C12.8017 24.5469 12.8409 24.3055 12.8872 24.056C12.9334 23.8458 12.9888 23.6355 13.0894 23.4404C13.191 23.2452 13.3227 23.0662 13.4324 22.872C13.5259 22.701 13.5964 22.5219 13.6195 22.3348C13.6275 22.2413 13.6346 22.1477 13.6044 22.0622V22.0542C13.5964 22.031 13.5813 22.023 13.5581 22.023C13.535 22.023 13.5189 22.0381 13.5189 22.0622C13.5038 22.1397 13.4877 22.2181 13.4646 22.2956C13.3791 22.5913 13.1839 22.864 13.036 23.1446C12.865 23.4635 12.7322 23.7985 12.6699 24.1576C12.6155 24.4614 12.5995 24.7803 12.6387 25.0841C12.6779 25.3879 12.7554 25.6836 12.8721 25.9643C12.9183 26.0729 12.9656 26.1746 13.0049 26.2832C13.028 26.3536 13.0511 26.423 13.0592 26.5015C13.0672 26.5719 13.0672 26.6413 13.0441 26.7037C13.029 26.75 13.0049 26.7892 12.9898 26.8365C12.9747 26.8677 12.9666 26.8988 12.9435 26.93C12.9123 26.9693 12.858 26.9924 12.7956 27.0004C12.6558 27.0236 12.5079 26.9854 12.3671 26.9461C12.0552 26.8606 11.7595 26.7821 11.4476 26.7198C11.175 26.6655 10.9024 26.6182 10.6217 26.587C10.3954 26.5639 10.162 26.5558 9.94373 26.5789C9.82704 26.594 9.71035 26.6182 9.58561 26.6494C9.52324 26.6645 9.46087 26.6886 9.3985 26.6886C9.313 26.6886 9.23453 26.6655 9.14903 26.6343C9.08666 26.6111 9.02429 26.588 8.96192 26.595C8.89955 26.6031 8.84523 26.6413 8.79795 26.6966C8.75872 26.7359 8.72753 26.7821 8.70439 26.8294C8.68126 26.8687 8.67321 26.8998 8.65007 26.931C8.61889 26.9703 8.5877 26.9934 8.54143 27.0085C8.41669 27.0548 8.24568 27.0165 8.08171 26.9773C7.85537 26.9149 7.66122 26.8445 7.47411 26.7359C7.41979 26.6966 7.36547 26.6584 7.32624 26.6031C7.31115 26.58 7.3031 26.5639 7.29505 26.5407C7.287 26.5095 7.3031 26.4784 7.31819 26.4472C7.36446 26.3617 7.44293 26.3073 7.53648 26.2601C7.70749 26.1665 7.88655 26.089 8.07366 26.0498C8.21349 26.0186 8.35432 26.0035 8.49415 26.0035C8.63398 26.0035 8.77481 26.0186 8.90659 25.9955C9.01523 25.9804 9.11684 25.9331 9.21844 25.91C9.32004 25.8868 9.42868 25.8869 9.53733 25.8949C9.62283 25.8949 9.71639 25.9029 9.77071 25.918C9.81698 25.9261 9.83308 25.9331 9.87935 25.9412C9.9729 25.9563 10.1982 25.9724 10.4095 25.9874C10.8612 26.0106 11.2736 26.0025 11.6398 26.0025H11.9043C11.9587 26.0025 12.021 25.9945 12.0603 25.9713C12.1226 25.9402 12.1538 25.8627 12.193 25.7923C12.2242 25.738 12.2635 25.6836 12.2705 25.6283C12.2786 25.582 12.2625 25.5348 12.2393 25.4955C12.193 25.3939 12.1226 25.3004 12.0522 25.2078C11.842 24.9121 11.686 24.561 11.5382 24.219C11.4215 23.9615 11.3048 23.7049 11.2263 23.4323C11.1408 23.1446 11.0865 22.8479 11.0784 22.5521C11.0704 22.3962 11.0784 22.2403 11.1016 22.0924C11.1096 22.0532 11.1167 22.0149 11.1247 21.9757C11.1247 21.9606 11.1398 21.9526 11.1559 21.9445C11.171 21.9365 11.1871 21.9365 11.1951 21.9526C11.2726 22.0069 11.343 22.0542 11.4215 22.1085C11.5855 22.2171 11.7565 22.3187 11.9204 22.4354C12.0683 22.537 12.2011 22.6537 12.3329 22.7704C12.3872 22.8247 12.4415 22.872 12.4968 22.9263C12.52 22.9495 12.5431 22.9656 12.5592 22.9887C12.5673 23.0038 12.5824 23.0118 12.5904 23.0199H12.6216C12.6296 23.0118 12.6367 23.0048 12.6447 22.9967C12.6528 22.9817 12.6447 22.9575 12.6447 22.9344C12.6296 22.88 12.6055 22.8408 12.5743 22.7945C12.52 22.7171 12.4496 22.6386 12.3791 22.5762C12.3017 22.5139 12.2232 22.4515 12.1458 22.3972C11.9898 22.2885 11.8269 22.1789 11.6629 22.0622C11.507 21.9536 11.3511 21.8439 11.1951 21.7272C10.9849 21.5633 10.7897 21.3922 10.5956 21.2212C10.331 20.9878 10.0584 20.7615 9.80893 20.512C9.61378 20.3169 9.43472 20.1147 9.27879 19.8893C9.14601 19.6942 9.02932 19.4839 8.89754 19.2978C8.83517 19.2123 8.7728 19.1268 8.71043 19.0333C8.68729 19.0021 8.6712 18.9629 8.64001 18.9397C8.59374 18.9085 8.53137 18.9005 8.469 18.8934C8.32113 18.8703 8.19639 18.7918 8.0636 18.7224C7.962 18.6681 7.85336 18.6057 7.7759 18.5202C7.74471 18.4891 7.72158 18.4498 7.71353 18.4035C7.71353 18.3955 7.70548 18.3885 7.70548 18.3804C7.69039 18.3492 7.65116 18.3261 7.61997 18.31C7.49524 18.2476 7.40973 18.1621 7.30813 18.0917C7.16025 17.9981 6.98924 17.9277 6.83332 17.8422C6.75586 17.796 6.6774 17.7406 6.59994 17.6863C6.52952 17.632 6.46011 17.5777 6.38969 17.5304C6.34342 17.4911 6.29614 17.46 6.23377 17.4368C6.18749 17.4217 6.13217 17.4137 6.08589 17.4217C6.04666 17.4368 6.00843 17.468 5.98429 17.5072C5.97624 17.5223 5.9692 17.5384 5.96115 17.5616C5.95311 17.6008 5.97624 17.6471 5.99234 17.6863C6.03157 17.7799 6.04666 17.8815 6.06276 17.974C6.08589 18.1068 6.10199 18.2315 6.10199 18.3714C6.11004 18.5504 6.09394 18.7375 6.13317 18.9166C6.15631 19.0333 6.19554 19.15 6.24182 19.2596C6.28809 19.3683 6.33537 19.4699 6.38969 19.5715C6.40579 19.5946 6.42088 19.6177 6.42892 19.6489C6.45206 19.7193 6.45206 19.7968 6.44401 19.8753C6.44401 19.9215 6.43597 19.9769 6.45206 20.0231C6.4752 20.0775 6.51443 20.1247 6.56875 20.1559C6.63112 20.1952 6.70858 20.2022 6.78704 20.2263C6.8806 20.2575 6.97415 20.3199 7.02847 20.3974C7.12203 20.5301 7.12203 20.7162 7.11398 20.8883C7.10593 21.0442 7.09889 21.1921 7.05966 21.3319C7.04457 21.4023 7.01338 21.4647 6.9822 21.519C6.95102 21.5653 6.91983 21.6045 6.8806 21.6357C6.85746 21.6588 6.82628 21.6749 6.79509 21.69C6.77196 21.6981 6.74882 21.7051 6.72467 21.6981C6.68544 21.69 6.65426 21.6669 6.61603 21.6437C6.43697 21.5039 6.32028 21.3087 6.21063 21.1136C6.12513 20.9657 6.04666 20.8098 5.97725 20.6458C5.93098 20.5372 5.89979 20.4195 5.83742 20.3108C5.81429 20.2646 5.7831 20.2173 5.75192 20.1781C5.71268 20.1318 5.66641 20.0925 5.61913 20.0453C5.56481 19.9829 5.52558 19.9054 5.51753 19.8189C5.50948 19.7254 5.54067 19.6318 5.52558 19.5383C5.50948 19.4759 5.47125 19.4135 5.44812 19.3431C5.40184 19.2184 5.40889 19.0785 5.40184 18.9377C5.3938 18.6259 5.32439 18.3301 5.26906 18.0263C5.22983 17.7929 5.19864 17.5666 5.1755 17.3252C5.16041 17.1773 5.14432 17.0294 5.1755 16.8966C5.21474 16.7568 5.30024 16.6391 5.3938 16.5224C5.42498 16.4832 5.45617 16.445 5.4954 16.4057C5.57286 16.3283 5.68251 16.2659 5.7831 16.2267C5.82937 16.2116 5.86861 16.2035 5.91589 16.1955C6.0869 16.1723 6.27401 16.2106 6.45307 16.2498C6.70254 16.3041 6.95906 16.3584 7.17735 16.4369C7.27091 16.4681 7.36446 16.5073 7.45802 16.5616C7.4892 16.5848 7.52843 16.6009 7.55962 16.616C7.57471 16.624 7.59885 16.624 7.62199 16.624C7.63708 16.624 7.65317 16.616 7.65317 16.6089C7.66122 16.6009 7.65317 16.5858 7.64512 16.5777C7.63003 16.5466 7.61394 16.5315 7.5908 16.5154C7.5053 16.4299 7.40369 16.3444 7.3031 16.2659C7.20955 16.1884 7.12404 16.118 7.04557 16.0396C6.91279 15.8997 6.81219 15.7358 6.70254 15.5718C6.65627 15.4943 6.60094 15.4159 6.53857 15.3454C6.52348 15.3223 6.49934 15.3062 6.4762 15.2831C6.46816 15.275 6.46111 15.268 6.45307 15.268C6.42993 15.2529 6.39875 15.2599 6.36756 15.268C6.33638 15.268 6.30519 15.268 6.27401 15.2599C6.25892 15.2599 6.24282 15.2519 6.22773 15.2519C6.21969 15.2519 6.2046 15.2599 6.19655 15.267C6.16536 15.2901 6.15027 15.3213 6.12613 15.3525C6.06376 15.4772 6.00139 15.5939 5.93098 15.7026C5.87665 15.7881 5.80624 15.8665 5.74387 15.944C5.65031 16.0526 5.54871 16.1623 5.44812 16.2629C5.3938 16.3252 5.33947 16.3796 5.29219 16.4419C5.24592 16.4963 5.20669 16.5506 5.15941 16.6129C5.11313 16.6753 5.06585 16.7457 5.02662 16.8232C4.98035 16.9167 4.96425 17.0254 4.94916 17.135C4.94112 17.1974 4.94112 17.2598 4.92603 17.3141C4.90289 17.3765 4.86366 17.4388 4.81738 17.4932C4.79425 17.5243 4.77111 17.5475 4.75501 17.5787C4.73993 17.633 4.75501 17.6954 4.7862 17.7497C4.80934 17.796 4.84857 17.8352 4.87171 17.8744C4.89484 17.9136 4.91798 17.9519 4.92603 17.9992C4.93407 18.0615 4.91798 18.1158 4.88679 18.1782C4.80129 18.3573 4.62927 18.474 4.45826 18.5756C4.34961 18.6379 4.23192 18.6923 4.12327 18.7395C4.077 18.7546 4.02972 18.7707 3.98345 18.7858C3.93717 18.8009 3.88989 18.8089 3.84362 18.7939C3.82853 18.7858 3.81243 18.7788 3.80439 18.7627C3.78125 18.7315 3.78125 18.6852 3.78125 18.646C3.78125 18.5605 3.7893 18.482 3.79634 18.3965C3.80439 18.2879 3.82752 18.1863 3.85871 18.0776C3.88185 17.976 3.91303 17.8754 3.96031 17.7738C3.99149 17.7195 4.02268 17.6652 4.04582 17.6028C4.06091 17.5716 4.077 17.5404 4.077 17.5093C4.09209 17.4549 4.08505 17.4006 4.09209 17.3533C4.10014 17.2829 4.11523 17.2205 4.13836 17.1511C4.18464 17.0183 4.25505 16.9017 4.32547 16.7769C4.42707 16.6059 4.54376 16.45 4.63732 16.278C4.75401 16.0828 4.84756 15.8726 4.95621 15.6704C5.08094 15.4289 5.22882 15.2026 5.35356 14.9773C5.39983 14.8918 5.44711 14.8063 5.50143 14.7197C5.57185 14.6111 5.64931 14.4934 5.71973 14.3848C5.75896 14.3224 5.79014 14.2681 5.82837 14.2137C5.8676 14.1514 5.91388 14.089 5.9682 14.0427C6.0698 13.9492 6.20963 13.8868 6.34945 13.8788C6.51342 13.8637 6.68444 13.9099 6.84036 13.9804C6.94196 14.0266 7.03552 14.089 7.12102 14.1594C7.19848 14.2298 7.27694 14.2993 7.32322 14.3697C7.33831 14.3928 7.34636 14.4089 7.36949 14.432C7.40068 14.4632 7.46305 14.5025 7.51737 14.5407C7.68134 14.6423 7.79803 14.7197 7.90667 14.7982C8.03141 14.8837 8.17124 14.9773 8.30402 15.0789C8.36639 15.1251 8.43681 15.1724 8.49918 15.2267C8.51427 15.2348 8.53036 15.2499 8.53841 15.2579C8.5535 15.273 8.57764 15.273 8.60078 15.2579C8.70238 15.1644 8.81907 15.0789 8.92772 14.9853C9.0605 14.8837 9.19228 14.7902 9.34821 14.7207C9.45685 14.6745 9.57455 14.6272 9.66005 14.596C9.70633 14.5729 9.74556 14.5568 9.78479 14.5336C9.86225 14.4793 9.94071 14.4009 10.0111 14.3073C10.0735 14.2218 10.1278 14.1202 10.1821 14.0347C10.2837 13.8949 10.4155 13.7772 10.5403 13.6605C10.6801 13.5277 10.8048 13.3879 10.9296 13.2319C11.0543 13.076 11.171 12.9201 11.2726 12.7491C11.4124 12.5076 11.514 12.2431 11.6227 11.9936C11.677 11.8608 11.7394 11.729 11.7866 11.5882C11.7947 11.557 11.8098 11.5178 11.8098 11.4866C11.8098 11.4474 11.8017 11.4011 11.7866 11.3619C11.7716 11.3307 11.7555 11.2995 11.7323 11.2844C11.7172 11.2764 11.6931 11.2683 11.678 11.2683C11.6468 11.2683 11.6156 11.2844 11.5844 11.2914C11.514 11.3146 11.4446 11.3146 11.3742 11.3146C11.164 11.3065 10.9537 11.2371 10.7515 11.1898C10.6117 11.1506 10.4709 11.1275 10.331 11.1043C10.2224 11.0892 10.1208 11.0812 10.0121 11.0892C9.91858 11.1043 9.82503 11.1355 9.73147 11.1667C9.66106 11.1979 9.59869 11.221 9.52928 11.2442C9.42064 11.2753 9.30294 11.2904 9.20234 11.2522C9.14802 11.2291 9.10074 11.1979 9.06251 11.1506C9.04743 11.1355 9.03133 11.1114 9.03133 11.0882C9.03133 11.0651 9.03938 11.042 9.05447 11.0259C9.06956 11.0027 9.10074 11.0027 9.12488 10.9947C9.21844 10.9716 9.31199 10.9555 9.3975 10.9243C9.44377 10.9092 9.4991 10.8931 9.54537 10.878C9.56851 10.87 9.5997 10.8629 9.62283 10.8388C9.63792 10.8307 9.64597 10.8156 9.64597 10.7995C9.64597 10.7834 9.63792 10.7683 9.63088 10.7533C9.62283 10.7382 9.59969 10.7301 9.58461 10.7301C9.56147 10.7301 9.54537 10.7382 9.52224 10.7382C9.44478 10.7613 9.37436 10.7844 9.2959 10.8086C9.17921 10.8478 9.06251 10.871 8.95287 10.8941C8.91363 10.9021 8.87541 10.9021 8.82813 10.9092C8.80499 10.9092 8.78185 10.9092 8.75771 10.9011C8.73457 10.8931 8.72653 10.87 8.71144 10.8549C8.6722 10.7925 8.68025 10.7462 8.6722 10.6838C8.66416 10.6376 8.64907 10.5822 8.64907 10.5199C8.64907 10.4112 8.71144 10.2865 8.77381 10.1768C8.82813 10.0752 8.88245 9.99779 8.93778 9.91228C8.97701 9.86601 9.01523 9.81068 9.06251 9.77245C9.13293 9.71008 9.22649 9.66381 9.31199 9.64771C9.38945 9.63263 9.46791 9.63263 9.53833 9.62458C9.67816 9.60949 9.81095 9.56221 9.94373 9.51593C10.2013 9.42238 10.4497 9.33687 10.6841 9.20409C10.8169 9.12663 10.9416 9.02503 11.0815 8.94656C11.1831 8.89224 11.2917 8.84496 11.4004 8.82183C11.4396 8.81378 11.4778 8.81378 11.517 8.79064C11.5251 8.78259 11.5402 8.77555 11.5482 8.7675C11.5482 8.75241 11.5402 8.73632 11.5331 8.72827C11.5181 8.71218 11.502 8.70513 11.4869 8.70513C11.4557 8.69709 11.4245 8.71318 11.3933 8.72022C11.3702 8.72827 11.347 8.73531 11.3229 8.72827C11.3078 8.72827 11.2998 8.72022 11.2917 8.70513C11.2837 8.69005 11.2998 8.67395 11.3068 8.6659C11.3219 8.65785 11.338 8.65081 11.346 8.65081C11.3541 8.65081 11.3692 8.64277 11.3853 8.64277C11.4004 8.63472 11.4245 8.63472 11.4245 8.61963V8.59649C11.4164 8.58844 11.4014 8.58844 11.3782 8.58844C11.3159 8.59649 11.2696 8.58844 11.2223 8.57335C11.168 8.55827 11.1056 8.54217 11.0432 8.51903C10.9728 8.4959 10.9034 8.47276 10.833 8.45666C10.7555 8.44157 10.6771 8.44157 10.6067 8.45666C10.5523 8.46471 10.5051 8.48785 10.4507 8.4959C10.4276 8.4959 10.4045 8.4959 10.3964 8.48785C10.3813 8.47276 10.3813 8.44862 10.3964 8.42548C10.4045 8.41039 10.4276 8.40234 10.4427 8.39429C10.489 8.37116 10.5282 8.35506 10.5755 8.33997C10.6217 8.32488 10.669 8.31684 10.7153 8.30879C10.7696 8.30074 10.8239 8.30879 10.8793 8.31684C10.9105 8.32488 10.9416 8.33193 10.9809 8.33193C11.0121 8.33997 11.0513 8.33193 11.0895 8.33193C11.1127 8.33193 11.1358 8.32388 11.1519 8.30074C11.1599 8.29269 11.1599 8.2776 11.1599 8.26956C11.1519 8.25447 11.1287 8.25447 11.1056 8.25447C11.0352 8.25447 10.997 8.23938 10.9497 8.23133C10.9265 8.22328 10.9034 8.22328 10.8722 8.21624C10.841 8.2092 10.8018 8.1931 10.7787 8.16997C10.7706 8.16192 10.7636 8.14683 10.7636 8.13878C10.7636 8.13073 10.7716 8.11564 10.7787 8.11564H10.7938C10.8712 8.12369 10.9416 8.11564 11.004 8.10056C11.0895 8.08547 11.1911 8.06132 11.2766 8.06132C11.3702 8.06132 11.4718 8.08446 11.5573 8.12369C11.6589 8.16292 11.7524 8.21725 11.8611 8.25648C11.9385 8.28766 12.017 8.3108 12.0945 8.3108C12.1488 8.3108 12.2112 8.30275 12.2584 8.27157C12.2816 8.25648 12.2977 8.24038 12.3128 8.21725C12.3208 8.20216 12.3278 8.18606 12.3278 8.17801C12.3278 8.14683 12.2886 8.12369 12.2655 8.09251C12.2343 8.04623 12.2262 7.99091 12.2262 7.94463C12.2343 7.88226 12.2574 7.82794 12.2725 7.77362C12.2957 7.71125 12.3268 7.64888 12.3429 7.57846C12.351 7.55533 12.351 7.53923 12.358 7.5161C12.358 7.50805 12.3661 7.5 12.3731 7.5C12.3802 7.5 12.3882 7.5 12.3963 7.50805C12.4274 7.55432 12.4586 7.59355 12.4979 7.63279C12.5683 7.7032 12.6457 7.75752 12.7312 7.81989C12.8167 7.88226 12.8952 7.94463 12.9727 8.01505C13.035 8.06937 13.0894 8.13174 13.1366 8.19411C13.1598 8.22529 13.1759 8.25648 13.199 8.28766C13.2071 8.30275 13.2221 8.3108 13.2382 8.3108C13.3398 8.30275 13.4404 8.29471 13.542 8.3108C13.6436 8.32589 13.7442 8.36512 13.8297 8.41944C13.9313 8.48181 14.0088 8.55927 14.0943 8.65282C14.1335 8.6991 14.1718 8.74638 14.219 8.77756C14.2734 8.8168 14.3357 8.8168 14.3981 8.82384C14.5691 8.83893 14.7482 8.84697 14.9282 8.83189C15.0218 8.82384 15.1153 8.8168 15.2009 8.83189C15.2783 8.84697 15.3568 8.87816 15.4272 8.92544C15.4664 8.95662 15.5127 8.98781 15.5439 9.03408C15.559 9.05722 15.5751 9.07331 15.567 9.09645C15.567 9.11154 15.5519 9.13568 15.5358 9.14273C15.5047 9.16586 15.4654 9.16586 15.4342 9.15781C15.395 9.14977 15.3638 9.11858 15.3326 9.10349C15.3014 9.0884 15.2703 9.08036 15.2391 9.07231C15.1616 9.06426 15.0912 9.0874 15.0127 9.11154C14.9192 9.14273 14.8337 9.15781 14.7401 9.189C14.6939 9.20409 14.6385 9.22823 14.5923 9.25137C14.5772 9.25942 14.5611 9.26646 14.546 9.28255C14.5379 9.2906 14.5379 9.29764 14.5379 9.30569C14.5379 9.31374 14.546 9.32078 14.553 9.32078C14.6073 9.32883 14.6546 9.33587 14.7089 9.34392C14.8176 9.36705 14.9272 9.39824 15.0208 9.44552C15.1294 9.49179 15.223 9.56221 15.3165 9.63263C15.3709 9.67186 15.4332 9.71008 15.4956 9.74932C15.5268 9.76441 15.566 9.7805 15.6042 9.78855C15.6586 9.7966 15.7129 9.78855 15.7682 9.78855C15.901 9.78855 16.0408 9.85092 16.1495 9.92838C16.2118 9.97465 16.2662 10.03 16.3285 10.0843C16.3829 10.1306 16.4372 10.1618 16.4995 10.201C16.5307 10.2161 16.5619 10.2322 16.585 10.2553C16.6001 10.2704 16.6162 10.2865 16.6313 10.3096C16.6394 10.3177 16.6394 10.3328 16.6313 10.3489C16.6233 10.3569 16.6162 10.364 16.6001 10.364H16.5609C16.5146 10.364 16.4593 10.3559 16.413 10.3328C16.3668 10.3177 16.3275 10.2865 16.2802 10.2624C16.2098 10.2161 16.1404 10.1688 16.062 10.1537C16.0076 10.1386 15.9453 10.1386 15.8829 10.1457C15.7974 10.1537 15.7038 10.1688 15.6183 10.1688C15.5328 10.1688 15.4473 10.1608 15.3608 10.1457C15.2522 10.1225 15.1506 10.0752 15.057 10.0441C14.9323 10.0048 14.8236 9.97364 14.6596 9.93542C14.6204 9.92737 14.5741 9.91228 14.558 9.93542C14.55 9.95051 14.543 9.98169 14.55 9.99779C14.558 10.0129 14.5651 10.0209 14.5812 10.029C14.6204 10.0521 14.6586 10.0682 14.6898 10.0913L14.8769 10.1849C14.9393 10.2161 15.0017 10.2473 15.064 10.2865C15.1264 10.3328 15.1727 10.3881 15.2119 10.4575C15.2512 10.5118 15.2823 10.5662 15.3286 10.6054C15.3678 10.6366 15.4222 10.6517 15.4765 10.6597C15.5539 10.6678 15.6324 10.6678 15.7099 10.6748C15.8034 10.6828 15.905 10.714 15.9905 10.7452C16.1153 10.7915 16.232 10.8539 16.3406 10.9323C16.4181 10.9866 16.4965 11.041 16.5428 11.1345C16.5579 11.1657 16.574 11.2049 16.5659 11.2361C16.5659 11.2593 16.5508 11.2824 16.5347 11.3065C16.5294 11.3119 16.5244 11.3146 16.5197 11.3146C16.515 11.3146 16.5099 11.3119 16.5046 11.3065C16.4814 11.2754 16.4583 11.2442 16.4271 11.213C16.3808 11.1587 16.3336 11.1114 16.2712 11.0732C16.2249 11.042 16.1696 11.0108 16.1072 10.9957C16.076 10.9876 16.0529 10.9806 16.0217 10.9806C15.9754 10.9806 15.9282 10.9957 15.8819 11.0037C15.7964 11.0269 15.7109 11.0349 15.6244 11.043C15.562 11.043 15.4996 11.043 15.4373 11.0279C15.3829 11.0128 15.3286 10.9967 15.2733 10.9655C15.227 10.9424 15.1717 10.9112 15.1335 10.8639C15.1023 10.8408 15.0791 10.8096 15.0479 10.7865C15.0329 10.7784 15.0168 10.7714 14.9936 10.7633C14.9785 10.7553 14.9624 10.7482 14.9544 10.7553C14.9463 10.7623 14.9463 10.7784 14.9463 10.7945C14.9544 10.8408 14.9856 10.8649 15.0168 10.8881C15.1023 10.9585 15.1727 11.0359 15.2431 11.1144C15.2743 11.1536 15.3135 11.1848 15.3517 11.208C15.3749 11.223 15.4061 11.2391 15.4373 11.2542C15.4765 11.2693 15.5147 11.2774 15.5539 11.2854C15.6475 11.3085 15.725 11.3478 15.8034 11.387C15.8658 11.4262 15.9201 11.4645 15.9825 11.5037C16.0056 11.5188 16.0288 11.5268 16.0529 11.5429C16.0921 11.559 16.1304 11.5741 16.1696 11.5741C16.1927 11.5741 16.2239 11.5741 16.247 11.5822C16.2551 11.5902 16.2702 11.5973 16.2782 11.6053C16.2863 11.6134 16.2782 11.6284 16.2702 11.6445C16.2551 11.6677 16.2159 11.6908 16.1766 11.7069C16.1223 11.73 16.0831 11.7381 16.0368 11.73C15.9976 11.73 15.9593 11.715 15.9201 11.6989C15.8346 11.6677 15.7411 11.6284 15.6475 11.6053C15.562 11.5822 15.4684 11.5741 15.3749 11.551C15.3045 11.5359 15.2421 11.5198 15.1727 11.4967C15.1264 11.4816 15.0711 11.4574 15.0329 11.4262C14.9785 11.3951 14.9313 11.3558 14.8769 11.3246C14.8146 11.2854 14.7442 11.2623 14.6747 11.2623C14.6355 11.2623 14.5973 11.2703 14.558 11.2854C14.5349 11.2935 14.5188 11.3085 14.4957 11.3317C14.4876 11.3397 14.4876 11.3468 14.4876 11.3548C14.4876 11.378 14.5188 11.3941 14.55 11.4011C14.6747 11.4474 14.7602 11.4554 14.8538 11.4866C14.9474 11.5178 15.049 11.5721 15.1415 11.6264C15.2119 11.6657 15.2894 11.7039 15.3437 11.7592C15.4061 11.8216 15.4453 11.899 15.4835 11.9856C15.4986 12.0248 15.5228 12.063 15.5539 12.0872C15.6002 12.1334 15.6626 12.1576 15.725 12.1888C15.7712 12.2199 15.8185 12.2511 15.8497 12.2904C15.896 12.3527 15.9201 12.4231 15.9664 12.4775C16.0207 12.5318 16.0992 12.5549 16.1686 12.5791C16.2078 12.5942 16.239 12.6103 16.2772 12.6334C16.3004 12.6485 16.3315 12.6726 16.3315 12.6958C16.3315 12.7108 16.3235 12.7269 16.3165 12.735C16.2933 12.7662 16.246 12.7581 16.1998 12.7501C16.1535 12.742 16.1143 12.742 16.067 12.742C16.0277 12.742 15.9895 12.742 15.9583 12.7269C15.9121 12.7119 15.8809 12.6807 15.8416 12.6414C15.7954 12.5952 15.7481 12.5479 15.7018 12.5087C15.6555 12.4775 15.6002 12.4543 15.5378 12.4382C15.4292 12.407 15.3196 12.392 15.219 12.3447C15.1335 12.3135 15.055 12.2592 14.9695 12.2199C14.892 12.1888 14.7985 12.1656 14.7281 12.1183C14.6969 12.1033 14.6737 12.0872 14.6425 12.064C14.6275 12.056 14.6033 12.0409 14.5963 12.0489C14.5882 12.057 14.5882 12.0721 14.5812 12.0882C14.5812 12.1505 14.6275 12.1898 14.6586 12.228C14.6898 12.2592 14.7049 12.2984 14.7291 12.3296C14.7995 12.4151 14.9001 12.4624 15.0017 12.5167C15.1103 12.571 15.2039 12.6334 15.2974 12.7119C15.3598 12.7662 15.4141 12.8285 15.4533 12.907C15.4684 12.9382 15.4845 12.9613 15.4926 12.9925C15.5077 13.0388 15.5157 13.0941 15.5389 13.1404C15.57 13.2179 15.6405 13.2883 15.7179 13.3355C15.7954 13.3748 15.8889 13.3899 15.9825 13.413C16.0288 13.4211 16.0841 13.4361 16.1223 13.4593C16.1454 13.4744 16.1686 13.4985 16.1847 13.5367C16.1927 13.5518 16.1998 13.5679 16.1998 13.576C16.1998 13.5911 16.1605 13.5991 16.1374 13.6072C16.075 13.6152 16.0358 13.6222 15.9895 13.6303C15.9432 13.6383 15.8879 13.6454 15.8336 13.6383C15.7712 13.6303 15.7089 13.6152 15.6465 13.5921C15.5761 13.5609 15.5137 13.5297 15.4513 13.4905C15.4051 13.4593 15.3658 13.4281 15.3266 13.3889C15.2954 13.3577 15.2642 13.3184 15.225 13.2802C15.2099 13.2651 15.1938 13.241 15.1707 13.2339C15.1083 13.1877 15.0308 13.1796 14.9524 13.1635C14.8669 13.1484 14.7884 13.1323 14.711 13.1012C14.6647 13.0861 14.6174 13.0619 14.5711 13.0468C14.5249 13.0388 14.4695 13.0317 14.4233 13.0468C14.4001 13.0549 14.384 13.0619 14.3689 13.07C14.3609 13.078 14.3538 13.0851 14.3538 13.0931C14.3538 13.1082 14.3689 13.1243 14.385 13.1394C14.4313 13.1786 14.4786 13.1857 14.5249 13.2018C14.5792 13.2168 14.6335 13.241 14.6808 13.2792C14.727 13.3104 14.7582 13.3567 14.7975 13.404C14.8367 13.4583 14.8749 13.5206 14.9222 13.5679C14.9614 13.6072 15.0077 13.6303 15.0469 13.6534C15.1244 13.6927 15.2109 13.7238 15.2884 13.7701C15.3427 13.8013 15.39 13.8476 15.4362 13.8949C15.4986 13.9572 15.5529 14.0347 15.6073 14.1051C15.6465 14.1514 15.6847 14.1987 15.7089 14.253C15.7169 14.2842 15.732 14.3153 15.74 14.3385C15.7551 14.3777 15.7863 14.4089 15.8256 14.424C15.8487 14.4391 15.8718 14.4471 15.8799 14.4703C15.8879 14.4864 15.8879 14.5014 15.8799 14.5165C15.8718 14.5316 15.8567 14.5477 15.8336 14.5558C15.8105 14.5638 15.7873 14.5558 15.7561 14.5477C15.7169 14.5326 15.6857 14.5085 15.6545 14.4773C15.6083 14.431 15.569 14.3757 15.5147 14.3294C15.4684 14.2832 15.4131 14.252 15.3507 14.2278C15.3115 14.2127 15.2733 14.2047 15.2341 14.1966C15.1324 14.1655 15.0469 14.1111 14.9614 14.0568C14.9152 14.0337 14.8679 14.0105 14.8216 13.9864C14.7904 13.9713 14.7512 13.9552 14.72 13.9472C14.712 13.9472 14.7049 13.9391 14.6969 13.9391C14.6888 13.9391 14.6818 13.9391 14.6737 13.9472C14.6657 13.9552 14.6737 13.9623 14.6737 13.9703C14.6818 13.9784 14.6888 13.9854 14.6969 13.9934C14.72 14.0166 14.7361 14.0478 14.7592 14.0709C14.7904 14.1101 14.8216 14.1333 14.8608 14.1645C14.9001 14.1876 14.9463 14.2107 14.9936 14.2419C15.0168 14.25 15.0329 14.265 15.0479 14.2811C15.063 14.2962 15.0791 14.3204 15.0791 14.3435C15.0711 14.3586 15.056 14.3666 15.0329 14.3747C14.9785 14.3898 14.9313 14.3827 14.893 14.3596C14.8468 14.3365 14.7995 14.3053 14.7532 14.2741C14.7381 14.259 14.722 14.251 14.7069 14.2429C14.6677 14.2198 14.6214 14.2117 14.5822 14.1966C14.551 14.1886 14.5279 14.1735 14.4886 14.1655C14.4735 14.1655 14.4494 14.1655 14.4424 14.1735C14.4273 14.1886 14.4504 14.2198 14.4655 14.251C14.5047 14.3053 14.543 14.3365 14.5822 14.3596C14.6597 14.4059 14.7693 14.43 14.8699 14.4532C14.9474 14.4683 15.0178 14.4843 15.0882 14.5075C15.1345 14.5306 15.1737 14.5538 15.2129 14.5849C15.2753 14.6312 15.3216 14.6865 15.3769 14.7328C15.4232 14.7721 15.4855 14.8032 15.5409 14.8264C15.5871 14.8415 15.6264 14.8576 15.6807 14.8656C15.7038 14.8656 15.7199 14.8656 15.735 14.8737C15.7582 14.8817 15.7742 14.9048 15.7742 14.928C15.7742 14.9511 15.7662 14.9742 15.7511 14.9903C15.728 15.0135 15.6807 15.0215 15.6425 15.0296C15.557 15.0376 15.4715 15.0296 15.393 15.0145C15.3075 14.9994 15.2139 14.9682 15.1355 14.929C15.0651 14.8897 15.0027 14.8435 14.9333 14.8042C14.8629 14.765 14.7934 14.7419 14.715 14.7338C14.6607 14.7258 14.5983 14.7258 14.5359 14.7338C14.4816 14.7419 14.4343 14.757 14.38 14.7731C14.3719 14.7731 14.3649 14.7811 14.3649 14.7962C14.3649 14.8042 14.373 14.8113 14.38 14.8193C14.388 14.8274 14.4031 14.8274 14.4112 14.8354C14.4816 14.8586 14.5671 14.8505 14.6446 14.8505C14.7381 14.8586 14.8236 14.8737 14.9091 14.9129C14.9634 14.936 15.0178 14.9753 15.065 15.0145C15.1043 15.0537 15.1425 15.0919 15.1817 15.1312C15.221 15.1704 15.2672 15.2086 15.3145 15.2398C15.3377 15.2549 15.3608 15.271 15.3849 15.2861C15.4081 15.3012 15.4242 15.3092 15.4473 15.3253C15.4554 15.3334 15.4624 15.3404 15.4704 15.3485C15.4785 15.3636 15.4705 15.3796 15.4624 15.3947C15.4544 15.4028 15.4393 15.4028 15.4312 15.4028C15.4 15.4028 15.3688 15.4028 15.3457 15.3877C15.2753 15.3646 15.2129 15.3173 15.1506 15.2861C15.0801 15.2549 14.9946 15.2398 14.9172 15.2318C14.8468 15.2318 14.7844 15.2398 14.715 15.2469C14.6134 15.262 14.5128 15.278 14.4112 15.27C14.3337 15.27 14.2553 15.262 14.1848 15.2388C14.1074 15.2157 14.0289 15.1845 13.9515 15.1614C13.9203 15.1533 13.8891 15.1463 13.8499 15.1302C13.8267 15.1221 13.8036 15.1151 13.7875 15.1221C13.7794 15.1302 13.7724 15.1372 13.7724 15.1453C13.7644 15.1764 13.8036 15.1996 13.8428 15.2157C13.9132 15.2469 13.9595 15.262 14.0138 15.2861C14.1074 15.3253 14.209 15.3796 14.3176 15.4108C14.4112 15.442 14.5128 15.4501 14.5983 15.4883C14.6687 15.5195 14.7381 15.5657 14.8005 15.6211C14.8629 15.6754 14.9172 15.7297 14.9645 15.7921C15.0107 15.8464 15.058 15.9007 15.1123 15.948C15.1667 15.9943 15.2371 16.0335 15.3075 16.0496C15.3779 16.0647 15.4473 16.0647 15.5258 16.0577C15.5962 16.0496 15.6656 16.0265 15.728 16.0033C15.7742 15.9882 15.8135 15.9641 15.8527 15.9329C15.8678 15.9178 15.8839 15.9017 15.899 15.8937C15.9141 15.8856 15.9221 15.8786 15.9382 15.8786C15.9543 15.8786 15.9694 15.8786 15.9775 15.8866C16.0006 15.9017 15.9855 15.949 15.9624 15.9802C15.9392 16.0265 15.908 16.0506 15.8688 16.0738C15.8145 16.113 15.7602 16.1442 15.6978 16.1754C15.6354 16.1985 15.5731 16.2146 15.5026 16.2297C15.4252 16.2448 15.3387 16.2528 15.2532 16.2377C15.1516 16.2226 15.058 16.1915 14.9574 16.1442C14.8407 16.0979 14.7311 16.0426 14.6144 15.9883C14.5369 15.9571 14.4585 15.9259 14.381 15.9027C14.2955 15.8796 14.2019 15.8635 14.1164 15.8484C14.039 15.8333 13.9525 15.8092 13.875 15.7861C13.8358 15.771 13.7975 15.7629 13.7583 15.7468C13.7503 15.7468 13.7352 15.7468 13.7271 15.7549C13.7191 15.7629 13.7271 15.778 13.7352 15.7861C13.7503 15.7941 13.7664 15.8092 13.7815 15.8172C13.8519 15.8635 13.9213 15.9027 13.9997 15.9259C14.046 15.941 14.0933 15.941 14.1396 15.9571C14.21 15.9722 14.2724 16.0033 14.3347 16.0426C14.3971 16.0738 14.4595 16.113 14.5138 16.1593C14.5681 16.2055 14.6224 16.2609 14.6778 16.3071C14.7321 16.3534 14.7944 16.4007 14.8488 16.447C14.8719 16.4621 14.888 16.4781 14.895 16.5013C14.9101 16.5405 14.9101 16.5868 14.9031 16.6341C14.9031 16.6492 14.9031 16.6572 14.895 16.6653C14.88 16.6884 14.8246 16.6502 14.7864 16.619C14.7089 16.5566 14.6617 16.5103 14.6073 16.4711C14.545 16.4248 14.4746 16.3776 14.3971 16.3383C14.3267 16.3071 14.2573 16.292 14.1788 16.276C14.1396 16.2679 14.1013 16.2609 14.0621 16.2679C14.047 16.2679 14.0309 16.276 14.0309 16.283C14.0229 16.291 14.0309 16.3142 14.046 16.3293C14.0692 16.3605 14.1084 16.3524 14.1396 16.3605C14.2019 16.3685 14.2563 16.3916 14.3106 16.4228C14.3649 16.4621 14.4192 16.5003 14.4665 16.5476C14.5128 16.5868 14.552 16.625 14.5832 16.6723C14.5983 16.7035 14.6144 16.7347 14.6295 16.7739C14.6526 16.8202 14.6838 16.8675 14.715 16.9137C14.7462 16.953 14.7693 16.9912 14.8085 17.0073C14.8397 17.0224 14.8789 17.0304 14.9101 17.0536C14.9182 17.0616 14.9333 17.0767 14.9333 17.0928C14.9413 17.1079 14.9333 17.132 14.9182 17.1471C14.9031 17.1552 14.887 17.1622 14.8639 17.1552C14.7864 17.1471 14.7311 17.1008 14.6768 17.0616C14.6063 17.0073 14.5369 16.953 14.4585 16.8976C14.381 16.8353 14.3025 16.7729 14.217 16.7186C14.1466 16.6793 14.0772 16.6411 14.0068 16.617C13.9605 16.5938 13.9132 16.5777 13.8589 16.5707C13.7965 16.5556 13.7261 16.5556 13.6638 16.5476C13.5622 16.5244 13.4766 16.4771 13.3911 16.4077C13.368 16.3846 13.3368 16.3615 13.3137 16.3454C13.2905 16.3303 13.2594 16.3222 13.2282 16.3142C13.205 16.3142 13.1889 16.3222 13.1819 16.3373C13.1668 16.3916 13.1507 16.4389 13.1356 16.4932C13.1044 16.626 13.0964 16.7578 13.1044 16.8986C13.1195 17.1481 13.198 17.3815 13.2996 17.6078C13.4163 17.8724 13.5571 18.1219 13.7201 18.3482C13.8368 18.5041 13.9615 18.6601 14.0863 18.8079C14.1325 18.8623 14.1718 18.9095 14.219 18.9558C14.3206 19.0645 14.4293 19.1661 14.5621 19.2435C14.5852 19.2586 14.6013 19.2667 14.6164 19.2828C14.8035 19.4075 14.9826 19.5403 15.1536 19.6801C15.3487 19.836 15.5348 19.999 15.7139 20.1791C15.9865 20.4597 16.2199 20.7786 16.4301 21.1055C16.5629 21.3077 16.6796 21.518 16.7571 21.7363C16.8033 21.8761 16.8426 22.024 16.8657 22.1729C16.8657 22.188 16.8738 22.196 16.8888 22.196C16.9512 22.204 17.0055 22.204 17.0679 22.204C17.1846 22.196 17.3093 22.1648 17.418 22.1266C17.6282 22.0562 17.8304 21.9475 18.0095 21.8077C18.1181 21.7222 18.2278 21.6206 18.3133 21.512C18.5004 21.2856 18.6322 21.021 18.7106 20.7484C18.781 20.499 18.7961 20.2424 18.7961 19.9849C18.7961 19.5413 18.7569 19.0896 18.6563 18.6762C18.61 18.481 18.5547 18.2949 18.5084 18.1078C18.438 17.8352 18.3998 17.5545 18.3998 17.2668C18.3998 17.0405 18.4229 16.8071 18.4933 16.5969C18.5557 16.3866 18.6573 16.1915 18.781 16.0124C18.9058 15.8253 19.0537 15.6462 19.2247 15.5064C19.3021 15.444 19.3806 15.3817 19.4581 15.3273C19.5436 15.265 19.6291 15.2106 19.7156 15.1483C19.7548 15.1171 19.8011 15.0859 19.8484 15.0628C19.8635 15.0547 19.8876 15.0477 19.9107 15.0477C19.9258 15.0477 19.9419 15.0557 19.95 15.0708C20.0516 15.0165 20.0516 15.0396 20.0355 15.0628L20.0325 15.0708ZM14.3629 9.82174C14.3709 9.8137 14.3629 9.79056 14.3478 9.78251C14.3166 9.74328 14.2623 9.74328 14.215 9.73624C14.1526 9.72819 14.0983 9.72819 14.044 9.72819C13.9977 9.72819 13.9585 9.72819 13.9112 9.72014C13.8881 9.72014 13.8649 9.7121 13.8338 9.70505C13.8106 9.69701 13.7875 9.68996 13.7714 9.68996C13.7483 9.68996 13.7402 9.70505 13.7322 9.7292C13.7161 9.76843 13.709 9.80666 13.701 9.85394C13.701 9.88512 13.6929 9.9163 13.701 9.93944C13.709 9.96258 13.7402 9.97867 13.7633 9.97867C13.7945 9.97867 13.8257 9.97063 13.8569 9.95554C13.88 9.94749 13.9032 9.9324 13.9273 9.92435C13.9585 9.90122 13.9977 9.88512 14.0289 9.86198C14.0521 9.84689 14.0681 9.83885 14.0913 9.8308C14.1305 9.82275 14.1687 9.8308 14.208 9.8308C14.2472 9.83885 14.2784 9.83885 14.3247 9.83885C14.3478 9.8308 14.3639 9.82376 14.3639 9.82376L14.3629 9.82174ZM14.2844 10.4605C14.2925 10.4605 14.2925 10.4525 14.2844 10.4454C14.2844 10.4303 14.2693 10.4062 14.2532 10.3911C14.2382 10.368 14.2221 10.3519 14.1989 10.3368C14.1758 10.3137 14.1526 10.2905 14.1285 10.2825C14.1054 10.2744 14.0742 10.2744 14.043 10.2744C14.0038 10.2744 13.9655 10.2825 13.9344 10.3207C13.9263 10.3358 13.9112 10.3519 13.9112 10.3599C13.9112 10.375 13.9344 10.3831 13.9575 10.3911C13.9887 10.4062 14.0118 10.4143 14.035 10.4223C14.0661 10.4303 14.0893 10.4374 14.1205 10.4454C14.1516 10.4535 14.1828 10.4605 14.2221 10.4686C14.2532 10.4605 14.2764 10.4686 14.2844 10.4605ZM13.9726 9.27652C13.9806 9.26847 13.9645 9.23728 13.9494 9.21415C13.9263 9.19101 13.9102 9.16787 13.8951 9.15178C13.88 9.12864 13.8639 9.11255 13.8408 9.09746C13.8257 9.08941 13.8016 9.08941 13.7865 9.08237C13.7633 9.08237 13.7402 9.08237 13.7161 9.09042C13.6849 9.09846 13.6617 9.11355 13.6537 9.13669V9.16787C13.6617 9.18296 13.6849 9.19101 13.7 9.19906C13.7312 9.20711 13.7623 9.23024 13.7935 9.23829C13.8247 9.25338 13.8639 9.26143 13.9102 9.26948C13.9334 9.28456 13.9645 9.29261 13.9726 9.27752V9.27652ZM13.7241 8.74638C13.7322 8.73129 13.7241 8.70715 13.709 8.69206C13.6939 8.66892 13.6698 8.65282 13.6547 8.62969C13.6396 8.60655 13.6155 8.58341 13.5923 8.56732C13.5692 8.55927 13.538 8.55927 13.5068 8.55927C13.4837 8.55927 13.4606 8.55927 13.4364 8.58241C13.4133 8.5975 13.3972 8.62164 13.3972 8.64478C13.4052 8.65987 13.4203 8.66791 13.4364 8.67596C13.4595 8.69105 13.4827 8.70715 13.4988 8.71519C13.538 8.73028 13.5843 8.73833 13.6316 8.75443C13.6547 8.76247 13.6778 8.77756 13.702 8.77052C13.702 8.76247 13.7171 8.75443 13.7251 8.74738L13.7241 8.74638ZM10.1258 10.6315C10.1409 10.6084 10.1409 10.5772 10.1258 10.5611C10.1178 10.5531 10.1027 10.546 10.0866 10.546C10.0634 10.546 10.0473 10.546 10.0242 10.5541C9.99302 10.5621 9.96184 10.5692 9.94675 10.5933C9.9387 10.6084 9.94675 10.6245 9.94675 10.6396C9.94675 10.6547 9.9548 10.6788 9.96184 10.6939C9.96989 10.709 9.97693 10.717 9.98498 10.7251H10.0081C10.0312 10.717 10.0544 10.71 10.0705 10.6939C10.0936 10.6708 10.1097 10.6547 10.1248 10.6315H10.1258ZM14.3941 12.4151C14.4172 12.4 14.386 12.3608 14.3629 12.3296C14.3478 12.3065 14.3317 12.2833 14.3166 12.2672C14.2935 12.236 14.2703 12.2049 14.2392 12.1817C14.216 12.1666 14.1929 12.1505 14.1687 12.1425C14.1295 12.1274 14.0832 12.1344 14.036 12.1425C14.0048 12.1505 13.9655 12.1656 13.9424 12.1968C13.9263 12.2119 13.9112 12.236 13.9112 12.2511C13.9112 12.2662 13.9193 12.2743 13.9263 12.2823C13.9575 12.3135 13.9967 12.3286 14.043 12.3447C14.0893 12.3598 14.1366 12.3759 14.1909 12.391C14.2301 12.399 14.2613 12.4141 14.2995 12.4141C14.3146 12.4141 14.3388 12.4221 14.3538 12.4141H14.3931L14.3941 12.4151ZM14.3548 11.8779C14.3629 11.8699 14.3629 11.8467 14.3548 11.8316C14.3468 11.8085 14.3317 11.7854 14.3237 11.7693C14.3156 11.7542 14.3005 11.7381 14.2925 11.73C14.2774 11.7069 14.2532 11.6908 14.2301 11.6677C14.207 11.6526 14.1838 11.6445 14.1526 11.6365C14.1134 11.6284 14.0752 11.6284 14.036 11.6445C14.0048 11.6526 13.9816 11.6677 13.9585 11.6908C13.9505 11.6989 13.9434 11.7139 13.9434 11.722C13.9434 11.7371 13.9665 11.7532 13.9826 11.7612C14.0289 11.7844 14.0601 11.8075 14.0993 11.8236C14.1386 11.8387 14.1929 11.8467 14.2321 11.8548C14.2553 11.8628 14.2714 11.8699 14.2945 11.8699C14.3257 11.885 14.3488 11.885 14.3569 11.8779H14.3548ZM14.207 13.3034C14.215 13.2953 14.207 13.2641 14.1989 13.249C14.1838 13.2259 14.1677 13.2028 14.1526 13.1867C14.1376 13.1635 14.1134 13.1323 14.0903 13.1162C14.0591 13.0931 14.0128 13.0931 13.9736 13.1012C13.9505 13.1092 13.9273 13.1162 13.9032 13.1323C13.8951 13.1404 13.88 13.1474 13.872 13.1555C13.8569 13.1786 13.9183 13.2098 13.9575 13.2329C13.9806 13.248 13.9967 13.2561 14.0199 13.2641C14.051 13.2792 14.0903 13.2873 14.1366 13.2953C14.1677 13.3034 14.1909 13.3104 14.207 13.3034ZM13.4897 15.4601C13.5048 15.445 13.4897 15.4209 13.4746 15.3897C13.4595 15.3666 13.4435 15.3434 13.4284 15.3273C13.4052 15.3193 13.3821 15.3193 13.3579 15.3193C13.3338 15.3193 13.3187 15.3273 13.3117 15.3424C13.3036 15.3505 13.3036 15.3736 13.3117 15.3887C13.3197 15.3967 13.3268 15.4118 13.3348 15.4118C13.3429 15.4199 13.3579 15.4199 13.374 15.4199C13.3972 15.4279 13.4133 15.4279 13.4284 15.435C13.4364 15.443 13.4515 15.4501 13.4595 15.4501C13.4676 15.4652 13.4827 15.4652 13.4907 15.4581L13.4897 15.4601ZM12.6176 12.4614C12.6326 12.391 12.6487 12.3286 12.6327 12.235C12.6246 12.1888 12.6176 12.1415 12.5864 12.1334C12.5713 12.1334 12.5632 12.1415 12.5471 12.1485C12.516 12.1636 12.5009 12.1948 12.4928 12.226C12.4777 12.2723 12.4616 12.3195 12.4465 12.3658C12.4154 12.4825 12.3761 12.5921 12.3299 12.7088C12.2755 12.8416 12.2132 12.9664 12.1427 13.0901C12.0653 13.2299 11.9788 13.3708 11.8933 13.5025C11.8782 13.5257 11.8701 13.5418 11.854 13.5649C11.7997 13.6424 11.7373 13.7289 11.683 13.8063C11.6599 13.8456 11.6368 13.8768 11.6368 13.9311C11.6368 13.9542 11.6448 13.9703 11.6518 13.9773C11.6669 13.9854 11.6981 13.9623 11.7223 13.9381C11.7534 13.915 11.7685 13.8918 11.7846 13.8677C11.839 13.8053 11.9013 13.743 11.9637 13.6806C12.0884 13.5478 12.19 13.416 12.2906 13.2681C12.3842 13.1354 12.4697 13.0036 12.524 12.8557C12.5703 12.731 12.5944 12.5831 12.6176 12.4584V12.4614ZM11.4024 15.102C11.4024 15.0869 11.3943 15.0708 11.3792 15.0557C11.3561 15.0326 11.34 15.0095 11.3169 14.9934C11.2857 14.9622 11.2394 14.931 11.2002 14.8998C11.1227 14.8535 11.0442 14.8143 10.9587 14.7912C10.8732 14.768 10.7877 14.7519 10.6942 14.7519C10.6006 14.7519 10.5071 14.76 10.4135 14.7751C10.328 14.7982 10.2425 14.8213 10.156 14.8525C10.1329 14.8606 10.1017 14.8757 10.0785 14.8837C10.0473 14.8988 10.0162 14.9149 10.0011 14.9461C9.99302 14.9692 9.98598 14.9924 9.99302 15.0084C10.0011 15.0235 10.0081 15.0477 10.0242 15.0477C10.0393 15.0557 10.0554 15.0477 10.0705 15.0477C10.0856 15.0396 10.1017 15.0396 10.1168 15.0326C10.1711 15.0095 10.2254 14.9863 10.2878 14.9702C10.3652 14.9471 10.4517 14.9471 10.5372 14.939C10.6539 14.939 10.7706 14.9471 10.8873 14.9622C10.9889 14.9773 11.0825 15.0014 11.175 15.0477C11.2143 15.0708 11.2525 15.094 11.2917 15.102C11.3148 15.1101 11.338 15.1171 11.3621 15.102C11.3853 15.1171 11.4014 15.1101 11.4014 15.102H11.4024ZM8.69232 15.7408C8.69232 15.7327 8.69232 15.7176 8.68428 15.7176C8.66919 15.7096 8.638 15.7176 8.61386 15.7327C8.54344 15.772 8.49717 15.8032 8.45794 15.8494C8.40361 15.9118 8.34929 15.9822 8.31006 16.0516C8.24769 16.1532 8.20142 16.2538 8.15414 16.3635C8.131 16.4178 8.10786 16.4721 8.08372 16.5194C8.06863 16.5425 8.06058 16.5657 8.05254 16.5969C8.05254 16.6119 8.04449 16.628 8.05254 16.6361C8.06058 16.6512 8.07567 16.6441 8.09177 16.6361C8.11491 16.6129 8.13804 16.5818 8.16218 16.5425C8.19337 16.4963 8.22455 16.449 8.25574 16.4027C8.27888 16.3635 8.31006 16.3252 8.3332 16.286C8.37243 16.2317 8.40361 16.1693 8.44184 16.115C8.48811 16.0526 8.54344 15.9822 8.58167 15.9198C8.61285 15.8736 8.64404 15.8263 8.68327 15.78C8.67522 15.772 8.68327 15.7569 8.69132 15.7408H8.69232ZM7.29002 15.7569C7.29807 15.7337 7.29807 15.7106 7.29002 15.6865C7.28197 15.6402 7.25079 15.5929 7.2196 15.5537C7.19647 15.5144 7.16528 15.4833 7.14215 15.4521C7.11096 15.4128 7.07978 15.3817 7.02546 15.3434C6.98622 15.3122 6.92385 15.273 6.91681 15.2972V15.3364C6.91681 15.3595 6.92486 15.3756 6.9319 15.3988C6.93995 15.4299 6.94699 15.4531 6.96309 15.4843C6.97818 15.5074 6.99427 15.5305 7.00936 15.5547C7.02445 15.5778 7.04859 15.601 7.07173 15.6171C7.07978 15.6251 7.08682 15.6321 7.09487 15.6402C7.10996 15.6553 7.12605 15.6714 7.1341 15.6945C7.15724 15.7257 7.17333 15.7569 7.20452 15.772C7.22765 15.7871 7.25884 15.7871 7.27493 15.78C7.28298 15.772 7.29002 15.7649 7.29002 15.7569ZM14.6114 27.6815C14.6194 27.6664 14.6194 27.6503 14.6114 27.6352C14.6033 27.6201 14.5882 27.6121 14.5651 27.6121C14.542 27.6121 14.5188 27.6201 14.5027 27.6272C14.4876 27.6352 14.4715 27.6503 14.4564 27.6664C14.4414 27.6895 14.4333 27.7288 14.4484 27.768C14.4564 27.7831 14.4635 27.7992 14.4796 27.7992C14.4947 27.8072 14.5108 27.7992 14.5259 27.7841C14.5409 27.769 14.549 27.7609 14.5651 27.7448L14.5802 27.7298C14.5953 27.7147 14.6033 27.6986 14.6114 27.6835V27.6815ZM14.0973 20.679C14.0973 20.6639 14.0893 20.6478 14.0742 20.6327C14.051 20.6096 14.0118 20.6096 13.9806 20.6096C13.9263 20.6096 13.879 20.6177 13.8247 20.6327C13.7784 20.6478 13.7231 20.679 13.6849 20.7102C13.6386 20.7494 13.5994 20.8038 13.5682 20.85C13.537 20.9044 13.5058 20.9587 13.4907 21.021C13.4756 21.0915 13.4827 21.177 13.4988 21.2393C13.5068 21.2625 13.5139 21.2856 13.538 21.3098C13.5461 21.3178 13.5611 21.3329 13.5692 21.3329C13.5923 21.3329 13.6084 21.3017 13.6155 21.2705C13.6386 21.2082 13.6547 21.1619 13.6698 21.1066C13.6778 21.0673 13.6929 21.0291 13.709 20.9899C13.7241 20.9667 13.7402 20.9355 13.7553 20.9194C13.7784 20.8963 13.8016 20.8802 13.8328 20.8651C13.8478 20.8571 13.8639 20.85 13.879 20.842C13.9183 20.8269 13.9565 20.8028 13.9957 20.7796C14.0189 20.7645 14.042 20.7484 14.0581 20.7253C14.0812 20.7102 14.0973 20.6941 14.0973 20.679Z" fill="black"/>
<path d="M23.7787 3.80078H0.537109V5.4596H23.7787V3.80078Z" fill="black"/>
<path d="M1.21512 0.53125H23.0936C23.4679 0.53125 23.7717 0.835048 23.7717 1.20926V2.20617H0.537109V1.20926C0.537109 0.835048 0.840908 0.53125 1.21512 0.53125Z" fill="black"/>
</svg>
