<svg width="41" height="9" viewBox="0 0 41 9" fill="none" xmlns="http://www.w3.org/2000/svg">
<path d="M19.5416 0.0959138C19.0572 0.196686 17.9298 0.525291 16.4678 0.98972L15.8293 1.19126L14.6403 1.18688C13.394 1.17812 11.5929 1.10802 5.19441 0.818845C-0.385035 0.564724 -0.0239345 0.573487 0.0201021 0.64797C0.249093 1.03353 0.70267 1.34461 1.16946 1.42786C1.64506 1.51987 3.30524 1.6776 8.69532 2.15517C10.197 2.291 11.7823 2.43558 12.2183 2.48378C14.4994 2.73352 14.9705 2.95259 15.6179 4.0567C16.2696 5.17396 16.5779 5.62524 17.1107 6.2255C17.7669 6.96595 18.9603 7.86414 20.0039 8.39867L20.4751 8.63965L20.9463 8.39867C21.9768 7.8729 23.1834 6.96595 23.8395 6.2255C24.3724 5.62524 24.6806 5.17396 25.3324 4.0567C25.9797 2.95259 26.4509 2.73352 28.732 2.48378C29.168 2.43558 30.7533 2.291 32.2549 2.15517C37.645 1.6776 39.3052 1.51987 39.7808 1.42786C40.2476 1.34461 40.7012 1.03353 40.9302 0.64797C40.9742 0.573487 41.3353 0.564724 35.7559 0.818845C30.5815 1.05106 27.8601 1.16498 26.5082 1.19565C25.1871 1.22632 25.3852 1.26137 23.4564 0.669877C21.739 0.139728 21.2194 0.0214299 20.5632 0.00390432C20.1493 -0.00923989 19.9599 0.00828572 19.5416 0.0959138ZM21.6289 0.910855C22.5581 1.14307 23.7118 1.52425 24.205 1.76085C24.6982 2.00182 24.8171 2.13765 24.8039 2.46187C24.7907 2.98764 24.1126 4.52551 23.5665 5.28349C23.2318 5.7523 22.5581 6.44457 22.0384 6.8608C21.6201 7.19817 20.6733 7.82033 20.528 7.85976C20.3474 7.90357 19.339 7.2376 18.5727 6.57163C17.7933 5.89251 17.2032 5.12576 16.7496 4.20567C16.503 3.70181 16.1816 2.81676 16.1375 2.50569C16.0803 2.12888 16.3533 1.89229 17.2164 1.5593C17.9518 1.27451 19.4579 0.849515 20.2109 0.713692C20.4443 0.674259 20.9639 0.744361 21.6289 0.910855Z" fill="black"/>
<path d="M17.2996 2.71583C17.0926 2.85166 17.009 3.11454 17.0926 3.36866C17.1939 3.69727 17.5682 3.84185 17.9602 3.70603C18.0923 3.65784 18.0967 3.64907 18.0967 3.39933V3.14083H17.8985C17.7048 3.14083 17.6343 3.20655 17.7664 3.25475C17.806 3.27227 17.8325 3.33799 17.8325 3.43C17.8325 3.56583 17.8237 3.57897 17.7004 3.57897C17.3877 3.57897 17.2336 3.16712 17.4405 2.89985C17.5242 2.79908 17.5638 2.78594 17.718 2.79908C17.8193 2.81223 17.9337 2.83413 17.9778 2.85166C18.0394 2.88233 18.0526 2.8648 18.0526 2.77717C18.0526 2.65449 17.9646 2.61506 17.6519 2.61506C17.5154 2.61506 17.4009 2.64573 17.2996 2.71583Z" fill="black"/>
<path d="M18.2606 2.64374C18.243 2.65689 18.2474 2.69194 18.2738 2.72261C18.2958 2.7489 18.3222 2.98549 18.3266 3.25276L18.3398 3.73033L18.7274 3.74348C19.0885 3.75662 19.1105 3.75224 19.1105 3.66461C19.1105 3.58575 19.0841 3.57698 18.8419 3.57698H18.5776L18.5908 3.41049C18.6041 3.24838 18.6041 3.24838 18.8154 3.23523C18.9608 3.22647 19.0224 3.20456 19.0224 3.15637C19.0224 3.11255 18.9652 3.09503 18.8022 3.09503H18.582V2.94168V2.78833H18.8507C19.0797 2.78833 19.1149 2.77957 19.0929 2.71823C19.0797 2.6788 19.0664 2.63936 19.0664 2.6306C19.0664 2.59993 18.2914 2.61307 18.2606 2.64374Z" fill="black"/>
<path d="M19.2592 2.668C19.2415 2.69429 19.2504 2.72934 19.2768 2.7381C19.312 2.74686 19.3296 2.90897 19.3296 3.25949C19.3296 3.75458 19.3296 3.75897 19.4309 3.74582C19.519 3.73268 19.5278 3.70201 19.5498 3.43036L19.5718 3.12366L19.8272 3.44351C20.0254 3.68448 20.1091 3.75458 20.1795 3.74582C20.272 3.73268 20.2764 3.71077 20.2764 3.185C20.2764 2.65485 20.272 2.63733 20.1795 2.62418C20.0871 2.61104 20.0826 2.62856 20.0694 2.96155L20.0562 3.31644L19.7788 2.96593C19.5718 2.69867 19.4793 2.61542 19.4001 2.61542C19.3384 2.61542 19.2768 2.63733 19.2592 2.668Z" fill="black"/>
<path d="M20.4746 2.6751C20.4746 2.71016 20.4966 2.75397 20.5186 2.76711C20.5451 2.78464 20.5627 2.99933 20.5627 3.27536V3.75293H20.937C21.2805 3.75293 21.3113 3.74417 21.3113 3.6653C21.3113 3.58644 21.2805 3.57767 21.0691 3.57767H20.8269V3.40242V3.22716H21.0471C21.2144 3.22716 21.2673 3.20964 21.2673 3.16144C21.2673 3.11325 21.2144 3.09572 21.0471 3.09572H20.8269V2.94237V2.78902H21.0735C21.2805 2.78902 21.3157 2.77588 21.3025 2.71016C21.2893 2.64882 21.2276 2.63567 20.8797 2.62253C20.5451 2.61377 20.4746 2.62253 20.4746 2.6751Z" fill="black"/>
<path d="M21.6298 2.66006C21.5769 2.68197 21.5109 2.75207 21.4889 2.81779C21.4228 2.98866 21.5197 3.14201 21.7751 3.28222C22.0305 3.41804 22.0702 3.54948 21.872 3.57139C21.8015 3.58015 21.687 3.56701 21.6166 3.54072C21.4889 3.49691 21.4845 3.50129 21.4977 3.6152C21.5109 3.72912 21.5241 3.7335 21.7795 3.74665C21.9953 3.75541 22.0658 3.74227 22.1626 3.66778C22.3872 3.49253 22.308 3.24279 21.9733 3.07629C21.8147 2.99743 21.7531 2.94047 21.7531 2.87037C21.7531 2.78712 21.7707 2.78274 21.9953 2.80465C22.2111 2.82655 22.2375 2.81779 22.2375 2.74769C22.2375 2.70387 22.2067 2.65568 22.167 2.64253C22.0658 2.6031 21.7487 2.61624 21.6298 2.66006Z" fill="black"/>
<path d="M22.431 2.66634C22.4134 2.69263 22.4222 2.72768 22.4487 2.73644C22.4839 2.74521 22.5015 2.90732 22.5015 3.25345V3.75293H22.6336H22.7657V3.18335V2.61377H22.616C22.5323 2.61377 22.4487 2.63567 22.431 2.66634Z" fill="black"/>
<path d="M23.1561 2.68253C22.9007 2.82273 22.9756 3.09438 23.3146 3.26963C23.4644 3.3485 23.5348 3.41422 23.5348 3.47118C23.5348 3.57633 23.3543 3.61138 23.1561 3.54128C23.0284 3.49747 23.024 3.50185 23.0372 3.61576C23.0504 3.72968 23.0636 3.73406 23.319 3.74721C23.6537 3.76473 23.8211 3.6552 23.8211 3.43175C23.8211 3.27401 23.7638 3.20829 23.482 3.05494C23.3587 2.98922 23.2926 2.91912 23.2926 2.86654C23.2926 2.78768 23.3146 2.7833 23.5348 2.8052C23.7506 2.82711 23.777 2.81835 23.777 2.74825C23.777 2.70443 23.7462 2.65624 23.7066 2.64309C23.5833 2.5949 23.275 2.6168 23.1561 2.68253Z" fill="black"/>
<path d="M1.28295 1.9911C1.29175 2.013 1.44588 2.16197 1.62643 2.32847C2.92992 3.51144 3.88111 3.87072 6.29432 4.07665C7.39524 4.17304 8.89689 4.26505 10.72 4.34391C11.5919 4.38334 12.411 4.43592 12.5431 4.46221C12.7061 4.49288 12.825 4.54984 12.9395 4.65061C13.0275 4.72947 13.0848 4.80834 13.0716 4.82148C13.0451 4.84777 9.8701 4.79519 8.0778 4.73824C7.51413 4.72071 7.25432 4.72509 7.28514 4.75576C7.38643 4.85653 9.58826 5.46993 10.8037 5.7372L11.4246 5.87302L13.142 5.8774C15.0048 5.88178 14.9916 5.88178 15.2294 6.13152L15.3306 6.24106L15.1413 6.26735C14.9255 6.29363 13.7145 6.38126 13.556 6.38126C13.4943 6.38126 13.4723 6.39879 13.4987 6.42069C13.5472 6.47327 15.1105 6.89827 15.8062 7.056C16.4536 7.1962 17.5677 7.40213 17.5897 7.38022C17.5985 7.37146 17.4972 7.27507 17.3607 7.16991C16.7927 6.71863 16.1497 5.94312 15.3174 4.71633C14.8859 4.07665 14.4455 3.59907 14.1417 3.43258C13.7321 3.21351 12.8029 3.0514 10.8301 2.85423C5.71304 2.35475 1.52955 1.95605 1.34019 1.95605C1.30056 1.95605 1.27414 1.97357 1.28295 1.9911Z" fill="black"/>
<path d="M37.7819 2.11378C36.9232 2.19264 35.197 2.35913 33.9507 2.48181C32.7045 2.60449 31.0795 2.76222 30.3397 2.83671C28.1511 3.04701 27.2307 3.20475 26.808 3.43258C26.5041 3.59907 26.0638 4.07664 25.6322 4.71633C24.7999 5.94312 24.157 6.71863 23.5889 7.16991C23.4524 7.27507 23.3511 7.37146 23.3599 7.38022C23.3819 7.40213 24.4961 7.1962 25.1434 7.056C25.8392 6.89827 27.4025 6.47327 27.4509 6.42069C27.4773 6.39879 27.4553 6.38126 27.3937 6.38126C27.2351 6.38126 26.0241 6.29363 25.8083 6.26735L25.619 6.24106L25.7203 6.13152C25.9581 5.88178 25.9449 5.88178 27.8076 5.8774L29.525 5.87302L30.146 5.7372C31.357 5.46993 33.5632 4.85653 33.6645 4.75576C33.6953 4.72509 33.4399 4.72071 32.8938 4.73824C31.1676 4.79081 27.9045 4.84777 27.8781 4.82148C27.8649 4.80834 27.9221 4.72947 28.0102 4.65061C28.1247 4.54984 28.2436 4.49288 28.4065 4.46221C28.5386 4.43592 29.3577 4.38334 30.2296 4.34391C32.0527 4.26504 33.55 4.17304 34.6553 4.07664C37.0641 3.87072 38.0197 3.51144 39.3232 2.32846C39.5037 2.16197 39.6623 2.013 39.6667 1.9911C39.6887 1.93852 39.4993 1.95166 37.7819 2.11378Z" fill="black"/>
</svg>
