<svg width="36" height="30" viewBox="0 0 36 30" fill="none" xmlns="http://www.w3.org/2000/svg">
<path d="M26.0489 2.45703C25.2378 6.10954 24.903 7.80377 24.2346 10.4291C23.5903 12.9597 23.0887 15.3223 22.2296 16.4682C21.3705 17.6381 20.2006 17.8769 19.4135 17.9717C19.0079 18.0197 18.6971 18.0437 17.814 18.0437C16.9309 18.0437 16.6201 18.0197 16.2145 17.9717C15.4274 17.8757 14.2575 17.6369 13.3984 16.4682C12.5393 15.3223 12.0377 12.9597 11.4174 10.4291C10.749 7.77977 10.4142 6.10828 9.60312 2.45703C9.60312 2.45703 8.79201 2.48104 8.43321 2.50504C7.93163 2.52905 7.55009 2.57705 7.14453 2.6238C7.14453 2.6238 7.6221 10.1423 7.83688 13.3413C8.05166 16.683 8.45721 22.3405 8.81602 26.6134C8.81602 26.6134 9.50837 26.7321 10.6543 26.7802C11.8482 26.8522 12.3965 26.8522 12.3965 26.8522C12.8981 24.9659 13.4944 22.3645 14.1868 21.2426C14.7591 20.3355 15.6195 20.2395 16.1198 20.1687C16.8841 20.0727 17.5525 20.05 17.838 20.05C18.1488 20.05 18.7931 20.05 19.5562 20.1687C20.0578 20.2408 20.9169 20.3355 21.4893 21.2426C22.1816 22.3645 22.8019 24.9659 23.2795 26.8522C23.2795 26.8522 23.8051 26.8522 24.9977 26.7802C26.1437 26.7081 26.836 26.6134 26.836 26.6134C27.1935 22.3405 27.6004 16.707 27.8151 13.3413C28.0299 10.1663 28.5075 2.6238 28.5075 2.6238C28.1019 2.57579 27.6964 2.52778 27.2188 2.50504C26.8613 2.48104 26.0489 2.45703 26.0489 2.45703Z" fill="black"/>
<path d="M35.5275 6.8982C35.05 2.12379 31.851 1.12191 29.0589 0.644338C27.6502 0.405554 25.1436 0.214779 23.5454 0.142765C22.1367 0.0467462 18.843 0 17.8398 0C16.8367 0 13.543 0.0480096 12.1343 0.142765C10.5348 0.214779 8.02822 0.405554 6.62078 0.644338C3.82739 1.12191 0.629706 2.12379 0.152138 6.8982C0.00810965 8.21088 -0.0158951 9.90511 0.00810965 11.7194C0.0561191 14.7503 0.318908 16.7793 0.461673 18.212C0.557692 19.1912 0.963246 22.1033 1.48756 23.6068C2.20391 25.6838 2.84825 26.2801 3.61261 26.9005C4.99731 28.0224 7.28913 28.3799 7.76543 28.4759C10.3428 28.9295 15.5468 29.0255 17.8626 29.0255C20.1784 29.0255 25.3811 28.9535 27.9597 28.4759C28.4373 28.3799 30.7291 28.0464 32.1126 26.9005C32.8769 26.2801 33.5212 25.6825 34.2376 23.6068C34.7632 22.1033 35.1687 19.1672 35.2635 18.212C35.4063 16.8033 35.669 14.7503 35.7171 11.7194C35.693 9.88111 35.645 8.18688 35.5263 6.8982M33.7613 14.9183C33.4745 18.7376 33.141 21.0294 32.6634 22.6756C32.2338 24.1311 31.7083 25.0862 30.9452 25.7786C29.6565 26.9485 27.8902 27.1873 26.8391 27.354C24.5953 27.6888 20.8 27.8076 17.8398 27.8076C14.8797 27.8076 11.0844 27.6888 8.84059 27.354C7.7907 27.1873 6.02446 26.9485 4.73452 25.7786C3.97016 25.0862 3.44584 24.1071 3.01628 22.6756C2.53871 21.0282 2.18117 18.7376 1.91838 14.9183C1.75161 12.6265 1.77562 8.90323 2.03714 6.8982C2.39469 3.89003 3.8754 2.38658 7.05034 1.83826C8.52979 1.57547 10.5348 1.38469 12.4211 1.28868C13.9485 1.19266 16.4311 1.14591 17.8398 1.14591C19.2245 1.12191 21.7311 1.19392 23.2346 1.28868C25.1209 1.38469 27.1259 1.57547 28.6053 1.83826C31.7803 2.41058 33.2597 3.9153 33.6425 6.8982C33.9053 8.87923 33.9293 12.6038 33.7613 14.9183Z" fill="black"/>
</svg>
