<svg width="8" height="26" viewBox="0 0 8 26" fill="none" xmlns="http://www.w3.org/2000/svg">
<path d="M7.92899 10.4146C7.83233 7.9683 7.59955 5.53422 7.23067 3.11445C7.10837 2.30922 6.95845 1.51012 6.82431 0.706939C6.78485 0.467823 6.66649 0.330893 6.42583 0.275713C4.85758 -0.0819396 3.29131 -0.100333 1.72108 0.271625C1.45083 0.334981 1.29894 0.490304 1.24568 0.772338C1.12732 1.39567 0.989232 2.01288 0.874819 2.63622C0.440838 4.9865 0.180449 7.35723 0.066036 9.74634C-0.060213 12.3684 -0.00497905 14.9885 0.227793 17.6004C0.375741 19.2599 0.590759 20.9112 0.799859 22.5646C0.906381 23.4148 1.06222 24.2588 1.2082 25.1049C1.27132 25.4769 1.50015 25.7078 1.85917 25.7794C3.28341 26.0635 4.71161 26.0778 6.13783 25.7957C6.59153 25.7058 6.81642 25.4728 6.90124 25.0028C7.62125 21.0625 7.98225 17.0874 8 13.0776C7.9783 12.1906 7.96647 11.3016 7.93096 10.4146H7.92899ZM0.776187 12.3071C0.983314 12.2213 1.06814 12.0782 1.06617 11.8412C1.0563 10.0774 1.14113 8.31982 1.34234 6.56835C1.51395 5.0703 1.77237 3.58655 2.10772 2.11915C2.16887 1.84938 2.32471 1.71858 2.59299 1.6961C2.97568 1.6634 3.21832 1.45562 3.32089 1.07277C3.37218 0.878612 3.42544 0.686502 3.47673 0.492348C3.48462 0.492348 3.49251 0.492348 3.5004 0.492348C3.5004 0.888831 3.50632 1.28531 3.5004 1.6818C3.45109 4.93132 3.40177 8.18085 3.34654 11.4283C3.34457 11.5775 3.32681 11.7328 3.28933 11.8759C3.19662 12.2274 2.99738 12.4073 2.64822 12.4257C1.91046 12.4665 1.17269 12.4911 0.417166 12.4808C0.537497 12.4216 0.655856 12.3582 0.77816 12.3071H0.776187ZM3.51027 25.4503C3.5004 25.4503 3.48857 25.4544 3.47871 25.4565C3.39191 25.1254 3.2992 24.7963 3.22226 24.4632C3.19267 24.3365 3.13941 24.2772 3.01316 24.2731C2.87508 24.267 2.73699 24.2425 2.59694 24.2323C2.32077 24.2098 2.16493 24.0892 2.10969 23.8174C1.93018 22.9202 1.73884 22.0251 1.58892 21.1238C1.2003 18.7919 1.0563 16.4375 1.06617 14.0729C1.06617 13.842 0.977396 13.7071 0.782105 13.6233C0.661774 13.5722 0.545388 13.5129 0.403358 13.4455C0.766324 13.4455 1.0997 13.4394 1.43308 13.4455C1.78026 13.4537 2.12942 13.4741 2.4766 13.4884C3.06642 13.515 3.33273 13.7929 3.34259 14.4122C3.37218 16.1452 3.39783 17.8783 3.42347 19.6114C3.45306 21.4732 3.48068 23.3371 3.5083 25.199C3.5083 25.2828 3.5083 25.3665 3.5083 25.4503H3.51027ZM4.63862 0.506654C4.65045 0.506654 4.66426 0.50461 4.6761 0.502566C4.76092 0.827519 4.85166 1.15043 4.9286 1.47742C4.95621 1.598 5.0075 1.64705 5.12389 1.65114C5.27775 1.65727 5.42965 1.67975 5.58154 1.6961C5.82615 1.72267 5.98396 1.84734 6.02933 2.1028C6.28183 3.49867 6.56194 4.89045 6.76118 6.29244C7.02354 8.13589 7.09259 9.99772 7.07878 11.8636C7.07878 12.0844 7.1636 12.2172 7.351 12.299C7.47725 12.3541 7.6035 12.4154 7.72383 12.5115C7.6252 12.5115 7.52854 12.5156 7.42991 12.5115C6.85192 12.489 6.27591 12.4584 5.69595 12.44C5.07852 12.4195 4.81221 12.1518 4.80038 11.5039C4.77276 9.93845 4.74711 8.37091 4.72344 6.80542C4.69385 4.78417 4.66426 2.76293 4.63467 0.743726C4.63467 0.664021 4.63467 0.586359 4.63467 0.506654H4.63862ZM7.37073 13.6151C7.16557 13.701 7.07878 13.8461 7.08075 14.0831C7.09653 16.0574 7.00579 18.0255 6.72173 19.9772C6.5363 21.2587 6.27197 22.5299 6.03525 23.8051C5.98396 24.0892 5.83404 24.2057 5.55787 24.2302C5.1686 24.2657 4.92268 24.4789 4.8201 24.8699C4.77079 25.0559 4.72344 25.2398 4.67413 25.4258C4.66229 25.4258 4.65045 25.4238 4.63862 25.4217C4.63862 25.3543 4.63862 25.2848 4.63862 25.2174C4.69385 21.6224 4.74711 18.0275 4.80629 14.4306C4.80827 14.2752 4.84377 14.1158 4.89112 13.9666C4.97594 13.6948 5.16334 13.5293 5.44346 13.5129C5.92281 13.4823 6.40413 13.4598 6.88349 13.4434C7.16163 13.4332 7.43977 13.4434 7.73961 13.4434C7.61139 13.5048 7.49303 13.5661 7.37073 13.6192V13.6151Z" fill="black"/>
</svg>
