<svg width="31" height="31" viewBox="0 0 31 31" fill="none" xmlns="http://www.w3.org/2000/svg">
<path fill-rule="evenodd" clip-rule="evenodd" d="M15.3262 30.6523C19.4198 30.6523 23.2682 29.0577 26.163 26.163C29.0577 23.2682 30.6523 19.4198 30.6523 15.3262C30.6523 11.2325 29.0577 7.38409 26.163 4.48935C23.2682 1.59461 19.4198 0 15.3262 0C11.2325 0 7.38409 1.59461 4.48935 4.48935C1.59461 7.38409 0 11.2325 0 15.3262C0 19.4198 1.59461 23.2682 4.48935 26.163C7.38409 29.0577 11.2325 30.6523 15.3262 30.6523Z" fill="black"/>
<path fill-rule="evenodd" clip-rule="evenodd" d="M0.115234 15.3275C0.115234 11.2649 1.69708 7.44566 4.56994 4.5728C7.44371 1.69995 11.2629 0.117188 15.3256 0.117188C19.3883 0.117188 23.2075 1.69904 26.0803 4.57189C28.9532 7.44475 30.535 11.264 30.535 15.3266C30.535 19.3893 28.9532 23.2085 26.0803 26.0814C23.2075 28.9542 19.3883 30.5361 15.3256 30.5361C11.2629 30.5361 7.44371 28.9542 4.57085 26.0814C1.69799 23.2094 0.115234 19.3902 0.115234 15.3275Z" fill="white"/>
<path fill-rule="evenodd" clip-rule="evenodd" d="M15.3262 29.7773C23.3047 29.7773 29.7734 23.3086 29.7734 15.3301C29.7734 7.35152 23.3047 0.882812 15.3262 0.882812C7.34762 0.882812 0.878906 7.35152 0.878906 15.3301C0.878906 23.3086 7.34762 29.7773 15.3262 29.7773Z" fill="black"/>
<path fill-rule="evenodd" clip-rule="evenodd" d="M15.2459 23.4552C18.8938 23.4552 25.223 22.1769 27.4047 19.8074C29.4461 17.5909 28.6046 15.4684 27.4686 13.9203L19.0852 4.89696C18.4452 4.25692 17.1013 3.29688 15.2459 3.29688C13.3906 3.29688 12.0467 4.25692 11.4066 4.89696L3.02331 13.9203C1.52625 15.7265 1.25273 17.849 3.08713 19.8074C5.28895 22.1578 11.5981 23.4552 15.2459 23.4552Z" fill="white"/>
<path fill-rule="evenodd" clip-rule="evenodd" d="M15.2462 22.5182C18.5549 22.5182 24.069 21.1251 26.2745 19.2095C28.2666 17.48 27.7834 15.321 26.3328 13.8695L18.729 5.68585C18.1482 5.10508 16.9293 4.23438 15.2462 4.23438C13.5632 4.23438 12.3442 5.10508 11.7634 5.68585L4.1596 13.8695C2.70813 15.321 2.22583 17.48 4.21795 19.2095C6.42342 21.1251 11.9376 22.5182 15.2462 22.5182Z" fill="black"/>
<path fill-rule="evenodd" clip-rule="evenodd" d="M15.1005 16.4069C14.723 16.4069 13.7366 16.3632 13.4175 16.3203L13.1567 16.9011C13.0555 17.119 13.3308 17.2202 13.4466 17.1044C13.5624 16.9886 14.2015 16.6695 14.5061 16.9157V19.6873C14.5061 19.8761 14.3246 20.0356 14.1942 20.0356C14.0639 20.0356 13.9545 20.1231 13.9545 20.2243C13.9545 20.3255 14.0128 20.3985 14.2298 20.4131C14.6656 20.4422 15.6813 20.4422 15.9712 20.4131C16.1891 20.4131 16.2465 20.3264 16.2465 20.2243C16.2465 20.1222 16.1381 20.0356 16.0068 20.0356C15.8755 20.0356 15.695 19.8761 15.695 19.6873V16.9157C15.9995 16.6686 16.6386 16.9886 16.7544 17.1044C16.8702 17.2202 17.1464 17.119 17.0443 16.9011L16.7836 16.3203C16.4644 16.3641 15.478 16.4069 15.1005 16.4069Z" fill="white"/>
<path fill-rule="evenodd" clip-rule="evenodd" d="M17.4381 16.2625C17.2494 16.3063 17.2275 16.4586 17.2567 16.5306C17.2859 16.6035 17.3798 16.6464 17.5102 16.661C17.6406 16.6755 17.7281 16.7694 17.7573 16.9007L18.3809 19.0342C18.4967 19.4554 19.2808 20.2386 20.7897 19.6724C22.2986 19.1062 21.8053 17.9602 21.7333 17.7423L21.2255 16.0009C21.1525 15.7538 21.2109 15.6818 21.2838 15.5796C21.3568 15.4784 21.3422 15.1302 21.0085 15.246C20.8052 15.3189 20.4569 15.4201 20.3265 15.4639C20.1961 15.5076 20.0794 15.783 20.3119 15.8267C20.5444 15.8705 20.6164 15.8851 20.6748 16.1021L21.1826 17.8435C21.313 18.3075 21.2692 18.83 20.631 19.0624C19.9928 19.2949 19.485 18.8737 19.3975 18.5838L18.8896 16.857C18.8313 16.6099 18.8532 16.4503 18.9981 16.3637C19.1431 16.2762 19.1723 15.8997 18.8823 15.9571C18.5924 16.0154 17.5977 16.2762 17.4381 16.2616V16.2625Z" fill="white"/>
<path fill-rule="evenodd" clip-rule="evenodd" d="M11.2415 15.7854C10.4866 15.3787 9.06517 15.2775 8.36861 16.5403C7.64105 17.8586 8.13612 18.9199 9.41345 19.5298C11.0774 20.324 12.011 19.167 12.2435 18.6446C12.6182 17.8021 12.8096 16.6278 11.2424 15.7863L11.2415 15.7854Z" fill="white"/>
<path fill-rule="evenodd" clip-rule="evenodd" d="M10.9652 16.2347C10.3562 15.9594 9.79 16.2201 9.35419 17.0325C8.9193 17.8448 9.01503 18.6918 9.49916 18.948C9.9924 19.2097 10.6023 19.1805 11.153 18.1648C11.7046 17.1492 11.5013 16.5684 10.9643 16.2347H10.9652Z" fill="black"/>
<path fill-rule="evenodd" clip-rule="evenodd" d="M6.60428 13.4723C6.50308 13.3493 6.38638 13.3566 6.31435 13.4432C6.24141 13.5298 6.28518 13.6319 6.3727 13.7331C6.46023 13.8343 6.53226 14.0595 6.40917 14.1972L4.79085 16.3014C4.68236 16.4245 4.47175 16.4318 4.32678 16.3233C4.18182 16.2148 3.92015 16.4036 4.13806 16.5631C4.35596 16.7227 6.19856 18.072 6.83677 18.3556L7.50416 17.7392C7.59807 17.6453 7.49869 17.4265 7.33731 17.5359C6.81489 17.8915 5.96607 17.7101 5.68344 16.9123L7.25799 14.8591C7.32364 14.7716 7.49686 14.5837 7.73665 14.6849C7.87432 14.7433 7.93267 14.6922 7.96914 14.6339C8.00561 14.5755 8.00014 14.4488 7.91079 14.4014C7.75853 14.3212 6.72828 13.589 6.60519 13.4723H6.60428Z" fill="white"/>
<path fill-rule="evenodd" clip-rule="evenodd" d="M24.4904 13.7812C24.3016 13.8825 24.0117 13.9116 23.7646 13.97C23.5175 14.0283 23.0389 14.1733 22.7344 14.362C22.4299 14.5507 21.6604 15.2765 22.1107 16.1618C22.3578 16.5967 22.9085 16.8729 24.0983 16.5101C24.5195 16.3797 25.2015 16.1764 25.3319 16.4663C25.4623 16.7562 25.1432 17.2066 24.6499 17.4099C24.1567 17.6132 23.4455 17.5695 23.141 17.4099C22.996 17.3233 22.7927 17.4245 22.9085 17.5987L23.3434 18.1794C23.8658 18.1648 24.7073 18.0053 25.1714 17.7299C25.6355 17.4546 26.5645 16.6851 26.1287 15.7424C25.6938 14.7987 24.794 15.0896 24.6052 15.147C24.4165 15.2054 22.9076 15.6986 22.7918 15.3503C22.676 15.0021 23.0817 14.61 23.4592 14.5088C23.8366 14.4076 24.504 14.393 24.7219 14.4505C24.9398 14.5088 25.0265 14.3629 24.9107 14.2034L24.5332 13.7968L24.4894 13.7822L24.4904 13.7812Z" fill="white"/>
<path fill-rule="evenodd" clip-rule="evenodd" d="M18.9031 13.2017C18.5256 13.5208 17.4516 14.3331 16.001 14.3331C14.6799 14.3331 12.3486 13.9721 11.942 11.1467L12.3641 10.5021H13.0498C13.047 10.5431 13.0452 10.5859 13.0452 10.6288C13.0425 11.7238 13.6998 12.3948 14.5067 12.6164V12.7075C14.5067 13.0121 14.3034 13.085 14.1293 13.0996C13.9551 13.1142 13.9405 13.4187 14.1876 13.4187H16.8289C17.685 13.4187 18.5995 12.94 18.5849 11.866C18.5703 10.792 17.7725 10.4583 17.3367 10.255C17.5692 10.182 18.1199 9.96506 18.1199 9.25391C18.1199 8.54276 17.3796 8.07869 16.7559 8.07869H13.0698C12.8811 8.07869 12.8738 8.15892 12.8738 8.23095C12.8738 8.31757 12.9467 8.33945 12.975 8.38321C13.0042 8.42697 13.0115 8.53547 12.924 8.66584L11.8791 10.2623C11.8791 10.255 11.8791 10.2477 11.8791 10.2404C11.8791 6.74301 14.9261 6.72842 15.3619 6.70016C15.7968 6.67098 17.3787 6.85971 18.583 7.57086C18.9313 7.83161 18.9313 7.54168 18.873 7.45507C18.7572 7.19432 18.4381 6.6719 18.2922 6.46858C18.1472 6.26526 17.8573 6.23609 17.7698 6.35279C17.6832 6.46858 17.5665 6.61354 17.2474 6.49776C16.9283 6.38197 15.9992 6.16406 14.8823 6.16406C13.925 6.16406 10.7322 7.00559 10.7176 10.2121C10.7148 10.7738 10.7841 11.2834 10.9109 11.7429L10.3839 12.5489C10.0356 13.1005 9.55694 13.1151 9.33904 13.1151C9.12113 13.1151 9.06369 13.405 9.29527 13.4196H10.9637C11.1908 13.4196 11.1525 13.1224 11.0075 13.0713C10.8972 13.033 10.7896 12.9045 10.899 12.7376L11.1351 12.3766C11.9694 14.2757 13.9223 15.1181 15.7667 15.0306C17.3048 14.9723 18.5821 14.3632 19.307 13.5217C19.5969 13.2026 19.2778 12.8835 18.9003 13.2026L18.9031 13.2017Z" fill="white"/>
<path fill-rule="evenodd" clip-rule="evenodd" d="M13.668 10.658C13.668 10.6051 13.668 10.5531 13.6707 10.5039H14.5058V12.0119C14.1175 11.8268 13.6744 11.4393 13.668 10.658Z" fill="black"/>
<path fill-rule="evenodd" clip-rule="evenodd" d="M14.507 10.0082H13.7539C13.9007 9.53318 14.2134 9.29613 14.507 9.17578V10.0082Z" fill="black"/>
<path fill-rule="evenodd" clip-rule="evenodd" d="M13.6638 8.51562H14.2875C14.5054 8.51562 14.5054 8.73353 14.5054 8.84932V8.87302C14.0386 8.99793 13.3976 9.32433 13.1487 10.0099H12.6855L13.6638 8.51562Z" fill="black"/>
<path fill-rule="evenodd" clip-rule="evenodd" d="M16.428 10.0106C16.842 10.0106 17.1775 9.67508 17.1775 9.26116C17.1775 8.84723 16.842 8.51172 16.428 8.51172H15.3613V10.0079L16.428 10.0097V10.0106Z" fill="black"/>
<path fill-rule="evenodd" clip-rule="evenodd" d="M15.3633 10.5039H16.0598C16.5093 10.5039 17.5833 10.7072 17.5833 11.7812C17.5833 12.8553 16.5239 13.0732 16.1182 13.0586C15.7116 13.044 15.3633 13.0294 15.3633 12.6374V10.5039Z" fill="black"/>
</svg>
