<svg width="43" height="21" viewBox="0 0 43 21" fill="none" xmlns="http://www.w3.org/2000/svg">
<path d="M21.3796 12.7254C22.7901 11.6947 24.2135 10.6546 25.6368 9.68644C22.9595 11.8841 20.5257 14.0004 17.605 16.7678C16.4692 17.826 16.7126 18.3957 18.4163 18.6399C21.7426 19.1283 25.3123 19.1283 29.3687 18.3143C36.5199 16.8633 42.8753 13.4961 42.1297 9.00343C42.6237 11.944 40.8753 16.6423 29.1253 19.1283C22.9595 20.512 17.1994 19.9423 11.7637 18.8027C14.785 17.5445 18.0466 15.1611 21.3796 12.7254Z" fill="#1A1A1A"/>
<path d="M42.106 8.87249C42.1145 8.91624 42.1224 8.95989 42.1297 9.00343C42.1223 8.95939 42.1143 8.91573 42.106 8.87249Z" fill="#1A1A1A"/>
<path fill-rule="evenodd" clip-rule="evenodd" d="M33.9119 1.62791C30.18 0.406977 25.6368 0 21.1747 0C10.6279 0.162791 0 5.61628 0 11.4767C0 14.5698 2.515 16.9302 6.49032 18.8837C7.38274 19.3721 7.95064 19.2907 9.32983 18.8837L34.2364 3.66279C34.3176 3.66279 42.1871 6.67442 39.9966 11.7209C39.023 13.9186 34.4798 15.7093 30.3422 16.6047C27.0971 17.4186 23.1218 17.3372 22.2293 17.2558C19.6732 16.9627 20.1413 16.4718 20.9112 15.6642C20.9965 15.5746 21.0856 15.4812 21.1747 15.3837L25.9613 10.2558C26.9348 9.27907 27.8272 7.97674 24.8255 9.84884L12.1693 17.8256C11.5203 18.2326 9.41096 19.6977 12.1693 20.2674C14.3598 20.6744 18.3351 21 21.1747 21C33.1817 20.6744 42.8361 16.1163 42.9984 10.0116C43.0795 6.9186 40.1588 4.23256 35.9401 2.52326L37.4005 1.62791C38.4551 0.976744 37.725 -0.406977 36.1024 0.488372L33.9119 1.62791ZM12.0071 3.66279C18.3345 1.62599 25.098 1.37258 31.5592 2.93023C30.6577 3.40504 29.7876 3.87984 28.9175 4.35465C26.6551 5.58915 24.3928 6.82364 21.5803 8.05814C21.0333 8.29674 20.4794 8.54933 19.9082 8.80975C18.531 9.43774 17.0538 10.1113 15.3334 10.7442C15.209 10.7925 15.0841 10.8412 14.9585 10.8901C12.5431 11.8314 9.87149 12.8725 6.24693 13.1047C3.73193 13.2674 1.05468 10.7442 6.08467 6.67442C7.86951 5.2093 9.97886 4.39535 12.0071 3.66279ZM7.62612 17.256C8.19803 18.4036 14.6929 14.6075 20.2104 11.3826C21.7371 10.4903 23.189 9.6417 24.4198 8.95371C22.9955 9.81564 21.6468 10.6649 20.307 11.5086C16.8389 13.6925 13.4303 15.8389 8.92419 18.07C7.70725 18.6398 7.22048 18.3142 7.62612 17.256ZM11.2769 15.3839C9.16757 16.5235 6.65257 16.8491 5.27338 16.2793C3.97532 15.7095 1.13581 14.0816 0.81129 12.2095C0.486774 10.256 1.05468 8.95371 3.40742 6.51185C4.62435 5.20952 6.89596 3.8258 9.57322 2.68627C14.4588 0.938607 19.6505 0.218243 24.8255 0.569988C27.7461 0.651383 30.5856 1.05836 33.5063 1.87231L33.0195 2.19789C25.4275 0.397209 17.4898 0.706753 10.06 3.09324C7.62612 4.06999 5.5979 5.45371 3.89419 7.00022C-0.0811292 10.5816 1.78484 13.6746 6.24693 13.756C10.2223 13.8374 16.1447 11.1514 22.0671 8.46534C25.8825 6.81001 28.8132 5.12182 31.6921 3.46342C33.3432 2.51234 34.9773 1.57104 36.7514 0.651383C36.9948 0.488592 37.1571 0.814174 36.9137 0.976965C28.6385 5.77929 19.7955 10.8258 11.2769 15.3839ZM35.4534 2.605L34.9666 2.93058C35.3064 3.11102 35.6547 3.28529 36.005 3.46053C38.4988 4.70818 41.0913 6.00518 41.3758 9.93058C41.6192 13.8376 36.0213 16.4422 28.8008 17.7445C25.9899 18.2381 23.4833 18.1209 21.4919 18.0278C21.1843 18.0134 20.889 17.9996 20.6068 17.9887C18.4163 17.8259 18.822 16.6864 19.8767 15.7096L25.6368 10.1748C27.016 8.87244 26.8538 8.87244 25.15 9.93058L12.0071 18.3143C11.1147 18.8841 11.1147 19.2096 11.926 19.3724C17.0371 20.5934 22.4728 20.7562 28.882 19.698C34.2365 18.8027 42.5928 15.2213 42.6739 10.2562C42.755 6.18639 38.2118 3.82593 35.4534 2.605Z" fill="#1A1A1A"/>
</svg>
