<svg width="36" height="31" viewBox="0 0 36 31" fill="none" xmlns="http://www.w3.org/2000/svg">
<path d="M20.9716 16.2577C20.9425 16.2653 20.8288 16.2653 20.7783 16.2653H17.0942V17.1219H20.8427C20.8718 17.1219 21.0928 17.1219 21.1358 17.1143C21.9002 17.0423 22.2501 16.4068 22.2501 15.8509C22.2501 15.295 21.8863 14.6659 21.1939 14.6014C21.0587 14.5875 20.9438 14.5875 20.8945 14.5875H18.4447C18.3373 14.5875 18.2161 14.5799 18.1731 14.566C17.9798 14.5155 17.9091 14.3449 17.9091 14.2022C17.9091 14.0733 17.9811 13.9028 18.1807 13.8446C18.2376 13.8307 18.302 13.8232 18.4372 13.8232H21.9722V12.9805H18.3803C18.23 12.9805 18.1163 12.988 18.0228 13.0019C17.4088 13.0879 16.9805 13.5806 16.9805 14.2085C16.9805 14.7227 17.3014 15.3228 18.0089 15.4226C18.1377 15.4365 18.3159 15.4365 18.3942 15.4365H20.7795C20.8225 15.4365 20.9299 15.4365 20.9513 15.4441C21.223 15.4795 21.3152 15.6804 21.3152 15.8585C21.3152 16.0367 21.2078 16.2161 20.9728 16.2577H20.9716Z" fill="black"/>
<path d="M13.9872 16.2577C13.9582 16.2653 13.8444 16.2653 13.8015 16.2653H10.1098V17.1219H13.8583C13.8874 17.1219 14.1085 17.1219 14.1514 17.1143C14.9158 17.0423 15.2658 16.4068 15.2658 15.8509C15.2658 15.295 14.9019 14.6659 14.2095 14.6014C14.0744 14.5875 13.9594 14.5875 13.9101 14.5875H11.4604C11.353 14.5875 11.2317 14.5799 11.1887 14.566C10.9954 14.5155 10.9247 14.3449 10.9247 14.2022C10.9247 14.0733 10.9967 13.9028 11.1963 13.8446C11.2532 13.8307 11.3176 13.8232 11.4528 13.8232H14.9878V12.9805H11.396C11.2456 12.9805 11.1319 12.988 11.0384 13.0019C10.4244 13.0879 9.99609 13.5806 9.99609 14.2085C9.99609 14.7227 10.317 15.3228 11.0245 15.4226C11.1534 15.4365 11.3315 15.4365 11.4098 15.4365H13.7952C13.8381 15.4365 13.9455 15.4365 13.967 15.4441C14.2386 15.4795 14.3309 15.6804 14.3309 15.8585C14.3309 16.0367 14.231 16.2161 13.9884 16.2577H13.9872Z" fill="black"/>
<path d="M8.19034 12.9531H7.26172V17.1451H8.19034V12.9531Z" fill="black"/>
<path d="M5.21282 17.1438V12.9531H4.28423V16.0801L1.19268 12.9531H0V17.1438H0.928617V14.0018L4.04164 17.1438H5.21282Z" fill="black"/>
<path d="M35.0674 12.9531V16.0801L31.9759 12.9531H30.7832V17.1438H31.7118V14.0018L34.8173 17.1438H35.9884V12.9531H35.0674Z" fill="black"/>
<path d="M25.9499 12.9531L23.3359 17.1451H24.4642L24.9278 16.3959H27.9764L28.4401 17.1451H29.5607L26.9467 12.9531H25.9474H25.9499ZM27.4989 15.6012H25.4066L26.4565 13.9158L27.4989 15.6012Z" fill="black"/>
<path d="M5.16203 10.5747C7.03313 5.11175 12.1878 1.44155 18.0008 1.44155C23.8137 1.44155 28.976 5.11175 30.8395 10.5747L30.8534 10.6177H34.9443V10.1249L33.245 9.92533C32.1952 9.80404 31.9741 9.34037 31.6885 8.75415L31.6165 8.61138C29.1604 3.38467 23.8125 0 17.9995 0C12.1866 0 6.83858 3.38467 4.38251 8.62528L4.31049 8.76805C4.02496 9.353 3.80386 9.81794 2.75396 9.93923L1.05469 10.1388V10.6316H5.13929L5.16076 10.5747H5.16203Z" fill="black"/>
<path d="M30.8524 19.488L30.8385 19.531C28.9674 24.994 23.8127 28.6566 17.9997 28.6566C12.1868 28.6566 7.02451 24.9864 5.16099 19.5234L5.14707 19.4805H1.0625V19.9732L2.76178 20.1728C3.81167 20.2941 4.03277 20.7578 4.3183 21.344L4.3903 21.4868C6.84636 26.7274 12.1944 30.112 18.0073 30.112C23.8202 30.112 29.1682 26.7274 31.6243 21.4931L31.6963 21.3503C31.9819 20.7654 32.203 20.3004 33.2529 20.1791L34.9521 19.9795V19.4868H30.8537L30.8524 19.488Z" fill="black"/>
</svg>
