<svg width="27" height="21" viewBox="0 0 27 21" fill="none" xmlns="http://www.w3.org/2000/svg">
<path d="M10.0814 18.2921C10.0892 20.4955 10.0918 20.4825 8.66267 20.0667C5.94217 19.2742 3.62441 17.8529 1.8861 15.6079C-0.0237104 13.1395 -0.548583 10.4112 0.612892 7.43602C0.802574 6.95532 1.03123 6.828 1.54571 6.95792C4.63518 7.73743 6.78404 9.69661 8.33528 12.3729C9.51754 14.4153 10.0632 16.6473 10.0814 18.2921Z" fill="black"/>
<path d="M11.4064 19.9123C11.3908 20.1539 11.5571 20.5333 11.0349 20.5255C10.5386 20.5203 10.5386 20.2215 10.5308 19.8629C10.5074 18.9041 10.4762 17.9453 10.3411 16.9943C9.61873 11.8651 7.22303 7.8194 2.67846 5.17425C2.20816 4.90142 2.21855 4.71694 2.57973 4.37136C3.06043 3.90884 3.55152 3.45932 4.0582 3.02539C4.45835 2.68501 4.69221 2.76556 5.0248 3.12673C8.8678 7.29193 11.0738 12.1587 11.3726 17.8492C11.383 18.057 11.3934 18.2649 11.4116 18.6209C11.4116 18.9535 11.4324 19.4342 11.4038 19.9123H11.4064Z" fill="black"/>
<path d="M12.6059 20.1088C12.6059 20.3894 12.637 20.6571 12.2109 20.6467C11.8004 20.6389 11.8082 20.379 11.8108 20.0984C11.8367 17.7599 11.7172 15.4343 11.2651 13.1347C10.6909 10.2064 9.56317 7.48068 8.26398 4.81474C7.79107 3.84035 7.31037 2.86855 6.80369 1.91235C6.6192 1.56416 6.68416 1.40047 7.03494 1.25496C7.71052 0.974333 8.40689 0.766462 9.09806 0.537805C9.54238 0.389697 9.71127 0.527411 9.84379 0.963939C11.3638 5.92425 12.45 10.9573 12.5071 16.1723C12.5071 16.2762 12.5201 16.3801 12.5253 16.4841H12.6007C12.6007 17.6923 12.6007 18.9006 12.6007 20.1088H12.6059Z" fill="black"/>
<path d="M13.7343 20.1089C13.7343 20.3531 13.8617 20.6987 13.4147 20.7065C12.9678 20.7169 13.0744 20.3583 13.0666 20.1219C12.986 17.3728 12.9185 14.6237 12.8483 11.8746C12.7548 8.20568 12.417 4.55756 11.9051 0.922425C11.7804 0.0337789 11.7856 0.0155903 12.6924 0C12.8795 0 13.0666 0 13.1237 0C14.888 0.0441725 14.9296 0.0493692 14.6879 1.71753C13.8045 7.82112 13.698 13.9611 13.7343 20.1089Z" fill="black"/>
<path d="M14.9573 19.926C14.9625 20.1547 15.0846 20.4405 14.8066 20.6042C14.4584 20.8069 14.1388 20.5912 14.1336 20.1287C14.118 19.0036 14.1284 17.8785 14.1284 16.7534C14.1804 11.2968 15.3626 6.05068 16.958 0.874706C17.0698 0.513532 17.2387 0.394006 17.5894 0.513532C18.278 0.752582 18.9614 1.00203 19.6551 1.22289C20.1073 1.3658 20.167 1.57107 19.941 1.99721C18.8133 4.13307 17.7453 6.29752 16.8515 8.54772C15.4016 12.2062 14.8507 16.0129 14.9547 19.9286L14.9573 19.926Z" fill="black"/>
<path d="M16.2234 19.8334C16.2234 20.1166 16.3585 20.4804 15.8414 20.5194C15.527 20.5428 15.3607 20.483 15.3633 20.1426C15.3685 19.7061 15.3633 19.267 15.3633 18.8304C15.4569 12.8204 17.6265 7.64701 21.6644 3.21677C22.1061 2.73348 22.4101 2.72308 22.87 3.13882C23.3481 3.57275 23.8184 4.01188 24.2809 4.464C24.6135 4.78879 24.5148 4.9343 24.1588 5.13438C22.2906 6.19971 20.6822 7.56906 19.4116 9.31517C17.1276 12.4488 16.2494 16.0112 16.2208 19.8308L16.2234 19.8334Z" fill="black"/>
<path d="M26.1737 7.43674C27.3455 10.495 26.7583 13.2675 24.7524 15.7515C22.8088 18.1576 20.2364 19.5816 17.243 20.2883C16.8013 20.3923 16.6766 20.2597 16.6818 19.8596C16.687 19.4646 16.6818 19.0697 16.6818 18.6721C16.8663 14.759 18.3006 11.433 21.3563 8.89183C22.4944 7.94602 23.7962 7.31721 25.2409 6.95863C25.7501 6.83131 25.9866 6.94304 26.1763 7.43414L26.1737 7.43674Z" fill="black"/>
<path d="M24.7504 15.7515C22.8068 18.1576 20.2344 19.5816 17.2411 20.2883C16.7994 20.3923 16.6746 20.2597 16.6798 19.8596C16.685 19.4646 16.6798 19.0697 16.6798 18.6721C16.8643 14.759 18.2986 11.433 21.3543 8.89183C22.4924 7.94602 23.7942 7.31721 25.2389 6.95863C25.7482 6.83131 25.9846 6.94304 26.1743 7.43414C27.3462 10.4924 26.759 13.2649 24.753 15.749L24.7504 15.7515Z" fill="black"/>
<path d="M8.66515 20.0667C5.94465 19.2742 3.6269 17.8529 1.88858 15.6079C-0.0238274 13.1395 -0.5487 10.4112 0.612776 7.43602C0.802457 6.95532 1.03111 6.828 1.54559 6.95792C4.63507 7.73743 6.78393 9.69661 8.33516 12.3729C9.51742 14.4153 10.0631 16.6473 10.0813 18.2921C10.0891 20.4955 10.0917 20.4825 8.66255 20.0667H8.66515Z" fill="black"/>
<path d="M19.9436 1.99461C18.8159 4.13048 17.7479 6.29493 16.8541 8.54512C15.4042 12.2036 14.8533 16.0103 14.9573 19.926C14.9625 20.1547 15.0846 20.4405 14.8066 20.6042C14.4584 20.8069 14.1388 20.5912 14.1336 20.1287C14.118 19.0036 14.1284 17.8785 14.1284 16.7534C14.1804 11.2968 15.3626 6.05068 16.958 0.874706C17.0698 0.513532 17.2387 0.394006 17.5894 0.513532C18.278 0.752582 18.9614 1.00203 19.6551 1.22289C20.1073 1.3658 20.167 1.57107 19.941 1.99721L19.9436 1.99461Z" fill="black"/>
<path d="M12.2109 20.6467C11.8004 20.6389 11.8082 20.379 11.8108 20.0984C11.8367 17.7599 11.7172 15.4343 11.2651 13.1347C10.6909 10.2064 9.56317 7.48068 8.26398 4.81474C7.79107 3.84035 7.31037 2.86855 6.80369 1.91235C6.6192 1.56416 6.68416 1.40047 7.03494 1.25496C7.71052 0.974333 8.40689 0.766462 9.09806 0.537805C9.54238 0.389697 9.71127 0.527411 9.84379 0.963939C11.3638 5.92425 12.45 10.9573 12.5071 16.1723C12.5071 16.2762 12.5201 16.3801 12.5253 16.4841H12.6007C12.6007 17.6923 12.6007 18.9006 12.6007 20.1088C12.6007 20.3894 12.6319 20.6571 12.2057 20.6467H12.2109Z" fill="black"/>
<path d="M11.0349 20.5255C10.5386 20.5203 10.5386 20.2215 10.5308 19.8629C10.5074 18.9041 10.4762 17.9453 10.3411 16.9943C9.61873 11.8651 7.22303 7.81941 2.67846 5.17425C2.20816 4.90142 2.21855 4.71694 2.57972 4.37136C3.06043 3.90884 3.55152 3.45932 4.0582 3.02539C4.45835 2.68501 4.69221 2.76556 5.0248 3.12673C8.8678 7.29193 11.0738 12.1587 11.3726 17.8491C11.383 18.057 11.3934 18.2649 11.4116 18.6209C11.4116 18.9535 11.4324 19.4342 11.4038 19.9123C11.3882 20.1539 11.5545 20.5333 11.0323 20.5255H11.0349Z" fill="black"/>
<path d="M24.1614 5.13698C22.2932 6.20231 20.6848 7.57166 19.4142 9.31777C17.1302 12.4514 16.252 16.0138 16.2234 19.8334C16.2234 20.1166 16.3585 20.4804 15.8414 20.5194C15.527 20.5428 15.3607 20.483 15.3633 20.1426C15.3685 19.7061 15.3633 19.267 15.3633 18.8304C15.4569 12.8204 17.6265 7.64701 21.6644 3.21677C22.1061 2.73348 22.4101 2.72308 22.87 3.13882C23.3481 3.57275 23.8184 4.01188 24.2809 4.464C24.6135 4.78879 24.5148 4.9343 24.1588 5.13438L24.1614 5.13698Z" fill="black"/>
<path d="M14.6879 1.71753C13.8045 7.82112 13.698 13.9611 13.7343 20.1089C13.7343 20.3531 13.8617 20.6987 13.4147 20.7065C12.9678 20.7169 13.0744 20.3583 13.0666 20.1219C12.986 17.3728 12.9185 14.6237 12.8483 11.8746C12.7548 8.20568 12.417 4.55756 11.9051 0.922425C11.7804 0.0337789 11.7856 0.0155903 12.6924 0C12.8795 0 13.0666 0 13.1237 0C14.888 0.0441725 14.9296 0.0493692 14.6879 1.71753Z" fill="black"/>
</svg>
