<svg width="40" height="6" viewBox="0 0 40 6" fill="none" xmlns="http://www.w3.org/2000/svg">
<path d="M39.531 4.94924C39.531 5.16945 39.531 5.33137 39.531 5.53215C39.4079 5.5451 39.3108 5.55806 39.2072 5.55806C28.9544 5.55806 18.7017 5.56454 8.44898 5.53863C6.44118 5.53215 4.43985 5.33785 2.49682 4.76789C1.91391 4.59302 1.33101 4.35986 0.812864 4.04249C-0.268756 3.38834 -0.26228 2.46217 0.78048 1.73677C1.40873 1.30282 2.12765 1.06318 2.85952 0.862403C4.35566 0.454367 5.88417 0.26654 7.41917 0.137004C9.90625 -0.0767289 12.3998 0.0268998 14.8934 0.0139463C14.9776 0.0139463 15.0618 0.0204227 15.146 0.0722368C14.5307 0.0981439 13.9089 0.130527 13.2936 0.156434C11.8298 0.221202 10.3596 0.260063 8.89587 0.370169C7.52927 0.473797 6.16915 0.681053 4.8738 1.1409C4.51758 1.26396 4.17431 1.43236 3.85047 1.62018C3.64969 1.73677 3.46186 1.90516 3.31937 2.08651C2.9502 2.54636 2.96315 3.10336 3.42948 3.46606C3.79218 3.75104 4.22612 3.9842 4.66654 4.14612C5.66396 4.5153 6.71968 4.63836 7.77539 4.74199C9.73137 4.93629 11.6938 4.93629 13.6628 4.93629C22.115 4.92981 30.5671 4.93629 39.0193 4.93629C39.1618 4.94924 39.3173 4.94924 39.531 4.94924Z" fill="black"/>
<path d="M11.5439 2.1259C11.5439 2.83187 11.5439 3.53784 11.5439 4.27619C11.2136 4.27619 10.9156 4.27619 10.5918 4.27619C10.5918 3.28524 10.5918 2.31373 10.5918 1.30335C11.1747 1.30335 11.7382 1.30335 12.3405 1.30335C12.5931 1.84092 12.8587 2.39145 13.1566 3.01322C13.461 2.4044 13.733 1.85388 14.0051 1.29688C14.5944 1.29688 15.1579 1.29688 15.7538 1.29688C15.7538 2.28782 15.7538 3.25286 15.7538 4.25676C15.3846 4.25676 15.0154 4.25676 14.6139 4.25676C14.6139 3.51841 14.6139 2.80596 14.6139 2.09352C14.5944 2.08704 14.575 2.08704 14.5556 2.08056C14.1929 2.81244 13.8302 3.53784 13.4675 4.27619C13.2019 4.27619 12.9558 4.27619 12.6708 4.27619C12.3211 3.56374 11.9713 2.83835 11.6151 2.11295C11.5957 2.11942 11.5698 2.1259 11.5439 2.1259Z" fill="black"/>
<path d="M20.8963 3.99467C20.2422 4.38328 19.5492 4.40918 18.8497 4.24079C18.0595 4.04648 17.6256 3.48301 17.6579 2.7317C17.6774 2.23947 17.8976 1.85086 18.3186 1.60474C19.1865 1.09956 20.0867 1.11251 20.987 1.51407C21.2914 1.65008 21.531 1.88972 21.5893 2.29128C21.2266 2.32366 20.9028 2.35605 20.5919 2.38196C20.158 1.86382 19.737 1.72133 19.2901 1.92858C18.9533 2.08403 18.7849 2.48558 18.8432 2.99077C18.895 3.38586 19.1541 3.64493 19.5621 3.70322C20.0025 3.76798 20.3264 3.63845 20.4818 3.29518C20.1968 3.27575 19.9313 3.25632 19.6334 3.23041C19.6334 3.03611 19.6334 2.87419 19.6334 2.68636C20.2875 2.68636 20.9158 2.68636 21.5764 2.68636C21.5764 3.21098 21.5764 3.72265 21.5764 4.26022C21.408 4.27317 21.2655 4.27965 21.1165 4.2926C21.0518 4.19545 20.987 4.11773 20.8963 3.99467Z" fill="black"/>
<path d="M8.85789 3.69194C8.35918 3.69194 7.89285 3.69194 7.39414 3.69194C7.29052 3.87329 7.19336 4.06112 7.07678 4.26838C6.7659 4.26838 6.45501 4.26838 6.06641 4.26838C6.59102 3.24505 7.08326 2.27353 7.58845 1.28906C8.03534 1.28906 8.46281 1.28906 8.90971 1.28906C9.39546 2.26705 9.88122 3.23209 10.3929 4.2619C9.95247 4.2619 9.57681 4.2619 9.16878 4.2619C9.0781 4.08703 8.97447 3.90568 8.85789 3.69194ZM8.57292 3.05722C8.42395 2.74634 8.29441 2.48079 8.16488 2.20876C8.13897 2.21524 8.11306 2.21524 8.08716 2.22172C7.95762 2.48727 7.83456 2.74634 7.6856 3.05722C8.00944 3.05722 8.26203 3.05722 8.57292 3.05722Z" fill="black"/>
<path d="M36.8626 2.76251C36.7849 2.68479 36.7201 2.54878 36.6359 2.52935C36.3121 2.4581 35.9818 2.43867 35.7875 2.74308C35.4636 2.74308 35.1657 2.74308 34.8678 2.74308C34.8483 2.71718 34.8289 2.69127 34.8095 2.66536C34.9001 2.54878 34.9649 2.39981 35.0815 2.32209C35.2305 2.21846 35.4053 2.14722 35.5802 2.10836C36.1631 1.97235 36.759 1.96587 37.3419 2.10836C37.8082 2.22494 37.9377 2.41277 37.9442 2.89205C37.9442 3.34542 37.9442 3.79232 37.9442 4.2716C37.6333 4.2716 37.3289 4.2716 37.0051 4.2716C36.9598 4.20683 36.9144 4.13559 36.8691 4.05787C36.8432 4.06434 36.8043 4.05786 36.7849 4.0773C36.3509 4.36875 35.8652 4.36875 35.3794 4.29103C34.952 4.21979 34.7058 3.98662 34.6994 3.70812C34.6929 3.44257 34.9066 3.17055 35.3017 3.0734C35.6968 2.97624 36.1048 2.94386 36.5129 2.87909C36.61 2.86614 36.7007 2.85966 36.7978 2.84671C36.8173 2.82728 36.8432 2.7949 36.8626 2.76251ZM35.8393 3.6304C36.0077 3.88947 36.2667 3.95424 36.5647 3.81822C36.7914 3.7146 36.8561 3.56563 36.7784 3.31304C36.3315 3.24179 36.0271 3.34542 35.8393 3.6304Z" fill="black"/>
<path d="M24.3637 3.49194C24.6162 3.5049 24.8624 3.51785 25.115 3.53728C25.1409 3.53728 25.1733 3.56319 25.2186 3.58262C25.1279 3.8676 24.9207 4.03599 24.6745 4.13962C23.9556 4.43755 23.2237 4.43755 22.5113 4.09428C22.1486 3.91941 21.909 3.63443 21.9025 3.21344C21.896 2.7795 22.1162 2.46861 22.4919 2.28079C23.2367 1.91161 23.988 1.91161 24.7328 2.28079C25.1214 2.47509 25.2769 2.79245 25.2574 3.29116C24.5385 3.29116 23.8131 3.29116 23.1007 3.29116C23.0165 3.55671 23.1331 3.66682 23.295 3.75101C23.6577 3.92589 23.988 3.84816 24.3637 3.49194ZM24.1953 2.85722C24.0592 2.5269 23.9038 2.44918 23.5087 2.501C23.3015 2.5269 23.1201 2.5852 23.1007 2.85722C23.4634 2.85722 23.8131 2.85722 24.1953 2.85722Z" fill="black"/>
<path d="M31.4742 3.48866C31.7591 3.50809 32.0312 3.52752 32.3615 3.54695C32.3097 3.65058 32.2838 3.73478 32.2319 3.78659C32.1283 3.8967 32.0182 4.00032 31.8887 4.07804C31.2475 4.4796 30.0234 4.41484 29.421 3.96146C28.8964 3.5599 28.8705 2.85394 29.3757 2.42647C30.0104 1.8889 31.3705 1.86947 32.0182 2.39408C32.2838 2.6143 32.4133 2.8928 32.368 3.30083C31.9988 3.30083 31.6361 3.30083 31.2734 3.30083C30.9172 3.30083 30.5674 3.30083 30.2177 3.30083C30.114 3.54695 30.2306 3.65706 30.3925 3.74773C30.7617 3.92908 31.1244 3.85136 31.4742 3.48866ZM31.3187 2.86041C31.1827 2.5301 31.0208 2.45885 30.6257 2.50419C30.4184 2.5301 30.2306 2.58191 30.2177 2.86041C30.5868 2.86041 30.9301 2.86041 31.3187 2.86041Z" fill="black"/>
<path d="M25.6387 2.06721C25.9625 2.06721 26.2475 2.06721 26.5584 2.06721C26.5843 2.13197 26.6167 2.2097 26.6555 2.29389C26.6814 2.28742 26.7203 2.28742 26.7397 2.26799C27.206 1.93119 27.7177 1.97006 28.2294 2.11254C28.4884 2.18379 28.6698 2.37161 28.6828 2.65012C28.7022 3.17473 28.6892 3.70583 28.6892 4.26931C28.346 4.26931 28.0221 4.26931 27.6335 4.26931C27.6335 4.0491 27.6335 3.84184 27.6335 3.62811C27.6335 3.43381 27.64 3.2395 27.6335 3.0452C27.627 2.70193 27.5299 2.58535 27.2384 2.5724C26.9081 2.55944 26.7203 2.70841 26.7009 3.03225C26.6879 3.29779 26.6944 3.56982 26.6944 3.84184C26.6944 3.97138 26.6944 4.09444 26.6944 4.26283C26.3317 4.26283 26.0014 4.26283 25.6451 4.26283C25.6387 3.53096 25.6387 2.82499 25.6387 2.06721Z" fill="black"/>
<path d="M39.5187 4.26848C39.1625 4.26848 38.8386 4.26848 38.4824 4.26848C38.4824 3.27105 38.4824 2.30602 38.4824 1.30859C38.8257 1.30859 39.1495 1.30859 39.5187 1.30859C39.5187 2.28659 39.5187 3.2581 39.5187 4.26848Z" fill="black"/>
<path d="M33.6749 2.07441C33.7073 2.15213 33.7397 2.2169 33.7721 2.28814C34.0247 2.08088 34.2838 1.95135 34.6335 2.0485C34.6335 2.24928 34.6335 2.45006 34.6335 2.63141C34.6011 2.65732 34.5817 2.67675 34.5623 2.67675C33.8628 2.80628 33.7915 2.89696 33.785 3.61588C33.785 3.81666 33.785 4.02391 33.785 4.26355C33.4223 4.26355 33.0985 4.26355 32.7617 4.26355C32.7617 3.5252 32.7617 2.81276 32.7617 2.07441C33.0726 2.07441 33.3576 2.07441 33.6749 2.07441Z" fill="black"/>
</svg>
