<svg width="32" height="15" viewBox="0 0 32 15" fill="none" xmlns="http://www.w3.org/2000/svg">
<path d="M5.6811 0V2.2068H5.87797V0H5.6811ZM25.8725 0V2.2068H26.0693V0H25.8725ZM0 7.01953V7.21968H1.46385V7.01953H0ZM30.2868 7.01953V7.21968H31.7507V7.01953H30.2868ZM5.6811 11.9311V14.1379H5.87797V11.9311H5.6811ZM25.8725 11.9311V14.1379H26.0693V11.9311H25.8725Z" fill="black"/>
<path d="M5.8143 6.05469C5.6351 6.05469 5.4786 6.12308 5.3524 6.24723C5.15049 6.44485 5.13281 6.72104 5.13281 6.98707C5.13281 7.25311 5.15049 7.52925 5.3524 7.72688C5.4786 7.85102 5.6351 7.91946 5.8143 7.91946C6.1626 7.91946 6.44273 7.66102 6.45787 7.31138H6.22569C6.22064 7.54194 6.04145 7.70663 5.8143 7.70663C5.69315 7.70663 5.59469 7.65593 5.5114 7.56978C5.36501 7.41776 5.36504 7.1847 5.36504 6.98707C5.36504 6.78945 5.36502 6.55634 5.5114 6.40432C5.59469 6.31818 5.69315 6.26752 5.8143 6.26752C5.93797 6.26752 6.04396 6.31564 6.11715 6.39672C6.17268 6.45499 6.21558 6.55127 6.22063 6.65008H6.45536C6.44022 6.29791 6.16007 6.05469 5.8143 6.05469ZM20.9247 6.05469C20.7455 6.05469 20.5865 6.12311 20.4578 6.24979C20.2635 6.43982 20.2408 6.70077 20.2408 6.98707C20.2408 7.27337 20.2635 7.53433 20.4578 7.72436C20.5865 7.85104 20.7455 7.91946 20.9247 7.91946C21.1039 7.91946 21.263 7.85104 21.3917 7.72436C21.586 7.53433 21.6087 7.27337 21.6087 6.98707C21.6087 6.70077 21.586 6.43982 21.3917 6.24979C21.263 6.12311 21.1039 6.05469 20.9247 6.05469ZM25.9726 6.05469C25.7934 6.05469 25.6344 6.12311 25.5057 6.24979C25.3113 6.43982 25.2886 6.70077 25.2886 6.98707C25.2886 7.27337 25.3113 7.53433 25.5057 7.72436C25.6344 7.85104 25.7934 7.91946 25.9726 7.91946C26.1518 7.91946 26.3108 7.85104 26.4395 7.72436C26.6339 7.53433 26.6566 7.27337 26.6566 6.98707C26.6566 6.70077 26.6339 6.43982 26.4395 6.24979C26.3108 6.12311 26.1518 6.05469 25.9726 6.05469ZM10.6928 6.08762L10.1047 7.88397H10.3344L10.4808 7.42034H11.1748L11.3238 7.88397H11.556L10.9654 6.08762H10.6928ZM15.2712 6.08762V7.88397H15.4907V6.43982L16.2075 7.88397H16.4827V6.08762H16.2656V7.53942L15.5513 6.08762H15.2712ZM20.9247 6.27004C21.0459 6.27004 21.1494 6.31821 21.2352 6.40689C21.3816 6.5589 21.3766 6.79959 21.3766 6.98707C21.3766 7.17456 21.3816 7.41525 21.2352 7.56726C21.1494 7.65594 21.0459 7.70407 20.9247 7.70407C20.8036 7.70407 20.7001 7.65594 20.6143 7.56726C20.4679 7.41525 20.473 7.17456 20.473 6.98707C20.473 6.79959 20.4679 6.5589 20.6143 6.40689C20.7001 6.31821 20.8036 6.27004 20.9247 6.27004ZM25.9726 6.27004C26.0937 6.27004 26.1972 6.31821 26.2831 6.40689C26.4294 6.5589 26.4244 6.79959 26.4244 6.98707C26.4244 7.17456 26.4294 7.41525 26.2831 7.56726C26.1972 7.65594 26.0937 7.70407 25.9726 7.70407C25.8514 7.70407 25.748 7.65594 25.6622 7.56726C25.5158 7.41525 25.5208 7.17456 25.5208 6.98707C25.5208 6.79959 25.5158 6.5589 25.6622 6.40689C25.748 6.31821 25.8514 6.27004 25.9726 6.27004ZM10.824 6.31817L11.1092 7.20751H10.5464L10.824 6.31817Z" fill="black"/>
</svg>
