<svg width="42" height="3" viewBox="0 0 42 3" fill="none" xmlns="http://www.w3.org/2000/svg">
<path d="M16.8061 1.91287H11.5054C10.9865 1.91287 10.7555 1.6792 10.7555 1.1772V0.0585938H9.85547V1.17809C9.85547 1.90221 10.4836 2.30114 11.0825 2.30114H17.7062V0.0585938H16.8052V1.91287H16.8061Z" fill="black"/>
<path d="M0.898262 1.17809V0.0585938H0V1.17809C0 1.90221 0.627273 2.30114 1.227 2.30114H7.44731V1.91287H1.64815C1.12927 1.91287 0.898262 1.6792 0.898262 1.1772V1.17809Z" fill="black"/>
<path d="M31.2901 0H30.4141V2.36071H31.2901V0Z" fill="black"/>
<path d="M21.7749 1.91287C21.2552 1.91287 21.0242 1.6792 21.0242 1.1772C21.0242 0.675205 21.2552 0.445975 21.774 0.445975H27.8868V0.0585938H21.352C20.7532 0.0585938 20.125 0.455748 20.125 1.17809C20.125 1.90043 20.7532 2.30114 21.352 2.30114H27.8868V1.91287H21.774H21.7749Z" fill="black"/>
<path d="M40.532 0.0585938H33.8203V2.30114H40.532C41.1308 2.30114 41.759 1.90221 41.759 1.17809C41.759 0.453971 41.1308 0.0585938 40.532 0.0585938ZM40.8589 1.17809C40.8589 1.6792 40.6279 1.91287 40.109 1.91287H34.7195V0.446863H40.1099C40.6288 0.446863 40.8598 0.672539 40.8598 1.17809H40.8589Z" fill="black"/>
</svg>
