<svg width="41" height="16" viewBox="0 0 41 16" fill="none" xmlns="http://www.w3.org/2000/svg">
<path d="M1.75224 1.68011C1.75224 1.68011 1.77686 1.59396 1.78741 1.5755C1.79796 1.55616 1.85685 1.35748 2.14168 1.3355C2.14168 1.3355 2.28498 1.32232 2.45025 1.37418C2.45025 1.37418 2.3553 1.61945 1.96674 1.65989C1.96674 1.65989 1.81378 1.68275 1.75312 1.68099M39.8314 12.7269C39.7347 12.966 39.3206 13.2702 38.8345 13.4328C38.3211 13.6042 37.2494 13.6086 36.7009 13.4266C36.7009 13.4266 36.5857 13.3009 36.1998 13.1875C35.3031 12.9238 35.013 12.7401 34.5576 12.3155C34.2359 12.0157 33.8816 11.6403 33.5388 11.286C33.3858 11.1287 33.0139 10.7559 32.3608 10.6425C31.6795 10.5247 30.0056 10.3973 29.3903 10.1793C28.9753 10.0324 28.4848 9.75289 27.8677 8.82983C27.5723 8.38676 27.3481 8.25842 26.9218 7.98589C26.9218 7.98589 27.247 8.24347 27.4185 8.55555C27.6655 9.00917 27.7842 9.33531 27.9187 9.57619C28.0549 9.81882 28.2123 10.0351 28.4576 10.2329C28.7617 10.4773 28.9586 10.5309 29.3024 10.6003C29.6311 10.6672 30.7546 10.7164 31.7181 10.7542C32.6658 10.7911 33.0702 11.0838 33.3664 11.3326C33.639 11.563 34.0724 12.2196 34.3774 12.4886C34.7844 12.8464 34.795 12.8517 35.2679 13.148C35.5071 13.2983 35.7172 13.3959 35.9114 13.4662C36.3457 13.7211 36.1655 14.166 36.1655 14.166C36.0407 14.5202 35.5932 14.6477 35.0701 14.5739C34.2798 14.5044 33.6003 13.8451 33.0254 13.3721C32.7089 13.1119 32.5972 12.9818 31.988 12.5581C31.0606 11.9146 28.8813 11.9682 28.8813 11.9682L27.284 11.9585C24.1737 12.0043 23.0353 9.50146 22.7249 8.97664C22.6177 8.79379 22.5184 8.64698 22.4234 8.52566C22.2784 8.32962 21.4977 7.31075 20.6617 6.9468C20.6617 6.9468 21.4643 7.64129 21.3843 8.02106C21.212 8.01842 21.0168 8.02985 20.783 8.03688C17.649 8.12831 16.9985 7.95513 16.5027 7.85667C16.0069 7.75733 15.1761 7.5103 14.3691 7.13844C14.3691 7.13844 14.4588 6.36571 14.1388 5.72397C14.1388 5.72397 16.7251 6.63736 18.7831 6.3789C18.7831 6.3789 15.4618 6.21627 13.3898 4.56532C13.3898 4.56532 13.9014 6.31033 13.497 7.0435C13.497 7.0435 12.9529 8.37446 10.1608 7.48657C10.1608 7.48657 8.87647 6.98724 7.87781 6.98724C7.87781 6.98724 7.12618 7.01801 7.03651 7.41008C7.03651 7.41008 6.98728 7.59733 7.18332 7.68612C7.18332 7.68612 7.40134 7.74854 7.29849 7.91029C7.12882 8.17754 6.8941 8.38413 6.66026 8.50105C5.88138 8.46237 5.9394 7.82326 5.9394 7.82326C5.95346 7.59645 6.02643 7.43822 6.09588 7.28174C6.58554 6.18638 8.30593 6.02726 8.30593 6.02726C10.1362 5.84441 12.0544 6.28396 12.0544 6.28396C10.6821 5.95693 10.2153 5.71694 9.82326 5.38903C9.29492 4.94772 8.80087 3.46556 8.80087 3.46556C8.58988 4.19258 8.85098 4.92663 9.0268 5.30376C8.76658 4.88883 8.39648 4.53806 8.06594 4.27345C7.22113 3.59567 5.9939 3.37677 5.9939 3.37677C5.63962 3.31611 5.49897 2.94865 5.49897 2.94865C5.04447 2.11175 4.5302 2.07219 4.5302 2.07219C4.78338 2.41943 4.75701 2.89415 4.75701 2.89415C4.75701 3.76973 3.63088 4.06071 3.63088 4.06071C2.7887 4.89762 2.64277 4.88003 2.4775 4.89234C2.31311 4.90377 2.19179 4.73322 2.19179 4.73322C2.13817 4.65323 2.22696 4.58114 2.22696 4.58114C2.36937 4.49235 2.50387 4.37631 2.50387 4.37631C3.32495 3.71698 3.44099 3.37941 3.37418 2.91964C3.24056 2.00098 2.49948 2.06867 2.49948 2.06867C2.15135 2.06867 1.97905 2.33416 1.97905 2.33416C1.84455 2.49416 1.55093 2.99436 1.55093 2.99436C1.29159 3.42249 1.06039 3.35919 1.06039 3.35919C0.774682 3.37765 0.568094 3.12447 0.568094 3.12447C0.556665 3.1148 0.548754 3.10249 0.539083 3.09282C0.32722 2.86514 0.509194 2.59086 0.509194 2.59086C0.857318 1.97549 1.45862 1.91483 1.54038 1.90955C1.62214 1.90428 1.89993 1.88406 1.89993 1.88406C2.5786 1.83483 3.02254 1.18606 3.02254 1.18606C2.73683 1.04804 2.2252 1.121 2.2252 1.121C1.72763 1.15441 1.59576 1.68275 1.59488 1.68275C1.16412 1.74604 1.18522 1.41462 1.27753 1.32759C1.35049 1.24232 1.60719 0.826503 3.25814 0.578597C3.25814 0.578597 4.13372 0.405414 5.68885 0.57596C5.74599 0.582113 5.80138 0.632222 5.72841 0.718374C5.53237 0.947819 4.9214 1.45682 3.93944 1.21067C3.93944 1.21067 3.92186 1.60275 4.99173 1.79879C4.99173 1.79879 5.95698 2.0045 7.53233 3.2704C7.53233 3.2704 6.76839 1.85769 5.44798 1.42693C5.44798 1.42693 5.3504 1.36451 5.43919 1.27484C5.43919 1.27484 6.06423 0.714857 7.1675 0.773757C7.1675 0.773757 10.8149 0.961005 12.8649 3.10074C12.8649 3.10074 12.7937 2.74382 12.4817 2.22691C12.4817 2.22691 12.4192 2.16537 12.4553 2.12054C12.4553 2.12054 12.4817 2.03087 12.8386 2.10296C12.8386 2.10296 14.1405 2.31658 17.1629 3.42249C17.1629 3.42249 19.4283 4.21631 20.6634 4.72883C22.5201 5.49804 27.1723 7.38547 30.1111 9.01181C30.636 9.30191 32.8214 10.3814 32.8214 10.3814C34.4548 11.395 35.958 12.1291 35.958 12.1291C37.4384 12.813 38.5145 12.5001 38.5145 12.5001C38.8582 12.3708 39.5149 12.0139 39.7716 12.2671C39.9017 12.3963 39.9096 12.5651 39.8331 12.7251L39.8314 12.7269ZM40.1997 12.1528C40.0063 11.7019 39.383 11.8126 39.383 11.8126C39.0982 11.8302 38.7386 12.1282 38.2393 12.2311C37.165 12.4526 36.3431 12.0869 36.3431 12.0869C34.7598 11.3783 33.6873 10.6056 32.9902 10.2065C32.2931 9.80739 29.712 8.45182 27.1301 7.15427C27.1301 7.15427 24.1728 5.6387 19.7975 3.82951C19.7984 3.83039 11.3573 0.000148894 5.28535 0.000148894C5.28535 0.000148894 2.1408 -0.0394107 1.07533 1.17111C1.07533 1.17111 0.887207 1.32671 0.979513 1.51835C0.979513 1.51835 0.992699 1.5711 0.95314 1.60539C0.95314 1.60539 0.484579 1.91307 0.103929 2.35526C0.103929 2.35526 -0.100023 2.56448 0.0634901 2.87569C0.0634901 2.87569 0.266562 3.22996 0.394911 3.38205C0.524139 3.53413 0.783473 3.79962 1.17907 3.76006C1.35401 3.74248 1.35928 3.69852 1.35928 3.69852C1.54126 3.88226 1.85861 3.8928 1.85861 3.8928C1.82697 3.78028 1.70565 3.55699 1.6951 3.42688C1.68367 3.28095 1.73993 3.14645 1.73993 3.14645C1.80587 2.98645 1.92982 2.78778 2.05641 2.68932C2.16894 2.60141 2.44673 2.51086 2.65508 2.65591C2.82211 2.77283 2.99881 3.14645 2.79925 3.63874C2.79925 3.63874 2.5742 4.02731 2.36673 4.07126L2.30871 4.0739C2.19003 4.07126 1.92455 3.92533 1.92455 3.92533C1.92455 3.92533 1.91312 3.95698 1.94301 4.0906C1.96059 4.16708 1.98432 4.25148 2.00542 4.31653L1.95004 4.36136C1.95004 4.36136 1.78301 4.49587 1.85685 4.69015C1.85685 4.69015 2.01949 5.30288 2.47398 5.30288C2.87573 5.31607 3.20979 4.93542 3.20979 4.93542C4.07131 4.00621 5.28623 3.8805 5.28623 3.8805C6.63213 3.78907 8.55648 5.1675 9.08042 5.56485C7.08662 5.54288 6.28225 6.30857 6.28225 6.30857C5.15963 7.1824 5.59655 8.23732 5.59655 8.23732C5.6783 8.46676 5.90863 8.63379 6.05544 8.69884C6.2673 8.79115 6.44136 8.79467 6.60488 8.77621C6.72355 8.76302 6.85278 8.71994 6.91959 8.67423C7.07256 8.58456 7.34508 8.4061 7.47694 8.21622C7.56485 8.12128 7.65276 7.88831 7.59474 7.66678C7.59474 7.66678 7.55958 7.48832 7.71958 7.45228C7.71958 7.45228 8.24791 7.31866 9.31514 7.78986C9.31514 7.78986 10.4738 8.46588 11.9779 8.59951C11.9779 8.59951 13.6878 8.77269 14.101 7.847C14.101 7.847 15.0829 8.24875 16.5211 8.41314C16.5211 8.41314 17.9215 8.55819 20.194 8.38676C20.6415 8.35248 21.1663 8.39028 21.1663 8.39028C21.8933 8.47731 22.3557 8.8562 22.5386 9.15246C23.2832 10.3612 24.1719 12.7339 27.8097 12.6399L29.4562 12.595C30.4566 12.595 31.2716 12.6038 32.0724 13.0311C32.4214 13.2183 33.3453 14.1343 33.9132 14.4438C35.5967 15.5778 36.569 15.0503 36.569 15.0503C37.1422 14.7163 37.0965 14.122 36.9576 13.7897C36.7853 13.7352 39.0428 14.1211 40.0054 12.857C40.2331 12.5748 40.2727 12.3172 40.2041 12.1555L40.1997 12.1528Z" fill="black"/>
</svg>
