<svg width="26" height="21" viewBox="0 0 26 21" fill="none" xmlns="http://www.w3.org/2000/svg">
<path d="M23.9265 3.8115C23.8299 3.70118 23.7333 3.59086 23.6366 3.47962C20.9824 0.621457 16.6284 0 12.9793 0C9.33022 0 4.81052 0.621459 2.19773 3.6451C2.15631 3.70026 2.1149 3.75634 2.07349 3.81058C0.787798 5.34308 0 7.53841 0 10.4793C0 19.5502 7.38098 21 12.9793 21C18.5776 21 26 19.5502 26 10.4793C26 7.53841 25.2122 5.34308 23.9265 3.81058V3.8115ZM12.9793 1.90575C16.3799 1.90575 19.6139 2.52721 21.3975 5.1776C21.4352 5.23736 21.472 5.29803 21.5098 5.35779C18.4874 7.12932 15.0555 7.19183 12.9802 11.6395C10.765 7.40971 7.46013 7.29571 4.51142 5.68415C4.48105 5.57199 4.46448 5.51131 4.43411 5.39916C6.15051 2.59156 9.52257 1.90575 12.9802 1.90575H12.9793ZM12.9793 19.0961C7.9617 19.1375 3.23493 17.6877 3.23493 10.4802C3.23493 9.91026 3.23494 9.34028 3.33341 8.86959C3.44293 8.80799 3.49907 8.77766 3.60859 8.71606C5.22559 9.26306 6.84351 9.81005 8.46052 10.3561C10.4512 11.1844 11.7783 12.3446 12.9802 14.9536C14.1831 12.3437 15.4678 11.019 17.4999 10.1897C19.2025 9.58022 20.906 8.97071 22.6086 8.36212C22.6151 8.3658 22.6169 8.36672 22.6233 8.3704C22.7181 8.97163 22.766 9.72639 22.766 10.4802C22.766 17.6877 17.9969 19.1375 12.9802 19.0961H12.9793Z" fill="black"/>
</svg>
