<svg width="22" height="15" viewBox="0 0 22 15" fill="none" xmlns="http://www.w3.org/2000/svg">
<path d="M12.4257 6.81275H14.8474C14.9371 6.81275 15.0064 6.87913 15.0076 6.95728L15.0064 7.77062C15.0075 7.84878 14.9371 7.91515 14.8474 7.91515H12.4257C12.3362 7.91515 12.2658 7.84878 12.2658 7.76951V6.95728C12.2658 6.87913 12.3362 6.81275 12.4257 6.81275Z" fill="black"/>
<path fill-rule="evenodd" clip-rule="evenodd" d="M0 7.50056C0 3.35781 4.92443 0 11.0006 0C17.0742 0 22 3.35781 22 7.50056C22 11.6422 17.0754 15 11.0006 15C4.92443 15 0 11.6422 0 7.50056ZM10.974 13.8913C10.983 13.8916 10.9918 13.8919 11.0006 13.8919C15.2501 13.8919 18.7959 11.7038 19.6188 8.79351L19.5939 8.80071H13.5953C13.3649 10.9615 11.6409 13.1045 10.9457 13.8907C10.9553 13.8907 10.9647 13.891 10.974 13.8913ZM9.6398 8.80071H2.38216C3.19207 11.6471 6.60784 13.8007 10.7378 13.8883C10.9612 12.915 11.4629 9.96105 9.6398 8.80071ZM8.31015 5.96494C8.80348 3.50222 10.2492 1.78299 10.9014 1.11059C6.812 1.14259 3.39524 3.19914 2.45627 5.96494H8.31015ZM19.5439 5.96494C18.6094 3.21452 15.2261 1.16617 11.1702 1.11059C11.0138 2.06263 10.6815 4.90894 12.0783 5.96494H19.5439ZM19.5021 8.2253C19.6872 8.2253 19.8378 8.09281 19.8378 7.91515L19.839 6.95009C19.839 6.70383 19.6382 6.5026 19.3776 6.5026H15.9885V8.2253H16.5403V6.81275H19.1424C19.2294 6.81275 19.2989 6.87913 19.2989 6.9584V8.2253H19.5021ZM5.31874 7.91515L2.17437 7.91391C2.17437 8.09157 2.32483 8.2253 2.50997 8.22543H5.5527C5.81671 8.22543 6.02701 8.03239 6.02701 7.7803V7.21186H2.72616L2.72979 6.95021C2.72979 6.87218 2.76321 6.81288 2.8636 6.81288H6.02601V6.50273H2.65343C2.3918 6.50273 2.17787 6.69924 2.17787 6.95021V7.52201H5.47409L5.47522 7.78018C5.47647 7.85945 5.41188 7.91515 5.31874 7.91515ZM7.16802 7.91515C7.07839 7.91515 7.00916 7.84878 7.00916 7.77062V6.95852C7.00916 6.88037 7.07839 6.81288 7.16802 6.81288H10.3018V6.50273H6.93268C6.66993 6.50273 6.45725 6.70395 6.45725 6.95021V7.77782C6.45725 8.02519 6.6698 8.2253 6.93268 8.2253H10.3018V7.91515H7.16802ZM11.2849 8.22654V6.5026H10.7317L10.7306 8.22654H11.2849ZM15.5584 7.77769V6.95009C15.5584 6.70383 15.3457 6.5026 15.0841 6.5026H12.1906C11.9277 6.5026 11.715 6.70383 11.715 6.95009V7.77769C11.715 8.02507 11.9277 8.22518 12.1906 8.22518H15.0841C15.3457 8.22518 15.5584 8.02507 15.5584 7.77769Z" fill="black"/>
</svg>
