<svg width="71" height="16" viewBox="0 0 71 16" fill="none" xmlns="http://www.w3.org/2000/svg">
<path d="M70.5027 0.405486C70.2456 0.0301957 69.7012 0.00258821 69.6391 0H41.1965C40.301 0 39.5987 0.253644 39.1112 0.753168C38.6109 1.26563 38.4728 1.90061 38.4357 2.24139H32.1912C32.1541 1.90061 32.0161 1.26477 31.5157 0.753168C31.0274 0.253644 30.326 0 29.4305 0H0.987832C0.926578 0.00172547 0.381329 0.0301957 0.124234 0.405486C0.0603915 0.498661 0 0.635836 0 0.822187C0 0.926578 0.0189802 1.0465 0.0664306 1.18195C0.0724698 1.1992 0.0802344 1.21559 0.0905872 1.23112L0.855833 2.43033C0.900696 2.49762 1.08618 2.70726 1.68492 2.71503C1.73669 2.72969 1.90837 2.79009 2.01535 2.96781C2.02139 2.97816 2.68569 4.1627 2.68569 4.1627C2.68828 4.16701 2.69087 4.17133 2.69346 4.17478C2.71071 4.20152 3.12224 4.82787 3.78827 4.83391C3.79 4.83391 3.79172 4.83391 3.79258 4.83391C3.79431 4.83391 3.7969 4.83391 3.79862 4.83391C4.18082 4.83391 4.35681 5.23508 4.36372 5.25233C4.3663 5.25923 4.37062 5.267 4.37407 5.2739C4.37407 5.2739 4.89085 6.22636 4.90551 6.25224C4.91845 6.2833 4.93916 6.3204 4.97108 6.36354C4.98747 6.38683 5.00559 6.4084 5.0263 6.4291C5.2092 6.62408 5.62762 6.90447 6.58094 7.19953C6.58267 7.19953 7.83105 7.56791 9.49095 8.05708H9.49268C12.7003 9.00264 17.4402 10.3994 17.6697 10.4667C17.8983 10.5495 18.2917 10.7592 18.3858 10.974L18.6308 11.5365C18.6705 11.6245 19.0595 12.3889 20.8627 12.9186C20.8644 12.9186 22.1852 13.2827 23.8581 13.7425C26.6775 14.519 30.4986 15.5698 30.6918 15.6233C30.8195 15.669 32.0049 16.0572 32.9263 15.1358L35.1737 12.8884C35.1823 12.8798 35.197 12.8608 35.2039 12.8513L35.1944 12.8642C35.1944 12.8642 35.2151 12.8444 35.2583 12.8349C35.2824 12.8332 35.3014 12.8315 35.3152 12.8306C35.329 12.8315 35.3471 12.8332 35.3713 12.8349C35.4144 12.8444 35.4325 12.8617 35.4351 12.8642L35.4256 12.8513C35.4325 12.8617 35.4472 12.8798 35.4558 12.8884L37.7033 15.1358C38.6247 16.0572 39.8092 15.669 39.9369 15.6233C39.9464 15.6207 43.883 14.5371 46.7697 13.7425C48.4417 13.2827 49.7608 12.9195 49.7608 12.9195C49.9049 12.8772 50.0395 12.8332 50.1663 12.7883C50.181 12.784 50.1957 12.7788 50.2103 12.7728C51.6338 12.2577 51.96 11.6176 51.9953 11.5399C51.9962 11.5374 52.2412 10.974 52.2412 10.974C52.3353 10.76 52.7287 10.5504 52.9573 10.4676C52.9694 10.4641 57.8533 9.02421 61.1334 8.05795C61.1343 8.05795 61.1351 8.05795 61.136 8.05795C62.7942 7.56964 64.0426 7.20125 64.0426 7.20125C64.9976 6.90533 65.4169 6.62581 65.6007 6.42997C65.6214 6.40926 65.6404 6.38769 65.6567 6.36354C65.6895 6.32126 65.7094 6.28416 65.7223 6.25311C65.7361 6.22722 66.2538 5.27476 66.2538 5.27476C66.2572 5.26786 66.2615 5.2601 66.2641 5.2532C66.271 5.23594 66.447 4.83477 66.8292 4.83477C66.8309 4.83477 66.8335 4.83477 66.8352 4.83477C66.8361 4.83477 66.8378 4.83477 66.8396 4.83477C67.5056 4.82787 67.9171 4.20238 67.9335 4.17564C67.9361 4.17133 67.9387 4.16701 67.9413 4.16356C67.9413 4.16356 68.6056 2.97902 68.6116 2.96867C68.7186 2.79095 68.8903 2.73056 68.942 2.71589C69.5408 2.70813 69.7263 2.49934 69.7694 2.43464C69.7711 2.43205 70.5364 1.23285 70.5364 1.23285C70.5467 1.21732 70.5545 1.20093 70.5605 1.18367C70.608 1.04736 70.627 0.928303 70.627 0.823912C70.627 0.637561 70.5666 0.500386 70.5027 0.407211V0.405486ZM39.4537 1.08014C39.8489 0.677247 40.4355 0.473642 41.1965 0.473642H54.2833C53.55 1.02234 53.0919 1.89457 52.9297 2.24225H38.9137C38.9525 1.95841 39.0741 1.46751 39.4537 1.08101V1.08014ZM49.9351 5.2877V4.71399L51.086 4.86755C50.9307 5.05735 50.7746 5.24457 50.615 5.42747L49.936 5.28684L49.9351 5.2877ZM50.25 5.8364C50.1465 5.95029 50.0404 6.0633 49.9351 6.1746V5.77084L50.25 5.8364ZM49.9351 4.23603V3.702L51.8832 3.83227C51.7348 4.03674 51.5838 4.23776 51.4302 4.43446C50.7331 4.34128 50.2069 4.2714 49.936 4.23517L49.9351 4.23603ZM49.9351 3.22836V2.71589H52.651C52.5052 2.94106 52.3568 3.16279 52.205 3.3802L49.9351 3.22836ZM29.4305 0.473642C30.1914 0.473642 30.7781 0.677247 31.1732 1.08014C31.5537 1.46751 31.6745 1.95755 31.7133 2.24139H17.6973C17.5351 1.89457 17.0761 1.02148 16.3428 0.472779H29.4296L29.4305 0.473642ZM20.0129 5.42833C19.8533 5.24543 19.6962 5.05822 19.5418 4.86842L20.6918 4.71485V5.28857L20.0129 5.42919V5.42833ZM20.6918 5.7717V6.17546C20.5857 6.06417 20.4805 5.95115 20.3769 5.83727L20.6918 5.7717ZM19.1976 4.43618C19.044 4.23862 18.893 4.0376 18.7446 3.834L20.6918 3.70372V4.23776C20.4209 4.27399 19.8938 4.34387 19.1976 4.43705V4.43618ZM18.422 3.3802C18.271 3.16192 18.1226 2.94106 17.976 2.71589H20.6918V3.22836L18.422 3.3802ZM1.71684 2.24225C1.39073 2.24225 1.26908 2.17323 1.24148 2.15511C1.15779 2.02311 0.609954 1.16556 0.508151 1.00509C0.486583 0.937793 0.473642 0.875676 0.473642 0.823049C0.473642 0.764383 0.487445 0.714345 0.51419 0.673796C0.616856 0.522818 0.905872 0.477955 1.00164 0.473642H15.0168C16.0978 0.473642 16.8561 1.653 17.1667 2.24225H1.71684ZM3.79431 4.36026C3.40522 4.35768 3.12483 3.96686 3.09377 3.92199C3.08428 3.9056 2.42515 2.73056 2.42515 2.73056C2.42429 2.72883 2.42256 2.72624 2.4217 2.72452C2.41997 2.72193 2.41738 2.71848 2.41566 2.71589H17.4126C17.5627 2.95314 17.7163 3.18694 17.8716 3.41729L3.79345 4.36026H3.79431ZM5.37398 6.10385C5.3481 6.07624 5.33947 6.06158 5.33861 6.06072L5.34378 6.07452C5.33947 6.06244 5.33257 6.04605 5.32912 6.03915C5.32912 6.03915 4.80371 5.07202 4.79508 5.05563C4.77697 5.01594 4.72175 4.90292 4.6234 4.77955L18.1882 3.87023C18.3418 4.08591 18.4979 4.29901 18.6567 4.50779C14.55 5.05649 6.23758 6.16683 6.22809 6.16769C5.87523 6.2022 5.47751 6.17115 5.37484 6.10385H5.37398ZM6.71812 6.74573C6.58871 6.70604 6.47138 6.66636 6.3644 6.62753L18.9914 4.94089C19.1519 5.14363 19.3158 5.34206 19.4814 5.5379L9.56946 7.58603L6.71726 6.74573H6.71812ZM13.4475 8.72916L10.5349 7.87073L19.8386 5.9477C20.0828 6.22118 20.3312 6.48777 20.5849 6.74659C19.3813 7.13051 14.5811 8.66359 14.5595 8.67049C14.3378 8.71708 13.7339 8.81284 13.4475 8.72916ZM17.6585 9.96977L14.7407 9.10962L20.9636 7.12274C21.3855 7.53254 21.8203 7.9225 22.2681 8.29089C20.5771 9.08288 18.8991 9.86797 18.8853 9.87487C18.793 9.9042 18.1192 10.1061 17.6576 9.96977H17.6585ZM29.666 11.6633C29.4805 11.6098 29.2916 11.5538 29.1009 11.4925C28.5747 11.3251 28.0579 11.1353 27.5489 10.924C28.956 9.44609 30.7927 7.51788 31.1698 7.12188H32.3189L29.666 11.6625V11.6633ZM32.8676 7.12274H33.7545C33.5207 7.98979 32.8288 10.5538 32.3767 12.2284C31.7107 12.1395 30.9558 12.0024 30.1405 11.7919C30.6987 10.836 32.4949 7.76117 32.8676 7.12274ZM27.0856 10.7247C26.5084 10.4676 25.9442 10.1829 25.3938 9.87055L29.2312 7.12274H30.5158L27.0856 10.7247ZM24.9469 9.60828C24.4171 9.28907 23.9004 8.94398 23.3982 8.573C23.3197 8.51433 23.2412 8.45567 23.1627 8.39614L25.8812 7.12361H28.4176C27.6541 7.66972 26.2755 8.65755 24.9469 9.60915V9.60828ZM22.7452 8.0683C22.3716 7.76807 22.0075 7.45231 21.6512 7.12274H24.7648C24.2196 7.37811 23.4966 7.7163 22.7452 8.0683ZM20.5918 12.3328C19.3563 11.8885 19.0708 11.3579 19.0621 11.3424C19.0578 11.3312 18.8197 10.7851 18.8197 10.7851C18.7619 10.6539 18.6661 10.5383 18.5557 10.44C18.8301 10.3925 19.0311 10.3261 19.0475 10.3209C19.0561 10.3183 19.0647 10.3149 19.0725 10.3105L22.6796 8.62131C22.828 8.73692 22.9772 8.8508 23.1282 8.96209C23.5829 9.2977 24.0496 9.6126 24.5267 9.90765C22.9194 11.0585 21.4951 12.0783 21.4838 12.0861C21.225 12.2284 20.7686 12.4027 20.59 12.3319L20.5918 12.3328ZM23.9832 13.2861L21.5071 12.6046C21.6098 12.5571 21.6883 12.5157 21.7254 12.495C21.7332 12.4907 21.7401 12.4864 21.7478 12.4812L24.971 10.1734C25.5456 10.5081 26.1357 10.8135 26.7388 11.0887L25.5214 12.3664C25.5214 12.3664 25.5163 12.3725 25.5137 12.3751C25.2721 12.6546 24.4724 13.4216 23.9823 13.287L23.9832 13.2861ZM27.6118 14.2852L24.8735 13.5311C25.3765 13.2404 25.788 12.7814 25.8683 12.6891C25.87 12.6874 26.4359 12.093 27.2003 11.2906C27.7818 11.5382 28.3745 11.7591 28.9793 11.9506C29.132 11.9989 29.2838 12.0446 29.4331 12.0886C28.9146 13.0532 28.0889 14.2446 27.6118 14.2843V14.2852ZM30.816 15.1669L28.2718 14.4672C28.5565 14.2386 28.8663 13.8771 29.2053 13.3767C29.5219 12.9091 29.7773 12.4484 29.899 12.2198C30.7591 12.4484 31.552 12.5977 32.2508 12.6943C32.0791 13.3301 31.9652 13.7537 31.9635 13.758C31.6149 14.7787 31.3406 15.2782 30.816 15.1677V15.1669ZM32.5907 14.8019C32.3319 15.0608 32.0446 15.185 31.778 15.2376C32.0851 14.8692 32.2698 14.3274 32.4147 13.9038C32.4164 13.8987 32.4181 13.8944 32.419 13.8892L32.7253 12.753C33.4707 12.8366 34.0867 12.8591 34.5336 12.8591C33.9245 13.4673 32.5907 14.8019 32.5907 14.8019ZM35.0771 12.3708C34.7182 12.3872 33.9288 12.401 32.8521 12.2853L34.2454 7.12274H35.0771V12.3708ZM21.1655 6.6491V2.71589H49.4615V6.6491H21.1655ZM38.308 7.12274H39.4572C39.8342 7.51874 41.671 9.44695 43.0781 10.9248C42.5699 11.1353 42.0523 11.326 41.526 11.4934C41.3354 11.5546 41.1464 11.6107 40.9609 11.6642L38.308 7.12361V7.12274ZM40.4864 11.7919C39.6712 12.0024 38.9163 12.1395 38.2502 12.2284C37.7982 10.5538 37.1062 7.98979 36.8724 7.12274H37.7585C38.1312 7.76117 39.9283 10.836 40.4864 11.7919ZM40.1112 7.12274H41.3958L45.2332 9.87055C44.6828 10.1829 44.1186 10.4676 43.5414 10.7247L40.1112 7.12274ZM42.2093 7.12274H44.7449L47.4634 8.39528C47.3849 8.45481 47.3064 8.51433 47.2279 8.57214C46.7266 8.94311 46.2098 9.28735 45.6792 9.60742C44.3506 8.65669 42.972 7.66885 42.2093 7.12188V7.12274ZM45.8621 7.12274H48.9749C48.6194 7.45231 48.2545 7.76807 47.8809 8.0683C47.1295 7.7163 46.4074 7.37811 45.8613 7.12274H45.8621ZM35.5499 12.3708V7.12274H36.3824L37.7749 12.2853C36.6982 12.401 35.9079 12.3872 35.5499 12.3708ZM38.0363 14.8019C38.0363 14.8019 36.7068 13.4725 36.0934 12.8591C36.5403 12.8591 37.1554 12.8366 37.9008 12.753L38.2071 13.8892C38.208 13.8944 38.2097 13.8995 38.2114 13.9038C38.3555 14.3274 38.541 14.8692 38.8481 15.2376C38.5824 15.185 38.2942 15.0608 38.0354 14.8019H38.0363ZM39.8109 15.1669C39.2864 15.2773 39.0112 14.7787 38.6626 13.7572C38.6618 13.7529 38.547 13.3293 38.3753 12.6934C39.0741 12.5968 39.867 12.4475 40.7271 12.2189C40.8488 12.4475 41.1042 12.9091 41.4208 13.3758C41.7598 13.8762 42.0696 14.2386 42.3534 14.4663C40.9713 14.8468 39.9153 15.1367 39.8101 15.166L39.8109 15.1669ZM43.0151 14.2852C42.5389 14.2455 41.7133 13.054 41.1947 12.0895C41.3449 12.0455 41.4958 11.9998 41.6485 11.9515C42.2525 11.7599 42.846 11.5391 43.4266 11.2915C44.1902 12.093 44.7561 12.6874 44.7587 12.69C44.8389 12.7823 45.2496 13.2413 45.7534 13.532C44.8467 13.7813 43.8899 14.0445 43.0151 14.286V14.2852ZM46.6438 13.2861C46.1546 13.4207 45.354 12.6537 45.1124 12.3742C45.1098 12.3716 45.1073 12.3682 45.1047 12.3656L43.8873 11.0879C44.4904 10.8127 45.0805 10.5073 45.6551 10.1725L48.8783 12.4803C48.886 12.4855 48.8929 12.4907 48.9007 12.4941C48.9378 12.5148 49.0154 12.5571 49.1181 12.6037C48.5841 12.7504 47.6825 12.9988 46.6429 13.2853L46.6438 13.2861ZM51.8073 10.7842C51.8073 10.7842 51.589 11.2872 51.564 11.3424C51.5562 11.3579 51.2698 11.8885 50.0317 12.3337C49.8514 12.401 49.3994 12.2284 49.1414 12.0869C49.131 12.0792 47.7058 11.0585 46.0994 9.90851C46.5765 9.61432 47.0432 9.29856 47.4979 8.96296C47.6489 8.85166 47.7981 8.73778 47.9465 8.62218L51.5536 10.3114C51.5622 10.3149 51.5709 10.3183 51.5795 10.3218C51.5967 10.3278 51.7969 10.3934 52.0713 10.4408C51.9608 10.5392 51.8651 10.6539 51.8081 10.7851L51.8073 10.7842ZM52.9676 9.96977C52.5061 10.1061 51.8331 9.9042 51.7408 9.87487C51.727 9.86883 50.049 9.08288 48.358 8.29089C48.8058 7.9225 49.2406 7.53254 49.6634 7.12274L55.8863 9.10962C54.4955 9.51942 53.3662 9.85244 52.9685 9.96977H52.9676ZM57.1786 8.72916C56.8922 8.8137 56.2883 8.71708 56.0666 8.67049C56.045 8.66359 51.2448 7.13051 50.0412 6.74659C50.2949 6.48777 50.5442 6.22118 50.7884 5.9477L60.0921 7.87073C59.1534 8.14767 58.1415 8.44532 57.1795 8.72916H57.1786ZM63.9054 6.74659C63.9054 6.74659 62.6872 7.10549 61.0566 7.58603L51.1447 5.5379C51.3112 5.34292 51.4742 5.14363 51.6356 4.94089L64.2617 6.62753C64.1547 6.66636 64.0365 6.70604 63.9063 6.74659H63.9054ZM65.8319 5.05563C65.8224 5.07202 65.2978 6.03915 65.2978 6.03915C65.2935 6.04605 65.2875 6.06244 65.2823 6.07452L65.2875 6.06072C65.2875 6.06072 65.278 6.07711 65.2521 6.10385C65.1486 6.17115 64.7517 6.20307 64.3989 6.16769C64.3894 6.16683 56.0769 5.05649 51.9703 4.50779C52.1291 4.29901 52.2852 4.08591 52.4388 3.87023L66.0036 4.77955C65.9043 4.90292 65.8491 5.01594 65.8319 5.05563ZM68.2053 2.72452C68.2053 2.72452 68.2027 2.72883 68.2018 2.73056C68.2018 2.73056 67.5427 3.9056 67.5332 3.92199C67.5021 3.96599 67.2217 4.35768 66.8335 4.36026L52.7554 3.41729C52.9107 3.18694 53.0643 2.95314 53.2144 2.71589H68.2113C68.2113 2.71589 68.207 2.72193 68.2053 2.72452ZM70.1188 1.00509C70.0852 1.05771 69.4105 2.11543 69.3846 2.15511C69.3579 2.17409 69.2354 2.24225 68.9093 2.24225H53.4594C53.7708 1.653 54.5283 0.473642 55.6093 0.473642H69.6245C69.7202 0.477955 70.0092 0.522818 70.1119 0.673796C70.1387 0.713482 70.1525 0.763521 70.1525 0.823049C70.1525 0.876539 70.1395 0.937793 70.1179 1.00509H70.1188Z" fill="black"/>
<path d="M24.1193 6.2609C24.0486 6.25744 23.9891 6.24968 23.9261 6.24968C23.8562 6.24968 23.7924 6.25744 23.7294 6.2609C23.6215 5.95204 23.4878 5.59573 23.3394 5.25753H22.3956C22.2662 5.58451 22.1325 5.91149 22.0281 6.2609C21.9754 6.25744 21.9349 6.24968 21.89 6.24968C21.8417 6.24968 21.8003 6.25744 21.7598 6.2609L22.9193 3.66406H23.0047L24.1193 6.2609ZM22.871 4.15065L22.4655 5.10138H23.2834L22.871 4.15065Z" fill="black"/>
<path d="M24.4546 5.75965C24.5996 5.99776 24.7678 6.14615 25.0568 6.14615C25.3458 6.14615 25.5727 5.89682 25.5727 5.60349C25.5727 4.91244 24.4098 5.21699 24.4098 4.37754C24.4098 3.89786 24.7885 3.66406 25.2345 3.66406C25.4123 3.66406 25.6288 3.71928 25.766 3.84179C25.722 3.93841 25.6952 4.04194 25.6659 4.14633H25.6297C25.552 3.94531 25.3881 3.82281 25.169 3.82281C24.9127 3.82281 24.7005 3.99449 24.7005 4.25762C24.7005 4.94177 25.8712 4.66656 25.8712 5.45769C25.8712 5.99 25.4589 6.30489 24.9533 6.30489C24.7713 6.30489 24.4736 6.22725 24.3477 6.08921C24.3848 5.98137 24.4029 5.87008 24.4184 5.75878H24.4546V5.75965Z" fill="black"/>
<path d="M27.2538 6.27118C27.1952 6.26773 27.1425 6.25996 27.0899 6.25996C27.0347 6.25996 26.9795 6.26773 26.926 6.27118V3.90038C26.5515 3.90038 26.3247 3.92281 26.1133 3.94524C26.1167 3.90814 26.1236 3.87018 26.1236 3.83395C26.1236 3.79771 26.1167 3.7632 26.1133 3.72266H28.0303C28.0268 3.7632 28.0199 3.79685 28.0199 3.83395C28.0199 3.87105 28.0277 3.90814 28.0303 3.94524C27.8457 3.92281 27.5851 3.90038 27.2538 3.90038V6.27118Z" fill="black"/>
<path d="M28.125 4.99095C28.125 4.17739 28.7306 3.66406 29.5002 3.66406C30.199 3.66406 30.9082 4.0428 30.9082 4.93487C30.9082 5.7631 30.3215 6.30576 29.4924 6.30576C28.6633 6.30576 28.125 5.78553 28.125 4.99009M30.3103 4.14719C30.1248 3.91339 29.8349 3.78657 29.5373 3.78657C28.8833 3.78657 28.4891 4.28178 28.4891 5.03581C28.4891 5.78984 28.9506 6.18411 29.5036 6.18411C30.2887 6.18411 30.57 5.374 30.545 4.96507C30.545 4.65707 30.5036 4.39652 30.3103 4.14719Z" fill="black"/>
<path d="M33.5904 6.26427H33.4783C33.4377 6.21251 33.3635 6.12279 33.285 6.03737L31.6795 4.261H31.6415V6.26427C31.6044 6.26082 31.5708 6.25306 31.538 6.25306C31.5009 6.25306 31.4672 6.26082 31.4336 6.26427V3.72266H31.5785L33.3437 5.6362H33.3799V3.72266C33.4136 3.72611 33.4472 3.73387 33.4843 3.73387C33.5171 3.73387 33.5507 3.72524 33.5887 3.72266V6.26427H33.5904Z" fill="black"/>
<path d="M37.8042 3.72266C37.9008 4.64061 38.0052 5.55511 38.1053 6.26427C38.038 6.26082 37.9862 6.25306 37.931 6.25306C37.8715 6.25306 37.8119 6.26082 37.7559 6.26427C37.6929 5.51801 37.6187 4.7148 37.5669 4.34641C37.1355 5.11597 36.8163 5.7104 36.5929 6.22373H36.5532L36.3479 5.80357C36.1098 5.31354 35.8501 4.83041 35.5973 4.34728C35.5162 5.07197 35.4144 5.80789 35.4144 6.26514C35.3669 6.26169 35.3255 6.25392 35.285 6.25392C35.2358 6.25392 35.1953 6.26169 35.1504 6.26514C35.247 5.66726 35.4696 4.11348 35.5076 3.72352H35.6042C35.901 4.31449 36.2581 5.01331 36.6559 5.67071C37.0087 5.03488 37.3512 4.38869 37.7257 3.72352H37.8042V3.72266Z" fill="black"/>
<path d="M40.7092 6.2609C40.6384 6.25744 40.5789 6.24968 40.5159 6.24968C40.4452 6.24968 40.3822 6.25744 40.3184 6.2609C40.2114 5.95204 40.0777 5.59573 39.9293 5.25753H38.9846C38.8552 5.58451 38.7214 5.91149 38.6171 6.2609C38.5653 6.25744 38.5239 6.24968 38.479 6.24968C38.4307 6.24968 38.3902 6.25744 38.3496 6.2609L39.5083 3.66406H39.5937L40.7083 6.2609H40.7092ZM39.4608 4.15065L39.0562 5.10138H39.8732L39.4608 4.15065Z" fill="black"/>
<path d="M41.1033 3.72266H41.891C42.463 3.72266 42.7157 3.91246 42.7157 4.28775C42.7157 4.71825 42.3292 4.92703 41.9539 4.99347L42.7192 5.96318L42.8969 6.17196L42.9677 6.26427C42.89 6.26082 42.8227 6.25306 42.752 6.25306C42.6812 6.25306 42.607 6.26082 42.5406 6.26427C42.4578 6.14953 42.3836 6.04428 42.3059 5.94161L41.8677 5.37307L41.57 5.02366H41.4294V6.26427C41.3699 6.26082 41.3181 6.25306 41.2646 6.25306C41.2111 6.25306 41.1533 6.26082 41.1016 6.26427V3.72266H41.1033ZM41.4303 4.88217C41.482 4.88562 41.7201 4.90115 41.9099 4.86319C42.1808 4.80711 42.3844 4.62163 42.3844 4.33175C42.3844 4.07552 42.255 3.90901 41.9764 3.86328C41.8392 3.84171 41.5864 3.85207 41.4303 3.85983V4.88217Z" fill="black"/>
<path d="M44.118 6.27118C44.0584 6.26773 44.0058 6.25996 43.954 6.25996C43.898 6.25996 43.8427 6.26773 43.791 6.27118V3.90038C43.4157 3.90038 43.1888 3.92281 42.9766 3.94524C42.98 3.90814 42.9886 3.87018 42.9886 3.83395C42.9886 3.79771 42.98 3.7632 42.9766 3.72266H44.8936C44.8892 3.7632 44.8823 3.79685 44.8823 3.83395C44.8823 3.87105 44.8892 3.90814 44.8936 3.94524C44.7081 3.92281 44.4484 3.90038 44.118 3.90038V6.27118Z" fill="black"/>
<path d="M45.3242 3.72266C45.376 3.72611 45.4321 3.73387 45.4873 3.73387C45.539 3.73387 45.5908 3.72524 45.6503 3.72266V6.26427C45.5908 6.26082 45.539 6.25306 45.4873 6.25306C45.4321 6.25306 45.376 6.26082 45.3242 6.26427V3.72266Z" fill="black"/>
<path d="M48.531 6.26427H48.4188C48.3783 6.21251 48.3041 6.12279 48.2256 6.03737L46.62 4.261H46.5838V6.26427C46.5467 6.26082 46.513 6.25306 46.4794 6.25306C46.4432 6.25306 46.4086 6.26082 46.375 6.26427V3.72266H46.5199L48.2851 5.6362H48.3213V3.72266C48.355 3.72611 48.3886 3.73387 48.4257 3.73387C48.4594 3.73387 48.4922 3.72524 48.5301 3.72266V6.26427H48.531Z" fill="black"/>
</svg>
