<svg width="29" height="33" viewBox="0 0 29 33" fill="none" xmlns="http://www.w3.org/2000/svg">
<path d="M25.9219 4.0625L25.9252 7.52105L26.4501 7.6643L26.4468 4.22148L25.9219 4.0625Z" fill="black"/>
<path d="M12.4588 5.54377C12.612 5.70771 12.8157 5.8228 13.0972 5.81784H13.1079C13.3845 5.80956 13.5865 5.68701 13.7397 5.51976C13.9227 5.31938 14.0486 5.042 14.1107 4.77621C14.1322 4.68265 14.1496 4.58329 14.162 4.4831C14.2274 3.95815 14.1877 3.28085 14.0411 2.92978C13.9773 2.7766 13.8912 2.60189 13.7571 2.45782C13.6047 2.29387 13.4002 2.17878 13.1187 2.18375H13.1079C12.8314 2.19203 12.6294 2.31457 12.4762 2.48183C12.217 2.76583 12.1003 3.14506 12.0539 3.51848C11.9885 4.04343 12.0282 4.72074 12.1748 5.07181C12.2385 5.22499 12.3247 5.3997 12.4588 5.54377ZM12.5772 3.57065C12.588 3.48122 12.602 3.40008 12.6178 3.33136C12.6583 3.15582 12.7395 2.96455 12.8612 2.83124C12.9233 2.76335 13.0028 2.71367 13.1071 2.70953H13.1146C13.223 2.70704 13.3042 2.75424 13.3671 2.82131C13.4483 2.90825 13.507 3.03079 13.5526 3.14009C13.6668 3.41498 13.6942 3.97885 13.6379 4.43011C13.6271 4.51953 13.613 4.60068 13.5973 4.6694C13.5567 4.84328 13.4723 5.03952 13.3539 5.16951C13.2918 5.23741 13.2123 5.28709 13.1079 5.29123H13.1005C12.992 5.29371 12.9109 5.24569 12.848 5.17945C12.7668 5.09251 12.708 4.96997 12.6625 4.86067C12.5482 4.58577 12.5209 4.02191 12.5772 3.57065Z" fill="black"/>
<path d="M19.639 6.07273L20.0729 6.1398V4.68417L20.9969 4.85557L20.9961 6.27559L21.5235 6.36501L21.5202 2.85016L21.0094 2.76901L21.0152 4.33724L20.0762 4.15839L20.0779 2.62494L19.639 2.55787L19.543 2.54297L19.5455 6.05782L19.639 6.07273Z" fill="black"/>
<path d="M17.2489 5.43106C17.6116 6.05951 18.5787 6.07359 18.8876 5.3938C19.0416 5.05432 19.0217 4.48797 19.025 4.10792L18.101 4.1104L18.0976 4.63784L18.4901 4.64032C18.4934 4.85229 18.4702 5.04025 18.4081 5.17687C18.2765 5.46667 17.8509 5.42361 17.7035 5.16859C17.5851 4.96324 17.5305 4.61548 17.5421 4.09881C17.5479 3.83302 17.5661 3.50845 17.6538 3.26171C17.7482 2.99757 18.0952 2.80548 18.3229 3.05553C18.3808 3.11929 18.438 3.3503 18.438 3.44387L18.9637 3.44718C18.9637 3.44304 18.9637 3.37597 18.9629 3.37597C18.9513 3.09445 18.8635 2.86675 18.7128 2.70198C18.5323 2.50409 18.2757 2.41715 18.0132 2.41797C17.5479 2.42046 17.2961 2.70281 17.1603 3.08203L17.1587 3.08617C17.0461 3.40164 17.0237 3.78169 17.0171 4.08805C17.0063 4.58319 17.0544 4.96242 17.1603 5.24311C17.186 5.31183 17.2158 5.37476 17.2489 5.43189V5.43106Z" fill="black"/>
<path d="M15.1411 4.30839L15.5551 4.31087L15.6255 4.51373L16.0626 5.77312L16.6215 5.77643L16.0809 4.21979C16.2017 4.16183 16.3044 4.07903 16.388 3.97967C16.5495 3.7884 16.6323 3.53917 16.6331 3.29077C16.6306 2.9306 16.528 2.67806 16.3351 2.50169C16.1529 2.33526 15.8739 2.24501 15.6255 2.23011C15.6048 2.22928 15.5841 2.22845 15.5642 2.22845L14.6261 2.22266L14.6211 5.76152L15.1411 5.76484V4.30839ZM15.1502 2.75175L15.5435 2.75423C15.5716 2.75672 15.599 2.7592 15.6255 2.76251C15.7836 2.78156 15.9037 2.82213 15.9798 2.89168C16.0891 2.99187 16.1065 3.16244 16.1065 3.29988C16.1057 3.42408 16.0635 3.54911 15.9856 3.64185C15.9144 3.7263 15.7803 3.80082 15.6669 3.78426H15.6255L15.1436 3.78095L15.1494 2.75175H15.1502Z" fill="black"/>
<path d="M24.8095 5.81127L23.9202 3.44651L23.3066 3.30078L23.3116 6.72207L23.8283 6.86615L23.8308 4.70341L24.7349 7.15098L25.3286 7.31823L25.3328 3.8572L24.8086 3.6858L24.8095 5.81127Z" fill="black"/>
<path d="M8.0314 6.31461L8.69546 4.22805L8.70042 5.99666L9.21875 5.91055V2.52734L8.66068 2.62256L8.00408 4.66275L7.32181 2.82542L6.76953 2.92644L6.77119 6.27983L7.3069 6.17551L7.30276 4.27773L8.0314 6.31461Z" fill="black"/>
<path d="M22.1548 6.49957L22.6798 6.61135L22.6847 3.07745L22.1523 2.96484L22.1548 6.49957Z" fill="black"/>
<path d="M10.7029 5.76991C10.7791 5.75749 10.8544 5.74424 10.9281 5.72851C11.0499 5.70284 11.1641 5.6482 11.2643 5.5745C11.3695 5.4975 11.463 5.39483 11.5359 5.2756C11.6286 5.12324 11.6866 4.94191 11.6874 4.74816C11.6882 4.48569 11.6452 4.26875 11.5359 4.09901C11.5243 4.08079 11.5119 4.06341 11.4986 4.04602C11.4614 3.99799 11.4183 3.95494 11.3711 3.91768C11.4407 3.82991 11.4953 3.72889 11.5367 3.62208C11.5988 3.46145 11.6286 3.28757 11.6278 3.1228C11.627 2.98452 11.5938 2.86529 11.5367 2.76096C11.4804 2.65912 11.4018 2.57135 11.3065 2.49435C11.1459 2.36518 10.9372 2.29314 10.7037 2.30142C10.6946 2.30142 10.6847 2.30142 10.6756 2.30308C10.6491 2.30474 10.6234 2.30722 10.5978 2.31053L9.76562 2.42314L9.76811 5.88583C10.0736 5.84526 10.3957 5.82042 10.7046 5.77074L10.7029 5.76991ZM10.3104 2.86778C10.4396 2.84956 10.5729 2.82306 10.7029 2.81396H10.7087C10.8147 2.8065 10.9058 2.83548 10.972 2.88848C11.0523 2.95306 11.0946 3.05242 11.1012 3.15426C11.1136 3.3447 11.0242 3.56164 10.8826 3.67673C10.8644 3.69163 10.7766 3.73717 10.7559 3.73635C10.7385 3.738 10.7211 3.74049 10.7029 3.74214C10.6152 3.75208 10.5166 3.76533 10.4189 3.77857C10.3817 3.78354 10.3436 3.78851 10.3047 3.79348L10.3104 2.86695V2.86778ZM10.3013 4.31181C10.3618 4.30435 10.4247 4.29607 10.4876 4.28779C10.5564 4.27869 10.6251 4.26958 10.7029 4.26047C10.7336 4.25716 10.765 4.25302 10.7981 4.24971C10.9414 4.25799 11.03 4.29359 11.078 4.35403C11.1393 4.43269 11.1625 4.566 11.1616 4.74485C11.1608 4.93777 11.0134 5.2019 10.8006 5.23006L10.7021 5.2433L10.2947 5.29712L10.3005 4.31263L10.3013 4.31181Z" fill="black"/>
<path d="M5.35349 3.2728L5.05624 3.3349L4.67453 5.03561L4.25391 6.91186L4.67453 6.80339L4.82688 6.76365L5.03885 5.81807L5.35349 5.74686L5.65902 5.67814L5.84946 6.50034L6.36034 6.36869L5.63087 3.21484L5.35349 3.2728ZM5.35349 5.20701L5.16636 5.24924L5.35349 4.41627L5.36011 4.38646L5.53979 5.16478L5.35266 5.20701H5.35349Z" fill="black"/>
<path d="M2.91615 4L2.37216 4.13496L2.36719 7.56702L3.98758 6.97417L3.99338 6.40202L2.91449 6.8094L2.91615 4Z" fill="black"/>
<path d="M22.0868 18.129C21.9336 18.3004 21.0336 18.2457 20.6825 17.922C20.3314 17.5982 19.9174 17.0576 19.5572 17.2107C19.5572 17.2107 19.5291 17.1718 19.4761 17.1114C19.2873 16.8978 18.7773 16.4175 18.0271 16.4457C17.0641 16.4813 17.2082 16.4457 17.2082 16.4457C17.2082 16.4457 17.1991 16.0043 16.7039 15.9952C16.5533 15.9928 16.4307 15.9903 16.333 15.9861C16.1103 15.977 16.0217 15.9555 16.0465 15.8868C16.0821 15.7874 16.0647 15.7245 16.0647 15.7245L16.333 15.7179L16.434 15.7154C16.434 15.7154 16.5243 15.6972 16.5152 15.823L16.6866 15.8139C16.6866 15.8139 16.7139 15.5531 16.4522 15.4719C16.4117 15.4595 16.3719 15.4504 16.3338 15.4446C16.1243 15.414 15.9571 15.4719 15.9571 15.4719C15.9571 15.4719 15.813 15.4363 15.8403 15.2923C15.8677 15.1482 15.9306 15.13 16.1285 15.1929C16.1906 15.2128 16.2626 15.2211 16.3338 15.2194C16.4903 15.2161 16.641 15.1656 16.6592 15.0853C16.6866 14.9685 16.7222 14.8783 16.7222 14.8783C16.7222 14.8783 16.9565 15.1217 17.055 15.5266C17.055 15.5266 17.1991 15.8238 17.3614 15.8503C17.3614 15.8503 17.4872 15.8686 17.3887 15.4628C17.2935 15.0737 16.7735 13.9683 16.3338 13.3316C16.3164 13.3059 16.2991 13.2811 16.2817 13.257C16.0167 12.8919 15.6839 12.468 15.4545 12.1798C15.2939 11.9778 15.1837 11.8437 15.1837 11.8437C15.1837 11.8437 15.1481 11.6184 15.3005 11.664C15.3005 11.664 15.3593 11.731 15.4545 11.8412C15.6565 12.0747 16.0208 12.5019 16.3338 12.8927C16.4705 13.0633 16.5971 13.2272 16.6957 13.3647C17.1279 13.9675 17.3167 14.0221 17.623 14.0486C17.9294 14.0759 18.0188 13.941 17.9294 13.5444C17.8391 13.1486 17.7042 12.8331 17.7042 12.8331C17.7042 12.8331 17.5601 12.6534 17.4251 12.6534C17.2902 12.6534 17.272 12.5541 17.5063 12.4555C17.7406 12.3562 17.965 12.2759 18.1008 12.3206C18.1008 12.3206 18.8932 13.3465 19.1631 13.8333C19.433 14.3194 19.5051 14.6887 19.3974 15.1656C19.2898 15.6425 19.2981 15.895 19.4065 16.2635C19.4314 16.348 19.4554 16.4291 19.4786 16.5078C19.5547 16.7719 19.6086 16.9938 19.5597 17.1188L20.064 17.1006C20.064 17.1006 20.0731 16.4796 19.9828 16.011C19.8926 15.5431 19.8114 15.3535 19.8661 14.8766C19.9199 14.3997 19.929 13.9675 19.6144 13.5353C19.5763 13.4823 19.5299 13.4193 19.4794 13.349C19.1118 12.8414 18.48 11.9596 18.48 11.9596C18.48 11.9596 18.9213 11.5009 18.4982 10.6C18.0751 9.69996 16.9855 9.71818 16.6435 9.70907C16.5789 9.70741 16.4721 9.71155 16.3355 9.71818C16.107 9.72977 15.7956 9.74964 15.4562 9.76372C15.1274 9.77697 14.7731 9.78607 14.4435 9.77696C14.239 9.77117 14.0436 9.75875 13.8705 9.73639C13.1767 9.64697 12.53 9.58404 12.4745 9.41513C12.4696 9.40023 12.4696 9.38367 12.4745 9.36711C12.4869 9.32571 12.53 9.27851 12.6103 9.22386C13.0872 8.90011 13.2313 8.95393 13.4027 9.11622C13.546 9.25201 13.8962 9.47475 14.4435 9.53933C14.5512 9.55175 14.6662 9.55837 14.7888 9.55672C15.1059 9.55258 15.3195 9.5443 15.4562 9.52443C15.6408 9.49793 15.6847 9.45073 15.6532 9.36793C15.6077 9.24705 15.5812 9.18909 15.4562 9.18991C15.4321 9.18991 15.4056 9.1924 15.3742 9.19654C15.1763 9.22386 14.8608 9.1245 14.879 8.97132C14.8973 8.81814 14.9238 8.79165 15.0504 8.92661C15.1763 9.06157 15.1763 9.02597 15.3833 9.02597C15.4098 9.02597 15.4346 9.02597 15.4562 9.02597C15.6035 9.02431 15.6574 9.02514 15.8064 9.13444C15.9215 9.21972 16.1682 9.23049 16.3355 9.19571C16.4158 9.17915 16.4787 9.151 16.4994 9.11622C16.4994 9.11622 16.6228 8.944 16.3355 8.77509C16.2941 8.75107 16.2444 8.72623 16.184 8.70222C16.0366 8.64343 15.7774 8.55815 15.4562 8.4828C15.1589 8.41325 14.8087 8.35281 14.4435 8.33211C13.926 8.3023 13.3795 8.35198 12.9167 8.56726C12.7411 8.64923 12.5954 8.72706 12.4754 8.80158C11.8138 9.21144 11.9181 9.51532 11.9719 9.72811C12.0059 9.86308 12.1475 10.0361 12.4754 10.1645C12.761 10.2762 13.1883 10.3533 13.8084 10.3408C14.0237 10.3367 14.2365 10.3309 14.4443 10.3259C14.8037 10.3168 15.1473 10.3061 15.457 10.2994C15.7981 10.292 16.0987 10.2887 16.3363 10.2953C16.5284 10.3003 16.6799 10.3119 16.7793 10.3317C17.1751 10.4129 17.7696 10.3855 17.941 10.9262C18.1124 11.4661 18.1207 11.7095 17.3738 11.5654C17.0078 11.4951 16.665 11.4114 16.3371 11.3129C16.0341 11.2218 15.7435 11.1183 15.4578 10.9999C15.4214 10.985 15.3849 10.9693 15.3485 10.9536C14.8964 10.7598 14.6803 10.7838 14.4452 10.9163C14.3524 10.9685 14.2564 11.0372 14.1421 11.1158C13.7372 11.3949 13.6834 11.5033 13.5476 11.6557C13.4127 11.8089 13.2868 11.8991 12.9987 12.0432C12.9109 12.0871 12.7146 12.1806 12.4762 12.3106C11.9338 12.6071 11.1737 13.0931 10.9734 13.6181C10.9734 13.6181 10.8566 14.1488 10.9195 14.6174C10.9825 15.0853 10.9104 15.2476 10.7482 15.4993C10.5859 15.751 10.2894 16.1567 10.118 16.4896C10.0444 16.6328 9.9955 16.7214 9.95576 16.8216C9.90276 16.9541 9.86468 17.1072 9.8034 17.4343C9.69576 18.0106 9.81251 18.3161 9.82162 18.3973C9.83073 18.4784 9.77691 18.9462 9.62373 19.1623C9.47055 19.3784 9.44405 19.8289 9.48876 20.2197C9.52685 20.5641 9.60634 20.9367 9.54755 21.2009C9.50698 21.4758 9.38112 21.6372 9.25527 21.8533C9.12941 22.0694 9.20145 22.6366 9.23705 22.9248C9.23705 22.9248 8.42727 23.4555 8.44466 24.0864C8.44466 24.0864 8.19295 24.2123 8.01244 24.6445C7.83277 25.0767 7.97684 25.1123 8.04887 25.3019C8.12091 25.4907 8.25587 25.4369 8.25587 25.2481C8.25587 25.0593 8.27409 24.8697 8.27409 24.8697L8.39995 24.8788L8.45377 25.0585L8.41733 25.4096C8.41733 25.4096 9.10126 25.446 9.42584 25.3102C9.42584 25.3102 9.49787 25.2829 9.49787 25.1214C9.49787 24.96 9.47966 24.671 9.57902 24.536C9.67838 24.4011 9.78602 24.4458 9.79512 24.0856C9.80423 23.7254 9.75952 23.4555 9.77691 23.3023C9.79512 23.1491 9.70487 23.1939 9.9392 23.0142L9.95658 23.0009C10.1934 22.8229 10.5859 22.5936 10.542 21.619C10.542 21.619 11.1183 20.4573 11.5049 19.9539C11.5049 19.9539 11.5414 19.828 11.6581 19.8819C11.7749 19.9357 11.7119 19.9266 11.7484 20.1791C11.7848 20.4308 11.8295 21.3491 11.8295 21.3491C11.8295 21.3491 11.9107 21.412 11.8651 21.5023C11.8204 21.5925 11.8204 21.8807 11.8204 21.9701C11.8204 22.0595 11.7848 22.1862 11.5232 22.375C11.2623 22.5638 10.6587 22.9604 10.5055 23.2121C10.3524 23.4638 10.3168 23.7254 10.3259 24.0401C10.335 24.3555 10.4161 24.31 10.5238 24.2835C10.6314 24.2562 10.7034 24.2562 10.7034 24.1668C10.7034 24.0773 10.7846 24.0318 10.8475 24.1312C10.9104 24.2305 10.8748 24.1494 10.8657 24.3473C10.8566 24.5452 10.8657 24.5816 11.1539 24.5269C11.442 24.4731 11.7567 24.4731 11.9554 23.9507C12.1061 23.554 12.2775 23.0324 12.477 22.6863C12.5399 22.577 12.6062 22.4851 12.6757 22.4197C12.9639 22.1498 13.1436 22.1498 13.4052 21.4567C13.4052 21.4567 13.4863 21.2588 13.7563 21.1868C13.7563 21.1868 13.873 21.133 13.7919 21.3218C13.7107 21.5105 13.666 21.6728 13.3597 22.0777C13.0533 22.4826 12.6128 22.7352 12.8554 23.1939C12.8554 23.1939 12.9904 23.2932 13.0988 23.0498C13.2065 22.8064 13.2429 22.9504 13.2876 23.0316C13.3323 23.1127 13.2603 23.1218 13.2065 23.2204C13.1527 23.3197 13.0988 23.4456 13.4582 23.4182C13.8184 23.3909 14.0163 23.328 14.1247 23.3189C14.2324 23.3098 14.5031 23.2825 14.4311 22.9678C14.3591 22.6523 14.2514 22.4909 14.3682 22.4371C14.3913 22.4263 14.4187 22.4189 14.446 22.4114C14.5569 22.3808 14.6795 22.3493 14.629 22.1042C14.5661 21.7979 14.5296 21.537 14.7192 21.4559C14.908 21.3747 14.9445 21.393 14.9445 21.393C14.9445 21.393 14.9983 22.0231 15.2235 22.3924C15.2814 22.4876 15.3626 22.558 15.4586 22.6101C15.6979 22.7401 16.0324 22.7583 16.338 22.7608C16.3877 22.7608 16.4365 22.7608 16.4837 22.7608C16.9424 22.7608 17.4376 22.7161 17.5187 22.0496C17.5998 21.383 17.6719 20.6991 18.1041 20.3215C18.5363 19.9431 18.6622 19.9075 18.6622 19.9075C18.6622 19.9075 18.9776 20.4474 19.1846 20.6999C19.3916 20.9516 19.3378 21.0154 19.3378 21.2944C19.3378 21.5735 19.2211 21.8707 19.3105 21.9875C19.4007 22.1042 19.3552 22.2218 19.2658 22.4379C19.1755 22.654 19.0223 23.068 19.4281 23.275C19.4471 23.2849 19.4653 23.294 19.4819 23.3023C19.823 23.4737 19.7261 23.3851 19.7518 23.2485C19.7791 23.1044 19.7518 22.9968 19.8959 23.0862C20.04 23.1765 19.9497 23.3297 19.9497 23.3297C19.9497 23.3297 20.3364 23.4919 20.4357 23.1409C20.5351 22.7898 20.526 22.6995 20.4266 22.5108C20.3273 22.322 20.2196 21.6198 20.1923 20.6834C20.1658 19.7668 20.1567 18.6614 19.4811 18.2433C19.4662 18.2341 19.4512 18.225 19.4363 18.2168C19.4363 18.2168 19.1846 17.9824 19.0671 18.3964C18.9503 18.8104 19.0132 19.1524 18.7607 19.3056C18.509 19.4588 17.3837 20.17 17.3026 21.0253C17.2214 21.8807 17.1676 22.115 16.7801 22.2044C16.6154 22.2425 16.4647 22.2764 16.3371 22.2947C16.1657 22.3203 16.0366 22.3187 15.9695 22.2673C15.8528 22.1771 15.7534 22.0694 15.9248 22.0877C16.0962 22.1059 16.2312 21.98 16.1318 21.8268C16.0324 21.6737 15.7534 21.5751 15.6905 21.773C15.6275 21.9709 15.6002 22.0429 15.5191 21.8807C15.4992 21.8409 15.4769 21.7887 15.457 21.7283C15.3957 21.5412 15.3543 21.2679 15.4562 20.9897V20.9872C15.5936 20.6171 16.0316 19.891 15.7981 19.7113C15.6441 19.5929 15.5332 19.6616 15.457 19.7684C15.4172 19.8239 15.3874 19.8901 15.3659 19.9456C15.303 20.1079 15.1589 20.3778 15.0687 20.3869C14.9784 20.3961 14.961 20.0177 15.0239 19.7477C15.0695 19.5531 15.2922 19.0688 15.457 18.7632C15.5207 18.644 15.5762 18.5521 15.6093 18.5148C15.7261 18.3799 15.7981 18.0735 15.6184 17.8218C15.5746 17.7605 15.5183 17.6968 15.4578 17.6347C15.269 17.4418 15.0297 17.2579 14.9345 17.1561C14.8087 17.0211 14.7631 16.4001 14.7631 16.4001C14.7631 16.4001 14.9428 16.3008 15.1589 16.3819C15.2897 16.4308 15.3709 16.4871 15.457 16.4987C15.5125 16.5069 15.5704 16.4962 15.6449 16.4539C15.77 16.3819 16.078 16.295 16.3363 16.2859C16.468 16.2817 16.5864 16.2975 16.6617 16.3455L16.7064 16.5169C16.7064 16.5169 16.5392 16.5185 16.3355 16.5425C16.0432 16.5773 15.6756 16.6593 15.6168 16.8497C15.5174 17.1735 15.4545 17.6686 16.121 18.1729C16.1881 18.2234 16.2601 18.2698 16.3355 18.3112C17.0095 18.6804 17.9716 18.6738 18.4162 18.3169C18.9114 17.9212 18.668 17.84 18.4527 17.9568C18.2366 18.0735 17.1478 17.9294 16.8505 17.7854C16.5533 17.6413 16.6617 17.5419 16.6791 17.4161L16.949 17.3888C16.949 17.3888 17.1022 17.3888 17.1204 17.2811C17.1386 17.1735 17.1386 17.1462 17.1386 17.1462L17.3995 17.2C17.3995 17.2 17.4533 17.4434 17.8226 17.5237C18.1919 17.6049 18.273 17.5775 18.273 17.5775C18.273 17.5775 18.3806 17.4964 18.2639 17.3979C18.1471 17.2985 17.8052 17.1727 17.8052 17.0468C17.8052 17.0468 18.1745 16.9565 18.552 17.1462C18.9304 17.3349 19.0563 17.3896 19.1192 17.344L19.1283 17.8392C19.1283 17.8392 19.0927 17.9924 19.236 18.0106C19.3188 18.0205 19.3867 18.0255 19.4786 18.0768C19.5473 18.1149 19.6284 18.1787 19.7402 18.2896C20.001 18.5504 20.6403 18.9562 21.2795 18.8477C21.9187 18.7401 22.225 18.3526 22.288 18.2532C22.2987 18.2366 22.3037 18.2176 22.3054 18.1977V18.1737C22.2979 18.0818 22.2068 17.9957 22.0893 18.1273L22.0868 18.129ZM14.1653 9.06323C14.2324 8.95559 14.3044 8.96884 14.441 8.99285C14.4874 9.00113 14.542 9.01107 14.6066 9.01769C14.8583 9.04501 14.7416 9.15265 14.7416 9.15265C14.7805 9.3729 14.6489 9.35965 14.441 9.29259C14.4104 9.28265 14.3789 9.27189 14.345 9.26029C14.0842 9.17004 14.0751 9.20647 14.1653 9.0624V9.06323ZM19.1995 19.5175C19.2981 19.3263 19.3916 19.135 19.4761 19.0506C19.4984 19.0282 19.5208 19.0133 19.5415 19.0075C19.5415 19.0075 19.6582 18.957 19.6922 19.2998C19.7253 19.6426 19.7675 20.1766 19.7675 20.1766C19.7675 20.1766 19.8346 20.3439 19.7088 20.3687C19.621 20.3861 19.5415 20.3182 19.4761 20.2321C19.4479 20.1957 19.4223 20.1551 19.3999 20.1178C19.3246 19.9928 19.0745 19.7585 19.1995 19.5167V19.5175ZM12.1052 15.5374L12.0961 15.0654L12.2684 15.0745C12.3197 15.308 12.3926 15.4918 12.472 15.6367C12.6848 16.0259 12.9407 16.1277 12.9407 16.1277L13.05 16.3364C13.05 16.3364 13.0773 16.3728 12.5052 16.3637C12.4944 16.3637 12.4836 16.3637 12.4729 16.3629C11.9338 16.3463 11.9338 16.1368 11.9338 16.1368C11.7798 15.7559 12.1061 15.5382 12.1061 15.5382L12.1052 15.5374ZM10.0998 22.2814C10.0568 22.3824 10.0038 22.4445 9.95162 22.4818C9.8506 22.5555 9.75455 22.5356 9.75455 22.5356C9.67424 22.1017 9.83901 21.9469 9.95162 21.8931C10.0038 21.8674 10.0452 21.8641 10.0452 21.8641L10.1454 21.9734C10.1454 21.9734 10.2273 21.9825 10.0998 22.2822V22.2814ZM12.5863 21.9908C12.5449 21.9734 12.501 21.9585 12.472 21.932C12.4364 21.898 12.4248 21.845 12.472 21.7432C12.4861 21.7126 12.506 21.6778 12.5317 21.6372C12.713 21.3557 12.9034 21.4923 12.9034 21.4923C13.103 21.7374 12.6948 22.0371 12.5855 21.9916L12.5863 21.9908ZM14.7648 17.7431C14.7838 17.9154 14.6646 18.0064 14.441 18.2275C14.3458 18.3219 14.2324 18.4387 14.1024 18.596C13.6668 19.1226 14.1661 19.8032 14.3475 20.0392C14.3806 20.0822 14.412 20.1311 14.441 20.1841C14.5735 20.4217 14.6654 20.7198 14.6654 20.7198L14.441 20.7289L12.472 20.8101H12.4596C12.4596 20.8101 12.3056 20.3207 12.3056 20.0028C12.3056 19.7775 12.3197 19.7709 12.4729 19.7676C12.5358 19.7659 12.6227 19.7651 12.7411 19.7486C13.1493 19.6939 13.0409 19.5035 13.0409 19.5035C12.9895 19.3304 12.7527 19.2484 12.4729 19.2145C12.0638 19.1656 11.5596 19.2186 11.3981 19.2402C11.1257 19.2766 11.1439 19.4853 11.1439 19.4853C11.1439 19.4853 10.59 20.2934 10.4633 20.4747C10.3366 20.656 10.2638 20.7927 10.1272 20.7016C9.99136 20.6105 10.0361 20.1841 10.0361 20.1841C10.0998 19.549 10.59 18.3236 10.59 18.3236C10.59 18.3236 10.6447 18.2325 10.6447 17.97C10.6447 17.7075 10.7448 17.6247 10.8715 17.4707C10.9982 17.3167 11.1075 17.5436 11.1075 17.5436C11.1075 17.5436 11.2706 17.734 11.4884 17.6703C11.7061 17.6065 11.7061 17.4616 11.8428 17.1619C11.9786 16.8622 12.1971 16.9077 12.3694 17.0526C12.4008 17.0791 12.4356 17.1039 12.4729 17.1255C12.636 17.2223 12.8463 17.2637 13.0682 17.1975C13.3406 17.1155 13.3679 16.9342 13.4673 16.7255C13.5675 16.5169 13.5037 16.5533 13.8664 16.4076C14.1653 16.2883 14.3533 16.7471 14.441 17.0195C14.4601 17.0774 14.4741 17.1279 14.4833 17.1611C14.5379 17.3515 14.7375 17.4972 14.7648 17.7423V17.7431ZM15.4537 14.1513L15.4462 14.1397C15.2922 13.9128 15.2011 13.9766 15.2011 13.9766C15.2011 13.9766 15.0744 14.0312 14.8467 14.0221C14.6199 14.013 14.6017 14.0494 14.6017 13.7952C14.6017 13.541 14.865 13.6321 15.0008 13.6321C15.1365 13.6321 15.3005 13.6412 15.3187 13.5684C15.3369 13.4955 15.3825 13.5228 15.2458 13.4682C15.11 13.4135 15.2003 13.3498 15.1962 13.3274C15.2268 13.2769 15.2748 13.2637 15.4537 13.3241C15.5158 13.3448 15.5928 13.3746 15.6913 13.4135C16.0722 13.5675 16.1815 13.8217 16.2726 14.0942C16.3636 14.3666 16.2635 14.6572 16.0639 14.6928C15.8677 14.7284 15.6102 14.3782 15.4545 14.1505L15.4537 14.1513Z" fill="black"/>
<path d="M16.4092 19.3988C16.3794 19.3624 16.3546 19.321 16.3322 19.2796C16.2925 19.2034 16.2651 19.1264 16.2477 19.0693C16.2121 18.95 16.1393 18.9268 16.0913 19.0817C16.0499 19.215 15.9497 19.3988 16.0664 19.5909C16.1177 19.6745 16.2237 19.7424 16.3322 19.7797C16.4721 19.8277 16.6145 19.8261 16.6427 19.7408C16.6932 19.5901 16.5425 19.5652 16.4092 19.398V19.3988Z" fill="black"/>
<path d="M28.4289 3.61504C28.1449 2.97666 27.6323 2.43515 26.7215 2.04764C23.5312 0.688067 18.9408 0.00496799 14.3686 0C13.8196 0 13.2715 0.00827999 12.7259 0.027324C11.7331 0.0612719 10.7519 0.127512 9.79805 0.225216C6.84789 0.527435 4.11301 1.13519 2.01652 2.04681L2.01321 2.04847C1.10737 2.4426 0.595672 2.98328 0.31084 3.61918C0.0359444 4.23439 -0.0112516 4.91252 0.00199639 5.62625C0.12868 12.3223 1.58265 17.4252 3.76028 21.523C5.93709 25.6199 8.83343 28.7051 11.8457 31.3696C12.7192 32.1421 13.534 32.5279 14.3678 32.5279C15.2016 32.5279 16.0163 32.1421 16.8899 31.3696C19.9021 28.7051 22.7985 25.6199 24.9753 21.523C27.1529 17.4252 28.6069 12.3215 28.7336 5.62625C28.7468 4.91252 28.7013 4.23108 28.4272 3.61422L28.4289 3.61504ZM27.9006 5.61383C27.7772 12.1567 26.3597 17.1371 24.2375 21.1314C22.1154 25.1256 19.2844 28.1404 16.3384 30.7453C15.6255 31.3762 14.9879 31.6908 14.3694 31.6908C13.7509 31.6908 13.1134 31.3754 12.4005 30.7453C9.45443 28.1395 6.6235 25.1256 4.50134 21.1314C2.37835 17.1371 0.959991 12.1567 0.836619 5.61383C0.825027 5.0036 0.860631 4.43476 1.0726 3.96032C1.27463 3.50823 1.65468 3.11659 2.34275 2.81602L2.34606 2.81437C4.36141 1.93669 7.01184 1.35129 9.88251 1.05653C10.8239 0.959651 11.7852 0.895067 12.7515 0.861947C13.2889 0.843731 13.8288 0.834623 14.3678 0.834623C18.834 0.839591 23.3044 1.49951 26.3936 2.81602C27.0842 3.10996 27.4642 3.50161 27.6654 3.95535C27.8774 4.43145 27.9114 5.0036 27.8998 5.61383H27.9006Z" fill="black"/>
</svg>
