<svg width="39" height="20" viewBox="0 0 39 20" fill="none" xmlns="http://www.w3.org/2000/svg">
<path d="M19.4975 20C30.267 20 39 15.5225 39 10.0019C39 4.4813 30.2683 0 19.4975 0C8.72669 0 0 4.47752 0 10.0019C0 15.5263 8.73173 20 19.4975 20ZM23.17 15.0936C22.8451 15.8479 22.2846 17.4598 21 18.103C20.6083 18.2973 20.1272 18.3881 19.699 18.4045H19.5013C15.903 18.4045 12.5516 17.9012 9.74811 17.0486C9.7267 17.0398 9.66121 17.0158 9.64106 17.007C9.38162 16.92 9.24936 16.8014 9.24936 16.6526C9.24936 16.5252 9.31989 16.4256 9.40931 16.3347C9.45088 16.2982 9.50881 16.2477 9.5869 16.1783C10.2368 15.6385 12.1851 14.2246 15.8564 12.8145C17.1448 12.3239 18.7594 11.7097 20.4471 11.3515C21.4358 11.1459 25.107 10.5808 23.1688 15.0949M33.0214 5.01356C33.0919 4.89374 33.1826 4.79158 33.3514 4.78275C33.4421 4.77392 33.5655 4.7941 33.7544 4.91518C36.0428 6.32528 37.4018 8.0898 37.4018 9.99937C37.4018 13.4464 32.9761 16.4104 26.6436 17.7057C26.2406 17.7877 25.9685 17.7839 25.8778 17.6818C25.8123 17.62 25.796 17.509 25.8778 17.3728C25.9144 17.3021 25.9597 17.2403 26.0466 17.1382C29.4924 13.0693 32.1196 7.06565 32.864 5.33392C32.9219 5.2141 32.9748 5.09428 33.0202 5.01608M15.8866 4.88617C16.2116 4.13193 16.772 2.52002 18.0567 1.88056C18.4484 1.68632 18.9295 1.59173 19.3577 1.57911C19.4572 1.57659 19.5264 1.57911 19.5516 1.57911C23.1536 1.57911 26.5013 2.07858 29.3086 2.93498C29.33 2.94381 29.3955 2.96777 29.4156 2.9766C29.6751 3.06363 29.8073 3.18219 29.8073 3.33102C29.8073 3.45841 29.7368 3.55301 29.6474 3.64382C29.6058 3.68544 29.5479 3.73463 29.4698 3.80021C28.8237 4.34382 26.8715 5.75392 23.2002 7.16403C21.9081 7.65845 20.2972 8.2689 18.6146 8.6271C17.6222 8.83774 13.9496 9.39774 15.8892 4.88365M12.3501 2.29299C12.7582 2.21479 13.0252 2.21479 13.1247 2.31696C13.1826 2.38254 13.199 2.48975 13.1222 2.62597C13.0806 2.6966 13.0353 2.76219 12.9534 2.85678C9.50755 6.93069 6.88034 12.9293 6.13223 14.6648C6.07934 14.7846 6.0214 14.9045 5.97606 14.9827C5.91057 15.1025 5.81612 15.2046 5.65113 15.2135C5.56045 15.2223 5.43325 15.1958 5.24307 15.081C2.95466 13.6709 1.59572 11.9064 1.59572 9.99685C1.59572 6.54979 6.02141 3.5858 12.3539 2.29047" fill="black"/>
</svg>
