<svg width="31" height="23" viewBox="0 0 31 23" fill="none" xmlns="http://www.w3.org/2000/svg">
<path d="M15.687 1.2291C16.1696 1.2427 16.1183 1.58199 16.0383 1.69882C14.614 3.91456 11.2492 7.81551 8.79895 12.0958C8.39325 12.7895 8.09078 13.2993 8.09078 14.0602C8.09078 15.0917 8.73494 16.312 10.0289 16.8353C10.8803 17.1762 11.4156 17.1866 12.335 17.2002C19.1559 17.4115 21.8902 17.2266 27.9941 17.0194C28.3469 17.0186 28.6742 16.7809 28.7918 16.6377C29.9721 15.407 30.6523 13.1952 30.6523 11.2436C30.6523 6.89689 27.5219 2.98153 22.6383 1.09867L21.8541 2.10371C26.1344 3.87295 28.3461 7.40661 28.3461 11.1907C28.3461 12.0421 28.2013 12.8663 27.9404 13.6545C27.7468 14.2035 27.5083 14.5196 26.8146 14.53C21.8405 14.6364 19.0247 14.714 14.0378 14.5828C13.3945 14.5692 13.1864 14.3347 13.0824 13.8258C13.0024 13.5233 13.0688 13.2728 13.2768 12.8936C15.9223 8.20761 20.5298 2.8519 21.434 1.58199C21.6061 1.34753 21.5253 0.873814 20.9355 0.717776C19.2095 0.207251 17.2722 0 15.3077 0C6.41597 0.0360088 0.144035 5.03723 0 11.2444C0.356087 18.695 6.83527 22.5431 15.3077 22.5431C20.4922 22.5431 25.2422 20.7107 28.0213 17.8044L25.4542 17.9076C23.0841 20.0161 19.2863 21.1428 15.3582 21.1428C8.19881 21.1428 2.37018 17.5827 2.37018 11.1915C2.37018 5.69419 8.19801 1.2163 15.3582 1.2163L15.687 1.2299V1.2291Z" fill="black"/>
</svg>
