<svg width="36" height="15" viewBox="0 0 36 15" fill="none" xmlns="http://www.w3.org/2000/svg">
<path d="M30.0184 7.73468C29.9891 9.35026 30.3381 10.2059 31.67 10.2059C33.0019 10.2059 33.191 8.74794 33.191 7.63898C33.191 6.53003 32.9388 5.45146 31.5417 5.45146C30.6849 5.45146 30.0522 6.11684 30.0195 7.73468H30.0184ZM27.3242 14.4864V3.54992H30.0522V3.9935C30.0522 4.58569 30.2908 4.34139 30.4833 4.11059C30.516 4.07231 31.124 3.32812 32.4919 3.32812C33.8598 3.32812 35.9797 4.27834 35.9797 7.63898C35.9797 10.2386 34.7131 12.1401 32.5256 12.1401C31.3199 12.1401 30.623 11.665 30.4642 11.4736C30.3043 11.2845 30.0825 11.2518 30.0825 11.4736V14.4864H27.3242Z" fill="black"/>
<path d="M6.24392 0H9.1925V7.73454C9.1925 9.06529 8.62168 11.8551 4.53262 11.8551C0.443556 11.8551 0 9.25443 0 7.79759V6.37115H2.85287V7.76494C2.85287 8.62058 3.42369 9.41317 4.50112 9.41317C5.57855 9.41317 6.24392 8.81085 6.24392 7.79759V0Z" fill="black"/>
<path d="M15.3581 6.55959C15.3581 5.76587 14.9156 5.00592 13.9012 5.00592C12.8869 5.00592 12.5694 5.70282 12.5694 6.55959H15.3581ZM13.6164 3.23047C15.9312 3.23047 17.9599 4.11763 17.9599 8.2067H12.4771C12.4771 9.50592 13.0152 10.0452 13.9666 10.0452C14.9179 10.0452 15.2343 9.28412 15.2343 9.28412H17.9295C17.9295 10.4573 16.3128 12.0424 13.8708 12.0109C11.0821 12.0109 9.71875 9.95063 9.71875 7.82616C9.71875 5.7017 10.9223 3.23047 13.6164 3.23047Z" fill="black"/>
<path d="M24.1237 6.55959C24.1237 5.76587 23.6801 5.00592 22.6657 5.00592C21.6513 5.00592 21.3338 5.70282 21.3338 6.55959H24.1237ZM22.382 3.23047C24.6967 3.23047 26.7244 4.11763 26.7244 8.2067H21.2415C21.2415 9.50592 21.7808 10.0452 22.7322 10.0452C23.6835 10.0452 23.9999 9.28412 23.9999 9.28412H26.6951C26.6951 10.4573 25.0784 12.0424 22.6376 12.0109C19.8477 12.0109 18.4844 9.95063 18.4844 7.82616C18.4844 5.7017 19.689 3.23047 22.3832 3.23047" fill="black"/>
<path d="M34.1732 13.175C34.1732 12.7416 34.5256 12.3903 34.9602 12.3903C35.3947 12.3903 35.7449 12.7427 35.7449 13.175C35.7449 13.6074 35.3925 13.962 34.9602 13.962C34.5278 13.962 34.1732 13.6085 34.1732 13.175ZM34.082 13.175C34.082 13.6591 34.4749 14.0532 34.9602 14.0532C35.4454 14.0532 35.8372 13.6603 35.8372 13.175C35.8372 12.6898 35.4432 12.2969 34.9602 12.2969C34.4772 12.2969 34.082 12.6898 34.082 13.175Z" fill="black"/>
<path d="M35.3122 13.6225L35.1298 13.1924C35.1872 13.1721 35.2063 13.1586 35.2379 13.1249C35.2784 13.0821 35.3032 13.0145 35.3032 12.9526C35.3032 12.7972 35.1838 12.6914 35.0104 12.6914H34.6445V13.6225H34.7527V13.2194H35.0172L35.1906 13.6225H35.3111H35.3122ZM34.7504 13.1249V12.7927H35.0082C35.1163 12.7927 35.185 12.8547 35.185 12.9492C35.185 13.0573 35.1118 13.1249 34.9936 13.1249H34.7504Z" fill="black"/>
</svg>
