<svg width="37" height="21" viewBox="0 0 37 21" fill="none" xmlns="http://www.w3.org/2000/svg">
<path d="M18.5006 0C23.1308 0 28.0951 0.915624 32.0459 3.34923C34.6118 4.94305 37 7.35687 37 10.5038C37 14.1784 33.7671 16.8506 30.669 18.4147C26.9831 20.2668 22.628 21 18.4994 21C13.8703 21 8.91625 20.0943 4.96429 17.6519C2.39836 16.058 0 13.6442 0 10.5038C0 6.81277 3.22499 4.14944 6.33107 2.58529C10.0271 0.73426 14.3731 0 18.5006 0ZM18.4609 1.11568C14.1557 1.11568 9.51526 1.8972 5.78072 4.08239C3.43107 5.44648 1.11086 7.5943 1.11086 10.4467C1.11086 13.797 4.25657 16.1427 7.0671 17.4892C10.5469 19.1391 14.6166 19.7799 18.4609 19.7799C22.7752 19.7799 27.4157 18.9962 31.1514 16.811C33.4908 15.437 35.8212 13.3002 35.8212 10.4478C35.8212 7.08977 32.6846 4.7419 29.865 3.40639C26.3841 1.75431 22.3144 1.11568 18.4621 1.11568H18.4609ZM2.21264 8.1285L9.30012 6.95457L11.4335 2.45998L13.5578 6.95457L20.6441 8.1285L13.5578 9.31233L11.4335 13.8168L9.30012 9.31233L2.21264 8.1285ZM17.7929 11.5536L20.9182 11.0205L21.8524 8.98806L22.7866 11.0205L25.913 11.5536L22.7866 12.0779L21.8524 14.1114L20.9182 12.0779L17.7929 11.5536ZM24.2609 6.13457L27.3862 5.61026L28.3204 3.56907L29.2546 5.61026L32.38 6.13457L29.2546 6.66878L28.3204 8.70228L27.3851 6.66878L24.2609 6.13457ZM20.9182 15.7536L24.0344 15.2293L24.9686 13.187L25.9119 15.2293L29.0372 15.7536L25.9119 16.2878L24.9686 18.3213L24.0344 16.2878L20.9182 15.7536ZM11.3146 16.4878L14.4399 15.9635L15.3832 13.919L16.3162 15.9635L19.4427 16.4878L16.3162 17.022L15.3832 19.0555L14.4399 17.022L11.3146 16.4878ZM27.033 11.47L30.1492 10.9347L31.0834 8.90233L32.0267 10.9347L35.152 11.47L32.0267 11.9943L31.0823 14.0245L30.1481 11.9932L27.033 11.47Z" fill="black"/>
</svg>
