<svg width="31" height="31" viewBox="0 0 31 31" fill="none" xmlns="http://www.w3.org/2000/svg">
<path d="M15.5004 0C6.93942 0 0 6.93942 0 15.5004C0 24.0614 6.93942 31.0009 15.5004 31.0009C24.0614 31.0009 31.0009 24.0606 31.0009 15.5004C31.0009 6.94027 24.0606 0 15.5004 0ZM2.81249 8.21439C5.39675 3.73225 10.1612 0.946362 15.3297 0.878581L13.3246 14.1628L2.73269 22.723C0.188758 18.2142 0.215355 12.6957 2.81335 8.21353L2.81249 8.21439ZM15.5579 30.1969C10.3765 30.2235 5.57092 27.5054 2.91974 23.0499L15.5039 17.841L28.142 22.9692C25.5174 27.4376 20.7264 30.1832 15.5579 30.1969ZM17.6171 14.3396L15.7063 0.879439C20.856 0.958374 25.5869 3.73225 28.1695 8.18779C30.7666 12.6425 30.8207 18.1207 28.3308 22.6295L17.6171 14.3387V14.3396Z" fill="black"/>
</svg>
