<svg width="30" height="30" viewBox="0 0 30 30" fill="none" xmlns="http://www.w3.org/2000/svg">
<path d="M22.8553 2.58609C22.3802 3.06908 21.9017 3.55657 21.4165 4.04969C18.2742 2.11774 14.9001 1.54807 11.3165 2.50841C8.31616 3.31339 5.93951 5.0393 4.20008 7.61073C0.734735 12.7322 1.55322 19.6291 6.10612 23.8195C10.6996 28.0482 17.6404 28.2767 22.5311 24.325C27.424 20.3699 28.6725 13.3052 25.1768 7.82239C25.6632 7.34391 26.1495 6.86655 26.6325 6.39369C29.6633 10.3443 30.8184 18.1216 25.6879 24.1077C20.3964 30.2807 11.1206 30.9258 5.0197 25.6006C-1.15668 20.2112 -1.66443 10.9511 3.66869 4.94586C9.17181 -1.25078 17.7586 -1.13144 22.8564 2.58497L22.8553 2.58609Z" fill="black"/>
<path d="M28.6253 0.613281V7.23549H28.2358C27.7562 6.40012 27.2248 5.576 26.5549 4.7834C25.8636 5.47242 25.187 6.14905 24.5228 6.81217C23.8112 6.10289 23.1177 5.41275 22.3949 4.69334C23.0546 4.03697 23.7369 3.35921 24.4383 2.66344C23.6604 2.01721 22.8362 1.47005 21.9648 0.99269V0.613281H28.6253Z" fill="black"/>
<path d="M6.78172 13.1641H8.51776V13.5243C8.34213 13.5356 8.16426 13.5468 7.94021 13.5615C7.56193 14.2561 7.17125 14.9744 6.77383 15.7062H5.4003C5.00964 15.0003 4.61336 14.2843 4.20693 13.5491H3.64062V13.1674H6.16138V13.53C5.98687 13.539 5.80899 13.548 5.57143 13.5604C5.8574 14.0861 6.12648 14.5781 6.42483 15.1275C6.7153 14.5905 6.97987 14.0996 7.26696 13.5694C7.08457 13.5547 6.94496 13.5435 6.78284 13.5311V13.1652L6.78172 13.1641Z" fill="black"/>
<path d="M17.3069 13.5592C17.1076 13.5502 16.9275 13.5423 16.7305 13.5333V13.1641H19.2467V13.5277C19.0745 13.5401 18.8977 13.5514 18.6658 13.5682C18.9551 14.094 19.2253 14.5849 19.5214 15.1242C19.8096 14.5883 20.072 14.1008 20.3546 13.5784C20.171 13.557 20.0337 13.5412 19.8817 13.5232V13.1663H21.6132V13.5266C21.4331 13.539 21.2462 13.5514 21.0323 13.566C20.6484 14.2708 20.2634 14.9812 19.8704 15.7028H18.4924C18.0984 14.9913 17.7021 14.2764 17.3058 13.5615L17.3069 13.5592Z" fill="black"/>
<path d="M16.7566 15.7073H13.2473C13.2417 15.588 13.2372 15.4777 13.2305 15.3313C13.4275 15.3201 13.6042 15.3099 13.8091 15.2987V13.5694C13.6335 13.5559 13.4568 13.5423 13.2597 13.5266V13.1641H15.5846V13.53C15.3955 13.5423 15.2176 13.5536 15.0307 13.5649V15.2784C15.8751 15.3989 16.2747 15.2311 16.4256 14.5286C16.4774 14.523 16.5326 14.5139 16.5889 14.5128C16.6362 14.5128 16.6834 14.5207 16.7555 14.5275V15.7073H16.7566Z" fill="black"/>
<path d="M10.7312 13.082C9.69091 13.082 8.84766 13.6877 8.84766 14.4353C8.84766 15.1829 9.69091 15.7886 10.7312 15.7886C11.7715 15.7886 12.6147 15.1829 12.6147 14.4353C12.6147 13.6877 11.7715 13.082 10.7312 13.082ZM10.6985 15.3911C10.3518 15.3911 10.0703 14.9633 10.0703 14.4353C10.0703 13.9073 10.3518 13.4795 10.6985 13.4795C11.0453 13.4795 11.3268 13.9073 11.3268 14.4353C11.3268 14.9633 11.0453 15.3911 10.6985 15.3911Z" fill="black"/>
<path d="M23.9851 13.082C22.9448 13.082 22.1016 13.6877 22.1016 14.4353C22.1016 15.1829 22.9448 15.7886 23.9851 15.7886C25.0254 15.7886 25.8686 15.1829 25.8686 14.4353C25.8686 13.6877 25.0254 13.082 23.9851 13.082ZM23.9536 15.3911C23.6068 15.3911 23.3253 14.9633 23.3253 14.4353C23.3253 13.9073 23.6068 13.4795 23.9536 13.4795C24.3003 13.4795 24.5807 13.9073 24.5807 14.4353C24.5807 14.9633 24.2992 15.3911 23.9536 15.3911Z" fill="black"/>
</svg>
