<svg width="25" height="25" viewBox="0 0 25 25" fill="none" xmlns="http://www.w3.org/2000/svg">
<path d="M24.1367 0.240062C22.2336 -0.074426 20.3282 -0.074426 18.4251 0.240062C18.1476 0.286311 18.1175 0.327934 18.1568 0.610049C18.3303 1.83332 18.5014 3.05658 18.6771 4.27754C18.7118 4.52497 18.7511 4.77008 18.7904 5.02445C20.4623 4.7354 22.1064 4.73771 23.7621 5.02214C23.776 4.95739 23.7899 4.90652 23.7968 4.85564C23.998 3.43582 24.1992 2.016 24.398 0.593862C24.4374 0.318685 24.4073 0.281686 24.1391 0.23775L24.1367 0.240062ZM6.4144 0.242375C4.48815 -0.074426 2.56654 -0.0767384 0.642607 0.242375C0.399803 0.281686 0.365117 0.327934 0.399803 0.575363C0.55011 1.64601 0.700417 2.71897 0.853037 3.78962C0.910847 4.19429 0.97097 4.59896 1.03341 5.02214C2.69834 4.73309 4.34247 4.73309 6.00741 5.02214C6.01897 4.96201 6.03053 4.92502 6.03516 4.8857C6.24096 3.44044 6.44214 1.99287 6.65257 0.547614C6.68264 0.346433 6.59708 0.272436 6.4144 0.242375ZM15.2918 0.244687C13.3609 -0.0767384 11.43 -0.0767384 9.49916 0.247C9.27948 0.283998 9.24479 0.337184 9.27716 0.556863C9.44366 1.74776 9.61015 2.93865 9.77896 4.12954C9.82058 4.42322 9.86452 4.7169 9.91077 5.02445C11.5803 4.7354 13.2314 4.73771 14.8871 5.02445C14.8963 4.97358 14.9056 4.9412 14.9102 4.90883C15.1137 3.46126 15.3195 2.016 15.523 0.568425C15.5554 0.332559 15.5253 0.286311 15.2941 0.247L15.2918 0.244687ZM4.75408 8.97405C3.68112 7.92422 2.62435 6.85819 1.55832 5.80142C1.50283 5.74592 1.41727 5.72049 1.34558 5.68117C1.31783 5.76211 1.26696 5.84536 1.26696 5.92629C1.24152 7.86641 1.18834 9.80652 1.20915 11.7443C1.22302 12.9977 1.31321 14.2533 1.43114 15.502C1.65544 17.8769 2.32836 20.1361 3.24639 22.3306C3.29957 22.4577 3.36432 22.504 3.49613 22.4924C3.61869 22.4809 3.72737 22.5086 3.79443 22.3421C4.25229 21.216 4.6639 20.0736 4.98301 18.8989C5.54724 16.8155 5.76692 14.6857 5.84092 12.5352C5.84092 12.2831 5.82935 12.0288 5.84092 11.779C5.90104 10.6783 5.54261 9.75103 4.75177 8.97637L4.75408 8.97405ZM3.12614 20.9524C3.10995 20.9963 3.09377 21.0379 3.07296 21.0819C3.06833 21.0911 3.05446 21.098 3.02208 21.1304C2.87409 20.7003 2.72609 20.2818 2.58966 19.8609C1.92137 17.7982 1.57682 15.6777 1.50514 13.5179C1.45195 11.9039 1.45658 10.2898 1.43577 8.67575C1.43577 8.60407 1.43577 8.53238 1.43577 8.4607C1.45658 8.44682 1.4797 8.43064 1.50051 8.41676C1.57682 8.50695 1.64851 8.60176 1.73175 8.685C2.41623 9.39029 3.10533 10.091 3.7898 10.7986C4.34478 11.372 4.59452 12.0588 4.58527 12.8589C4.55753 15.6407 4.11354 18.3463 3.12614 20.9547V20.9524ZM22.6406 9.12205C21.5237 8.00284 20.4045 6.88594 19.283 5.77367C19.2367 5.72742 19.1604 5.71124 19.098 5.68117C19.0726 5.75055 19.0263 5.81992 19.024 5.88929C18.9893 7.21893 18.9592 8.54626 18.9431 9.24229C18.9407 11.6842 18.9662 13.4902 19.1489 15.2893C19.3963 17.7219 20.0461 20.0482 20.9849 22.2982C21.0427 22.4392 21.1098 22.5017 21.274 22.4971C21.4289 22.4924 21.5006 22.4485 21.5653 22.3028C23.0592 18.8735 23.6049 15.2661 23.6003 11.5547C23.6003 10.6112 23.3089 9.79265 22.6406 9.12205ZM20.8693 20.9778C20.8508 21.024 20.8277 21.0703 20.8092 21.1165C20.793 21.1165 20.7768 21.1189 20.7606 21.1212C20.5525 20.4714 20.3305 19.8239 20.1386 19.1695C19.5767 17.2456 19.3061 15.2754 19.246 13.2775C19.2021 11.7513 19.2044 10.2228 19.1859 8.69656C19.1859 8.61794 19.1928 8.54163 19.1997 8.43757C19.246 8.46532 19.276 8.47689 19.2945 8.49538C20.0692 9.28854 20.8485 10.0771 21.6139 10.8795C22.1249 11.416 22.3423 12.0704 22.3354 12.8057C22.3146 15.613 21.8729 18.3463 20.867 20.9755L20.8693 20.9778ZM14.7067 11.2818C14.6952 10.5419 14.4547 9.87821 13.9459 9.33942C13.1019 8.44682 12.2347 7.57736 11.3722 6.70095C11.0554 6.37952 10.7247 6.06966 10.3964 5.7598C10.3524 5.71817 10.2831 5.7043 10.2276 5.67655C10.1998 5.73899 10.1674 5.79911 10.1443 5.86386C10.1328 5.90085 10.1374 5.94248 10.1374 5.98179C10.1096 7.35074 10.0819 8.71738 10.0495 10.3499C10.0796 11.3073 10.1073 12.5305 10.1582 13.7515C10.2831 16.7299 10.9606 19.5834 12.1237 22.3259C12.1885 22.4809 12.281 22.4855 12.4128 22.4901C12.5469 22.4947 12.6209 22.4601 12.681 22.3236C14.2095 18.7972 14.7715 15.095 14.7067 11.2795V11.2818ZM12.0313 20.8807C12.0012 20.957 11.9711 21.0356 11.9179 21.1697C11.7746 20.7581 11.6474 20.4066 11.5295 20.0505C10.8635 18.0457 10.4866 15.983 10.4079 13.8764C10.3409 12.1305 10.3455 10.3823 10.3178 8.63644C10.3178 8.57632 10.3178 8.51851 10.3178 8.45145C10.3501 8.45839 10.3732 8.45607 10.3848 8.46532C11.1479 9.24229 11.9133 10.0193 12.6718 10.8009C13.2499 11.3975 13.4811 12.1189 13.4673 12.9445C13.4233 15.6708 12.9955 18.3255 12.0336 20.8853L12.0313 20.8807ZM15.9184 11.1038C15.8884 8.34045 15.8074 5.5748 15.745 2.81147C15.7311 2.25418 15.6987 1.6992 15.6733 1.1419C15.6617 1.1419 15.6479 1.14653 15.6363 1.14884C15.5346 2.13162 15.4282 3.11671 15.3311 4.1018C15.2663 4.77008 15.1623 5.43837 15.1599 6.10666C15.153 7.97509 15.2108 9.84121 15.1993 11.7096C15.1877 13.733 15.0513 15.7471 14.6373 17.7335C14.2327 19.6667 13.5829 21.5189 12.7735 23.318C12.7458 23.3827 12.6464 23.4266 12.57 23.4521C12.5053 23.4752 12.4244 23.4521 12.3527 23.4613C12.1538 23.4891 12.0544 23.4081 11.9665 23.2185C10.4426 19.8678 9.66103 16.3483 9.6194 12.6716C9.59628 10.6783 9.62865 8.685 9.63559 6.68939C9.63559 6.35871 9.65409 6.02341 9.62403 5.69505C9.53384 4.70302 9.42516 3.711 9.3211 2.72128C9.26792 2.19637 9.21242 1.67145 9.15923 1.14653C9.12223 1.23209 9.11298 1.31765 9.11067 1.40321C9.03436 3.79424 8.93493 6.18528 8.88637 8.57632C8.83549 11.0945 8.84474 13.6128 9.16154 16.1217C9.53153 19.0492 10.4796 21.7941 11.7584 24.4349C11.7861 24.4927 11.8833 24.5505 11.9503 24.5528C12.2417 24.5667 12.5354 24.5528 12.8267 24.5597C12.9423 24.562 13.0048 24.5227 13.0533 24.4164C13.2499 23.9724 13.4626 23.5353 13.6546 23.0913C14.5495 21.0217 15.2247 18.8851 15.5577 16.649C15.8329 14.8106 15.9369 12.9583 15.9161 11.1038H15.9184ZM24.6085 2.48311C24.59 2.02525 24.5692 1.5697 24.5507 1.11184C24.5137 1.17659 24.4975 1.23903 24.4929 1.30377C24.398 2.2218 24.2986 3.13983 24.2154 4.06017C24.146 4.83946 24.0535 5.62105 24.0442 6.40265C24.0281 7.66523 24.0812 8.92781 24.0905 10.1904C24.1044 12.0449 24.0535 13.8972 23.8384 15.7425C23.5425 18.2861 22.8002 20.7026 21.7781 23.0405C21.5885 23.4752 21.5861 23.4706 21.1144 23.459C20.9965 23.4567 20.934 23.4174 20.8924 23.3087C20.8115 23.1052 20.719 22.9064 20.6334 22.7052C19.4079 19.8794 18.6725 16.9311 18.5569 13.8486C18.4829 11.8576 18.5037 9.86202 18.4898 7.86872C18.4852 7.14493 18.543 6.41884 18.4991 5.69736C18.4413 4.73771 18.3141 3.78037 18.2146 2.82072C18.1591 2.27036 18.099 1.7177 18.0412 1.16734C18.0273 1.16734 18.0135 1.16734 18.0019 1.16734C17.9973 1.24134 17.9927 1.31765 17.988 1.39165C17.914 3.64394 17.8285 5.89392 17.773 8.14621C17.7105 10.6251 17.7221 13.1017 17.9765 15.5737C18.3002 18.6931 19.2737 21.616 20.6334 24.421C20.6635 24.4834 20.7676 24.5435 20.8416 24.5482C21.126 24.562 21.4127 24.5482 21.6995 24.5574C21.8266 24.562 21.8868 24.5112 21.9399 24.4002C22.8233 22.5479 23.5563 20.6425 24.0489 18.6469C24.59 16.4455 24.7518 14.2001 24.7935 11.9455C24.8513 8.78906 24.7403 5.63261 24.6108 2.47848L24.6085 2.48311ZM6.80519 1.2714C6.80519 1.23671 6.78901 1.20434 6.78207 1.16965C6.75432 1.19971 6.7497 1.22284 6.74507 1.24828C6.64101 2.2588 6.53695 3.27164 6.43521 4.28216C6.37508 4.86952 6.27565 5.45918 6.27565 6.04885C6.27565 7.70454 6.33115 9.35792 6.33577 11.0136C6.33809 12.7017 6.26409 14.3897 6.04441 16.0662C5.72761 18.4966 5.00151 20.8113 4.02105 23.0497C3.83374 23.4775 3.83143 23.4821 3.35276 23.4521C3.28107 23.4475 3.17933 23.3827 3.14926 23.318C1.95143 20.6702 1.13746 17.9208 0.883098 15.0141C0.670356 12.593 0.69348 10.1673 0.732791 7.74154C0.744353 7.07094 0.792914 6.39571 0.744353 5.72974C0.656481 4.52497 0.510799 3.32251 0.388241 2.12006C0.353555 1.78476 0.316556 1.45177 0.28187 1.11647C0.254121 1.12109 0.226372 1.12341 0.198623 1.12803C0.198623 1.53964 0.205561 1.95125 0.198623 2.36286C0.131563 5.21175 0.0436915 8.06065 0.00438043 10.9119C-0.0233686 12.8658 0.0783777 14.8175 0.376679 16.7553C0.762853 19.2712 1.58376 21.6507 2.64978 23.9539C2.74228 24.1527 2.79778 24.421 2.95733 24.5181C3.12383 24.6199 3.39669 24.532 3.61869 24.5667C4.00255 24.6245 4.17829 24.4534 4.33553 24.1088C5.29056 22.023 6.07678 19.884 6.51614 17.6248C6.89307 15.6939 7.00869 13.7376 7.04106 11.7744C7.10118 8.27108 6.94856 4.77008 6.80519 1.2714Z" fill="black"/>
<path d="M0.27956 1.11559C0.314247 1.45089 0.351245 1.78388 0.385932 2.11918C0.50849 3.32164 0.656484 4.52409 0.742043 5.72886C0.790604 6.39484 0.742044 7.07006 0.730481 7.74066C0.688858 10.1664 0.668046 12.5921 0.878476 15.0132C1.13284 17.9199 1.94912 20.6694 3.14464 23.3171C3.17239 23.3818 3.27645 23.4466 3.34814 23.4512C3.82681 23.4836 3.82912 23.479 4.01642 23.0489C4.99689 20.8104 5.7253 18.498 6.03979 16.0654C6.25715 14.3889 6.33346 12.7031 6.33115 11.0127C6.32884 9.35704 6.27103 7.70366 6.27334 6.04798C6.27334 5.45831 6.37277 4.87096 6.4329 4.28129C6.53464 3.27076 6.6387 2.25793 6.74276 1.2474C6.74507 1.22196 6.7497 1.19653 6.77976 1.16878C6.7867 1.20347 6.80288 1.23584 6.80288 1.27053C6.94625 4.76921 7.09887 8.27021 7.03875 11.7735C7.00638 13.7344 6.89076 15.6907 6.51383 17.6239C6.07447 19.8808 5.28594 22.0198 4.33322 24.1056C4.17598 24.4479 4.00255 24.6213 3.61638 24.5635C3.39438 24.5311 3.12383 24.6167 2.95502 24.5149C2.79778 24.4178 2.73997 24.1496 2.64747 23.9507C1.58145 21.6498 0.760543 19.2681 0.374369 16.7521C0.0783803 14.8167 -0.0233659 12.865 0.00438306 10.911C0.0436941 8.05978 0.131566 5.21088 0.196314 2.35967C0.205563 1.94806 0.196314 1.53645 0.196314 1.12484C0.224063 1.12022 0.251811 1.11791 0.27956 1.11328V1.11559Z" fill="black"/>
<path d="M18.0421 1.17109C18.0999 1.72145 18.1578 2.27411 18.2156 2.82447C18.315 3.78181 18.4422 4.73915 18.5 5.6988C18.5439 6.42027 18.4861 7.14637 18.4907 7.87016C18.5046 9.86346 18.4838 11.8591 18.5578 13.8501C18.6711 16.9302 19.4088 19.8785 20.632 22.7066C20.7199 22.9078 20.8124 23.1067 20.8933 23.3102C20.935 23.4188 20.9974 23.4558 21.1153 23.4605C21.5894 23.472 21.5894 23.4766 21.779 23.0419C22.8011 20.7041 23.5457 18.2876 23.8394 15.7439C24.0544 13.8986 24.1053 12.0464 24.0914 10.1918C24.0822 8.92925 24.029 7.66667 24.0452 6.40409C24.0544 5.62249 24.1469 4.84089 24.2163 4.06161C24.2995 3.14127 24.399 2.22324 24.4938 1.30521C24.5007 1.24046 24.5169 1.17572 24.5516 1.11328C24.5701 1.57114 24.5909 2.02669 24.6094 2.48454C24.7389 5.63868 24.8499 8.79281 24.7921 11.9516C24.7504 14.2062 24.5886 16.4515 24.0475 18.653C23.5572 20.6486 22.8242 22.554 21.9409 24.4062C21.8877 24.5172 21.8276 24.5658 21.7004 24.5635C21.4159 24.5542 21.1292 24.5681 20.8425 24.5542C20.7685 24.5496 20.6644 24.4918 20.6343 24.4271C19.2746 21.6198 18.2988 18.6992 17.9774 15.5798C17.723 13.1078 17.7115 10.6312 17.7739 8.15227C17.8294 5.89998 17.9149 3.65 17.9889 1.39771C17.9913 1.32371 17.9982 1.2474 18.0028 1.1734C18.0167 1.1734 18.0306 1.1734 18.0421 1.1734V1.17109Z" fill="black"/>
<path d="M15.675 1.14062C15.6981 1.69792 15.7328 2.2529 15.7467 2.81019C15.8114 5.57352 15.8901 8.33686 15.9201 11.1025C15.9409 12.9571 15.8369 14.8093 15.5617 16.6477C15.2287 18.8838 14.5535 21.0205 13.6586 23.0901C13.4666 23.5364 13.2539 23.9711 13.0573 24.4151C13.0088 24.5215 12.9464 24.5608 12.8307 24.5585C12.5394 24.5515 12.2457 24.5631 11.9543 24.5515C11.8873 24.5492 11.7925 24.4914 11.7624 24.4336C10.4836 21.7928 9.53554 19.048 9.16555 16.1204C8.84875 13.6138 8.8395 11.0956 8.89038 8.57504C8.93894 6.184 9.03606 3.79297 9.11468 1.40193C9.11699 1.31637 9.12624 1.23081 9.16324 1.14525C9.21643 1.67017 9.27193 2.19509 9.32511 2.72C9.42686 3.71203 9.53785 4.70174 9.62804 5.69377C9.6581 6.02213 9.6396 6.35743 9.6396 6.69042C9.63266 8.68372 9.60029 10.677 9.62341 12.6703C9.66504 16.3471 10.4466 19.8666 11.9705 23.2173C12.0561 23.4069 12.1578 23.4855 12.3567 23.4601C12.4284 23.4508 12.5093 23.4739 12.5741 23.4508C12.6504 23.4254 12.7498 23.3791 12.7775 23.3167C13.5869 21.5176 14.2367 19.6654 14.6414 17.7322C15.0576 15.7458 15.1917 13.7317 15.2033 11.7084C15.2148 9.83993 15.157 7.97381 15.164 6.10538C15.1663 5.43709 15.2703 4.7688 15.3351 4.10052C15.4322 3.11543 15.5386 2.13265 15.6403 1.14756C15.6519 1.14756 15.6658 1.14294 15.6773 1.14062H15.675Z" fill="black"/>
<path d="M14.708 11.2811C14.6964 10.5411 14.4559 9.87744 13.9472 9.33865C13.1032 8.44605 12.236 7.57659 11.3735 6.70018C11.0567 6.37876 10.726 6.06889 10.3976 5.75903C10.3537 5.7174 10.2843 5.70353 10.2288 5.67578C10.2011 5.73822 10.1687 5.79834 10.1456 5.86309C10.134 5.90009 10.1387 5.94171 10.1387 5.98102C10.1109 7.34997 10.0832 8.71661 10.0508 10.3492C10.0808 11.3065 10.1086 12.5298 10.1595 13.7507C10.2843 16.7291 10.9619 19.5826 12.125 22.3252C12.1898 22.4801 12.2823 22.4847 12.4141 22.4894C12.5482 22.494 12.6222 22.4593 12.6823 22.3229C14.2108 18.7964 14.7727 15.0942 14.708 11.2788V11.2811ZM12.0325 20.8799C12.0025 20.9562 11.9724 21.0348 11.9192 21.169C11.7758 20.7574 11.6487 20.4059 11.5307 20.0498C10.8648 18.0449 10.4878 15.9822 10.4092 13.8756C10.3421 12.1297 10.3468 10.3815 10.319 8.63567C10.319 8.57555 10.319 8.51774 10.319 8.45068C10.3514 8.45762 10.3745 8.4553 10.3861 8.46455C11.1492 9.24153 11.9146 10.0185 12.6731 10.8001C13.2512 11.3967 13.4824 12.1182 13.4685 12.9437C13.4246 15.67 12.9968 18.3247 12.0348 20.8845L12.0325 20.8799Z" fill="black"/>
<path d="M22.641 9.12056C21.5242 8.00135 20.4049 6.88446 19.2834 5.77218C19.2372 5.72594 19.1609 5.70975 19.0984 5.67969C19.073 5.74906 19.0267 5.81843 19.0244 5.88781C18.9897 7.21744 18.9597 8.54477 18.9435 9.24081C18.9412 11.6827 18.9666 13.4887 19.1493 15.2878C19.3967 17.7204 20.0465 20.0467 20.9854 22.2967C21.0432 22.4378 21.1102 22.5002 21.2744 22.4956C21.4293 22.4909 21.501 22.447 21.5658 22.3013C23.0596 18.872 23.6053 15.2646 23.6007 11.5532C23.6007 10.6098 23.3093 9.79116 22.641 9.12056ZM20.8697 20.9763C20.8512 21.0226 20.8281 21.0688 20.8096 21.1151C20.7934 21.1151 20.7772 21.1174 20.7611 21.1197C20.5529 20.4699 20.3309 19.8224 20.139 19.168C19.5771 17.2441 19.3065 15.2739 19.2464 13.276C19.2025 11.7498 19.2048 10.2213 19.1863 8.69508C19.1863 8.61645 19.1932 8.54015 19.2002 8.43609C19.2464 8.46384 19.2765 8.4754 19.295 8.4939C20.0696 9.28706 20.8489 10.0756 21.6143 10.878C22.1254 11.4145 22.3427 12.0689 22.3358 12.8042C22.315 15.6115 21.8733 18.3448 20.8674 20.974L20.8697 20.9763Z" fill="black"/>
<path d="M4.75473 8.97257C3.68177 7.92273 2.625 6.85671 1.55898 5.79993C1.50348 5.74444 1.41792 5.719 1.34623 5.67969C1.31849 5.76062 1.26761 5.84387 1.26761 5.9248C1.24218 7.86492 1.18899 9.80504 1.2098 11.7428C1.22368 12.9962 1.31386 14.2518 1.43179 15.5005C1.6561 17.8754 2.32901 20.1346 3.24704 22.3291C3.30023 22.4563 3.36497 22.5025 3.49678 22.4909C3.61934 22.4794 3.72802 22.5071 3.79508 22.3406C4.25294 21.2145 4.66455 20.0722 4.98366 18.8975C5.54789 16.814 5.76757 14.6842 5.84157 12.5337C5.84157 12.2816 5.83001 12.0273 5.84157 11.7775C5.90169 10.6768 5.54327 9.74954 4.75242 8.97488L4.75473 8.97257ZM3.12679 20.9509C3.11061 20.9948 3.09442 21.0364 3.07361 21.0804C3.06898 21.0896 3.05511 21.0966 3.02274 21.1289C2.87474 20.6988 2.72675 20.2803 2.59031 19.8594C1.92203 17.7967 1.57748 15.6763 1.50579 13.5165C1.45261 11.9024 1.45723 10.2883 1.43642 8.67427C1.43642 8.60258 1.43642 8.5309 1.43642 8.45921C1.45723 8.44534 1.48035 8.42915 1.50117 8.41527C1.57748 8.50546 1.64916 8.60027 1.73241 8.68351C2.41688 9.3888 3.10598 10.0895 3.79046 10.7971C4.34544 11.3705 4.59518 12.0573 4.58593 12.8574C4.55818 15.6393 4.1142 18.3448 3.12679 20.9532V20.9509Z" fill="black"/>
<path d="M14.887 5.02054C13.2314 4.73612 11.578 4.73149 9.91073 5.02054C9.86448 4.71299 9.82054 4.41932 9.77892 4.12564C9.61011 2.93474 9.44362 1.74385 9.27712 0.552957C9.24706 0.33559 9.27944 0.280092 9.49912 0.243093C11.43 -0.0806447 13.3608 -0.0806447 15.2917 0.240781C15.523 0.280092 15.5553 0.32634 15.5206 0.562207C15.3172 2.00978 15.1137 3.45735 14.9079 4.90261C14.9032 4.93498 14.8963 4.96505 14.8847 5.01823L14.887 5.02054Z" fill="black"/>
<path d="M6.00767 5.023C4.34273 4.73626 2.6986 4.73626 1.03367 5.023C0.97123 4.59983 0.911108 4.19516 0.853297 3.79049C0.700678 2.71984 0.550371 1.64688 0.400064 0.576229C0.365378 0.328801 0.400064 0.282552 0.642867 0.243241C2.5668 -0.0758721 4.49073 -0.0758721 6.41466 0.243241C6.59734 0.273303 6.68058 0.3473 6.65283 0.54848C6.4424 1.99374 6.24122 3.44131 6.03542 4.88657C6.03079 4.92588 6.01923 4.96288 6.00767 5.023Z" fill="black"/>
<path d="M23.7615 5.02083C22.1058 4.7364 20.4617 4.73409 18.7898 5.02083C18.7505 4.76647 18.7112 4.52135 18.6765 4.27392C18.5031 3.05065 18.3296 1.82739 18.1585 0.604118C18.1192 0.322004 18.1493 0.278068 18.4267 0.234132C20.3322 -0.078044 22.2353 -0.078044 24.1384 0.234132C24.4067 0.278068 24.4367 0.315067 24.3974 0.590244C24.1985 2.01007 23.9974 3.42989 23.7962 4.84971C23.7892 4.90059 23.7754 4.95146 23.7615 5.01621V5.02083Z" fill="black"/>
</svg>
