<svg width="53" height="27" viewBox="0 0 53 27" fill="none" xmlns="http://www.w3.org/2000/svg">
<path d="M26.1418 0.224398C11.7115 0.224398 0.224398 6.14641 0.224398 13.3271C0.224398 20.5079 11.7115 26.4299 26.1418 26.4299C40.5722 26.4299 52.0593 20.5079 52.0593 13.3271C52.0593 6.14641 40.5722 0.224398 26.1418 0.224398ZM26.1418 0C40.544 0 52.2837 5.91158 52.2837 13.3271C52.2837 20.7427 40.544 26.6543 26.1418 26.6543C11.7397 26.6543 0 20.7438 0 13.3271C0 5.91054 11.7397 0 26.1418 0Z" fill="black"/>
<path d="M49.6564 13.3281C49.6564 8.65436 40.8704 2.62797 26.1416 2.62797C11.4127 2.62797 2.62674 8.65436 2.62674 13.3281C2.62674 18.0018 11.4127 24.0282 26.1416 24.0282C40.8704 24.0282 49.6564 18.0018 49.6564 13.3281ZM49.8808 13.3281C49.8808 18.2346 40.8464 24.2526 26.1416 24.2526C11.4367 24.2526 2.40234 18.2346 2.40234 13.3281C2.40234 8.42161 11.4367 2.40357 26.1416 2.40357C40.8464 2.40357 49.8808 8.42161 49.8808 13.3281ZM26.7417 1.31498C26.7521 1.64688 26.4912 1.92451 26.1603 1.93495C25.8284 1.94538 25.5508 1.68446 25.5404 1.3536C25.5404 1.34107 25.5404 1.32855 25.5404 1.31603C25.5508 0.984126 25.8284 0.724242 26.1603 0.734679C26.4776 0.745116 26.7323 0.999781 26.7417 1.31603V1.31498ZM24.7586 1.33168C24.7795 1.66254 24.528 1.94851 24.1961 1.96939C23.8652 1.99026 23.5792 1.73873 23.5584 1.40683C23.5584 1.39535 23.5573 1.38491 23.5573 1.37343C23.5552 1.04153 23.8224 0.770165 24.1543 0.768077C24.4737 0.76599 24.7378 1.01335 24.7586 1.33168ZM22.7766 1.42457C22.8079 1.75543 22.5648 2.04767 22.2349 2.07898C21.9041 2.11029 21.6118 1.86711 21.5805 1.53729C21.5805 1.5279 21.5784 1.51746 21.5784 1.50807C21.5638 1.17617 21.8206 0.89541 22.1514 0.880798C22.4719 0.866186 22.7464 1.1052 22.7766 1.42457ZM20.7988 1.58739C20.8395 1.9172 20.6047 2.21675 20.2759 2.25745C19.9461 2.29816 19.6465 2.06332 19.6058 1.73455C19.5651 1.40474 19.8 1.1052 20.1287 1.06449C20.4585 1.02379 20.7581 1.25862 20.7988 1.58739Z" fill="black"/>
<path d="M18.831 1.84411C18.8864 2.1708 18.6661 2.48078 18.3395 2.53714C18.0128 2.5935 17.7028 2.37223 17.6464 2.04555C17.6464 2.04138 17.6454 2.0372 17.6443 2.03303C17.5963 1.7053 17.8228 1.39949 18.1505 1.35148C18.4741 1.30347 18.7757 1.52369 18.83 1.84516L18.831 1.84411ZM16.8762 2.18019C16.9471 2.50478 16.7426 2.8252 16.419 2.89617C16.0944 2.96715 15.774 2.76258 15.703 2.43903C15.703 2.4359 15.702 2.43277 15.7009 2.42964C15.6352 2.104 15.845 1.78671 16.1696 1.72096C16.491 1.6552 16.8052 1.85977 16.8762 2.18019ZM14.939 2.6102C15.034 2.92853 14.8524 3.26252 14.5341 3.3575C14.2157 3.45247 13.8818 3.27087 13.7868 2.95254C13.7837 2.9421 13.7805 2.93166 13.7784 2.92122C13.7012 2.59872 13.9005 2.27412 14.2231 2.19689C14.5341 2.12278 14.8482 2.30439 14.939 2.6102ZM13.028 3.14353C13.1303 3.45874 12.9581 3.79794 12.6429 3.90022C12.3277 4.00251 11.9885 3.8303 11.8862 3.5151C11.7839 3.19989 11.9561 2.86069 12.2713 2.75841C12.5865 2.65612 12.9257 2.82833 13.028 3.14353ZM11.1514 3.7875C11.2787 4.09436 11.1337 4.44609 10.8268 4.57342C10.52 4.70075 10.1682 4.55568 10.0409 4.24882C10.0367 4.23839 10.0326 4.22899 10.0294 4.21856C9.91879 3.90544 10.0827 3.56206 10.3958 3.45143C10.6964 3.34497 11.0283 3.49318 11.1504 3.7875H11.1514ZM9.31448 4.53793C9.46791 4.83226 9.35414 5.19547 9.05981 5.3489C8.76549 5.50232 8.40228 5.38856 8.24885 5.09423C8.24363 5.08484 8.23946 5.07544 8.23424 5.06501C8.09647 4.76337 8.23006 4.40642 8.53274 4.2697C8.82394 4.13715 9.16627 4.25613 9.31448 4.53898V4.53793ZM7.54122 5.42822C7.71551 5.71002 7.62889 6.08054 7.34604 6.25588C7.06424 6.43018 6.69372 6.34355 6.51838 6.06071C6.51525 6.05653 6.51316 6.05131 6.51003 6.04714C6.34303 5.76012 6.4401 5.39273 6.72712 5.22574C7.00892 5.06188 7.369 5.15163 7.54122 5.42926V5.42822ZM5.86084 6.48237C6.06541 6.74329 6.01948 7.12112 5.75856 7.32568C5.49763 7.53025 5.11981 7.48433 4.91524 7.2234C4.90584 7.21192 4.89749 7.20044 4.88915 7.18791C4.70441 6.91238 4.77747 6.53873 5.05301 6.35399C5.31394 6.17865 5.66671 6.23396 5.86084 6.48237ZM4.2911 7.69829C4.52593 7.93312 4.52593 8.31304 4.2911 8.54787C4.05626 8.78271 3.67635 8.78271 3.44152 8.54787C3.20668 8.31304 3.20668 7.93312 3.44152 7.69829C3.67635 7.46345 4.05626 7.46345 4.2911 7.69829ZM2.92801 9.1407C3.20564 9.3223 3.28287 9.69491 3.10127 9.97254C2.91966 10.2502 2.54706 10.3274 2.26943 10.1458C2.25899 10.1395 2.2496 10.1322 2.24021 10.1249C1.97406 9.92661 1.91979 9.54983 2.11809 9.28369C2.30805 9.02902 2.66395 8.9664 2.92906 9.1407H2.92801ZM1.85925 10.8169C2.17341 10.9244 2.3404 11.2667 2.23186 11.5809C2.12331 11.8951 1.78202 12.062 1.46786 11.9535C1.1537 11.845 0.986709 11.5037 1.09526 11.1895C1.20276 10.8753 1.54509 10.7084 1.85925 10.8169ZM26.7424 25.3412C26.7424 25.6731 26.4731 25.9424 26.1412 25.9424C25.8093 25.9424 25.54 25.6731 25.54 25.3412C25.54 25.0093 25.8093 24.74 26.1412 24.74C26.4731 24.74 26.7424 25.0093 26.7424 25.3412ZM24.7583 25.3245C24.7468 25.6564 24.4681 25.9152 24.1373 25.9037C23.8054 25.8923 23.5465 25.6136 23.558 25.2827C23.5695 24.9508 23.8482 24.692 24.179 24.7035C24.5109 24.715 24.7698 24.9936 24.7583 25.3245ZM22.7763 25.2316C22.7554 25.5624 22.4705 25.815 22.1396 25.7942C21.8087 25.7733 21.5562 25.4883 21.577 25.1575C21.577 25.1544 21.577 25.1512 21.577 25.1471C21.6031 24.8162 21.8922 24.5688 22.2231 24.5949C22.5498 24.621 22.7961 24.9039 22.7752 25.2305L22.7763 25.2316ZM20.7995 25.0688C20.765 25.3986 20.4707 25.6386 20.1399 25.6052C19.809 25.5718 19.57 25.2765 19.6034 24.9456C19.6034 24.9373 19.6055 24.93 19.6065 24.9216C19.6535 24.5928 19.9582 24.3653 20.287 24.4123C20.6064 24.4582 20.8329 24.7473 20.7995 25.0688ZM18.8321 24.811C18.7851 25.1397 18.4804 25.3673 18.1516 25.3203C17.8228 25.2733 17.5953 24.9686 17.6423 24.6398C17.6423 24.6346 17.6443 24.6283 17.6454 24.6231C17.7017 24.2964 18.0128 24.0772 18.3395 24.1336C18.6599 24.1889 18.878 24.4895 18.8321 24.811ZM16.8762 24.4749C16.8156 24.8016 16.5025 25.0166 16.1758 24.9561C15.8492 24.8955 15.6342 24.5824 15.6947 24.2557C15.6968 24.2453 15.6989 24.2348 15.7009 24.2244C15.7792 23.9019 16.1038 23.7036 16.4263 23.7808C16.7363 23.856 16.9346 24.1607 16.8762 24.4739V24.4749ZM14.939 24.0438C14.8618 24.3664 14.5372 24.5657 14.2147 24.4885C13.8922 24.4112 13.6928 24.0866 13.7701 23.7641C13.7722 23.7537 13.7753 23.7433 13.7784 23.7328C13.8734 23.4145 14.2074 23.2329 14.5257 23.3279C14.8315 23.4187 15.0131 23.7328 14.939 24.0438ZM13.028 23.5116C12.9257 23.8268 12.5865 24 12.2713 23.8977C11.9561 23.7954 11.7829 23.4562 11.8851 23.141C11.9874 22.8258 12.3266 22.6526 12.6418 22.7549C12.957 22.8572 13.1303 23.1964 13.028 23.5116ZM11.1514 22.8665C11.0408 23.1797 10.6974 23.3435 10.3843 23.2329C10.0712 23.1223 9.90731 22.7789 10.0179 22.4658C10.0211 22.4553 10.0252 22.4449 10.0294 22.4355C10.1568 22.1286 10.5085 21.9836 10.8153 22.1109C11.1097 22.233 11.2579 22.5649 11.1514 22.8655V22.8665ZM9.31448 22.1172C9.1694 22.4157 8.80932 22.5388 8.51187 22.3937C8.21336 22.2487 8.09021 21.8886 8.23528 21.5911C8.38036 21.2926 8.74044 21.1695 9.0379 21.3145C9.33535 21.4596 9.45956 21.8197 9.31448 22.1172ZM7.54122 21.2258C7.37005 21.5097 7.00162 21.6026 6.71668 21.4314C6.43279 21.2603 6.3399 20.8918 6.51107 20.6069C6.68015 20.322 7.04858 20.228 7.33456 20.3971C7.61949 20.5662 7.71343 20.9346 7.54435 21.2206C7.5433 21.2227 7.54226 21.2248 7.54122 21.2269V21.2258ZM5.86084 20.1717C5.67088 20.4441 5.29619 20.5109 5.02378 20.3209C4.75138 20.131 4.68458 19.7563 4.87453 19.4839C4.87871 19.4776 4.88288 19.4714 4.8881 19.4651C5.08849 19.2 5.46527 19.1478 5.72933 19.3482C5.98713 19.5434 6.04453 19.9066 5.8598 20.1717H5.86084ZM4.2911 18.9568C4.06148 19.1969 3.68157 19.2052 3.44152 18.9756C3.20146 18.746 3.19311 18.3661 3.42273 18.126C3.42899 18.1197 3.43526 18.1135 3.44152 18.1072C3.68157 17.8776 4.06148 17.887 4.2911 18.126C4.51341 18.3588 4.51341 18.7241 4.2911 18.9568ZM2.92697 17.5144C2.66082 17.7127 2.28404 17.6584 2.08574 17.3923C1.88743 17.1261 1.9417 16.7494 2.20785 16.551C2.21724 16.5437 2.22768 16.5364 2.23708 16.5302C2.5147 16.3486 2.88731 16.4258 3.06891 16.7034C3.24321 16.9696 3.18059 17.3244 2.92592 17.5144H2.92697ZM1.85821 15.8382C1.54405 15.9457 1.20276 15.7797 1.09526 15.4656C0.987753 15.1514 1.1537 14.8101 1.46786 14.7026C1.77993 14.592 2.12435 14.7548 2.23499 15.0669C2.34666 15.379 2.1828 15.7234 1.87073 15.834C1.86656 15.8351 1.86343 15.8371 1.85925 15.8382H1.85821ZM1.33426 13.9272C1.00236 13.9386 0.724738 13.6788 0.713257 13.3479C0.701776 13.016 0.96166 12.7384 1.29252 12.7269C1.62442 12.7154 1.90204 12.9753 1.91352 13.3061C1.92501 13.637 1.66512 13.9157 1.33426 13.9272ZM50.992 12.7269C51.3239 12.7384 51.5827 13.016 51.5712 13.3479C51.5597 13.6798 51.2821 13.9386 50.9502 13.9272C50.6183 13.9157 50.3595 13.638 50.3709 13.3061C50.3824 12.9742 50.6601 12.7154 50.992 12.7269ZM50.8156 14.7026C51.1308 14.807 51.3009 15.1473 51.1955 15.4625C51.0901 15.7777 50.7509 15.9478 50.4357 15.8424C50.4315 15.8413 50.4284 15.8392 50.4242 15.8382C50.1121 15.7265 49.9482 15.3831 50.0599 15.0711C50.1695 14.7632 50.5056 14.5993 50.8156 14.7026ZM50.0453 16.5302C50.3229 16.7118 50.4002 17.0844 50.2186 17.362C50.037 17.6396 49.6644 17.7169 49.3867 17.5353C49.3763 17.529 49.3669 17.5217 49.3565 17.5144C49.0903 17.3161 49.036 16.9393 49.2343 16.6732C49.4243 16.4185 49.7802 16.3559 50.0453 16.5302ZM48.843 18.1072C49.0778 18.3421 49.0778 18.722 48.843 18.9568C48.6081 19.1916 48.2282 19.1916 47.9934 18.9568C47.7585 18.722 47.7585 18.3421 47.9934 18.1072C48.2282 17.8724 48.6081 17.8724 48.843 18.1072ZM47.3953 19.4661C47.5957 19.7302 47.5446 20.107 47.2805 20.3074C47.0165 20.5078 46.6397 20.4566 46.4393 20.1926C46.4341 20.1852 46.4288 20.179 46.4236 20.1717C46.2347 19.8993 46.3015 19.5246 46.575 19.3357C46.839 19.152 47.2012 19.2094 47.3953 19.4661ZM45.7724 20.608C45.9435 20.8918 45.8506 21.2613 45.5667 21.4314C45.2829 21.6026 44.9134 21.5097 44.7433 21.2258C44.5721 20.9419 44.665 20.5725 44.9489 20.4023C45.2328 20.2312 45.6012 20.323 45.7724 20.6069V20.608ZM44.0481 21.5901C44.1932 21.8875 44.0701 22.2476 43.7726 22.3927C43.7726 22.3927 43.7726 22.3927 43.7716 22.3927C43.4689 22.5284 43.113 22.3937 42.9773 22.0911C42.8468 21.802 42.9648 21.4607 43.2455 21.3125C43.544 21.1674 43.9031 21.2905 44.0481 21.589V21.5901ZM42.253 22.4355C42.3751 22.7444 42.2237 23.093 41.9148 23.2151C41.6059 23.3373 41.2573 23.1859 41.1351 22.877C41.1341 22.8728 41.132 22.8697 41.131 22.8655C41.0151 22.5545 41.1738 22.209 41.4848 22.0932C41.7916 21.9794 42.1329 22.1307 42.253 22.4355ZM40.3983 23.14C40.5006 23.4552 40.3284 23.7944 40.0132 23.8967C39.698 23.999 39.3588 23.8268 39.2565 23.5116C39.1542 23.1964 39.3264 22.8572 39.6416 22.7549C39.9568 22.6526 40.296 22.8248 40.3983 23.14ZM38.505 23.7328C38.5906 24.0532 38.4006 24.3831 38.0802 24.4686C37.7598 24.5542 37.43 24.3643 37.3444 24.0438C37.2672 23.7213 37.4665 23.3967 37.789 23.3195C38.1 23.2454 38.4142 23.427 38.505 23.7328ZM36.5825 24.2255C36.6576 24.549 36.4562 24.8715 36.1326 24.9467C35.8091 25.0218 35.4866 24.8204 35.4114 24.4968C35.4093 24.4895 35.4083 24.4822 35.4073 24.4749C35.3446 24.1493 35.5576 23.8341 35.8832 23.7704C36.2005 23.7088 36.5094 23.9092 36.5825 24.2244V24.2255ZM34.638 24.6221C34.6923 24.9498 34.4711 25.2587 34.1433 25.313C33.8156 25.3673 33.5067 25.146 33.4524 24.8183C33.4524 24.8152 33.4524 24.8131 33.4513 24.8099C33.4012 24.4822 33.6277 24.1754 33.9555 24.1263C34.2801 24.0772 34.5848 24.2975 34.638 24.6221ZM32.6769 24.9216C32.7176 25.2504 32.4828 25.551 32.154 25.5906C31.8252 25.6303 31.5247 25.3965 31.485 25.0677C31.4443 24.739 31.6781 24.4394 32.0069 24.3987C32.0069 24.3987 32.0068 24.3987 32.0079 24.3987C32.3367 24.358 32.6362 24.5918 32.6769 24.9206C32.6769 24.9206 32.6769 24.9206 32.6769 24.9216ZM30.7053 25.1471C30.7283 25.4779 30.4799 25.7649 30.149 25.7879C30.149 25.7879 30.149 25.7879 30.148 25.7879C29.8171 25.8109 29.5301 25.5614 29.5072 25.2305C29.4842 24.8997 29.7336 24.6127 30.0645 24.5897C30.3954 24.5667 30.6824 24.8162 30.7053 25.1471ZM28.7254 25.2827C28.7463 25.6136 28.4948 25.8996 28.1629 25.9204C27.832 25.9413 27.546 25.6898 27.5252 25.3579C27.5252 25.3464 27.5241 25.336 27.5241 25.3245C27.522 24.9926 27.7892 24.7212 28.1211 24.7191C28.4405 24.717 28.7045 24.9644 28.7254 25.2827ZM27.5252 1.33061C27.5366 0.998708 27.8143 0.739868 28.1462 0.750305C28.4781 0.761786 28.7369 1.03941 28.7265 1.37131C28.716 1.70321 28.4374 1.96205 28.1055 1.95162C27.7736 1.94014 27.5147 1.66251 27.5252 1.33061ZM29.5072 1.4235C29.528 1.09264 29.813 0.840064 30.1438 0.860938C30.4747 0.881812 30.7273 1.16675 30.7064 1.4976C30.7064 1.50073 30.7064 1.50386 30.7064 1.50804C30.6803 1.8389 30.3912 2.08625 30.0603 2.06016C29.7336 2.03407 29.4873 1.75122 29.5082 1.42454L29.5072 1.4235ZM31.485 1.58632C31.5257 1.2565 31.8252 1.02271 32.1551 1.06342C32.4849 1.10412 32.7187 1.40367 32.678 1.73348C32.6373 2.06329 32.3377 2.29708 32.0079 2.25638C31.6781 2.21568 31.4443 1.91613 31.485 1.58632ZM33.4524 1.84411C33.5004 1.51639 33.8062 1.28886 34.1339 1.33791C34.4617 1.38592 34.6892 1.69173 34.6401 2.01946C34.6401 2.02363 34.6391 2.02781 34.638 2.03198C34.5827 2.35866 34.2727 2.57889 33.945 2.52357C33.6225 2.4693 33.4033 2.16662 33.4513 1.84411H33.4524ZM35.4073 2.18019C35.4668 1.85351 35.7799 1.63746 36.1065 1.69695C36.4332 1.75644 36.6493 2.06956 36.5898 2.39624C36.5877 2.40772 36.5856 2.4192 36.5825 2.42964C36.5042 2.75214 36.1796 2.95045 35.8571 2.87217C35.5471 2.79702 35.3509 2.4933 35.4083 2.18019H35.4073ZM37.3444 2.6102C37.43 2.28978 37.7598 2.09982 38.0802 2.18541C38.4006 2.27099 38.5906 2.6008 38.505 2.92122C38.4194 3.24164 38.0896 3.4316 37.7692 3.34601C37.4488 3.26043 37.2588 2.93062 37.3444 2.6102ZM39.2554 3.14353C39.3504 2.8252 39.6865 2.64568 40.0038 2.74066C40.3211 2.83564 40.5016 3.17171 40.4066 3.489C40.4045 3.49735 40.4014 3.50675 40.3983 3.5151C40.2887 3.82821 39.9453 3.99312 39.6322 3.88353C39.3285 3.77707 39.1625 3.45143 39.2554 3.14353ZM41.132 3.7875C41.2426 3.47439 41.586 3.31053 41.8991 3.42116C42.2123 3.53179 42.3761 3.87518 42.2655 4.18829C42.2624 4.19873 42.2582 4.20916 42.254 4.21856C42.1267 4.52541 41.7749 4.67048 41.4681 4.54315C41.1738 4.42104 41.0256 4.08914 41.132 3.7875ZM42.9689 4.53793C43.114 4.23943 43.4741 4.11627 43.7716 4.26135C44.0701 4.40642 44.1932 4.76651 44.0481 5.06396C43.9031 5.36246 43.543 5.48562 43.2455 5.34055C42.947 5.19547 42.8239 4.83539 42.9689 4.53793ZM44.7422 5.42822C44.9061 5.14015 45.2735 5.03891 45.5615 5.20278C45.8496 5.36664 45.9508 5.73403 45.787 6.02209C45.7817 6.03044 45.7776 6.03879 45.7724 6.04714C45.5949 6.3279 45.2234 6.41035 44.9426 6.23292C44.6723 6.06071 44.5836 5.70689 44.7422 5.42822ZM46.4226 6.48237C46.6125 6.20996 46.9872 6.14316 47.2586 6.33312C47.531 6.52307 47.5978 6.89776 47.4079 7.16913C47.4037 7.17539 47.3995 7.18165 47.3943 7.18791C47.1939 7.45302 46.8182 7.5052 46.5531 7.30481C46.2953 7.11068 46.2379 6.74642 46.4226 6.48132V6.48237ZM47.9923 7.69829C48.2272 7.46345 48.6071 7.4645 48.8409 7.69829C49.0747 7.93208 49.0747 8.31304 48.8409 8.54683C48.606 8.78062 48.2261 8.78062 47.9923 8.54683C47.7575 8.31199 47.7575 7.93208 47.9923 7.69829ZM49.3554 9.1407C49.6216 8.94239 49.9983 8.99667 50.1966 9.26281C50.395 9.52896 50.3407 9.90574 50.0745 10.104C50.0651 10.1113 50.0547 10.1187 50.0443 10.1249C49.7666 10.3065 49.394 10.2293 49.2124 9.95166C49.0381 9.68552 49.1008 9.33065 49.3554 9.1407ZM50.4242 10.8169C50.7383 10.7094 51.0796 10.8753 51.1871 11.1895C51.2946 11.5037 51.1287 11.845 50.8145 11.9525C50.5004 12.06 50.1591 11.894 50.0516 11.5799C49.9441 11.2657 50.11 10.9244 50.4242 10.8169ZM10.2862 10.1834C10.5314 10.3253 10.688 10.4787 10.7475 10.5341C10.8581 10.6353 11.0502 10.8106 11.2224 11.0058C11.3727 11.1759 11.4969 11.3356 11.5825 11.463C11.8413 11.846 11.9613 12.2948 11.9613 12.6611C11.9613 13.1705 11.691 13.9188 11.2339 14.2476L11.547 14.5607C11.9018 14.8926 12.1596 15.4019 12.1596 16.1221C12.1596 17.1167 11.3643 18.3608 10.1828 18.3608H7.41493L6.69477 17.6428V9.90887H9.26543C9.67247 9.90887 10.0106 10.0143 10.2862 10.1844V10.1834ZM8.99719 14.8999V16.4206H9.06816C9.57019 16.4206 9.8593 15.8695 9.8593 15.3007C9.8593 15.1598 9.83947 15.0241 9.80294 14.8989H8.99719V14.8999ZM8.99719 11.847V12.9523C9.42094 12.8981 9.66099 12.563 9.66099 12.0443C9.66099 11.9754 9.65577 11.9097 9.64742 11.8481L9.59106 11.846H8.99824L8.99719 11.847ZM8.05368 16.645V13.9574H9.06921C9.66517 13.9574 10.0847 14.64 10.0847 15.3017C10.0847 15.8956 9.77476 16.646 9.06921 16.646H8.05368V16.645ZM8.05368 13.1851V10.9046H8.8709C9.41259 10.9046 9.88643 11.3189 9.88643 12.0443C9.88643 12.7018 9.52844 13.1851 8.8709 13.1851H8.05368ZM11.2161 15.403C11.2161 14.5294 10.807 14.02 10.3446 13.7685L10.0033 13.5817L10.3352 13.3792C10.7391 13.1329 11.0178 12.4305 11.0178 11.9431C11.0178 11.201 10.4793 10.1322 9.26543 10.1322H6.92021V17.4173H9.46373C10.4772 17.4173 11.2161 16.3246 11.2161 15.403ZM14.5236 9.90783L15.2438 10.6259V16.1857L15.2459 16.2358L15.3148 16.239C15.7844 16.239 16.1059 15.8852 16.1059 15.4677V9.90783H17.6871L18.4073 10.6259V16.1857C18.4073 17.482 17.3156 18.5445 16.0349 18.5445C15.4818 18.5445 14.9067 18.3149 14.3379 17.8912C13.9413 17.5948 13.5488 17.0886 13.4758 16.9435C13.1324 16.5281 12.9445 16.0062 12.9424 15.4677V9.90783H14.5247H14.5236ZM16.3293 10.1322V15.4677C16.3293 16.0062 15.9097 16.4634 15.3137 16.4634C14.7178 16.4634 14.2982 16.0073 14.2982 15.4677V10.1322H13.1647V15.4677C13.1647 16.6377 14.1531 17.6021 15.3127 17.6021C16.4723 17.6021 17.4606 16.6377 17.4606 15.4677V10.1322H16.3282H16.3293ZM22.9527 9.96001C23.151 10.0498 23.3211 10.1604 23.4766 10.2773C23.6728 10.4276 23.8805 10.6008 24.0945 10.8503C24.2615 11.0455 24.4076 11.2573 24.5307 11.4838C24.7291 11.8491 24.8261 12.2958 24.8261 12.801V12.9607H23.4422L22.722 12.2426V12.0819C22.722 12.0234 22.7178 11.9671 22.7095 11.9118C22.6312 11.8898 22.5498 11.8815 22.4694 11.8877C21.9966 11.9295 21.6637 12.3324 21.6637 12.7999V16.1857C21.6637 16.2317 21.6678 16.2776 21.6752 16.3225C21.7002 16.3266 21.7242 16.3298 21.7503 16.3319C22.3108 16.3809 22.7032 16.0417 22.722 15.5094H22.6427L21.9236 14.7914V13.5702H24.107L24.8272 14.2883V16.1847C24.8272 17.5916 24.0799 18.5435 22.4705 18.5435C21.886 18.5435 21.3307 18.317 20.7577 17.8901C20.3643 17.5958 19.9802 17.0906 19.88 16.9163C19.5585 16.5156 19.3633 16.0125 19.3633 15.4677V12.0829C19.3633 10.7866 20.4707 9.72413 21.7513 9.72413C22.2262 9.72413 22.627 9.80763 22.9547 9.96106L22.9527 9.96001ZM22.9453 12.0182H23.8816C23.8596 10.7585 23.1969 9.94749 21.7493 9.94749C20.5876 9.94749 19.5856 10.914 19.5856 12.0819V15.4666C19.5856 16.6356 20.5876 17.6021 21.7493 17.6021C23.2209 17.6021 23.8816 16.764 23.8816 15.4666V13.7946H22.1469V14.5659H22.9464V15.4656C22.9464 16.1597 22.4298 16.6158 21.7294 16.5542C21.1376 16.502 20.7181 15.9968 20.7181 15.4666V12.0808C20.7181 11.5005 21.1303 10.9975 21.7294 10.9453C22.4235 10.8847 22.9151 11.3711 22.9453 12.0172V12.0182ZM28.7306 13.4909L28.4217 14.8602H29.0083L28.7306 13.4909ZM29.4299 16.9351H27.9531L27.6306 18.3598H25.9909L25.2707 17.6417L27.2475 9.90783H29.4226L30.1417 10.6259L31.9849 18.3598H30.292L29.5719 17.6417L29.4289 16.9351H29.4299ZM28.5334 11.3899L29.2828 15.0846H27.258L28.094 11.3847L28.5323 11.3899H28.5334ZM27.4218 10.1322L25.5598 17.4173H26.7319L27.0534 15.9927H29.4675L29.7566 17.4173H30.9193L29.2431 10.1322H27.4218ZM33.1069 12.0506H32.2459L31.5267 11.3325V9.90783H36.2704L36.9906 10.6259V12.0506H35.4093V18.3744H33.8281L33.108 17.6563V12.0506H33.1069ZM33.3313 17.4319H34.4637V11.1081H36.045V10.1322H31.7491V11.1081H33.3303V17.4319H33.3313ZM42.0578 9.90783L42.7779 10.6259V12.0506H41.1967V18.3744H39.6155L38.8953 17.6563V12.0506H38.0343L37.3141 11.3325V9.90783H42.0588H42.0578ZM39.1187 17.4319H40.2522V11.1081H41.8334V10.1322H37.5375V11.1081H39.1187V17.4319ZM44.857 9.90783L45.5772 10.6259V18.3598H43.996L43.2758 17.6417V9.90783H44.857ZM44.6326 10.1322H43.4992V17.4173H44.6326V10.1322ZM24.8491 6.50741V6.81322H24.0715V5.2821H24.8491V5.58895H25.5912V4.49305H23.7219V4.88236H22.9443V3.71653H27.8706C28.6419 3.71653 29.2661 4.34276 29.2661 5.11302C29.2661 5.45118 29.1429 5.77786 28.9206 6.03148C29.4863 6.61179 29.4738 7.53965 28.8935 8.10534C28.62 8.37253 28.2526 8.52178 27.8696 8.52178H22.9443V7.35595H23.7219V7.74526H25.5912V6.50846H24.8491V6.50741ZM27.8706 5.58895C28.2109 5.58895 28.4186 5.34368 28.4186 5.041C28.4186 4.73832 28.2109 4.49305 27.8706 4.49305H26.6161V5.58895H27.8706ZM27.8706 7.74421C28.2578 7.74421 28.4895 7.46763 28.4895 7.12529C28.4895 6.78295 28.2578 6.50637 27.8706 6.50637H26.6161V7.74317H27.8706V7.74421Z" fill="black"/>
</svg>
