<svg width="29" height="25" viewBox="0 0 29 25" fill="none" xmlns="http://www.w3.org/2000/svg">
<path d="M14.4879 23.226C9.0416 23.226 4.52312 18.3583 4.52312 12.491C4.52312 12.1848 4.53427 11.8847 4.55749 11.5845L12.8923 12.1468L9.28494 14.8273C9.2385 14.8643 9.20414 14.9274 9.20414 14.9964C9.20414 15.1085 9.29144 15.2025 9.39546 15.2025H24.1165C22.9908 19.7891 19.0705 23.226 14.4879 23.226ZM14.4879 1.76199C19.9343 1.76199 24.4527 6.62972 24.4527 12.497C24.4527 12.7972 24.4416 13.0973 24.4184 13.3965L16.0891 12.8282L19.703 10.1597C19.7494 10.1227 19.7838 10.0596 19.7838 9.99059C19.7838 9.87853 19.6965 9.78447 19.598 9.78447H4.86027C5.99151 5.20391 9.91186 1.76098 14.4889 1.76098M28.779 13.6967L26.053 13.5096C26.0762 13.1784 26.0939 12.8412 26.0939 12.497C26.0939 5.59213 20.903 0 14.4935 0C8.94873 0 4.31415 4.18634 3.16619 9.79148H1.02629C0.886977 9.79148 0.759736 9.86051 0.684505 9.97258L0.0464386 10.9221C0.0176467 10.9591 0 11.0092 0 11.0662C0 11.1973 0.0984495 11.3033 0.220119 11.3033L2.93492 11.4844C2.9117 11.8216 2.89406 12.1588 2.89406 12.503C2.89406 19.4079 8.08497 25 14.4944 25C20.0392 25 24.6738 20.8137 25.8217 15.2085H27.9737C28.113 15.2085 28.2403 15.1395 28.3155 15.0274L28.9536 14.0779C28.9824 14.0409 29 13.9908 29 13.9338C28.9944 13.7967 28.9016 13.6967 28.7799 13.6967" fill="black"/>
</svg>
