<svg width="66" height="10" viewBox="0 0 66 10" fill="none" xmlns="http://www.w3.org/2000/svg">
<path d="M34.5558 7.95362C34.5558 8.21773 34.4406 8.40798 34.0836 8.40798H31.7905C31.4984 8.40798 31.3272 8.32404 31.3272 8.05098C31.3272 7.77792 31.4425 7.63915 31.7905 7.63915H34.5558V7.95362ZM44.6625 6.8692V6.56369C44.6625 6.29062 44.7778 6.10933 45.1493 6.10933H47.4423C47.7568 6.10933 47.9146 6.20221 47.9146 6.49878C47.9146 6.74946 47.7893 6.86473 47.4603 6.86473H44.6625V6.8692ZM50.6799 4.84026V9.67593H52.9965V6.15521H54.8911C55.5301 6.15521 55.8592 6.35441 55.8592 6.97552V9.6804H58.1701V6.78527C58.1701 5.42779 57.4248 4.84026 55.3074 4.84026H50.6799ZM44.977 4.84026C43.1148 4.84026 42.3694 5.46136 42.3694 6.86025V7.81933C42.3694 9.02796 43.1148 9.68152 44.7968 9.68152H49.6973V8.40798H45.2601C44.8203 8.40798 44.6714 8.28264 44.6714 7.95362V7.75442H48.1731C49.3818 7.75442 50.0678 7.37504 50.0678 6.4708V6.2481C50.0678 5.42779 49.6604 4.84026 47.608 4.84026H44.977ZM37.5427 9.67704H39.8537V6.4999C39.8537 6.29174 39.9376 6.15297 40.2241 6.15297H42.0214V4.8369H39.4463C38.0709 4.8369 37.5427 5.35057 37.5427 6.21229V9.67704ZM29.6362 4.84026V6.1138H33.9806C34.4115 6.1138 34.5592 6.26153 34.5592 6.57711V6.76289H31.0664C29.6026 6.76289 29.1628 7.36497 29.1628 8.12932V8.31957C29.1628 9.38048 30.0156 9.67704 31.6875 9.67704H34.2537C36.0744 9.67704 36.8612 9.26521 36.8612 7.83835V6.71253C36.8612 5.50389 36.1159 4.84138 34.4204 4.84138H29.6351L29.6362 4.84026ZM15.7951 7.53171C15.7951 9.05594 16.5729 9.67593 18.5839 9.67593H22.9887V8.36993H18.9174C18.4362 8.36993 18.1072 8.14722 18.1072 7.45226V7.03035C18.1072 6.40925 18.4127 6.14514 18.9085 6.14514H22.9898V4.83019H18.5201C16.5427 4.83019 15.7962 5.65945 15.7962 6.98447V7.5306L15.7951 7.53171ZM23.6837 4.07143V9.67593H28.7096V8.35985H25.9958V4.07031H23.6848L23.6837 4.07143ZM9.24607 7.20717V4.07143H7.94007C7.12984 4.07143 6.66653 4.39597 6.18419 4.77535L0 9.67704H2.78882L6.89259 6.35553V9.67704H8.81521L12.7892 6.33315V9.67704H15.1471V4.07255H13.8635C13.1685 4.07255 12.6873 4.35457 12.2005 4.75856L9.24495 7.20941L9.24607 7.20717Z" fill="black"/>
<path d="M63.7334 0C62.4408 0 60.6211 0.384973 58.6515 1.1068C56.8911 1.74581 55.2002 2.57954 53.6211 3.5845C54.6496 3.1626 56.683 2.68586 58.3594 2.68586C60.62 2.68586 62.2315 3.55205 59.8512 6.58595C66.8601 2.00096 66.6699 0.00447643 63.7334 0Z" fill="black"/>
</svg>
