<svg width="25" height="41" viewBox="0 0 25 41" fill="none" xmlns="http://www.w3.org/2000/svg">
<path d="M1.21002 3.4946C1.21002 2.23623 2.23574 1.20947 3.49514 1.20947H21.0958C22.3738 1.20947 23.3985 2.23519 23.3985 3.4946V36.6413C23.3985 37.9007 22.3727 38.9264 21.0958 38.9264H3.49411C2.2347 38.9264 1.20898 37.9007 1.20898 36.6413V3.4946" fill="white"/>
<path d="M1.21002 3.4946C1.21002 2.23623 2.23574 1.20947 3.49514 1.20947H21.0958C22.3738 1.20947 23.3985 2.23519 23.3985 3.4946V36.6413C23.3985 37.9007 22.3727 38.9264 21.0958 38.9264H3.49411C2.2347 38.9264 1.20898 37.9007 1.20898 36.6413V3.4946" stroke="black" stroke-width="0.0595839" stroke-miterlimit="10"/>
<path d="M2.1582 7.40804V3.49748C2.1582 2.76231 2.75999 2.1626 3.49516 2.1626H21.0958C21.8506 2.1626 22.4503 2.76231 22.4503 3.49748V7.40804H2.1582Z" fill="black" stroke="black" stroke-width="0.0595839" stroke-miterlimit="10"/>
<path d="M22.4493 8.354H2.1582V31.7822H22.4493V8.354Z" fill="black" stroke="black" stroke-width="0.0595839" stroke-miterlimit="10"/>
<path d="M18.1699 5.48896C18.2475 5.60477 18.4222 5.74022 18.537 5.79813C18.8668 5.97287 19.1584 6.03078 19.4665 6.03078C19.9505 6.03078 20.241 5.81777 20.241 5.50861C20.241 5.13947 19.8719 5.08157 19.3114 5.00609C18.5959 4.90889 18.2082 4.57905 18.2082 3.99898C18.2268 3.41788 18.7707 2.97119 19.5627 2.97119C20.1035 2.97119 20.4726 3.08803 20.7053 3.20384V3.95969C20.6277 3.82424 20.453 3.72704 20.2803 3.65052C20.0466 3.57194 19.814 3.53368 19.5637 3.53368C19.176 3.53368 18.9444 3.68878 18.9444 3.88317C18.9444 4.21095 19.2546 4.25024 19.9318 4.38569C20.6091 4.52115 21.0165 4.8117 20.9969 5.41141C20.9772 6.10832 20.4344 6.57362 19.4676 6.57362C19.0405 6.57362 18.4998 6.49607 18.1699 6.32236V5.49" fill="white"/>
<path d="M18.1699 5.48896C18.2475 5.60477 18.4222 5.74022 18.537 5.79813C18.8668 5.97287 19.1584 6.03078 19.4665 6.03078C19.9505 6.03078 20.241 5.81777 20.241 5.50861C20.241 5.13947 19.8719 5.08157 19.3114 5.00609C18.5959 4.90889 18.2082 4.57905 18.2082 3.99898C18.2268 3.41788 18.7707 2.97119 19.5627 2.97119C20.1035 2.97119 20.4726 3.08803 20.7053 3.20384V3.95969C20.6277 3.82424 20.453 3.72704 20.2803 3.65052C20.0466 3.57194 19.814 3.53368 19.5637 3.53368C19.176 3.53368 18.9444 3.68878 18.9444 3.88317C18.9444 4.21095 19.2546 4.25024 19.9318 4.38569C20.6091 4.52115 21.0165 4.8117 20.9969 5.41141C20.9772 6.10832 20.4344 6.57362 19.4676 6.57362C19.0405 6.57362 18.4998 6.49607 18.1699 6.32236V5.49" stroke="black" stroke-width="0.0595839" stroke-miterlimit="10"/>
<path d="M6.14679 4.0948C6.14679 4.44325 5.85624 4.57871 5.41162 4.57871H4.59891V3.59021H5.41162C5.85624 3.59021 6.14679 3.72566 6.14679 4.0948ZM6.64931 5.64372C6.4756 5.31491 6.34118 5.06365 6.08889 4.94681C6.6307 4.831 6.90161 4.5208 6.90161 4.05654C6.90161 3.59228 6.70722 3.26347 6.34118 3.12698C6.10853 3.02979 5.81695 3.02979 5.37233 3.02979H3.5918C3.76654 3.14559 3.8627 3.49405 3.8627 3.80425V5.75953C3.8627 6.05008 3.76654 6.41818 3.5918 6.51537H4.86774C4.69403 6.41818 4.59891 6.05008 4.59891 5.75953V5.13913H5.13968C5.41162 5.13913 5.56672 5.23632 5.6815 5.45036C5.87485 5.75953 6.01134 6.18553 6.24399 6.51537H7.26971C6.96158 6.30237 6.80545 5.97253 6.65035 5.64372H6.64931Z" fill="white" stroke="black" stroke-width="0.0595839" stroke-miterlimit="10"/>
<path d="M9.36084 6.61199C9.84372 6.61199 10.2521 6.47551 10.5613 6.2046C10.9304 5.89647 11.1807 5.43014 11.1807 4.77252C11.1807 4.1149 10.9304 3.6496 10.5613 3.33941C10.2532 3.08815 9.84475 2.95166 9.36084 2.95166C8.87693 2.95166 8.47057 3.08711 8.15934 3.33941C7.79331 3.6496 7.54102 4.13455 7.54102 4.77252C7.54102 5.41049 7.79331 5.89544 8.15934 6.2046C8.47057 6.47654 8.89555 6.61199 9.36084 6.61199ZM8.62567 5.70105C8.41267 5.50769 8.31548 5.19853 8.31548 4.77149C8.31548 4.34445 8.41267 4.05493 8.62567 3.84296C8.79938 3.66822 9.05168 3.55241 9.36084 3.55241C9.67001 3.55241 9.9223 3.66822 10.096 3.84296C10.31 4.05596 10.4259 4.36513 10.4259 4.77149C10.4259 5.17785 10.31 5.50769 10.096 5.70105C9.9223 5.87579 9.67001 5.9916 9.36084 5.9916C9.05168 5.9916 8.79835 5.87579 8.62567 5.70105Z" fill="white" stroke="black" stroke-width="0.0595839" stroke-miterlimit="10"/>
<path d="M14.3947 5.62304C14.2003 5.87533 13.795 5.95288 13.3494 5.95288H12.6721V3.80425C12.6721 3.51369 12.7683 3.14456 12.9234 3.02979H11.666C11.8387 3.14559 11.938 3.51369 11.938 3.80425V5.75953C11.938 6.06972 11.8397 6.39853 11.666 6.51537H14.2789L14.3958 5.62407" fill="white"/>
<path d="M14.3947 5.62304C14.2003 5.87533 13.795 5.95288 13.3494 5.95288H12.6721V3.80425C12.6721 3.51369 12.7683 3.14456 12.9234 3.02979H11.666C11.8387 3.14559 11.938 3.51369 11.938 3.80425V5.75953C11.938 6.06972 11.8397 6.39853 11.666 6.51537H14.2789L14.3958 5.62407" stroke="black" stroke-width="0.0595839" stroke-miterlimit="10"/>
<path d="M17.552 5.62304C17.3576 5.87533 16.9523 5.97253 16.5066 5.95288H15.8097V3.80425C15.8097 3.51369 15.9059 3.14456 16.0817 3.02979H14.8223C14.996 3.14559 15.0942 3.51369 15.0942 3.80425V5.75953C15.0942 6.06972 14.996 6.41818 14.8223 6.53295H17.4155L17.552 5.62304Z" fill="white" stroke="black" stroke-width="0.0595839" stroke-miterlimit="10"/>
<path d="M24.5608 3.49469C24.5608 1.57871 23.0118 0.0297852 21.0959 0.0297852H3.49524C1.57822 0.0297852 0.0292969 1.57871 0.0292969 3.49469V36.6414C0.0292969 38.5594 1.57925 40.1084 3.49627 40.1084H21.0969C23.0129 40.1084 24.5618 38.5605 24.5618 36.6414V3.49469M1.21115 3.49469C1.21115 2.23633 2.23687 1.20957 3.49627 1.20957H21.0969C22.3749 1.20957 23.3996 2.23529 23.3996 3.49469V36.6414C23.3996 37.9008 22.3739 38.9265 21.0969 38.9265H3.49524C2.23584 38.9265 1.21012 37.9008 1.21012 36.6414V3.49469H1.21115Z" fill="black"/>
<path d="M24.5608 3.49469C24.5608 1.57871 23.0118 0.0297852 21.0959 0.0297852H3.49524C1.57822 0.0297852 0.0292969 1.57871 0.0292969 3.49469V36.6414C0.0292969 38.5594 1.57925 40.1084 3.49627 40.1084H21.0969C23.0129 40.1084 24.5618 38.5605 24.5618 36.6414V3.49469M1.21115 3.49469C1.21115 2.23633 2.23687 1.20957 3.49627 1.20957H21.0969C22.3749 1.20957 23.3996 2.23529 23.3996 3.49469V36.6414C23.3996 37.9008 22.3739 38.9265 21.0969 38.9265H3.49524C2.23584 38.9265 1.21012 37.9008 1.21012 36.6414V3.49469H1.21115Z" stroke="black" stroke-width="0.0595839" stroke-miterlimit="10"/>
<path d="M2.1582 32.7329V36.6435C2.1582 37.3817 2.75999 37.9804 3.49516 37.9804H21.0958C21.8506 37.9804 22.4503 37.3817 22.4503 36.6435V32.7329H2.1582Z" fill="black" stroke="black" stroke-width="0.0595839" stroke-miterlimit="10"/>
<path d="M10.8521 28.0467V22.8374C11.3546 22.8188 11.8396 22.7992 12.3245 22.7599C12.1497 22.3525 11.975 21.9472 11.762 21.5594C11.4715 21.5977 11.1633 21.5977 10.8521 21.6173V20.5337C10.1748 20.6888 9.43966 20.8046 8.68381 20.8821V28.0456C8.68381 29.6318 7.9476 30.0588 7.50195 30.3494H12.0319C11.6079 30.0588 10.8511 29.6328 10.8511 28.0456" fill="white"/>
<path d="M10.8521 28.0467V22.8374C11.3546 22.8188 11.8396 22.7992 12.3245 22.7599C12.1497 22.3525 11.975 21.9472 11.762 21.5594C11.4715 21.5977 11.1633 21.5977 10.8521 21.6173V20.5337C10.1748 20.6888 9.43966 20.8046 8.68381 20.8821V28.0456C8.68381 29.6318 7.9476 30.0588 7.50195 30.3494H12.0319C11.6079 30.0588 10.8511 29.6328 10.8511 28.0456" stroke="black" stroke-width="0.0595839" stroke-miterlimit="10"/>
<path d="M21.3873 30.328C21.0202 29.9785 20.5539 29.4367 20.3223 28.3727C19.8963 26.4164 19.005 23.6091 17.1273 21.5174C18.9667 20.5113 20.0896 18.9231 20.0896 16.9688C20.1083 15.574 19.3927 14.1026 18.1147 13.232C17.5729 12.8815 16.9339 12.6302 16.1781 12.4751C16.45 13.0562 16.6237 13.6756 16.662 14.296C17.455 14.9143 17.8821 15.8635 17.8821 17.0061C17.8821 18.4588 17.1469 20.1618 14.5723 21.0335C14.7832 21.4388 14.9962 21.8658 15.1709 22.2722C15.3074 22.2339 15.4429 22.1957 15.5794 22.1564C16.7798 23.5512 17.7456 25.7381 18.0361 27.7709C18.2502 29.2434 17.728 29.9785 17.3796 30.328H21.3873Z" fill="white" stroke="black" stroke-width="0.0595839" stroke-miterlimit="10"/>
<path d="M6.92344 19.2767V11.1453H10.0016C11.1256 11.164 11.9579 11.3966 12.6166 11.8598C13.4872 12.4792 13.9536 13.4667 13.9536 14.6485C13.9536 16.6421 12.5773 19.1784 6.92447 19.2756M16.8746 27.9891C16.4868 27.6406 16.0236 27.0988 15.8096 26.0338C15.3836 24.0785 14.5316 21.3291 12.8286 19.3728C12.9051 19.3346 12.964 19.3149 13.0395 19.2767C14.9762 18.2892 16.158 16.6431 16.158 14.6289C16.1766 13.2154 15.4601 11.7637 14.1831 10.892C13.176 10.2148 11.8215 9.94385 10.0968 9.94385H3.57227C4.01792 10.2344 4.75308 10.6594 4.75308 12.2465V25.6843C4.75308 27.2901 4.01792 27.6975 3.57227 27.987H8.10219C7.67618 27.6965 6.92137 27.2901 6.92137 25.6843V20.4751C8.50855 20.4751 9.99956 20.2807 11.2569 19.9529C12.4005 21.3281 13.2525 23.4571 13.5234 25.4124C13.7168 26.8858 13.2132 27.6396 12.8658 27.987H16.8735L16.8746 27.9891Z" fill="white"/>
<path d="M6.92344 19.2767V11.1453H10.0016C11.1256 11.164 11.9579 11.3966 12.6166 11.8598C13.4872 12.4792 13.9536 13.4667 13.9536 14.6485C13.9536 16.6421 12.5773 19.1784 6.92447 19.2756M16.8746 27.9891C16.4868 27.6406 16.0236 27.0988 15.8096 26.0338C15.3836 24.0785 14.5316 21.3291 12.8286 19.3728C12.9051 19.3346 12.964 19.3149 13.0395 19.2767C14.9762 18.2892 16.158 16.6431 16.158 14.6289C16.1766 13.2154 15.4601 11.7637 14.1831 10.892C13.176 10.2148 11.8215 9.94385 10.0968 9.94385H3.57227C4.01792 10.2344 4.75308 10.6594 4.75308 12.2465V25.6843C4.75308 27.2901 4.01792 27.6975 3.57227 27.987H8.10219C7.67618 27.6965 6.92137 27.2901 6.92137 25.6843V20.4751C8.50855 20.4751 9.99956 20.2807 11.2569 19.9529C12.4005 21.3281 13.2525 23.4571 13.5234 25.4124C13.7168 26.8858 13.2132 27.6396 12.8658 27.987H16.8735L16.8746 27.9891Z" stroke="black" stroke-width="0.0595839" stroke-miterlimit="10"/>
<path d="M10.853 18.1132V13.5244H13.2932C13.1206 13.0198 12.8083 12.6134 12.3844 12.3032H7.50391C7.94956 12.5938 8.68576 13.0012 8.68576 14.608V18.655C9.49848 18.5392 10.2336 18.3666 10.854 18.1143" fill="white"/>
<path d="M10.853 18.1132V13.5244H13.2932C13.1206 13.0198 12.8083 12.6134 12.3844 12.3032H7.50391C7.94956 12.5938 8.68576 13.0012 8.68576 14.608V18.655C9.49848 18.5392 10.2336 18.3666 10.854 18.1143" stroke="black" stroke-width="0.0595839" stroke-miterlimit="10"/>
<path d="M15.2861 35.3679C15.2861 36.0245 15.6738 36.5291 16.3511 36.5291C16.835 36.5291 17.2806 36.3936 17.474 36.161L17.3572 36.9168C17.1834 36.9933 16.8743 37.0905 16.3707 37.0905C15.2861 37.0905 14.5312 36.4505 14.5312 35.3679C14.5312 34.7878 14.7639 34.3411 15.1113 34.0506C15.4215 33.7786 15.8465 33.6235 16.3707 33.6235C16.895 33.6235 17.1834 33.7207 17.3572 33.8179V34.5345C17.1452 34.3018 16.836 34.185 16.3511 34.185C15.6738 34.185 15.2861 34.6896 15.2861 35.3668" fill="white"/>
<path d="M15.2861 35.3679C15.2861 36.0245 15.6738 36.5291 16.3511 36.5291C16.835 36.5291 17.2806 36.3936 17.474 36.161L17.3572 36.9168C17.1834 36.9933 16.8743 37.0905 16.3707 37.0905C15.2861 37.0905 14.5312 36.4505 14.5312 35.3679C14.5312 34.7878 14.7639 34.3411 15.1113 34.0506C15.4215 33.7786 15.8465 33.6235 16.3707 33.6235C16.895 33.6235 17.1834 33.7207 17.3572 33.8179V34.5345C17.1452 34.3018 16.836 34.185 16.3511 34.185C15.6738 34.185 15.2861 34.6896 15.2861 35.3668" stroke="black" stroke-width="0.0595839" stroke-miterlimit="10"/>
<path d="M6.03099 34.7049C6.03099 35.0347 5.76008 35.1691 5.33511 35.1691H4.56065V34.2406H5.33511C5.76111 34.2406 6.03099 34.3564 6.03099 34.7038M6.51489 36.1762C6.3598 35.866 6.22434 35.6137 5.99169 35.5186C6.49628 35.4214 6.74651 35.1112 6.76615 34.6863C6.76615 34.2406 6.5728 33.9118 6.22331 33.7753C6.01031 33.6978 5.72079 33.6978 5.29375 33.6978H3.60938C3.76551 33.7949 3.86167 34.1248 3.86167 34.4329V36.2941C3.86167 36.565 3.76551 36.9135 3.60938 37.0293H4.80984C4.65578 36.9135 4.55858 36.564 4.55858 36.2941V35.6923H5.0611C5.33304 35.6923 5.48607 35.8081 5.60498 36.0025C5.77869 36.2941 5.91311 36.6984 6.12611 37.0096L7.11461 37.0293C6.80338 36.7987 6.66896 36.505 6.51386 36.1773L6.51489 36.1762Z" fill="white"/>
<path d="M6.03099 34.7049C6.03099 35.0347 5.76008 35.1691 5.33511 35.1691H4.56065V34.2406H5.33511C5.76111 34.2406 6.03099 34.3564 6.03099 34.7038M6.51489 36.1762C6.3598 35.866 6.22434 35.6137 5.99169 35.5186C6.49628 35.4214 6.74651 35.1112 6.76615 34.6863C6.76615 34.2406 6.5728 33.9118 6.22331 33.7753C6.01031 33.6978 5.72079 33.6978 5.29375 33.6978H3.60938C3.76551 33.7949 3.86167 34.1248 3.86167 34.4329V36.2941C3.86167 36.565 3.76551 36.9135 3.60938 37.0293H4.80984C4.65578 36.9135 4.55858 36.564 4.55858 36.2941V35.6923H5.0611C5.33304 35.6923 5.48607 35.8081 5.60498 36.0025C5.77869 36.2941 5.91311 36.6984 6.12611 37.0096L7.11461 37.0293C6.80338 36.7987 6.66896 36.505 6.51386 36.1773L6.51489 36.1762Z" stroke="black" stroke-width="0.0595839" stroke-miterlimit="10"/>
<path d="M9.09189 37.1091C9.55512 37.1091 9.94286 36.9737 10.2324 36.7214C10.5808 36.4308 10.8342 35.9852 10.8342 35.3668C10.8342 34.7485 10.5808 34.3018 10.2324 33.9906C9.94183 33.759 9.55512 33.6235 9.09189 33.6235C8.62866 33.6235 8.25849 33.76 7.96794 33.9906C7.61948 34.3018 7.36719 34.7475 7.36719 35.3668C7.36719 35.9862 7.61948 36.4319 7.96794 36.7214C8.25849 36.9737 8.6452 37.1091 9.09189 37.1091ZM8.39291 36.2385C8.19955 36.0627 8.10236 35.7722 8.10236 35.3668C8.10236 34.9615 8.19955 34.671 8.39291 34.4755C8.56765 34.3029 8.8003 34.2046 9.10946 34.2046C9.40002 34.2046 9.63163 34.3018 9.80638 34.4755C9.99973 34.671 10.0969 34.9605 10.0969 35.3668C10.0969 35.7732 9.99973 36.0627 9.80638 36.2385C9.63163 36.4122 9.39898 36.527 9.10946 36.527C8.79927 36.527 8.56765 36.4112 8.39291 36.2385Z" fill="white" stroke="black" stroke-width="0.0595839" stroke-miterlimit="10"/>
<path d="M13.4278 33.6978C13.5064 33.7567 13.5447 33.8146 13.525 33.8911C13.525 33.9697 13.4857 34.0855 13.4092 34.2023L12.7495 35.1505L12.0919 34.1827C12.0143 34.0669 11.9389 33.9521 11.9564 33.8529C11.9751 33.7949 11.9957 33.737 12.0722 33.6978H10.7363C10.9679 33.7949 11.0848 33.9697 11.2575 34.222L12.3432 35.7502V36.2941C12.3432 36.565 12.246 36.9135 12.0909 37.0096H13.2913C13.1362 36.9135 13.039 36.565 13.039 36.2941V35.7502L14.0275 34.3564C14.1826 34.1631 14.3956 33.8146 14.6272 33.6978H13.4257" fill="white"/>
<path d="M13.4278 33.6978C13.5064 33.7567 13.5447 33.8146 13.525 33.8911C13.525 33.9697 13.4857 34.0855 13.4092 34.2023L12.7495 35.1505L12.0919 34.1827C12.0143 34.0669 11.9389 33.9521 11.9564 33.8529C11.9751 33.7949 11.9957 33.737 12.0722 33.6978H10.7363C10.9679 33.7949 11.0848 33.9697 11.2575 34.222L12.3432 35.7502V36.2941C12.3432 36.565 12.246 36.9135 12.0909 37.0096H13.2913C13.1362 36.9135 13.039 36.565 13.039 36.2941V35.7502L14.0275 34.3564C14.1826 34.1631 14.3956 33.8146 14.6272 33.6978H13.4257" stroke="black" stroke-width="0.0595839" stroke-miterlimit="10"/>
<path d="M19.8568 36.4875H19.0048V35.5776H20.2839L20.3604 35.073H19.0048V34.2416H19.7596C20.1867 34.2416 20.5341 34.2602 20.7088 34.4329V33.6978H18.0566C18.2117 33.8146 18.3079 34.1641 18.3079 34.4329V36.2941C18.3079 36.5826 18.2117 36.9135 18.0566 37.0293H20.7285L20.8443 36.2145C20.6499 36.4668 20.2839 36.4864 19.8568 36.4864" fill="white"/>
<path d="M19.8568 36.4875H19.0048V35.5776H20.2839L20.3604 35.073H19.0048V34.2416H19.7596C20.1867 34.2416 20.5341 34.2602 20.7088 34.4329V33.6978H18.0566C18.2117 33.8146 18.3079 34.1641 18.3079 34.4329V36.2941C18.3079 36.5826 18.2117 36.9135 18.0566 37.0293H20.7285L20.8443 36.2145C20.6499 36.4668 20.2839 36.4864 19.8568 36.4864" stroke="black" stroke-width="0.0595839" stroke-miterlimit="10"/>
</svg>
