<svg width="49" height="7" viewBox="0 0 49 7" fill="none" xmlns="http://www.w3.org/2000/svg">
<path d="M42.0147 0L36.4023 6.513H39.1359L44.7482 0H42.0147Z" fill="black"/>
<path d="M45.8459 0L40.2324 6.513H42.9671L48.522 0.0664243V0H45.8459Z" fill="black"/>
<path d="M0.233354 4.20777C0.119644 4.20777 0.0273438 4.1132 0.0273438 3.99724V1.76131C0.0273438 1.64535 0.119644 1.55078 0.233354 1.55078H4.98218C5.61153 1.55078 6.21496 1.69602 6.68219 1.95946C7.12464 2.2094 7.36784 2.53702 7.36784 2.88153C7.36784 3.22604 7.12464 3.55366 6.68219 3.80247C6.22059 4.06366 5.6149 4.20665 4.97542 4.20665H0.233354V4.20777ZM1.86921 2.10582C1.77914 2.10582 1.70597 2.18238 1.70597 2.27695V3.48385C1.70597 3.57842 1.77914 3.65498 1.86921 3.65498H4.30329C5.02046 3.65498 5.58336 3.3161 5.58336 2.88153C5.58336 2.44695 5.02158 2.1047 4.30329 2.1047H1.86921V2.10582Z" fill="black"/>
<path d="M0.234157 1.57973H4.98298C5.62021 1.57973 6.21916 1.73172 6.66949 1.98503C7.10182 2.23047 7.34049 2.54796 7.34049 2.88346C7.34049 3.21896 7.10182 3.53644 6.66949 3.78075C6.22028 4.03519 5.61457 4.18155 4.97622 4.18155H0.234157C0.136208 4.18155 0.0562922 4.09937 0.0562922 3.99917V1.76324C0.0562922 1.66304 0.136208 1.58086 0.234157 1.58086M4.3041 3.68393C5.03702 3.68393 5.61231 3.32929 5.61231 2.88233C5.61231 2.43537 5.03815 2.07735 4.3041 2.07735H1.87001C1.76418 2.07735 1.67975 2.16742 1.67975 2.27775V3.48465C1.67975 3.59386 1.76531 3.68393 1.87001 3.68393H4.3041ZM0.234157 1.52344C0.104685 1.52344 0 1.63039 0 1.76212V3.99804C0 4.12976 0.104685 4.23672 0.234157 4.23672H4.97622C5.6202 4.23672 6.23154 4.09148 6.69651 3.82916C7.14798 3.57472 7.39678 3.2381 7.39678 2.88346C7.39678 2.52882 7.14798 2.19219 6.69651 1.93662C6.22478 1.67092 5.61683 1.52456 4.98298 1.52456H0.234157V1.52344ZM4.3041 3.62764H1.87001C1.7957 3.62764 1.73604 3.56346 1.73604 3.48465V2.27775C1.73604 2.19894 1.79683 2.13477 1.87001 2.13477H4.3041C4.99424 2.13477 5.55602 2.46915 5.55602 2.88233C5.55602 3.29552 4.99424 3.62764 4.3041 3.62764Z" fill="white"/>
<path d="M17.5068 4.20777C17.3931 4.20777 17.3008 4.1132 17.3008 3.99724V1.76131C17.3008 1.64535 17.3931 1.55078 17.5068 1.55078L22.2556 1.56204C22.8973 1.56204 23.5008 1.70277 23.9556 1.95946C24.3981 2.2094 24.6413 2.53702 24.6413 2.88153C24.6413 3.22604 24.3981 3.55366 23.9556 3.80247C23.503 4.05803 22.8996 4.19989 22.2567 4.19989L17.5068 4.20665V4.20777ZM19.1426 2.10582C19.0526 2.10582 18.9805 2.18238 18.9805 2.27695V3.48273C18.9805 3.5773 19.0537 3.65386 19.1426 3.65386L21.5767 3.64935C22.2939 3.64935 22.8568 3.3116 22.8568 2.8804C22.8568 2.4492 22.295 2.11145 21.5767 2.11145L19.1426 2.1047V2.10582Z" fill="black"/>
<path d="M17.5076 1.57973L22.2564 1.59099C22.8948 1.59099 23.4926 1.73172 23.9429 1.98503C24.3764 2.23047 24.6151 2.54796 24.6151 2.88346C24.6151 3.21896 24.3764 3.53644 23.9429 3.78075C23.4937 4.03519 22.8948 4.1748 22.2575 4.1748L17.5076 4.18155C17.4097 4.18155 17.3297 4.09937 17.3297 3.99917V1.76324C17.3297 1.66304 17.4097 1.58086 17.5076 1.58086M19.1434 3.6828L21.5775 3.6783C22.3116 3.6783 22.8858 3.32816 22.8858 2.8812C22.8858 2.43424 22.3116 2.08411 21.5775 2.08411L19.1434 2.07735C19.0376 2.07735 18.9532 2.16629 18.9532 2.27663V3.48241C18.9532 3.59274 19.0387 3.68168 19.1434 3.68168M17.5076 1.52344C17.3781 1.52344 17.2734 1.63039 17.2734 1.76212V3.99804C17.2734 4.12976 17.3781 4.23672 17.5076 4.23672L22.2575 4.22997C22.9049 4.22997 23.5129 4.08811 23.97 3.82916C24.4214 3.57472 24.6702 3.23922 24.6702 2.88346C24.6702 2.52769 24.4214 2.19219 23.97 1.93662C23.5106 1.67768 22.9027 1.53582 22.2564 1.53582L17.5076 1.52456V1.52344ZM19.1434 3.62651C19.0691 3.62651 19.0095 3.56234 19.0095 3.48353V2.27775C19.0095 2.19894 19.0703 2.13477 19.1434 2.13477L21.5775 2.14153C22.2789 2.14153 22.8295 2.46689 22.8295 2.88233C22.8295 3.29777 22.2801 3.62314 21.5775 3.62314L19.1434 3.62764V3.62651Z" fill="white"/>
<path d="M12.3326 4.25983C11.9464 4.25983 11.6695 4.25083 11.4004 4.24182H11.3824C10.5661 4.2148 9.81296 4.06281 9.2613 3.81175C8.71189 3.56293 8.41016 3.23531 8.41016 2.88968C8.41016 2.1804 9.71612 1.58595 11.3824 1.53754C11.6954 1.52853 12.0263 1.51953 12.3326 1.51953C12.6388 1.51953 12.9698 1.52853 13.2828 1.53754C14.9502 1.58595 16.2539 2.1804 16.2539 2.88968C16.2539 3.23419 15.951 3.56181 15.4039 3.81175C14.8522 4.06281 14.0979 4.2148 13.2828 4.24182H13.2637C12.9957 4.25195 12.7176 4.25983 12.3326 4.25983ZM12.3326 2.01715C12.1626 2.01715 11.9825 2.02278 11.8125 2.02728C10.8183 2.05768 10.0967 2.4202 10.0967 2.88968C10.0967 3.35916 10.8183 3.7183 11.8125 3.75208H11.8215C11.9757 3.75771 12.122 3.76221 12.3326 3.76221C12.5431 3.76221 12.6895 3.75771 12.8437 3.75208H12.8471H12.8539C13.8468 3.7183 14.5674 3.35578 14.5674 2.88968C14.5674 2.42358 13.8457 2.05768 12.8527 2.02728C12.6827 2.02165 12.5026 2.01715 12.3326 2.01715Z" fill="black" stroke="white" stroke-width="0.0876234" stroke-miterlimit="10"/>
<path d="M28.3931 4.18671H28.3165C26.5433 4.17882 25.6055 3.72849 25.6055 2.8841C25.6055 2.20184 26.7966 1.62991 28.3187 1.58263C28.4144 1.57925 28.5203 1.57812 28.6498 1.57812C28.7398 1.57812 28.831 1.57813 28.9211 1.57925H28.9492C29.0292 1.57925 29.1091 1.58038 29.1868 1.58038H33.0281C33.063 1.58038 33.1295 1.59276 33.1295 1.6772V1.98568C33.1295 2.078 33.0518 2.078 33.0281 2.078H29.2194C29.073 2.078 28.9222 2.0825 28.7679 2.087C28.4167 2.10051 27.2706 2.20972 27.2706 2.88298C27.2706 3.35921 27.8864 3.64742 28.7679 3.68232H28.7725C28.9076 3.68795 29.0359 3.69359 29.2194 3.69359H31.2921C31.4002 3.69359 31.488 3.66769 31.488 3.55398V3.25563C31.488 3.14192 31.4002 3.10252 31.2921 3.10252H29.2014C29.1654 3.10252 29.1136 3.08 29.1136 3.01357V2.75013C29.1136 2.70847 29.1451 2.65555 29.2127 2.65555H32.9505C33.0495 2.65555 33.1306 2.73775 33.1306 2.83682V4.00319C33.1306 4.10227 33.0495 4.18445 32.9505 4.18445H29.1857C29.1395 4.18445 29.0562 4.18445 28.956 4.18445H28.8873C28.7184 4.18445 28.5214 4.18558 28.3908 4.18558" fill="black"/>
<path d="M28.3931 4.18671H28.3165C26.5433 4.17882 25.6055 3.72849 25.6055 2.8841C25.6055 2.20184 26.7966 1.62991 28.3187 1.58263C28.4144 1.57925 28.5203 1.57812 28.6498 1.57812C28.7398 1.57812 28.831 1.57813 28.9211 1.57925H28.9492C29.0292 1.57925 29.1091 1.58038 29.1868 1.58038H33.0281C33.063 1.58038 33.1295 1.59276 33.1295 1.6772V1.98568C33.1295 2.078 33.0518 2.078 33.0281 2.078H29.2194C29.073 2.078 28.9222 2.0825 28.7679 2.087C28.4167 2.10051 27.2706 2.20972 27.2706 2.88298C27.2706 3.35921 27.8864 3.64742 28.7679 3.68232H28.7725C28.9076 3.68795 29.0359 3.69359 29.2194 3.69359H31.2921C31.4002 3.69359 31.488 3.66769 31.488 3.55398V3.25563C31.488 3.14192 31.4002 3.10252 31.2921 3.10252H29.2014C29.1654 3.10252 29.1136 3.08 29.1136 3.01357V2.75013C29.1136 2.70847 29.1451 2.65555 29.2127 2.65555H32.9505C33.0495 2.65555 33.1306 2.73775 33.1306 2.83682V4.00319C33.1306 4.10227 33.0495 4.18445 32.9505 4.18445H29.1857C29.1395 4.18445 29.0562 4.18445 28.956 4.18445H28.8873C28.7184 4.18445 28.5214 4.18558 28.3908 4.18558" stroke="white" stroke-width="0.0876234" stroke-miterlimit="10"/>
<path d="M34.528 4.20552C34.4154 4.20552 34.3242 4.11433 34.3242 4.00174V1.75456C34.3242 1.64197 34.4154 1.55078 34.528 1.55078H40.9656C41.0646 1.55078 41.0962 1.6476 41.0962 1.68138V1.9696C41.0962 2.07655 40.9993 2.10019 40.9656 2.10019L36.255 2.10244C36.1548 2.10244 36.0366 2.14973 36.0366 2.2837V2.45483C36.0366 2.60682 36.1886 2.62259 36.255 2.62259L40.728 2.62483C40.835 2.62483 40.8586 2.72166 40.8586 2.75543V2.99411C40.8586 3.09769 40.7731 3.12471 40.728 3.12471H36.2472C36.1458 3.12471 36.0287 3.17312 36.0287 3.30709V3.48498C36.0287 3.63472 36.1819 3.65047 36.2472 3.65047L41.0523 3.64823C41.1491 3.64823 41.1828 3.71803 41.1828 3.77882V4.07267C41.1828 4.10869 41.1592 4.20327 41.0523 4.20327H34.528V4.20552Z" fill="black"/>
<path d="M40.9664 1.57973C41.0486 1.57973 41.0688 1.66642 41.0688 1.68218V1.9704C41.0688 2.06159 40.9821 2.07285 40.9664 2.07285L36.2558 2.0751C36.1207 2.0751 36.0093 2.1494 36.0093 2.28451V2.45564C36.0093 2.59186 36.1207 2.65153 36.2558 2.65153L40.7288 2.65378C40.82 2.65378 40.8324 2.74048 40.8324 2.75624V2.99492C40.8324 3.09174 40.7457 3.09736 40.7288 3.09736H36.248C36.1117 3.09736 36.0014 3.17167 36.0014 3.3079V3.48578C36.0014 3.62088 36.1117 3.67942 36.248 3.67942L41.0531 3.67718C41.1533 3.67718 41.1566 3.76386 41.1566 3.77962V4.07347C41.1566 4.08923 41.1465 4.17592 41.0531 4.17592H34.5288C34.432 4.17592 34.3532 4.09824 34.3532 4.00142V1.75423C34.3532 1.65741 34.432 1.5786 34.5288 1.5786H40.9664M40.9664 1.52344H34.5288C34.4005 1.52344 34.2969 1.62701 34.2969 1.75536V4.00255C34.2969 4.13089 34.4016 4.23447 34.5288 4.23447H41.0531C41.1701 4.23447 41.2129 4.13877 41.2129 4.07459V3.78075C41.2129 3.70194 41.1634 3.62201 41.0531 3.62201L36.248 3.62426C36.177 3.62426 36.0577 3.60625 36.0577 3.48691V3.30902C36.0577 3.19531 36.1557 3.15478 36.248 3.15478H40.7288C40.8054 3.15478 40.8887 3.10412 40.8887 2.99492V2.75624C40.8887 2.69432 40.8459 2.59749 40.7288 2.59749L36.2558 2.59524C36.1849 2.59524 36.0656 2.57723 36.0656 2.45564V2.28451C36.0656 2.17192 36.168 2.13139 36.2558 2.13139L40.9664 2.12914C41.0272 2.12914 41.1251 2.08636 41.1251 1.9704V1.68218C41.1251 1.62814 41.0767 1.52344 40.9664 1.52344Z" fill="white"/>
</svg>
