<svg width="24" height="23" viewBox="0 0 24 23" fill="none" xmlns="http://www.w3.org/2000/svg">
<path fill-rule="evenodd" clip-rule="evenodd" d="M16.6719 1.87987C19.0978 3.44913 22.583 8.34324 23.5194 11.0486C22.584 13.7588 19.0978 18.6462 16.6719 20.2222V1.87891V1.87987Z" fill="black"/>
<path fill-rule="evenodd" clip-rule="evenodd" d="M11.4967 5.35798C12.7616 5.35798 14.375 5.86027 15.6446 6.76783V1.2485C14.3779 0.460984 12.8432 0 11.0434 0C4.93925 0 0 4.9479 0 11.0502C0 17.1524 4.93829 22.0888 11.0434 22.0888C12.8432 22.0888 14.3789 21.6432 15.6446 20.8547V15.321C14.375 16.2276 12.7616 16.7433 11.4967 16.7433C8.05953 16.7433 5.53565 14.2329 5.53565 11.0502C5.53565 7.86746 8.05953 5.35798 11.4967 5.35798Z" fill="black"/>
</svg>
