<svg width="40" height="40" viewBox="0 0 40 40" fill="none" xmlns="http://www.w3.org/2000/svg">
<path d="M28.0713 28.0693C32.6357 23.5049 32.6357 16.1045 28.0713 11.54C23.5068 6.97561 16.1064 6.97561 11.542 11.54C6.97755 16.1045 6.97755 23.5049 11.542 28.0693C16.1064 32.6338 23.5068 32.6338 28.0713 28.0693Z" fill="black"/>
<path d="M33.8105 5.80146C30.0704 2.06028 25.096 0 19.806 0C8.8846 0 0 8.8846 0 19.806C0 25.096 2.06028 30.0704 5.80146 33.8116C9.54263 37.5528 14.516 39.6131 19.806 39.6131C25.096 39.6131 30.0704 37.5528 33.8116 33.8116C37.5528 30.0704 39.6131 25.0971 39.6131 19.806C39.6131 14.5148 37.5528 9.54152 33.8116 5.80146H33.8105ZM19.806 38.9271C14.6984 38.9271 9.89739 36.9384 6.28603 33.327C2.67355 29.7146 0.684894 24.9136 0.684894 19.806C0.684894 14.6984 2.67355 9.89739 6.28491 6.28603C9.89739 2.67467 14.6984 0.684894 19.806 0.684894C24.9136 0.684894 29.7146 2.67355 33.3259 6.28491C36.9373 9.89627 38.9259 14.6984 38.9259 19.8049C38.9259 30.348 30.3491 38.9259 19.8049 38.9259L19.806 38.9271Z" fill="black"/>
<path d="M17.127 2.47266H18.5784L19.8912 5.90944L21.205 2.47266H22.6565V7.29825H21.6907V3.92862L20.4194 7.29825H19.3641L18.0927 3.92862V7.29825H17.127V2.47266Z" fill="black"/>
<path d="M30.7171 13.614L29.8408 12.5229L31.5866 9.97017L31.5766 9.95786L28.7161 11.134L27.832 10.0507L30.8592 6.15625L31.6057 7.07839L29.7099 9.55834L32.6073 8.31501L33.4074 9.30318L31.5889 11.8794L34.409 10.5398L35.1555 11.4619L30.7171 13.614Z" fill="black"/>
<path d="M30.7619 19.8048C30.7619 13.7538 25.8557 8.84766 19.8047 8.84766V19.8048H30.7619Z" fill="white"/>
<path d="M19.8048 30.7619V19.8047H8.84766C8.84766 25.8557 13.7538 30.7619 19.8048 30.7619Z" fill="white"/>
<path d="M19.8047 30.7619C25.8557 30.7619 30.7619 25.8557 30.7619 19.8047H19.8047V30.7619Z" fill="black"/>
<path d="M8.84766 19.8048H19.8048V8.84766C13.7538 8.84766 8.84766 13.7538 8.84766 19.8048Z" fill="black"/>
<path d="M19.8979 5.92867L19.8898 5.91016L19.8828 5.92867H19.8979Z" fill="black"/>
<path d="M11.1994 8.62929C10.8111 8.25215 10.2112 8.138 9.64833 8.48716C9.75577 8.2085 9.71212 7.92425 9.65505 7.76646C9.4122 7.32441 9.32715 7.26845 9.12795 7.10059C8.47998 6.55782 7.79957 7.02113 7.31163 7.60195L4.95703 10.4076L8.65904 13.5131L11.1423 10.5542C11.7097 9.87821 11.797 9.20787 11.2005 8.62817L11.1994 8.62929ZM6.41075 9.98229L7.82531 8.29691C7.98869 8.10219 8.35912 8.11002 8.59749 8.30922C8.85936 8.52857 8.86048 8.8408 8.68478 9.05007L7.28701 10.7164L6.41187 9.98229H6.41075ZM10.3131 10.2632L8.83922 12.0202L7.91483 11.2446L9.40101 9.4731C9.56888 9.27278 9.94266 9.21458 10.1956 9.42609C10.4809 9.66558 10.5089 10.0293 10.3131 10.2632Z" fill="black"/>
</svg>
