<svg width="25" height="25" viewBox="0 0 25 25" fill="none" xmlns="http://www.w3.org/2000/svg">
<path d="M12.485 0C5.59039 0 0 5.59039 0 12.485C0 19.3796 5.59039 24.97 12.485 24.97C19.3796 24.97 24.97 19.3796 24.97 12.485C24.97 5.59039 19.3796 0 12.485 0ZM12.485 24.0653C6.09651 24.0653 0.904673 18.8475 0.904673 12.485C0.904673 6.12244 6.09555 0.904673 12.485 0.904673C18.8744 0.904673 24.0653 6.09555 24.0653 12.485C24.0653 18.8744 18.8475 24.0653 12.485 24.0653Z" fill="black"/>
<path d="M12.4846 0.902344C6.09614 0.902344 0.904297 6.09322 0.904297 12.4827C0.904297 18.8721 6.09517 24.0629 12.4846 24.0629C18.874 24.0629 24.0649 18.8452 24.0649 12.4827C24.0649 6.12011 18.8471 0.902344 12.4846 0.902344ZM12.4846 23.6365C6.33527 23.6365 1.33075 18.632 1.33075 12.4827C1.33075 6.33332 6.33527 1.32876 12.4846 1.32876C18.6339 1.32876 23.6385 6.30643 23.6385 12.4827C23.6385 18.6589 18.6339 23.6365 12.4846 23.6365Z" fill="white"/>
<path d="M12.4859 1.33203C6.33655 1.33203 1.33203 6.3097 1.33203 12.4859C1.33203 18.6621 6.33655 23.6398 12.4859 23.6398C18.6352 23.6398 23.6398 18.6353 23.6398 12.4859C23.6398 6.33659 18.6352 1.33203 12.4859 1.33203Z" stroke="black" stroke-width="0.383791" stroke-miterlimit="10"/>
<path fill-rule="evenodd" clip-rule="evenodd" d="M6.49609 7.85547C6.73523 8.06867 7.10884 8.46819 7.66778 8.46819C8.22672 8.46819 8.67906 8.25498 9.07858 8.25498C9.37149 8.25498 9.87762 8.41441 10.1168 8.92053C9.98326 8.81393 9.71723 8.6814 9.26489 8.6814C8.94508 8.6814 8.38612 9.0012 7.90689 9.0012C7.16163 9.0012 6.73523 8.38848 6.49609 7.85643V7.85547Z" fill="black"/>
<path fill-rule="evenodd" clip-rule="evenodd" d="M10.542 5.7517L9.21094 2.66406C9.76988 2.66406 10.3288 2.90319 10.3288 3.35649C10.3288 3.48999 10.276 3.64942 10.1694 3.80884C10.1694 3.82677 10.1783 3.83573 10.1963 3.83573C10.3029 3.72912 10.4354 3.64942 10.5958 3.64942C10.8887 3.64942 11.1019 3.88856 11.1019 4.18147C11.1019 4.4475 10.8887 4.68758 10.5958 4.68758H10.4892C10.5161 4.79419 10.8887 5.0074 11.3142 5.0074C11.634 5.0074 12.0066 4.8739 12.2188 4.44845C12.1391 4.52816 12.0056 4.55505 11.899 4.55505C11.6061 4.55505 11.367 4.34186 11.367 4.04894C11.367 3.75602 11.6061 3.51688 11.899 3.51688C12.0056 3.51688 12.1123 3.54377 12.192 3.59659C12.0854 3.51688 12.0057 3.38339 12.0057 3.22396C12.0057 2.95794 12.2448 2.71784 12.5377 2.71784C12.8306 2.71784 13.0698 2.95698 13.0698 3.22396C13.0698 3.35745 13.0169 3.48999 12.9103 3.5697C12.99 3.54281 13.0697 3.51688 13.1494 3.51688C13.4424 3.51688 13.6815 3.75602 13.6815 4.04894C13.6815 4.34186 13.4424 4.55505 13.1494 4.55505C13.016 4.55505 12.9103 4.50223 12.8037 4.44845C12.8835 4.66166 13.283 5.03428 13.7622 5.03428C14.0282 5.03428 14.3211 4.92768 14.5872 4.68855H14.5074C14.1876 4.68855 13.9485 4.44941 13.9485 4.18242C13.9485 3.88951 14.1876 3.65038 14.5074 3.65038C14.6409 3.65038 14.7735 3.73008 14.8801 3.83669H14.907C14.907 3.83669 14.9338 3.83668 14.9338 3.80979C14.8004 3.65037 14.7475 3.48999 14.7475 3.35746C14.7475 2.90512 15.3065 2.66502 15.8385 2.66502L14.5603 5.72673H10.7005C10.6476 5.72673 10.5939 5.72673 10.5411 5.75362L10.542 5.7517Z" fill="black"/>
<path fill-rule="evenodd" clip-rule="evenodd" d="M10.1428 6.419C10.1956 6.09919 10.4357 5.72656 10.7017 5.72656H14.5615C14.6412 5.80627 14.7209 5.91288 14.8006 6.01948C15.0667 5.91288 15.3327 5.88599 15.5459 5.88599C15.7322 5.88599 15.8657 5.91287 15.8916 5.91287C15.8916 5.91287 16.051 5.93977 16.0779 5.99259C15.8916 6.41804 15.7581 6.65814 15.5987 6.87134C16.2642 7.56378 16.5303 8.41563 16.3977 9.50663C16.2114 9.40003 15.8388 9.24061 15.6256 9.18683C15.9713 9.71888 16.0779 10.1981 16.0779 10.7311C16.0779 11.1037 15.9982 11.5033 15.8388 11.8759L15.7322 12.1688C15.519 11.8759 15.3596 11.6627 15.1195 11.4764C15.1723 11.6627 15.253 12.0622 15.253 12.3282C15.253 13.0466 14.9601 13.6862 14.2945 14.1117C14.161 13.7659 13.895 13.2598 13.629 12.94C13.6558 13.6055 13.6289 14.3777 13.3629 14.8829C12.8568 15.5484 12.1653 15.9479 11.0734 16.2139C11.2597 15.7616 11.4191 14.5631 11.3394 13.1263C11.1262 13.4461 10.8871 14.0579 10.8074 14.83C10.5413 14.6168 9.74226 14.031 9.74226 12.9928C9.74226 12.5674 9.90173 12.141 10.1687 11.7155C9.79608 11.8749 9.53002 12.115 9.26399 12.6471C9.18428 11.9018 9.31681 11.1028 9.6904 10.517C8.73193 10.4901 8.46594 9.93112 8.51876 9.07926C8.78478 9.3184 9.0777 9.47877 9.47722 9.47877C9.87674 9.47877 10.3819 9.31935 10.888 8.65381C10.6489 8.52032 10.4357 8.4406 10.2753 8.38778C10.089 8.33496 9.79607 8.28118 9.50315 7.90855C9.39655 7.77506 9.21023 7.74912 8.99703 7.74912C8.731 7.74912 8.33147 7.80194 7.71875 8.12175C7.79846 6.57746 8.54371 6.09823 9.12955 6.09823C9.42246 6.09823 9.76823 6.20483 10.1409 6.41803L10.1428 6.419Z" fill="black"/>
<path fill-rule="evenodd" clip-rule="evenodd" d="M6.94817 16.7695C7.93352 16.7695 8.83822 16.929 8.83822 17.7549H7.5071C7.5071 17.4091 7.26798 17.3554 6.94817 17.3554C6.65525 17.3554 6.44205 17.4351 6.44205 17.6483C6.44205 17.8615 6.62838 17.9681 7.10761 17.9681C8.30521 17.9681 8.83821 18.1813 8.94481 18.7402L9.71696 16.8233H11.4476L12.2725 18.8728L13.1244 16.8233H14.8281L15.7866 19.086V16.8233H18.5285C19.2209 16.8233 19.3803 17.3025 19.3803 17.5955C19.3803 17.8615 19.2737 18.2341 18.7417 18.3138C19.3544 18.3666 19.4869 18.8199 19.4869 19.086C19.4869 19.4058 19.2478 19.9109 18.662 19.9109H14.9347L14.7484 19.4317H13.231L13.0178 19.9109H11.5532L11.34 19.4317H9.82261L9.60939 19.9109H8.43775L8.54434 19.6449C8.35802 19.8043 8.03821 19.9906 6.9741 19.9906C5.91 19.9906 5.05718 19.7774 5.03125 18.9525H6.38924C6.38924 19.1388 6.52272 19.352 6.94817 19.352C7.48022 19.352 7.53401 19.1926 7.53401 19.0591C7.53401 18.8728 7.40052 18.7133 6.76186 18.7133C5.83029 18.7133 5.16476 18.5539 5.16476 17.8087C5.16476 16.9568 6.15009 16.7705 6.94817 16.7705V16.7695ZM13.5239 18.7133H14.4555L13.9763 17.5686L13.5239 18.7133ZM10.1165 18.7133H11.048L10.5688 17.5686L10.1165 18.7133ZM17.8888 18.0209C17.9955 18.0209 18.1021 17.9143 18.1021 17.7818C18.1021 17.6752 17.9955 17.5686 17.8888 17.5686H16.9035V18.0209H17.8888ZM16.9045 19.1119H17.9426C18.0761 19.1119 18.1818 19.0053 18.1818 18.8987C18.1818 18.7652 18.0752 18.6855 17.9426 18.6855H16.9045V19.1109V19.1119Z" fill="black"/>
<path fill-rule="evenodd" clip-rule="evenodd" d="M11.288 6.89453C11.288 7.00113 11.1544 7.16056 10.9153 7.16056C10.7021 7.16056 10.5955 7.02707 10.5696 6.92142C10.5168 6.92142 10.463 6.92142 10.4102 6.89453C10.4102 7.26716 10.6762 7.37376 10.9422 7.37376C11.1285 7.37376 11.4214 7.32094 11.5011 6.89453H11.288Z" fill="white"/>
<path fill-rule="evenodd" clip-rule="evenodd" d="M10.1177 6.78727C9.74511 6.57406 9.39934 6.44153 9.13236 6.44153C8.4937 6.44153 8.2277 7.1599 8.12109 7.55942C8.46683 7.45281 8.75974 7.39999 8.99983 7.39999C9.34557 7.39999 9.58567 7.47971 9.77199 7.69291C9.9583 7.95894 10.1984 8.01272 10.2781 8.01272C10.6238 8.11932 11.2366 8.33252 11.2366 8.62544C11.2366 8.67826 11.2366 8.75893 11.1569 8.83864C10.5441 9.61079 9.98519 9.824 9.50596 9.824C9.26682 9.824 9.07954 9.77118 8.92012 9.7174C9.05361 10.09 9.42622 10.1697 9.71914 10.1697C9.95827 10.1697 10.1715 10.1429 10.6239 10.0362C10.1446 10.4089 9.74508 10.8881 9.63848 11.6334C10.0649 11.3136 10.5172 11.2338 10.9965 11.2338C10.4375 11.8197 10.1177 12.4055 10.1177 12.9904C10.1177 13.5753 10.3838 13.9488 10.5701 14.1621C10.7833 13.1767 11.2884 12.5649 11.6083 12.2451C11.7946 13.629 11.6879 15.1205 11.5813 15.7054C12.1672 15.4922 12.6723 15.2262 13.0718 14.6941C13.311 14.2946 13.3379 13.1239 13.2582 12.1654C13.7643 12.4852 14.2166 13.0701 14.4298 13.5493C14.7228 13.2564 14.8822 12.8569 14.8822 12.3248C14.8822 11.739 14.6959 11.2069 14.5096 10.8074C14.935 10.9409 15.3086 11.1272 15.6005 11.473C15.6803 11.207 15.7341 10.9669 15.7341 10.7008C15.7341 9.76925 15.2279 9.10371 14.8822 8.75797C15.4411 8.75797 15.7609 8.86457 16.0798 8.97118C16.1066 8.38534 15.9463 7.69291 15.4142 7.13396C14.935 7.69291 14.4827 8.01272 13.577 8.33157C14.3761 8.94429 14.1359 9.87586 13.3907 10.8074C13.311 10.4079 13.2044 10.0622 12.9383 9.76926C12.9912 10.2754 12.8587 11.207 11.8205 11.7121C11.8474 11.3126 11.7936 10.9669 11.7139 10.6211C11.6341 10.7008 11.5007 10.8074 11.3682 10.914C11.3413 10.8074 11.3153 10.6211 11.3412 10.4876C11.5276 10.3282 11.687 10.115 11.8733 9.90179C12.0327 10.3013 12.1124 10.8334 12.1393 11.0735C12.512 10.7277 12.8048 10.0881 12.4322 8.94429C12.9912 9.23721 13.2841 9.53012 13.4973 10.0094C14.0831 9.024 13.4704 8.51884 12.5657 8.17214C13.6308 8.03865 14.935 7.55942 15.6005 6.22929C15.1482 6.2024 14.4558 6.36278 13.7902 7.21464C13.7105 7.16182 13.6039 7.08114 13.577 7.00143C13.8431 6.6288 14.1628 6.33588 14.5086 6.14957C14.4817 6.09675 14.4558 6.04297 14.4289 6.04297H10.7285C10.595 6.04297 10.4625 6.28211 10.4087 6.54909C10.4884 6.57598 10.6219 6.57599 10.7545 6.57599H11.1809C11.4469 6.57599 11.8464 6.60287 12.0855 6.76229C12.0586 6.8689 12.0058 6.94861 11.952 7.00143C11.8992 6.97454 11.8455 6.97455 11.7926 6.94862C11.6591 7.56134 11.2337 7.69387 10.9408 7.69387C10.1955 7.69387 10.062 7.10804 10.1158 6.78919L10.1177 6.78727Z" fill="white"/>
</svg>
