<svg width="35" height="19" viewBox="0 0 35 19" fill="none" xmlns="http://www.w3.org/2000/svg">
<path d="M24.9546 13.4987L17.5 3.0563L10.0454 13.4987C7.52793 13.244 3.20182 11.5375 3.20182 8.5067C3.20182 4.68633 9.55656 1.12064 17.5244 1.12064C25.9078 1.12064 31.8471 4.68633 31.8471 8.5067C31.8471 11.563 27.4965 13.2694 25.0035 13.4732M17.5 0C7.18575 0 0 4.20241 0 9.62735C0 12.1743 1.56425 15.0268 4.88827 16.7587C7.99232 18.3633 12.3429 18.9236 12.9539 19L17.5 5.17024L22.0461 19C24.8267 18.6754 27.5452 17.92 30.1117 16.7587C33.4358 15.0268 35 12.1743 35 9.62735C34.9756 4.17694 27.8142 0 17.5 0Z" fill="black"/>
</svg>
