<svg width="27" height="28" viewBox="0 0 27 28" fill="none" xmlns="http://www.w3.org/2000/svg">
<path d="M13.5 26.7116C6.77728 26.7116 1.2692 20.9717 1.2692 14C1.2692 12.4319 1.53889 10.9481 2.05254 9.54861L9.20759 24.472C9.28891 24.6684 9.42375 24.836 9.63992 24.836C9.85608 24.836 9.99092 24.6684 10.0722 24.472L13.3662 16.8278C13.3929 16.7434 13.4475 16.6602 13.5278 16.6602C13.6081 16.6602 13.6359 16.7445 13.6894 16.8278L16.9833 24.472C17.0647 24.6684 17.1995 24.836 17.4157 24.836C17.6318 24.836 17.7667 24.6684 17.848 24.472L25.003 9.54861C25.5157 10.9481 25.7864 12.4329 25.7864 14C25.7329 20.9717 20.2248 26.7116 13.5021 26.7116H13.5ZM13.5 11.1157C13.4187 11.1157 13.3919 11.0313 13.3384 10.9481L9.50404 1.98872C10.7465 1.51262 12.096 1.26069 13.5 1.26069C14.904 1.26069 16.2535 1.51262 17.496 1.98872L13.6616 10.9481C13.6081 11.0602 13.5803 11.1157 13.5 11.1157ZM9.58536 20.328C9.50404 20.328 9.47728 20.2437 9.42375 20.1604L3.21365 7.1692C4.3202 5.40572 5.80556 3.92085 7.61414 2.8854L12.096 13.2175C12.1495 13.3851 12.2854 13.4417 12.4202 13.4417H14.5798C14.7414 13.4417 14.8495 13.414 14.9308 13.2175L19.4126 2.8854C21.1944 3.92085 22.7066 5.40572 23.8131 7.1692L17.5495 20.1604C17.5227 20.2448 17.4682 20.328 17.3879 20.328C17.3076 20.328 17.2798 20.2437 17.2263 20.1604L14.8773 14.617C14.796 14.4206 14.6879 14.3928 14.5263 14.3928H12.3667C12.2051 14.3928 12.097 14.4206 12.0157 14.617L9.748 20.1604C9.72124 20.2448 9.66668 20.328 9.58639 20.328H9.58536ZM13.5 28C20.9793 28 27 21.7563 27 14C27 6.24369 20.9793 0 13.5 0C6.0207 0 0 6.24369 0 14C0 21.7563 6.0207 28 13.5 28Z" fill="black"/>
</svg>
