<svg width="27" height="34" viewBox="0 0 27 34" fill="none" xmlns="http://www.w3.org/2000/svg">
<path d="M12.4418 13.9675C12.4031 14.001 12.3941 14.0436 12.416 14.0487C12.5425 14.0771 12.6573 14.0604 12.6741 13.9081C12.6793 13.8526 12.7812 13.7171 12.6909 13.7765C12.5902 13.841 12.5038 13.9132 12.4418 13.9675Z" fill="black"/>
<path d="M14.8809 13.224H15.1416L15.1984 13.4511H15.4229L15.1428 12.3555H14.8873L14.5957 13.4601H14.8202L14.8822 13.2253L14.8809 13.224ZM15.0099 12.58L15.1106 13.0227H14.9145L15.0099 12.58Z" fill="black"/>
<path d="M13.9885 13.4371C14.075 13.4733 14.1821 13.4733 14.2376 13.4487C14.2711 13.432 14.3408 13.3791 14.3447 13.3726V13.4539H14.5047V12.859H14.1705V13.0216H14.2995C14.3021 13.1003 14.3021 13.1868 14.2711 13.2319C14.2092 13.3249 14.084 13.3158 14.0363 13.1674C14.0169 13.1029 14.0143 12.9648 14.0143 12.8667C14.0118 12.7041 14.0118 12.597 14.0595 12.5196C14.0879 12.477 14.1524 12.4576 14.2143 12.4809C14.2724 12.5028 14.2957 12.5983 14.2931 12.6719H14.4944C14.5112 12.5338 14.4247 12.3725 14.3125 12.3325C14.2195 12.2989 14.075 12.2989 13.9963 12.3441C13.884 12.4086 13.8027 12.579 13.8001 12.7338C13.8001 12.8796 13.786 13.05 13.8169 13.1829C13.8479 13.3094 13.9175 13.4075 13.9911 13.4384L13.9885 13.4371Z" fill="black"/>
<path d="M13.3234 13.4549H13.5337V12.5361H13.7802V12.3477H13.082V12.5361H13.3234V13.4549Z" fill="black"/>
<path d="M12.5303 13.4549H12.7394V12.5335H12.9872V12.3477H12.2891V12.5335H12.5303V13.4549Z" fill="black"/>
<path d="M5.25378 10.9696C5.36347 10.9528 5.46412 10.8805 5.53122 10.8044C5.59833 10.7282 5.67964 10.5037 5.70287 10.3553C6.62558 9.80295 7.58697 9.33191 8.67486 9.12672C9.19622 9.03123 9.82214 9.05704 10.3461 9.24158C10.5655 9.31772 10.9991 9.58873 11.2624 9.8636C11.2365 9.37837 10.6596 8.85443 10.2725 8.60407C10.2441 8.37953 10.7152 7.97044 10.9733 7.82977C10.3796 7.7317 9.88278 8.16401 9.65566 8.46083C9.5821 8.43889 9.24012 8.41566 9.04784 8.41824C9.05042 8.40146 9.14594 8.03109 9.20272 7.90849C9.27886 7.74331 9.37431 7.58071 9.5111 7.4594C9.58724 7.38971 9.68792 7.3226 9.74986 7.23485C9.48273 7.20388 9.19755 7.34196 8.99881 7.50069C8.72135 7.72266 8.49678 8.13433 8.32514 8.50729C8.13157 8.54987 7.79475 8.64408 7.6528 8.69828C7.68635 8.39759 7.84123 8.00786 8.03094 7.69685C8.17676 7.45553 8.38454 7.2284 8.61941 7.0245C8.18709 6.99869 7.62697 7.44778 7.41404 7.7446C7.31596 7.88268 7.23212 8.03625 7.16243 8.19369C7.05532 8.4376 6.96886 8.68925 6.90433 8.94735C6.63204 9.04542 6.37133 9.14608 6.07194 9.28675C6.21776 8.45438 6.31586 7.96915 6.70559 7.51231C6.94691 7.23227 7.12109 7.1058 7.14819 7.0658C6.60747 7.03224 5.93127 7.66072 5.71188 8.28274C5.63832 8.49309 5.55187 8.68408 5.50154 8.90863C5.45122 9.13318 5.35831 9.64551 5.35057 9.6739C5.31959 9.68809 5.26666 9.73197 5.23053 9.74358C5.19439 9.73197 5.15179 9.69841 5.11307 9.67906C5.02016 9.63647 4.91694 9.60292 4.81628 9.62357C4.72337 9.64034 4.54397 9.74616 4.50783 9.99394C4.48202 10.1617 4.30654 10.2688 4.27557 10.4456C4.23944 10.6444 4.37367 10.7708 4.46013 10.816C4.5866 10.8831 4.78532 10.8302 4.86146 10.8715C4.9789 10.9334 5.11957 10.9889 5.25636 10.967L5.25378 10.9696Z" fill="black"/>
<path d="M15.7585 12.9853H15.8928C16.0024 12.9853 15.9908 13.2511 15.996 13.3634C15.9985 13.4047 16.0012 13.4563 16.0296 13.4563H16.2399C16.2399 13.4563 16.2115 13.4176 16.2089 13.3892C16.2037 13.2937 16.2012 13.1453 16.1973 13.1027C16.1883 13.0188 16.1547 12.9349 16.0967 12.8782C16.2089 12.8304 16.2115 12.7156 16.2115 12.6175C16.2115 12.4691 16.116 12.3594 15.925 12.3594H15.5469V13.4524H15.7572V12.984L15.7585 12.9853ZM15.7534 12.5181H15.9108C16.0567 12.5181 16.0592 12.8123 15.8682 12.8123H15.7534V12.5181Z" fill="black"/>
<path d="M16.5174 13.4588H16.7278V12.5361H16.9717V12.3477H16.2773V12.5361H16.5174V13.4588Z" fill="black"/>
<path d="M12.7424 4.27159H14.2755C14.3335 4.27675 14.38 4.32192 14.3839 4.37999C14.389 4.44452 14.34 4.5013 14.2755 4.50646H12.2713L12.2739 5.01105H14.5246C14.7491 5.01105 14.9285 4.92459 14.9762 4.76714C15.0266 4.6097 15.0382 4.22901 14.9762 4.05995C14.9207 3.90251 14.7439 3.78249 14.5452 3.78249H12.843C12.7256 3.78249 12.7282 3.54375 12.834 3.54375L14.993 3.54633L14.9878 3.05336L12.7062 3.05078C12.5604 3.05078 12.3836 3.10111 12.2855 3.28049C12.1965 3.43406 12.1965 3.89993 12.2855 4.04318C12.3888 4.21739 12.5462 4.2703 12.7424 4.2703V4.27159Z" fill="black"/>
<path d="M9.7434 5.14693L9.7124 4.39586L11.2262 4.28616C11.2262 4.28616 11.2288 4.28616 11.2301 4.28616C11.3346 4.28358 11.4197 4.36746 11.4223 4.4707L11.4301 5.03466L11.9204 5.0153L11.9153 4.50813C11.9127 4.29262 11.8766 4.13776 11.7359 4.03452C11.905 3.91966 11.8959 3.6422 11.8792 3.42669C11.865 3.24473 11.6946 3.02535 11.403 3.04858L9.14844 3.21634L9.25172 5.19855L9.74208 5.14822L9.7434 5.14693ZM11.101 3.53251C11.2778 3.51574 11.2946 3.81513 11.101 3.82675L9.67629 3.91708L9.65947 3.64221L11.101 3.53251Z" fill="black"/>
<path d="M12.1724 13.1207V12.3529H11.9672V13.1401C11.9672 13.3143 11.7091 13.3143 11.7091 13.1426V12.3516H11.5039V13.1336C11.5039 13.5788 12.1711 13.5788 12.1711 13.1194L12.1724 13.1207Z" fill="black"/>
<path d="M18.8984 4.68468L20.5076 4.95182L20.4496 5.71708L20.9825 5.81516L21.1477 3.80198L20.6006 3.69745L20.5476 4.46917L18.9152 4.20591L18.9719 3.43419L18.4364 3.35547L18.3125 5.36349L18.8365 5.4422L18.8984 4.68468Z" fill="black"/>
<path d="M15.8252 5.08151C16.5518 5.13184 17.2525 5.23895 17.9223 5.26992L17.9533 4.75114C17.4435 4.71759 16.5066 4.6337 16.024 4.56531C15.971 4.55627 15.9091 4.45562 15.9091 4.41949C15.9091 4.14203 15.9182 3.92909 15.9427 3.76391C15.9504 3.70713 16.024 3.6426 16.1298 3.64647C16.7557 3.67228 17.5623 3.79746 17.9881 3.83489L18.0216 3.31869C17.1441 3.20125 16.6112 3.14189 15.9414 3.11737C15.7194 3.11221 15.5232 3.21803 15.4781 3.42322C15.411 3.75617 15.3891 4.32915 15.402 4.70726C15.411 4.93697 15.5839 5.06602 15.8226 5.0828L15.8252 5.08151Z" fill="black"/>
<path d="M3.86892 6.15617L3.7928 5.37671L5.37366 4.98182C5.94019 4.84115 5.83696 3.63583 5.15816 3.79585L3.19531 4.25785L3.37206 6.2878L3.86766 6.15617H3.86892ZM5.11682 4.29398C5.29104 4.25785 5.31301 4.5495 5.15041 4.58563L3.72311 4.93923L3.68952 4.63854L5.11682 4.29398Z" fill="black"/>
<path d="M0 1.71466L1.32667 21.3548C1.49185 23.4183 3.40178 26.7826 6.05892 28.8552C7.98176 30.3573 10.2001 31.8827 13.598 33.4313C17.2488 31.5136 18.9807 30.5238 20.9939 28.6874C23.713 26.4974 25.2861 23.0737 25.4577 21.3135L26.8037 1.8721C18.5381 -0.569522 8.98317 -0.623723 0 1.71466ZM23.9181 20.6682C23.78 22.6362 22.4456 25.1992 20.186 27.2601C18.3638 28.8332 16.0641 30.4257 13.5347 31.7072C11.3396 30.8774 8.36758 28.7132 6.85124 27.4227C4.3309 25.2805 3.01591 22.4853 2.88686 20.6566L1.64797 3.06839C9.49808 1.00489 18.0192 1.03844 25.1325 3.30714L23.9181 20.6682Z" fill="black"/>
<path d="M3.42135 20.3414C3.57492 22.4836 4.59312 24.7497 7.09669 26.9139C8.53172 28.1528 11.5153 30.4576 13.5337 31.0835C15.7933 30.0046 18.1459 28.3128 19.892 26.8042C22.2162 24.6233 23.2395 22.5172 23.4138 20.313L24.6165 3.74815C17.8375 1.58656 9.67899 1.58656 2.20312 3.55199L3.42009 20.3414H3.42135ZM3.0187 7.19378C6.66049 6.17558 10.0958 5.87876 13.2305 5.87876L13.2331 11.3905L9.20408 11.3931L9.2131 11.7802C9.13437 11.7996 8.93823 11.8112 8.80143 11.7996C8.79627 11.6821 8.92795 11.4318 9.00925 11.304C9.08797 11.1827 9.26474 10.9814 9.43251 10.8549C9.27506 10.8046 9.05696 10.8833 8.90855 10.9646C8.72272 11.0653 8.43235 11.3763 8.28265 11.6537C8.2349 11.7402 8.20654 11.8331 8.12008 11.8809C7.99103 11.8899 7.79231 11.9312 7.5897 11.9906C7.6039 11.8757 7.62066 11.7725 7.67357 11.6318C7.73551 11.4744 7.81679 11.3234 7.90325 11.1827C8.00907 11.0149 8.27881 10.7336 8.40786 10.6213C8.01813 10.6136 7.4916 10.9943 7.24124 11.3814C7.15478 11.5182 7.10055 11.6034 7.01666 11.7996C6.96375 11.926 6.93021 12.0835 6.86827 12.2203C6.71083 12.2706 6.44245 12.3609 6.23468 12.4526C6.21145 12.3687 6.21143 12.3209 6.24627 12.1919C6.34177 11.8112 6.54308 11.3621 6.76247 11.0704C6.85539 10.944 7.17157 10.6614 7.19738 10.6226C6.94186 10.6059 6.59729 10.7633 6.37532 10.9595C6.09528 11.215 5.82558 11.7028 5.71331 12.0422C5.66814 12.1828 5.6565 12.2796 5.62295 12.4319C5.59456 12.5726 5.5636 12.752 5.54425 12.81C5.52102 12.832 5.49387 12.8475 5.4629 12.8578C5.31449 12.7791 5.12095 12.7068 4.98028 12.7958C4.77896 12.9249 4.81769 13.1404 4.7622 13.1972C4.70025 13.2565 4.62149 13.3288 4.59439 13.4217C4.56342 13.5508 4.60862 13.725 4.69509 13.7857C4.88866 13.9224 5.06805 13.8502 5.15193 13.8192C5.23323 13.7882 5.41904 14.0012 5.57777 13.9315C5.66681 13.8928 5.75972 13.8024 5.79586 13.716C5.83844 13.6205 5.83459 13.4166 5.84879 13.3791C6.47081 12.9507 7.94327 12.4874 8.53174 12.4177C8.75371 12.3893 9.19892 12.4229 9.19892 12.4603V14.1625C9.13697 14.1741 8.87628 14.3225 8.73691 14.4322C8.56914 14.5612 8.4672 14.7122 8.32783 14.8387C8.25169 14.8387 8.06457 14.8387 7.94326 14.8581C7.94326 14.8155 7.95747 14.729 7.98586 14.6477C8.08136 14.3702 8.21298 14.1818 8.36784 13.9741C8.17169 13.965 7.82711 14.1702 7.60772 14.507C7.53803 14.6167 7.45287 14.8013 7.39222 14.9561C7.2993 14.9652 7.10958 15.0155 7.01666 15.0658C7.00247 15.0103 7.03348 14.9058 7.058 14.8168C7.11994 14.5922 7.28513 14.2425 7.51742 13.9895C7.27094 13.9676 6.89151 14.2554 6.75214 14.5225C6.6347 14.7445 6.52502 15.0439 6.47211 15.3213C6.35725 15.3859 6.18303 15.4865 6.01785 15.6104C6.00882 15.4504 6.0256 15.333 6.06045 15.182C6.11077 14.9471 6.21787 14.5987 6.33272 14.3883C6.39467 14.2735 6.42178 14.2141 6.50695 14.1018C6.29144 14.0825 6.00236 14.3122 5.85654 14.5509C5.77523 14.6825 5.66553 14.9148 5.6152 15.0749C5.55583 15.2607 5.54554 15.3691 5.51973 15.5601C5.50812 15.6582 5.52489 15.835 5.51715 15.9472C5.49779 15.964 5.42166 16.0311 5.39327 16.0427C5.36746 16.0492 5.34031 16.0453 5.31708 16.0311C5.23836 15.9885 5.12866 15.986 5.05123 16.0363C4.87702 16.1511 4.908 16.3396 4.90284 16.3873C4.89768 16.4376 4.80478 16.5925 4.82155 16.7099C4.83317 16.8054 4.95061 16.9706 5.08224 16.9422C5.20612 16.9138 5.34031 16.9332 5.43838 16.9667C5.5584 17.0055 5.77525 16.8661 5.77525 16.6802C5.77525 16.5964 5.78041 16.4867 5.84236 16.4363L6.47337 15.9369C6.69791 15.7601 7.19088 15.5472 7.34187 15.4878C7.96647 15.2439 8.98215 15.3614 9.20024 15.524V17.5475H3.76981L3.0187 7.19378ZM9.19766 14.4619V15.0736C9.11119 15.0142 8.9279 14.9329 8.83628 14.8994C8.87887 14.7935 9.09184 14.5574 9.19766 14.4619ZM5.01639 23.5612C4.46922 22.7456 4.0718 21.5674 4.03824 20.5917L9.87259 20.5969C10.5062 21.73 12.1077 22.4217 13.1556 22.4217L13.1724 23.5599H5.01639V23.5612ZM13.1801 30.4292C11.447 29.6523 8.81179 27.7372 7.67357 26.7139L13.1969 26.7255L13.1801 30.4292ZM9.64543 18.0469V11.8564L17.2349 11.8589L17.2323 18.0998C17.2323 23.2334 9.64543 23.2334 9.64543 18.0469ZM22.8614 20.2949C22.6795 22.8127 21.4883 24.56 19.7191 26.2841C18.626 27.3527 16.058 29.2987 13.717 30.4873L13.7144 22.4204C14.2719 22.3984 14.9287 22.2294 15.4307 21.9803C15.4024 22.2023 15.3611 22.4514 15.3043 22.6669C15.2191 22.7211 15.1275 22.7649 15.032 22.7985C14.9623 22.7869 14.9055 22.743 14.8358 22.7288C14.7662 22.7172 14.6655 22.7533 14.6306 22.774C14.4538 22.8811 14.499 23.0876 14.49 23.1302C14.4706 23.2347 14.3777 23.3495 14.3868 23.445C14.3958 23.5651 14.4628 23.6696 14.5635 23.7109C14.6229 23.7367 14.7648 23.7728 14.8797 23.7135C14.9636 23.6683 15.1262 23.7832 15.241 23.6993C15.3275 23.6373 15.3868 23.4773 15.3675 23.3831C16.1237 22.845 17.2826 22.6036 17.924 22.472C18.6725 22.321 19.59 22.3455 20.2263 22.8308C20.3579 22.9288 20.5127 23.1082 20.6108 23.2734C20.6586 23.3547 20.6921 23.4412 20.7231 23.5289C20.8327 23.3805 20.7902 22.8811 20.5863 22.6036C20.505 22.4862 20.376 22.3571 20.2689 22.2668C20.1153 22.1378 19.8701 21.9777 19.7217 21.9352C19.781 21.8345 19.9371 21.7622 20.0159 21.73C20.1527 21.6771 20.2959 21.6487 20.4469 21.6577C20.3179 21.5403 19.9926 21.4951 19.7436 21.5519C19.5216 21.5996 19.3177 21.7067 19.1242 21.8268C18.9564 21.8074 18.6776 21.8126 18.6221 21.8009C18.608 21.77 18.6415 21.7003 18.6673 21.65C18.8493 21.3196 19.0764 21.1092 19.2842 20.9776C18.906 20.9182 18.5163 21.1854 18.2866 21.4344C18.1976 21.5351 18.1628 21.5828 18.1073 21.659C18.0621 21.7209 18.004 21.8461 17.9807 21.85C17.7897 21.8758 17.3329 21.9429 17.1897 21.9881C17.1948 21.9506 17.2026 21.9132 17.2116 21.8758C17.2813 21.6629 17.4362 21.4551 17.5678 21.3144C17.7111 21.1634 17.9498 20.9002 18.2543 20.7543C18.0221 20.6679 17.7588 20.7685 17.542 20.8769C17.1974 21.0615 16.9148 21.3402 16.7045 21.6654C16.6141 21.7829 16.4154 22.2178 16.405 22.2345C16.2644 22.2771 16.1044 22.3378 15.934 22.4088C15.9289 22.3972 15.9624 21.921 16.0321 21.6371C17.2749 20.6563 17.7085 19.2987 17.7085 17.9978L23.0266 18.003L22.8614 20.2962V20.2949ZM23.0679 17.501L17.7124 17.5036V14.5432L23.3054 14.5406L23.0666 17.501H23.0679ZM23.526 11.3944L13.7389 11.3995L13.7298 8.44943L23.7506 8.4404L23.526 11.3931V11.3944ZM24.0861 4.10045L23.8203 7.04408C17.6155 5.16512 10.141 4.98573 3.00584 6.77179L2.7645 3.87849C9.85193 2.01888 17.6582 2.12599 24.0874 4.10045H24.0861Z" fill="black"/>
<path d="M6.56536 5.53204C7.09575 5.48171 7.8107 5.40557 8.44692 5.2662C8.63146 5.22748 8.77211 5.09843 8.7863 4.93583C8.83663 4.37188 8.79153 3.95118 8.71926 3.54467C8.68829 3.36787 8.51147 3.25044 8.28434 3.26722C7.7875 3.30335 6.84027 3.45563 6.37827 3.56403C6.22987 3.59758 6.09562 3.75115 6.08401 3.89827C6.05561 4.29058 6.0892 4.86227 6.18212 5.27265C6.21825 5.44042 6.43118 5.54753 6.56668 5.53333L6.56536 5.53204ZM6.58993 4.1925C6.5951 4.14217 6.63246 4.08668 6.72667 4.06345C7.08543 3.98473 7.81199 3.8815 8.08686 3.86472C8.18752 3.85569 8.23272 3.89053 8.24433 3.94344C8.28047 4.07765 8.30108 4.48157 8.27785 4.63643C8.27269 4.68676 8.24433 4.75645 8.17981 4.77065C7.82105 4.84937 7.24933 4.92809 6.7641 4.9668C6.71635 4.96938 6.65445 4.93583 6.64671 4.88808C6.61316 4.68548 6.57313 4.32413 6.59119 4.1925H6.58993Z" fill="black"/>
<path d="M10.4117 13.4665C10.502 13.4471 10.6078 13.3632 10.6362 13.2923C10.6956 13.1464 10.6866 13.0342 10.6143 12.9283C10.5756 12.869 10.493 12.8277 10.4259 12.8083C10.3356 12.7799 10.2039 12.749 10.2077 12.6005C10.2077 12.5502 10.2813 12.4831 10.3394 12.4857C10.4349 12.4883 10.4827 12.5412 10.4827 12.6535H10.6594C10.6762 12.5334 10.6285 12.4289 10.5381 12.3734C10.4013 12.287 10.2219 12.287 10.089 12.4096C9.99353 12.496 9.95741 12.7128 10.0748 12.847C10.1729 12.9567 10.4594 12.967 10.4697 13.1387C10.4697 13.1477 10.4697 13.1568 10.4697 13.1645C10.4633 13.2445 10.3949 13.3039 10.3149 13.2974C10.262 13.2948 10.231 13.2587 10.2142 13.2355C10.1923 13.2019 10.1832 13.1632 10.1832 13.109H9.98449C9.96771 13.2187 10.0039 13.3387 10.0852 13.4007C10.1858 13.4768 10.3097 13.4871 10.4104 13.4652L10.4117 13.4665Z" fill="black"/>
<path d="M23.4632 5.97346L21.8965 5.57727L21.9301 5.25207L23.489 5.62502L23.5277 5.2211L21.9636 4.8404L21.9946 4.49583L23.5703 4.87653L23.6181 4.40034L21.5016 3.88672L21.3184 5.93087L23.4219 6.42771L23.4632 5.97346Z" fill="black"/>
<path d="M10.964 13.4549H11.1743V12.5335H11.4183V12.3477H10.7227V12.5335H10.964V13.4549Z" fill="black"/>
<path d="M17.6433 27.0344C17.5001 26.9105 17.3465 26.8124 17.1723 26.726C17.1775 26.6924 17.2032 26.664 17.2226 26.6421C17.3013 26.5672 17.3904 26.5053 17.4885 26.4601C17.2923 26.3982 17.0058 26.5634 16.9077 26.6511C16.8768 26.6511 16.6639 26.6601 16.6084 26.6601C16.5864 26.6601 16.5967 26.6008 16.6135 26.5698C16.709 26.3956 16.8354 26.2588 17.0535 26.1607C16.7206 26.0768 16.4793 26.3014 16.3102 26.5246C16.2625 26.5866 16.1928 26.6795 16.1644 26.7376C16.1193 26.7595 15.9489 26.7969 15.8818 26.8137C15.856 26.7969 15.856 26.7402 15.8624 26.7131C15.9218 26.4498 16.1373 26.2278 16.3722 26.0768C16.2715 26.0652 16.1709 26.0936 16.0754 26.1323C15.8625 26.2188 15.6237 26.4717 15.5179 26.6679C15.4753 26.744 15.394 26.9118 15.3669 26.9789C15.2985 27.006 15.2327 27.0383 15.1707 27.077C15.1707 27.0125 15.1759 26.8757 15.1901 26.8047C15.2378 26.5853 15.3811 26.322 15.5579 26.131C15.2972 26.1194 14.9939 26.4343 14.9023 26.6924C14.8352 26.8744 14.8016 27.0421 14.7874 27.2254C14.7706 27.237 14.7513 27.2499 14.7255 27.2641C14.6635 27.2254 14.5913 27.2138 14.5177 27.2473C14.4003 27.3002 14.4029 27.4577 14.3887 27.4745C14.3383 27.5222 14.2764 27.5777 14.2816 27.6706C14.2867 27.7584 14.3357 27.8306 14.3357 27.8306C14.3745 27.881 14.5577 27.8384 14.5848 27.8784C14.6352 27.9506 14.7707 27.9261 14.8326 27.8758C14.9242 27.7997 14.9385 27.7016 14.9359 27.6203C15.354 27.3815 15.8418 27.1686 16.3154 27.0628C16.4393 27.0344 16.6832 26.9983 16.8794 27.006C17.1788 27.0202 17.7285 27.2809 17.8975 27.4267C17.8304 27.2189 17.7208 27.0989 17.6459 27.0344H17.6433Z" fill="black"/>
<path d="M18.6492 24.5094C18.7111 24.4229 18.7692 24.3777 18.9073 24.3158C19.0028 24.2732 19.1228 24.2616 19.2518 24.2603C19.075 24.0719 18.795 24.1338 18.6233 24.1816C18.4917 24.2177 18.2 24.3971 18.1884 24.3971C18.0813 24.3829 17.8852 24.3635 17.7819 24.3545C17.7871 24.33 17.8129 24.281 17.8413 24.2371C17.9678 24.0435 18.3097 23.7738 18.5033 23.7131C18.302 23.6267 17.9794 23.7325 17.8284 23.8396C17.64 23.9738 17.3883 24.2629 17.2928 24.3829C17.1612 24.3829 16.9057 24.4216 16.6928 24.4707C16.7121 24.4177 16.7624 24.3158 16.8386 24.2048C16.9057 24.1042 17.1702 23.8628 17.3044 23.7699C17.4361 23.677 17.5793 23.5905 17.7664 23.5454C17.5948 23.4615 17.2115 23.5286 16.9728 23.6434C16.7999 23.7247 16.5444 23.9351 16.3676 24.219C16.3172 24.3003 16.2166 24.4887 16.1327 24.6178C15.9701 24.6849 15.8088 24.7571 15.65 24.8333C15.6604 24.6449 15.7314 24.4319 15.8075 24.29C15.8914 24.1274 15.9843 23.9906 16.1043 23.8383C16.174 23.7518 16.2385 23.7041 16.3508 23.6163C15.9843 23.6215 15.6759 23.8744 15.5016 24.1403C15.3803 24.3248 15.2861 24.5016 15.2216 24.7004C15.1829 24.8178 15.1235 24.961 15.0835 25.1017C15.0499 25.1185 15.0048 25.1404 14.9403 25.1727C14.8693 25.1585 14.8087 25.0914 14.7209 25.0991C14.5673 25.1185 14.455 25.223 14.4718 25.3934C14.4718 25.3934 14.3596 25.5056 14.3312 25.5844C14.295 25.6876 14.3531 25.8502 14.446 25.8876C14.5389 25.9263 14.668 25.8825 14.7093 25.8683C14.7376 25.8592 14.8912 25.9973 15.0512 25.916C15.1274 25.8799 15.1906 25.725 15.1635 25.5934C15.5894 25.3017 16.4218 24.9649 17.1006 24.8785C17.6245 24.8088 18.2814 24.8591 18.7821 25.0462C18.9421 25.1082 19.0376 25.1804 19.1692 25.2566C19.2621 25.3095 19.377 25.414 19.4609 25.5198C19.5112 25.3766 19.4222 25.1585 19.3628 25.0656C19.1976 24.8023 18.9163 24.6539 18.6479 24.5107L18.6492 24.5094Z" fill="black"/>
<path d="M16.2442 17.3742C16.3139 17.3497 16.3888 17.3407 16.4585 17.3626C16.5281 17.3833 16.5862 17.4323 16.6482 17.4684C16.7217 17.511 16.812 17.5407 16.8972 17.5252C16.9579 17.5136 17.0869 17.4349 17.0159 17.3587C16.9914 17.3329 16.954 17.3252 16.9191 17.3175C16.8688 17.3071 16.8185 17.2981 16.7682 17.2878C16.7153 17.2774 16.6546 17.2607 16.6314 17.2116C16.6107 17.1665 16.634 17.1136 16.6688 17.0787C16.7036 17.0452 16.7501 17.0245 16.7914 16.9987C16.9114 16.9251 17.0005 16.7922 16.9966 16.6516C16.9966 16.6309 16.9927 16.609 16.9798 16.5935C16.9579 16.5677 16.9153 16.5677 16.8856 16.5845C16.8559 16.6012 16.834 16.6296 16.8095 16.6529C16.7334 16.7303 16.6262 16.7755 16.5178 16.7767C16.4675 16.7767 16.4159 16.7677 16.3746 16.7393C16.3333 16.7109 16.3049 16.6606 16.3113 16.6116C16.3204 16.5483 16.3823 16.5032 16.4455 16.489C16.5088 16.4735 16.5733 16.4799 16.6379 16.4722C16.7114 16.4631 16.785 16.436 16.8418 16.3883C16.8985 16.3393 16.9372 16.2696 16.9398 16.1947C16.9398 16.1754 16.936 16.1521 16.9179 16.147C16.9114 16.1444 16.9037 16.147 16.896 16.147C16.7863 16.165 16.3384 16.2876 16.332 16.0695C16.3307 16.0244 16.3643 15.987 16.3953 15.9534C16.5075 15.8308 16.603 15.694 16.6805 15.5469C16.6998 15.5095 16.7191 15.4695 16.7191 15.4269C16.7179 15.3559 16.6572 15.2952 16.5875 15.2798C16.5178 15.2643 16.4391 15.2888 16.3927 15.343C16.3281 15.4166 16.3139 15.725 16.1758 15.7018C16.1255 15.6927 16.1036 15.6334 16.092 15.583C16.0713 15.494 16.052 15.4011 16.1036 15.3185C16.1345 15.2694 16.1784 15.2307 16.2197 15.192C16.3836 15.0359 16.523 14.8539 16.6288 14.6539C16.6456 14.6216 16.6611 14.5777 16.6353 14.5519C16.6108 14.5261 16.5668 14.539 16.5346 14.5532C16.3397 14.6384 16.132 14.7106 15.9462 14.8126C15.8029 14.8913 15.6661 15.0242 15.6416 15.1933C15.6287 15.2836 15.648 15.3753 15.6326 15.4656C15.6235 15.5172 15.5835 15.5779 15.5332 15.5637C15.5074 15.5559 15.4906 15.5301 15.4816 15.5056C15.4609 15.4501 15.4635 15.3895 15.4532 15.3314C15.4428 15.2733 15.4158 15.2114 15.3603 15.1894C15.2945 15.1636 15.217 15.2101 15.1886 15.2733C15.1589 15.3391 15.168 15.4127 15.1835 15.4811C15.2415 15.7172 15.3951 15.9186 15.4958 16.1392C15.5435 16.2425 15.5822 16.3547 15.6622 16.436C15.7229 16.498 15.8042 16.538 15.8636 16.5999C15.9565 16.6967 15.9862 16.8374 16.0029 16.9703C16.0094 17.0181 16.0133 17.0671 16.0029 17.1149C15.9836 17.1962 15.9139 17.2374 15.8455 17.2762C15.8003 17.302 15.6687 17.3523 15.5758 17.3123C15.4867 17.2555 15.3125 17.1239 15.1409 17.0826C15.0092 17.049 14.7705 17.0568 14.6247 17.0658C14.342 17.0852 14.0388 16.9393 13.7472 16.7935C13.6826 16.7625 13.6348 16.729 13.5845 16.6812C13.5342 16.6335 13.5161 16.5406 13.5678 16.4877C13.622 16.4322 13.7252 16.4735 13.7729 16.4077C13.8026 16.3664 13.7872 16.3057 13.8143 16.2631C13.8375 16.227 13.8878 16.2154 13.9304 16.2192C13.9743 16.2231 14.0156 16.2373 14.0594 16.2386C14.1033 16.2399 14.151 16.2244 14.1704 16.1844C14.173 16.1779 14.1756 16.1702 14.173 16.1625C14.1704 16.1547 14.1639 16.1508 14.1575 16.1457C14.1252 16.1212 14.0943 16.0941 14.0672 16.0644C14.0569 16.0528 14.0465 16.0399 14.0478 16.0244C14.0517 15.9973 14.0865 15.9921 14.1136 15.9921C14.1846 15.9934 14.2556 15.996 14.3279 15.9973C14.3498 15.9973 14.3717 15.9973 14.3937 15.9908C14.4156 15.9844 14.4337 15.9663 14.4363 15.9444C14.4414 15.9134 14.4117 15.8863 14.3807 15.8786C14.3498 15.8708 14.3188 15.8785 14.2879 15.8811C14.2337 15.8863 14.1794 15.8811 14.1278 15.8644C14.1136 15.8592 14.0982 15.8527 14.0891 15.8398C14.0594 15.7908 14.1601 15.7301 14.1266 15.6824C14.1124 15.663 14.0839 15.663 14.0607 15.6592C14.0362 15.6553 14.0091 15.6372 14.0155 15.614C14.0194 15.6011 14.0336 15.5946 14.0465 15.5895C14.1446 15.5508 14.2517 15.5353 14.3562 15.5443C14.3808 15.5469 14.4066 15.5495 14.4298 15.543C14.4531 15.5366 14.4749 15.5159 14.4749 15.4914C14.4749 15.4682 14.4556 15.4501 14.4363 15.4398C14.373 15.4049 14.293 15.4191 14.2233 15.4024C14.2104 15.3998 14.1962 15.3933 14.1911 15.3804C14.1833 15.3598 14.2091 15.343 14.2311 15.3353C14.2905 15.3159 14.3511 15.303 14.4117 15.2965C14.444 15.2927 14.4788 15.2914 14.5072 15.2746C14.5356 15.2578 14.5575 15.2243 14.5472 15.1933C14.5369 15.1636 14.5021 15.1494 14.4711 15.1417C14.3614 15.1133 14.2478 15.1133 14.1356 15.1017C14.0827 15.0965 14.0285 14.9868 14.0736 14.9339C14.1149 14.8849 14.1949 14.8629 14.253 14.8423C14.3137 14.8216 14.4363 14.8152 14.444 14.7339C14.4466 14.7094 14.4337 14.6835 14.4117 14.6732C14.3924 14.6655 14.3704 14.6694 14.3511 14.6745C14.222 14.7081 14.0878 14.761 13.9613 14.7171C13.9304 14.7068 13.8968 14.6823 13.8994 14.6487C13.9033 14.61 13.9562 14.579 13.9407 14.5442C13.9317 14.5235 13.9033 14.5184 13.8814 14.5197C13.8581 14.5209 13.8336 14.5248 13.8143 14.5119C13.791 14.4951 13.791 14.459 13.8065 14.4345C13.8233 14.4113 13.8517 14.3983 13.8788 14.3906C13.973 14.3635 14.0775 14.3751 14.1652 14.3325C14.1936 14.3196 14.222 14.2899 14.2091 14.2616C14.1988 14.2383 14.1665 14.2357 14.1407 14.2357C13.9794 14.2396 13.8194 14.2641 13.6645 14.3054C13.6258 14.3158 13.582 14.3261 13.551 14.3003C13.5213 14.2757 13.5213 14.228 13.5445 14.197C13.5677 14.1661 13.6064 14.1519 13.6439 14.1467C13.6697 14.1428 13.6981 14.1441 13.7213 14.1286C13.7433 14.1144 13.7523 14.0757 13.7291 14.0628C13.7213 14.0589 13.7136 14.0577 13.7046 14.0564C13.5342 14.0448 13.3677 14.1441 13.1987 14.1209C13.1548 14.1144 13.1019 14.0886 13.1032 14.0435C13.1032 14.0241 13.1148 14.0073 13.1148 13.988C13.1148 13.9467 13.0644 13.9209 13.0257 13.9325C12.987 13.9441 12.9612 13.9815 12.9458 14.0189C12.9251 14.068 12.9006 14.1209 12.8954 14.1738C13.0051 14.2758 13.1044 14.388 13.1922 14.5106C13.4077 14.7997 13.4671 15.1391 13.431 15.5198C13.4219 15.6488 13.3974 15.7972 13.3574 15.8979C13.3574 15.6592 13.3574 15.5133 13.3432 15.3714C13.3264 15.063 13.2232 14.7119 12.9819 14.4719C12.9006 14.3958 12.8141 14.3287 12.7289 14.2499C12.7289 14.1803 12.7715 14.1131 12.7547 14.0448C12.6876 14.1093 12.6012 14.1454 12.5083 14.1596C12.3766 14.179 12.2192 14.117 12.1185 14.2074C12.085 14.2383 12.0656 14.2822 12.0682 14.3274C12.0682 14.339 12.0204 14.3764 12.0127 14.3842C11.9701 14.428 11.9275 14.4706 11.8849 14.5145C11.8165 14.5842 11.7494 14.6616 11.6759 14.7261C11.6088 14.7855 11.5429 14.841 11.5171 14.93C11.512 14.9468 11.5081 14.9649 11.499 14.9791C11.481 15.0062 11.4423 14.9997 11.4165 15.0178C11.3868 15.0371 11.3674 15.0733 11.37 15.1094C11.37 15.1275 11.3778 15.1455 11.3894 15.1597C11.4178 15.192 11.4681 15.1907 11.5081 15.1778C11.5481 15.1649 11.5868 15.143 11.6294 15.1417C11.6372 15.1417 11.6462 15.1417 11.6527 15.1455C11.6643 15.1533 11.6656 15.1675 11.6643 15.1817C11.6604 15.2127 11.6397 15.2398 11.6255 15.2669C11.6113 15.2952 11.6023 15.3301 11.6204 15.3559C11.632 15.3727 11.6539 15.3817 11.6759 15.3843C11.7146 15.3895 11.7546 15.3778 11.7843 15.3533C11.8166 15.3275 11.8359 15.2901 11.8617 15.2578C11.921 15.1843 12.0062 15.152 12.0979 15.1455C12.1392 15.143 12.2863 15.1378 12.2747 15.2139C12.2579 15.3236 12.1792 15.4527 12.0901 15.5508C11.9327 15.7276 11.7056 15.9457 11.6243 16.1121C11.5791 16.2076 11.5688 16.5832 11.4978 16.6399C11.3455 16.7625 11.0474 16.4464 10.9455 16.3612C10.9042 16.3264 10.8551 16.2902 10.8009 16.2967C10.7571 16.3018 10.7196 16.3341 10.6925 16.3689C10.5067 16.6038 10.2951 16.8503 10.1583 17.1174C10.1054 17.222 10.1221 17.342 10.0886 17.4543C10.0628 17.5381 10.0189 17.6143 9.95952 17.6788C9.94275 17.7627 9.93759 17.8517 9.96211 17.9369C9.97114 17.9627 9.99045 17.9924 10.0124 17.9924C10.0769 17.9924 10.2989 17.8969 10.3325 17.8053C10.3467 17.7666 10.3273 17.7291 10.3105 17.693C10.286 17.6401 10.2654 17.5807 10.2821 17.5252C10.3015 17.4581 10.3467 17.4104 10.3944 17.3626C10.4422 17.3149 10.4925 17.2697 10.5015 17.2026C10.5067 17.1639 10.4847 17.1303 10.4873 17.0903C10.4989 16.9355 10.628 16.8155 10.7673 16.7535C10.8177 16.7522 10.8693 16.7613 10.9157 16.7819C10.9828 16.8103 11.0281 16.8684 11.0642 16.9277C11.1029 17.0787 11.1597 17.2284 11.2461 17.3575C11.2629 17.3794 11.3248 17.4439 11.37 17.4439C11.4126 17.4439 11.4462 17.4013 11.4875 17.4013L11.6553 17.5665C11.3959 17.6465 11.1274 17.6943 10.8564 17.7072C10.8061 17.7291 10.7699 17.7808 10.7557 17.8337C10.7209 17.9743 10.8138 18.1279 10.8345 18.2673C10.859 18.4337 10.8422 18.6028 10.8358 18.7693C10.8319 18.8596 10.8332 18.9577 10.8886 19.0287C10.9312 19.0829 10.9984 19.1138 11.0397 19.1693C11.0694 19.2093 11.0823 19.2597 11.1042 19.3048C11.1455 19.3926 11.2216 19.4623 11.312 19.4984C11.441 19.55 11.5004 19.3564 11.4952 19.2558C11.4926 19.1964 11.4733 19.1216 11.4113 19.11C11.3313 19.0958 11.2551 19.1577 11.2087 19.0442C11.1842 18.9835 11.1958 18.9138 11.2036 18.8493C11.2113 18.7848 11.2113 18.7112 11.1713 18.6596C11.1442 18.6247 11.1016 18.6041 11.0822 18.5654C11.0667 18.5357 11.0668 18.5008 11.068 18.4686C11.0693 18.3782 11.0707 18.2892 11.0719 18.1989C11.0719 18.1434 11.0758 18.0827 11.1158 18.044C11.1726 17.9898 11.2642 18.013 11.3377 18.0363C11.6062 18.1201 11.9456 18.204 12.2256 18.1485C12.2902 18.1318 12.3289 18.0505 12.3934 18.0595C12.4631 18.0672 12.565 18.1937 12.6631 18.2337C13.0309 18.3808 13.418 18.4157 13.8104 18.4105C13.8413 18.4105 13.8749 18.4105 13.8994 18.4286C13.8633 18.4776 13.8413 18.5396 13.8478 18.6002C13.8529 18.6415 13.8697 18.6789 13.8904 18.7151C13.9575 18.8312 14.0607 18.9215 14.1266 19.039C14.3008 19.3513 14.0001 19.6688 13.7291 19.7862C13.6052 19.8391 13.4709 19.8636 13.3483 19.9191C13.1277 20.0198 12.9587 20.2275 12.9057 20.4637C12.8993 20.4934 12.8941 20.5282 12.9122 20.5527C12.9393 20.5902 12.9961 20.5837 13.0412 20.5721C13.0954 20.5579 13.1509 20.545 13.1974 20.514C13.2438 20.4843 13.2825 20.434 13.2838 20.3785C13.2838 20.345 13.2722 20.3114 13.2787 20.2779C13.2903 20.2185 13.3561 20.1862 13.4155 20.1798C13.4748 20.1733 13.5368 20.1824 13.5948 20.1669C13.7471 20.1243 13.8194 19.9397 13.9523 19.8597C14.1446 19.7436 14.364 19.6842 14.5576 19.5733C14.5795 19.5449 14.586 19.5203 14.586 19.4752C14.5898 19.3358 14.5408 19.2119 14.6066 19.079C14.6156 19.0609 14.6272 19.0429 14.6466 19.0364C14.6737 19.0287 14.6995 19.0519 14.7189 19.0725C14.7976 19.1525 14.8905 19.2171 14.9925 19.2648C15.0712 19.301 15.1551 19.3268 15.2261 19.3745C15.297 19.4223 15.3577 19.501 15.3525 19.5874C15.3499 19.6352 15.328 19.6804 15.306 19.7229C15.1692 19.9798 14.9783 20.2095 14.7511 20.3914C14.6776 20.4508 14.5975 20.5063 14.5395 20.5811C14.4504 20.6973 14.4208 20.8457 14.395 20.9889C14.3911 21.007 14.3885 21.0276 14.4001 21.0418C14.4143 21.0586 14.4414 21.0573 14.4634 21.0535C14.5447 21.0405 14.6298 21.0251 14.6969 20.9786C14.764 20.9321 14.8105 20.8418 14.7808 20.7644C14.7679 20.7308 14.7408 20.6947 14.7576 20.6624C14.7653 20.6469 14.7821 20.6366 14.7976 20.6289C14.9086 20.5734 15.035 20.5566 15.146 20.4998C15.1822 20.4818 15.2183 20.4572 15.2415 20.4237C15.2634 20.3927 15.2725 20.354 15.2828 20.3179C15.3499 20.0946 15.4919 19.8933 15.6816 19.7578C15.7293 19.7229 15.781 19.692 15.8145 19.6455C15.8881 19.5462 15.8197 19.4765 15.7616 19.3965C15.688 19.2971 15.6248 19.19 15.5758 19.0751C15.5474 19.008 15.528 18.9203 15.5422 18.8506C15.6016 18.5847 15.8119 18.3989 15.8893 18.1782C15.9255 18.0711 15.9436 17.9343 15.9113 17.8246C15.8894 17.7511 15.8378 17.6646 15.8468 17.6168C15.9578 17.5575 16.052 17.4697 16.1643 17.4104C16.1901 17.3962 16.2171 17.3846 16.2442 17.3755V17.3742Z" fill="black"/>
</svg>
