<svg width="38" height="13" viewBox="0 0 38 13" fill="none" xmlns="http://www.w3.org/2000/svg">
<path d="M30.8969 12.9767C29.3647 12.9767 27.948 12.4404 26.8314 11.5402C25.7735 12.3947 24.4404 12.925 22.9798 12.9733C21.3631 13.0276 19.8645 12.4827 18.6953 11.5402C17.6374 12.3947 16.3035 12.925 14.8428 12.9733C13.227 13.0276 11.7275 12.4827 10.5583 11.5402C9.50037 12.3947 8.16735 12.925 6.70585 12.9733C3.12841 13.0931 0.12263 10.2797 0.0036405 6.70307C-0.115349 3.12649 2.69728 0.119852 6.27386 0H6.29628H6.70671C8.15959 0.0482856 9.49434 0.578564 10.5558 1.43477C11.6146 0.580289 12.9485 0.0491478 14.4108 0H14.4333H14.8428C16.2957 0.0482856 17.6305 0.578564 18.6919 1.43477C19.7507 0.580289 21.0855 0.0491478 22.547 0H22.5694H22.9798C24.4327 0.0482856 25.7674 0.578564 26.8289 1.43477C27.8877 0.580289 29.2216 0.0491478 30.6839 0H30.7064H31.1159C34.5183 0.113816 37.2723 2.86782 37.3861 6.27023C37.5051 9.84681 34.6925 12.8534 31.1159 12.9724C31.0426 12.975 30.9693 12.9759 30.8969 12.9759V12.9767ZM19.6628 10.5754C20.5698 11.2643 21.7106 11.6567 22.935 11.6179C24.0369 11.5808 25.0475 11.1979 25.864 10.5763C25 9.51484 24.4629 8.17319 24.4137 6.70307C24.3594 5.07861 24.9104 3.57141 25.8631 2.39962C25.0457 1.77794 24.0386 1.39511 22.9462 1.35631H22.5823C21.4838 1.39511 20.4759 1.77881 19.661 2.39962C20.5285 3.46449 21.0648 4.80786 21.1139 6.27109C21.1682 7.89641 20.6164 9.40361 19.6636 10.5763L19.6628 10.5754ZM11.5258 10.5754C12.4329 11.2643 13.5745 11.6567 14.7971 11.6179C15.8991 11.5808 16.9096 11.1979 17.7262 10.5763C16.8622 9.51484 16.325 8.17319 16.2759 6.70307C16.2216 5.07861 16.7725 3.57141 17.7244 2.39962C16.907 1.77794 15.8999 1.39511 14.8075 1.35631H14.4436C13.3451 1.39511 12.3372 1.77881 11.5223 2.39962C12.3897 3.46449 12.9261 4.80786 12.9752 6.27109C13.0295 7.89641 12.4777 9.40361 11.5249 10.5763L11.5258 10.5754ZM6.30835 1.35631C3.48451 1.45633 1.2651 3.83267 1.35909 6.65823C1.45307 9.48725 3.83458 11.711 6.66101 11.6179C7.76296 11.5808 8.7735 11.1979 9.59005 10.5763C8.72608 9.51484 8.1889 8.17319 8.13976 6.70307C8.08544 5.07861 8.63641 3.57141 9.58832 2.39962C8.77092 1.77794 7.76382 1.39511 6.67136 1.35631H6.30749H6.30835ZM27.7997 10.5754C28.7068 11.2643 29.8484 11.6592 31.0719 11.6179C33.901 11.5239 36.1255 9.14494 36.0316 6.31592C35.9419 3.62832 33.769 1.45202 31.0823 1.35631H30.7184C29.6199 1.39511 28.612 1.77881 27.7972 2.39962C28.6637 3.46449 29.2009 4.80786 29.25 6.27109C29.3044 7.89641 28.7525 9.40361 27.7997 10.5763V10.5754ZM10.5566 3.36102C9.85562 4.27241 9.45381 5.42178 9.4952 6.65823C9.53228 7.77225 9.92374 8.79315 10.5575 9.61486C11.2593 8.70347 11.662 7.55238 11.6206 6.31592C11.5836 5.20708 11.1921 4.18532 10.5566 3.36102ZM18.6936 3.36102C17.9926 4.27241 17.5908 5.42178 17.6322 6.65823C17.6693 7.77225 18.0607 8.79315 18.6945 9.61486C19.3963 8.70347 19.799 7.55238 19.7576 6.31592C19.7205 5.20708 19.3291 4.18532 18.6936 3.36102ZM26.8306 3.36102C26.1296 4.27241 25.7278 5.42178 25.7692 6.65823C25.8062 7.77225 26.1977 8.79315 26.8314 9.61486C27.5333 8.70347 27.9351 7.55238 27.8946 6.31592C27.8575 5.20708 27.4661 4.18532 26.8306 3.36102Z" fill="black"/>
</svg>
