<svg width="29" height="29" viewBox="0 0 29 29" fill="none" xmlns="http://www.w3.org/2000/svg">
<path d="M14.4319 0C6.47409 0 0 6.47421 0 14.432C0 22.3898 6.47409 28.8639 14.4319 28.8639C22.3897 28.8639 28.8638 22.3898 28.8638 14.432C28.8638 6.47421 22.3897 0 14.4319 0ZM14.4319 28.0949C6.89806 28.0949 0.769018 21.9657 0.769018 14.432C0.769018 6.89831 6.89806 0.769018 14.4319 0.769018C21.9657 0.769018 28.0947 6.89818 28.0947 14.4319C28.0947 21.9656 21.9657 28.0949 14.4319 28.0949Z" fill="black"/>
<path d="M14.4311 4.44531C8.92492 4.44531 4.44531 8.92492 4.44531 14.4311C4.44531 19.9372 8.92492 24.4167 14.4311 24.4167C19.9372 24.4167 24.4168 19.9371 24.4168 14.4309C24.4168 8.9248 19.9372 4.44531 14.4311 4.44531ZM4.97743 14.4311C4.97743 9.21839 9.21827 4.97743 14.4311 4.97743C17.9016 4.97743 20.9397 6.85814 22.5839 9.6531L11.3981 9.67771C10.937 9.67771 10.3338 9.65011 9.84617 10.4226L5.57773 17.7458C5.1901 16.7138 4.97743 15.5968 4.97743 14.4311ZM7.2118 20.5364L12.424 11.6212C12.8252 10.965 12.9982 10.8054 13.7097 10.8054H23.1612C23.2257 10.96 23.286 11.1167 23.3423 11.2753L14.5522 11.301C14.0911 11.301 13.488 11.2734 13.0003 12.046C13.0003 12.046 7.72482 21.0873 7.72756 21.0901C7.50565 20.8667 7.3222 20.6636 7.2118 20.5364ZM9.99103 22.7749L15.6608 13.0747C16.062 12.4185 16.235 12.2589 16.9465 12.2589H23.6323C23.6454 12.3174 23.7075 12.5928 23.7448 12.8082L17.8276 12.8348C17.3665 12.8348 16.7633 12.8072 16.2757 13.5797L10.7006 23.1169C10.4587 23.0125 10.2221 22.8984 9.99103 22.7749ZM14.4311 23.8846C14.1308 23.8846 13.8341 23.8698 13.541 23.8423L18.9361 14.6083C19.3374 13.952 19.5103 13.7924 20.2219 13.7924H23.8626C23.8767 14.0035 23.8846 14.2163 23.8846 14.4309C23.8848 19.6437 19.6438 23.8846 14.4311 23.8846Z" fill="black"/>
</svg>
