<svg width="47" height="22" viewBox="0 0 47 22" fill="none" xmlns="http://www.w3.org/2000/svg">
<path d="M23.5064 9.09883H20.5722V0H17.78C17.4014 0.0450437 17.0228 0.270262 16.8808 0.630612L13.9467 7.29708C13.7574 7.61239 13.7574 7.97274 13.9467 8.33309L16.9282 14.9996C17.0228 15.3149 17.3541 15.5851 17.6854 15.5851H26.3933L23.5064 9.09883ZM23.6957 6.48629H26.6299V15.5851H29.4221C29.8007 15.5401 30.1793 15.3149 30.3213 14.9545L33.2554 8.28804C33.4447 7.97274 33.4447 7.61239 33.2554 7.25204L30.2739 0.630612C30.132 0.315306 29.9427 0 29.5167 0H20.8089L23.6957 6.48629Z" fill="black"/>
<path d="M20.5722 9.09883H23.5064L26.3933 15.5851H17.6854C17.3541 15.5851 17.0228 15.3149 16.9282 14.9996L13.9467 8.33309C13.7574 7.97274 13.7574 7.61239 13.9467 7.29708L16.8808 0.630612C17.0228 0.270262 17.4014 0.0450437 17.78 0H20.5722V9.09883Z" fill="black"/>
<path d="M26.6299 6.48629H23.6957L20.8089 0H29.5167C29.9427 0 30.132 0.315306 30.2739 0.630612L33.2554 7.25204C33.4447 7.61239 33.4447 7.97274 33.2554 8.28804L30.3213 14.9545C30.1793 15.3149 29.8007 15.5401 29.4221 15.5851H26.6299V6.48629Z" fill="black"/>
<path d="M20.7253 19.8185V19.4646H23.6629L23.2939 18.5586H20.5925C20.3268 18.5586 20.0758 18.6577 19.8987 18.8276C19.7363 18.9833 19.6477 19.1815 19.6625 19.3938V19.8044C19.6625 19.9884 19.7363 20.1866 19.8692 20.3282C20.0168 20.4839 20.2087 20.583 20.4301 20.6113C20.5187 20.6255 20.6073 20.6396 20.7106 20.6396L22.7182 20.7104V21.0926H19.9725L19.6182 21.942H22.9101C23.161 21.9562 23.412 21.8712 23.6039 21.7014C23.7662 21.5456 23.8401 21.3333 23.8401 21.1068V20.7104C23.8401 20.5122 23.7662 20.3282 23.6334 20.1866C23.4857 20.0335 23.2877 19.9335 23.0724 19.9035C22.9839 19.8893 22.8953 19.8752 22.792 19.8752L20.7253 19.8185ZM39.7236 18.5586L38.7641 20.9227L37.7308 18.5586H36.5498L35.5017 20.9227L34.5275 18.5586H33.6713V19.3938L34.7784 21.942H36.1808L37.1255 19.6628H37.1403L38.085 21.942H39.4874L40.5945 19.3938V18.5586H39.7236ZM1.18093 18.5586H0V21.942H3.8085L3.36565 20.9369H1.18093V18.5586ZM44.4768 18.5586V20.6679L42.4692 18.5586H41.1555V21.942H42.3807V19.9035L44.3145 21.942H45.6282V18.5586H44.4768ZM8.59128 18.8276C8.39938 18.6577 8.14843 18.5586 7.88272 18.5586H5.10753C4.84182 18.5586 4.59087 18.6577 4.41373 18.8276C4.25135 18.9833 4.16278 19.1815 4.17754 19.3938V21.1068C4.17754 21.2908 4.25135 21.4749 4.38421 21.6164C4.57611 21.8146 4.84182 21.9279 5.12229 21.9279H7.89748C8.16319 21.9279 8.41414 21.8288 8.59128 21.6589C8.75365 21.5032 8.84222 21.305 8.82746 21.0926V19.3938C8.82746 19.1815 8.75365 18.9833 8.59128 18.8276ZM7.66129 20.9369H5.34371V19.5354H7.66129V20.9369ZM32.9332 18.8276C32.7413 18.6577 32.4904 18.5586 32.2247 18.5586H29.5528C29.2871 18.5586 29.0362 18.6577 28.859 18.8276C28.6966 18.9833 28.6081 19.1815 28.6228 19.3938V21.1068C28.6228 21.2908 28.6966 21.4749 28.8295 21.6164C29.0214 21.8146 29.2871 21.9279 29.5676 21.9279H32.2394C32.5051 21.9279 32.7561 21.8288 32.9332 21.6589C33.0956 21.5032 33.1842 21.305 33.1694 21.0926V19.3938C33.1694 19.1815 33.0808 18.9833 32.9332 18.8276ZM31.9885 20.9369H29.7742V19.5354H31.9885V20.9369ZM12.636 21.942H13.8759L13.2412 20.8803C13.3741 20.8378 13.5069 20.767 13.6102 20.6679C13.7726 20.5122 13.8612 20.314 13.8464 20.1017V19.3938C13.847 19.1871 13.762 18.9886 13.6102 18.8417C13.4183 18.6718 13.1674 18.5728 12.9017 18.5728H9.49174V21.9562H10.6579V20.9511H12.0307L12.636 21.942ZM10.6727 19.3938H12.5769V20.1017H10.6727V19.3938ZM14.555 18.5586V21.942H18.083C18.3487 21.942 18.5997 21.8429 18.7768 21.673C18.9392 21.5173 19.0278 21.3191 19.013 21.1068V19.3938C19.0135 19.1871 18.9286 18.9886 18.7768 18.8417C18.5849 18.6718 18.334 18.5728 18.0683 18.5728L14.555 18.5586ZM17.8616 20.9369H15.7212V19.5354H17.8616V20.9369ZM28.2981 18.5586H24.0024L24.401 19.5354H25.5524V21.942H26.7481V19.5354H27.8847L28.2981 18.5586ZM45.9678 21.6589V21.942H45.8792V21.6589H45.7759V21.5881H46.0858V21.6589H45.9678ZM46.4844 21.942V21.6872L46.3811 21.942H46.322L46.2335 21.6872V21.942H46.1449V21.5739H46.2777L46.3663 21.8146L46.4549 21.5739H46.5877V21.942H46.4844Z" fill="black"/>
</svg>
