<svg width="32" height="32" viewBox="0 0 32 32" fill="none" xmlns="http://www.w3.org/2000/svg">
<path d="M15.6459 0C7.00478 0 0 7.00478 0 15.6459C0 24.287 7.00478 31.2909 15.6459 31.2909C24.287 31.2909 31.2909 24.2861 31.2909 15.645C31.2909 7.00394 24.2861 0 15.6459 0ZM15.6459 30.9769C7.17734 30.9769 0.313119 24.1127 0.313119 15.6459C0.313119 7.17902 7.17734 0.313119 15.6459 0.313119C24.1144 0.313119 30.9778 7.17733 30.9778 15.645C30.9778 24.1127 24.1136 30.9769 15.6459 30.9769Z" fill="black"/>
<path d="M15.6465 4.375C9.42195 4.375 4.375 9.4211 4.375 15.6465C4.375 21.8718 9.4211 26.9171 15.6465 26.9171C21.8701 26.9171 26.9171 21.871 26.9171 15.6465C26.9171 9.42195 21.8701 4.375 15.6465 4.375ZM12.2106 5.21504C13.277 4.86404 14.3915 4.67886 15.5143 4.66708V13.7046H12.2072L12.2097 5.21504H12.2106ZM8.87567 7.00285L8.88072 13.7055H4.83542C5.31604 10.9909 6.79326 8.63578 8.87567 7.00285ZM4.75377 17.0328H8.88072L8.8824 24.2943C6.60219 22.5132 5.11824 19.903 4.75377 17.0328ZM15.5143 26.625C14.3898 26.6132 13.2736 26.4272 12.2055 26.0745L12.2072 17.0319H15.5143V26.6241V26.625ZM15.7778 26.625H15.7567C15.7635 26.625 15.7702 26.625 15.7778 26.625V4.66708C21.7691 4.72684 26.625 9.61975 26.625 15.6465C26.625 21.6732 21.7834 26.5534 15.7778 26.625Z" fill="black"/>
<path d="M0.882812 15.9249L3.96182 17.2119L3.97276 16.3155L3.43743 16.0848L3.45174 14.9216L3.99212 14.717L4.00306 13.8164L0.894597 15.0024L0.883654 15.9249H0.882812ZM1.8449 15.4754L2.83392 15.1421L2.82466 15.8449L1.8449 15.4847V15.4754Z" fill="black"/>
<path d="M5.28151 10.2001L4.6519 9.9375L4.26387 10.8726L2.03584 9.94592L1.71094 10.7262L4.56773 11.9147L5.28151 10.2001Z" fill="black"/>
<path d="M7.00186 7.82602L6.10543 7.00618L6.72999 6.32187L6.22748 5.86229L5.60209 6.5466L5.22079 6.19813L5.90931 5.44395L5.40681 4.98438L4.14844 6.36227L6.43202 8.44889L7.00186 7.82602Z" fill="black"/>
<path d="M9.54082 5.68086L9.48948 5.10092L10.5197 4.56053L10.9566 4.93931L11.7545 4.52097L9.23528 2.34766L8.41797 2.77609L8.74708 6.09667L9.54082 5.68086ZM9.26979 3.40906L10.0324 4.12116L9.41036 4.44774L9.26305 3.41327L9.27063 3.40906H9.26979Z" fill="black"/>
<path d="M19.2275 4.63605C20.2207 4.95591 21.155 4.51484 21.4614 3.56118C21.7476 2.67064 21.1298 1.78178 20.2392 1.49476C19.3496 1.20857 18.3277 1.56883 18.0407 2.45937C17.7343 3.41219 18.2351 4.31536 19.2275 4.63521V4.63605ZM18.8765 2.73377C19.0078 2.32722 19.5204 2.08312 20.001 2.23715C20.4808 2.39203 20.7552 2.88949 20.6248 3.29604C20.6222 3.30445 20.6197 3.31287 20.6163 3.32129C20.4564 3.79686 19.9421 4.0519 19.4674 3.89281C19.459 3.89029 19.4506 3.88776 19.4421 3.8844C18.9683 3.72279 18.7149 3.20681 18.8765 2.73293V2.73377Z" fill="black"/>
<path d="M14.398 4.04047L14.3038 2.85533H14.3122L15.2002 3.97819L16.2481 3.89486L15.1295 2.7114C15.5832 2.59777 15.8029 2.20974 15.7692 1.78383C15.717 1.12476 15.2086 0.873087 14.5689 0.924432L13.3105 1.02375L13.5555 4.10697L14.3972 4.04047H14.398ZM14.2836 1.56414C14.558 1.54225 14.8719 1.56666 14.898 1.90167C14.9241 2.23751 14.6186 2.31158 14.3442 2.33263L14.2625 2.33936L14.2019 1.57003L14.2836 1.56414Z" fill="black"/>
<path d="M26.8348 12.0718L27.4636 11.8117L27.0789 10.8842L27.5722 10.6796L27.9366 11.5592L28.5663 11.2983L28.2009 10.4187L28.679 10.2201L29.0637 11.1468L29.6925 10.8867L28.9837 9.17969L26.127 10.3648L26.8348 12.0718Z" fill="black"/>
<path d="M24.232 5.22673L24.2388 5.23263L23.5604 7.0398L23.8045 7.27043L25.5939 6.50867L25.5998 6.51456L24.6824 8.12898L25.2867 8.71818L26.9298 5.96408L26.3178 5.3875L24.6765 6.11306L25.3305 4.45656L24.7245 3.88672L22.084 5.68379L22.7026 6.25279L24.232 5.22673Z" fill="black"/>
<path d="M30.5491 15.1525C30.5171 14.2182 29.8311 13.3799 28.8968 13.411C27.896 13.4455 27.2167 14.2241 27.2513 15.2661C27.2875 16.309 28.0189 17.038 29.0197 17.0035C29.9549 16.9706 30.5819 16.0868 30.5491 15.1525ZM28.986 16.1247C28.9768 16.1247 28.9675 16.1247 28.9583 16.1255C28.4574 16.1365 28.0433 15.74 28.0315 15.2392C28.0315 15.2308 28.0315 15.2224 28.0315 15.2131C28.0231 14.7123 28.4221 14.299 28.9238 14.2906C29.3505 14.2754 29.7545 14.6753 29.7714 15.1794C29.789 15.6828 29.4128 16.1095 28.9869 16.1239L28.986 16.1247Z" fill="black"/>
<path d="M22.8536 8.21484H18.8613V8.53301H22.8536V8.21484Z" fill="black"/>
<path d="M21.6751 8.03383C21.8595 8.03383 22.0084 7.88484 22.0084 7.70051C22.0084 7.51617 21.8595 7.36719 21.6751 7.36719C21.4908 7.36719 21.3418 7.51617 21.3418 7.70051C21.3418 7.88484 21.4916 8.03383 21.6751 8.03383Z" fill="black"/>
<path d="M22.8536 8.87891H18.8613V9.29472H22.8536V8.87891Z" fill="black"/>
<path d="M21.2156 9.87891C20.9109 9.87891 20.6332 10.1003 20.4951 10.5447H18.8311C18.8588 10.8763 19.1913 11.4866 19.884 11.4866H21.4917C21.6761 11.4866 21.825 11.6078 21.825 11.7913C21.825 11.9765 21.6752 12.1255 21.4917 12.1246H19.884C19.4691 12.1246 18.9977 12.2357 18.8311 12.9562L22.2838 12.9546C22.522 12.9546 22.7147 13.1338 22.7147 13.372C22.7147 13.6103 22.522 13.8173 22.2838 13.8173L19.2199 13.8148C19.1863 13.8148 19.1526 13.8148 19.1189 13.8148C17.8631 13.8426 16.8673 14.8838 16.8951 16.1396C16.9229 17.3955 17.9641 18.3912 19.2199 18.3634H22.4075C22.6045 18.3668 22.7619 18.5276 22.761 18.7237C22.761 18.9181 22.6028 19.02 22.4075 19.02L19.2469 19.0225C18.4127 19.0225 17.7377 19.6647 17.7377 20.498C17.7377 21.3313 18.4136 22.0081 19.2469 22.0081H21.8259C22.0001 22.0106 22.1407 22.1529 22.1398 22.3279C22.1398 22.5022 22.0001 22.6427 21.8259 22.6427H20.2182C19.7628 22.6427 19.3942 23.0392 19.3942 23.4929C19.3942 23.9466 19.7628 24.2891 20.2182 24.2891C20.2182 24.2891 20.7864 24.29 21.1525 24.2891C21.5195 24.2891 21.5481 24.5391 21.5405 24.7125C22.4201 24.3792 21.9631 23.7765 21.554 23.7748H20.3823C20.2418 23.7748 20.1281 23.6612 20.1281 23.5206C20.1281 23.3801 20.2418 23.2656 20.3823 23.2656L21.9075 23.2614C22.5026 23.2614 22.9858 22.7867 22.9858 22.1899C22.9858 21.5931 22.5026 21.1116 21.9075 21.1116L19.3841 21.1091C19.1997 21.1091 19.0507 20.9601 19.0507 20.7758C19.0507 20.5915 19.1997 20.4425 19.3841 20.4425L22.7114 20.4467C23.8157 20.4467 24.7113 19.5789 24.7113 18.4745C24.7113 17.3702 23.8157 16.4401 22.7114 16.4401L19.2182 16.4426C19.0238 16.4426 18.8656 16.2844 18.8656 16.09C18.8656 15.8955 19.0238 15.7373 19.2182 15.7373H22.9336C24.043 15.7297 25.8173 14.7036 25.8173 12.7071C25.8173 10.7105 24.3207 9.51866 23.9049 9.32422C23.8494 9.49088 23.6002 9.87891 22.99 9.87891H21.2156Z" fill="black"/>
<path d="M17.5573 13.108L16.9681 13.5179C16.9614 13.5238 16.9555 13.5297 16.9496 13.5364C16.8284 13.6677 16.8368 13.8723 16.9681 13.9935C17.0994 14.1147 17.304 14.1063 17.4252 13.975L18.3393 13.3445C18.3056 13.0255 18.4647 12.1114 19.1162 11.8059C18.4647 11.5012 18.2837 10.5441 18.3393 10.2798L17.4252 9.64938C17.2989 9.52312 17.0944 9.52312 16.9681 9.64938C16.8419 9.77564 16.8419 9.98018 16.9681 10.1064L17.5573 10.5155C17.8485 10.7099 17.793 11.029 17.7517 11.2916C17.7105 11.5559 17.4327 11.4305 17.3494 11.3328C17.2206 11.204 17.0464 11.1325 16.8646 11.1325C16.4858 11.1325 16.1777 11.4397 16.1777 11.8185C16.1777 12.1981 16.485 12.491 16.8646 12.491C17.054 12.491 17.2257 12.4136 17.3494 12.2899C17.4336 12.1922 17.7105 12.0685 17.7517 12.3311C17.793 12.5946 17.8485 12.9127 17.5573 13.1072V13.108Z" fill="black"/>
</svg>
