<svg width="26" height="27" viewBox="0 0 26 27" fill="none" xmlns="http://www.w3.org/2000/svg">
<path fill-rule="evenodd" clip-rule="evenodd" d="M23.6535 0.628272C22.5427 0.382426 17.4573 0 12.9752 0C8.49306 0 3.29388 0.38015 2.18302 0.628272C1.64352 0.746642 0 1.11313 0 3.02071C0 5.47462 0.0637377 17.8079 1.32711 19.5356C3.50785 22.5199 12.3446 26.3624 12.718 26.524C12.8432 26.5786 12.9843 26.5786 13.1118 26.5263C13.501 26.3647 22.6793 22.5154 24.5322 19.5015C25.7409 17.5393 25.8366 3.16412 25.8366 3.01844C25.8366 1.11086 24.193 0.744366 23.6535 0.625996V0.628272ZM23.6763 18.9756C22.1307 21.4887 14.2704 24.9374 12.9228 25.5133C11.6025 24.9283 3.99271 21.4773 2.13977 18.9415C1.31345 17.8124 1.00615 8.57728 1.00615 3.02071C1.00615 2.21944 1.38402 1.83701 2.40155 1.60938C3.35534 1.39768 8.35647 1.00615 12.9752 1.00615C17.5939 1.00615 22.4835 1.39768 23.435 1.60938C24.4525 1.83474 24.8304 2.21716 24.8304 3.02071C24.8304 5.88664 24.5277 17.5871 23.674 18.9756H23.6763Z" fill="black"/>
<path fill-rule="evenodd" clip-rule="evenodd" d="M15.3257 10.1106C16.7962 7.98223 18.4921 6.56634 19.8214 6.1566C20.625 5.90848 21.902 7.04893 21.902 6.76894C21.902 6.04506 20.543 4.61096 20.2926 4.82949C20.2653 4.49031 18.9359 4.16707 18.7629 4.36284C18.4647 4.11016 16.9646 4.3082 16.9123 4.57226C16.6641 4.39015 15.6261 5.03664 15.6899 5.24834C15.4167 5.12541 14.661 5.81742 14.661 5.9927C14.5062 5.84702 13.4682 6.5322 13.327 7.00795C13.1882 7.48371 13.6457 9.9581 13.6457 9.9581C13.8688 10.9096 14.9182 10.6979 15.3234 10.1129L15.3257 10.1106Z" fill="black"/>
<path fill-rule="evenodd" clip-rule="evenodd" d="M18.8038 12.3034C18.9723 12.0803 18.9427 10.7646 18.5375 10.9603C18.5785 10.2296 19.2432 10.3913 19.3979 10.6917C19.5983 11.081 19.5892 11.8663 19.6825 11.9551C19.4867 11.9688 19.3479 13.1161 19.5004 13.2276C19.3046 13.2549 19.1362 14.5001 19.3046 14.5706C19.1225 14.598 18.7947 15.8067 19.1794 15.941C19.8236 16.1641 21.9475 13.6191 22.0886 11.2426C22.1023 10.9922 22.5484 11.0924 22.8489 10.8238C23.0105 10.6781 23.1516 6.79008 20.4656 6.76959C17.7613 6.7491 17.0192 12.0029 15.922 11.7457C15.8833 11.7366 15.9447 11.8413 15.9129 11.8458C16.4364 11.8845 16.0153 13.5076 15.9083 13.676C15.8059 13.8377 14.8885 14.0402 14.7906 14.1245C14.6927 14.2087 14.522 14.9758 14.6358 15.0031C14.7474 15.0305 14.9568 14.3043 15.7399 14.541C15.733 14.7778 15.6625 14.9144 15.56 15.0327C15.403 15.0942 14.8043 15.3036 14.7041 15.4356C14.5857 15.595 14.1168 17.3842 14.0963 17.63C14.0349 18.3357 14.3945 18.5155 14.258 19.0277C14.201 19.2417 13.4908 19.0505 13.2427 19.285C13.0651 19.4534 12.9991 19.8768 13.2086 20.2296C13.3042 20.3935 14.5084 20.3093 14.7314 20.1181C15.2391 19.6879 15.0957 18.7341 15.3187 18.1741C15.5418 17.6141 15.9333 17.2522 16.3249 16.6353C16.7164 16.0207 17.2468 13.8672 17.2195 13.3073C17.5541 13.0273 18.6308 12.5242 18.7993 12.3011L18.8038 12.3034Z" fill="black"/>
<path fill-rule="evenodd" clip-rule="evenodd" d="M6.07309 6.17613C7.40476 6.5836 9.09836 8.00176 10.5689 10.1301C10.9741 10.7152 12.0007 10.9269 12.2238 9.97536C12.2238 9.97536 12.7519 7.50097 12.5288 7.01155C12.3057 6.52214 11.3861 5.86427 11.2313 6.01223C11.2313 5.83695 10.4756 5.14494 10.2024 5.26787C10.2639 5.05617 9.22811 4.40741 8.97999 4.59179C8.92763 4.32774 7.42752 4.12969 7.12932 4.38237C6.95859 4.18888 5.62693 4.50984 5.59961 4.84902C5.34921 4.62821 3.99251 6.06459 3.99023 6.78847C3.99023 7.06846 5.26727 5.93028 6.07082 6.17613H6.07309Z" fill="black"/>
<path fill-rule="evenodd" clip-rule="evenodd" d="M23.2679 11.227C23.0812 11.1246 22.5645 11.2088 22.4393 11.4228C22.2503 11.7437 22.412 13.0299 21.4604 14.5118C19.3047 17.8739 18.8244 17.2388 18.7903 17.6714C18.7174 18.5705 21.9225 18.0629 21.9772 16.9998C22.1593 17.0567 22.8149 16.021 22.676 15.8252C22.9128 15.8662 23.3202 14.596 23.1245 14.5118C23.3726 14.5118 23.6184 13.2143 23.4227 13.1141C23.6457 13.0572 23.4841 11.3477 23.2656 11.227H23.2679Z" fill="black"/>
<path fill-rule="evenodd" clip-rule="evenodd" d="M12.64 20.2547C12.8471 19.8746 12.8107 19.4648 12.6331 19.2964C12.3873 19.0619 11.6907 19.2668 11.6338 19.0528C11.495 18.5406 11.8569 18.3608 11.7954 17.6551C11.7727 17.4093 11.306 15.6178 11.1877 15.4607C11.0875 15.3264 10.4911 15.1193 10.3318 15.0578C10.2293 14.9394 10.161 14.8051 10.1519 14.5661C10.935 14.3294 11.1444 15.0555 11.2559 15.0282C11.3675 15.0009 11.199 14.2315 11.1012 14.1496C11.0033 14.0653 10.1018 13.8491 9.98347 13.7011C9.85827 13.544 9.45536 11.9096 9.97892 11.8709C9.94932 11.8687 10.0085 11.7617 9.96981 11.773C8.87261 12.0303 8.13052 6.77419 5.42622 6.79695C2.74013 6.81744 2.88126 10.7054 3.04288 10.8511C3.34336 11.1197 3.78952 11.0219 3.80318 11.27C3.94204 13.6465 6.06815 16.1914 6.71236 15.9684C7.09706 15.8341 6.76927 14.6253 6.58716 14.598C6.75561 14.5274 6.58716 13.2845 6.39139 13.2549C6.54618 13.1434 6.40505 11.9961 6.20928 11.9825C6.30489 11.896 6.29351 11.1106 6.49383 10.7191C6.64862 10.4186 7.31559 10.257 7.35429 10.9877C6.9491 10.7919 6.92178 12.1054 7.08795 12.3308C7.2564 12.5538 8.33312 13.0569 8.66774 13.3369C8.64042 13.8969 9.17081 16.0503 9.56234 16.6649C9.95388 17.2795 10.3454 17.6437 10.5685 18.2037C10.7938 18.7683 10.8986 19.8837 11.1694 20.1341C11.4221 20.3663 12.5466 20.4277 12.6377 20.2593L12.64 20.2547Z" fill="black"/>
<path fill-rule="evenodd" clip-rule="evenodd" d="M14.3733 20.5657C13.9886 20.2811 13.4992 20.7159 12.9119 20.4655C12.3109 20.7318 11.8079 20.2788 11.521 20.5884C11.3731 20.7478 12.1083 21.3464 12.946 21.3328C13.786 21.3191 14.5895 20.7296 14.371 20.5657H14.3733Z" fill="black"/>
<path fill-rule="evenodd" clip-rule="evenodd" d="M4.43088 14.5364C3.47936 13.0545 3.64098 11.7684 3.45205 11.4474C3.32685 11.2334 2.81012 11.2038 2.62346 11.3085C2.40493 11.4292 2.24331 13.0841 2.46639 13.141C2.27062 13.2412 2.51874 14.5387 2.76459 14.5387C2.56882 14.6229 2.97401 15.8954 3.21303 15.8521C3.07417 16.0479 3.72976 17.0836 3.91187 17.0267C3.96878 18.0898 7.1716 18.5974 7.09876 17.6983C7.06461 17.2657 6.5843 17.9009 4.4286 14.5387L4.43088 14.5364Z" fill="black"/>
</svg>
