<svg width="50" height="16" viewBox="0 0 50 16" fill="none" xmlns="http://www.w3.org/2000/svg">
<path d="M30.9014 13.0235C29.2472 14.4002 26.9616 15.253 24.4333 15.253C21.9051 15.253 19.6195 14.4002 17.9653 13.0235C16.3018 11.6385 15.2734 9.72326 15.2734 7.60767C15.2734 5.49208 16.3009 3.59614 17.9653 2.21852C19.6204 0.848258 21.906 0 24.4333 0C26.9607 0 29.2463 0.848258 30.9014 2.21852C32.5658 3.59614 33.5932 5.50219 33.5932 7.60767C33.5932 9.71315 32.5658 11.6385 30.9014 13.0235Z" fill="black"/>
<path d="M24.4342 14.9891C26.8981 14.9891 29.1239 14.1601 30.7341 12.8202C32.3396 11.4839 33.3312 9.63943 33.3312 7.60655C33.3312 5.57367 32.3405 3.74849 30.735 2.41958C29.1258 1.087 26.899 0.261719 24.4342 0.261719C21.9694 0.261719 19.7435 1.08608 18.1333 2.41958C16.5287 3.74849 15.5371 5.58286 15.5371 7.60655C15.5371 9.63024 16.5287 11.4839 18.1343 12.8202C19.7435 14.1601 21.9694 14.9891 24.4342 14.9891Z" fill="white"/>
<path d="M24.4357 14.4972C26.7627 14.4972 28.8736 13.7224 30.4011 12.4689C31.9184 11.2236 32.8595 9.50413 32.8595 7.60726C32.8595 5.7104 31.9165 4.01572 30.3965 2.77504C28.87 1.52885 26.7608 0.755028 24.4357 0.755028C22.1106 0.755028 19.9968 1.52701 18.4731 2.77136C16.9521 4.01296 16.0128 5.7251 16.0128 7.60726C16.0128 9.48942 16.9502 11.2273 18.4685 12.4726C19.9922 13.7234 22.1014 14.4972 24.4357 14.4972ZM30.5674 12.6711C28.995 13.9623 26.8251 14.76 24.4357 14.76C22.0462 14.76 19.8718 13.9632 18.3021 12.6748C16.7242 11.3799 15.75 9.58776 15.75 7.60726C15.75 5.62677 16.7269 3.85857 18.3076 2.56826C19.8773 1.28714 22.0425 0.492188 24.4357 0.492188C26.8288 0.492188 28.9894 1.28898 30.5619 2.57194C32.1426 3.86224 33.1223 5.64423 33.1223 7.60726C33.1223 9.5703 32.1445 11.3771 30.5674 12.6711Z" fill="black"/>
<path d="M20.6822 14.8394C20.4957 14.7401 20.356 14.5839 20.3156 14.3679C20.2834 14.1915 20.3202 13.9792 20.4589 13.732L20.4608 13.7292L21.5379 11.9151C21.593 11.8103 21.7024 11.7533 21.8218 11.7303C21.9579 11.7046 22.1178 11.7239 22.2032 11.7671C22.2841 11.8075 22.3935 11.9114 22.4578 12.0299C22.4936 12.0051 22.5341 11.9849 22.5764 11.9702C22.7096 11.9224 22.8741 11.9196 22.9614 11.9491C23.0423 11.9766 23.1636 12.0649 23.2445 12.1724C23.2573 12.1632 23.2702 12.154 23.284 12.1457C23.4081 12.0704 23.5744 12.0373 23.6571 12.0373L23.6783 12.0391C23.7656 12.0538 23.9154 12.131 24.0174 12.2385C24.0192 12.2404 24.022 12.2431 24.0238 12.2459C24.0376 12.2312 24.0532 12.2183 24.0688 12.2055C24.1828 12.1126 24.3436 12.0566 24.4328 12.0566C24.5219 12.0566 24.6818 12.1117 24.7958 12.2045C24.8114 12.2174 24.8261 12.2321 24.8408 12.2459C24.8427 12.2431 24.8454 12.2413 24.8473 12.2385C24.9493 12.131 25.1 12.0538 25.1873 12.0391C25.1891 12.0391 25.2094 12.0373 25.2084 12.0373C25.2921 12.0373 25.4492 12.0694 25.5714 12.1448C25.588 12.1549 25.6036 12.1659 25.6183 12.177C25.6992 12.0676 25.8233 11.9775 25.9051 11.95C25.9924 11.9206 26.1569 11.9224 26.2901 11.9711C26.3324 11.9867 26.3728 12.006 26.4087 12.0308C26.473 11.9123 26.5824 11.8084 26.6642 11.768C26.7441 11.7257 26.905 11.7055 27.0419 11.7322C27.1623 11.7551 27.2744 11.8121 27.3295 11.9169L28.4066 13.731L28.4103 13.7375C28.5399 13.9865 28.5748 14.1997 28.5427 14.3762C28.5041 14.5885 28.3708 14.7429 28.1851 14.8412C28.1851 14.8412 28.176 14.8458 28.1769 14.8458C27.9627 14.9414 27.7505 14.9589 27.5593 14.866C27.5097 14.8421 27.4619 14.81 27.4168 14.7705C27.4095 14.7944 27.4012 14.8182 27.392 14.8403C27.324 14.9984 27.1972 15.1077 27.0327 15.1712C27.0134 15.1785 26.9932 15.1849 26.973 15.1914C26.9435 15.2015 26.9105 15.2107 26.8765 15.218C26.7055 15.2557 26.5401 15.2419 26.3958 15.161C26.3361 15.127 26.2809 15.082 26.2313 15.0259C26.2212 15.0535 26.2093 15.0802 26.1964 15.105C26.0953 15.2989 25.9161 15.4055 25.7047 15.4423L25.6955 15.4432C25.4676 15.4671 25.2617 15.4184 25.1083 15.2695C25.0798 15.2419 25.0531 15.2107 25.0283 15.1757C25.0053 15.2162 24.9787 15.2529 24.9493 15.286C24.8408 15.4064 24.6975 15.4708 24.5394 15.4818C24.5091 15.4836 24.4769 15.4836 24.4447 15.4818C24.4208 15.4818 24.3997 15.4809 24.3804 15.4799C24.1957 15.4671 24.033 15.4009 23.9144 15.2704C23.8869 15.2401 23.8621 15.207 23.8409 15.1702C23.8161 15.207 23.7885 15.2401 23.7582 15.2686C23.6047 15.4174 23.3989 15.4662 23.171 15.4423L23.1618 15.4413C22.9504 15.4046 22.7712 15.298 22.6701 15.1041C22.6563 15.0765 22.6434 15.048 22.6324 15.0177C22.5809 15.0783 22.5249 15.1252 22.4633 15.161C22.3126 15.2465 22.1407 15.2575 21.9606 15.2107C21.9395 15.2052 21.9193 15.1987 21.8981 15.1923C21.8779 15.1859 21.8558 15.1785 21.8356 15.1712C21.6711 15.1087 21.5443 14.9984 21.4763 14.8403C21.4662 14.8182 21.4579 14.7953 21.4505 14.7705C21.4055 14.81 21.3586 14.8412 21.309 14.866C21.1179 14.9589 20.9056 14.9414 20.6914 14.8458C20.6914 14.8458 20.6832 14.8412 20.6822 14.8412V14.8394Z" fill="black"/>
<path d="M21.4703 14.2665C21.4703 14.2665 21.4703 14.2646 21.4703 14.2637C21.4822 14.2233 21.496 14.1837 21.5107 14.1451L21.5125 14.1415L21.6366 13.8455L22.2496 12.2896L22.2523 12.2841C22.2661 12.2529 22.2551 12.2088 22.233 12.1637C22.1944 12.0875 22.131 12.0231 22.0869 12.0001C22.0437 11.979 21.9546 11.9707 21.8719 11.9864C21.8241 11.9955 21.7827 12.0121 21.7708 12.036L21.7662 12.0443L20.6891 13.8584C20.5834 14.0477 20.5531 14.2003 20.5751 14.3188C20.5981 14.4447 20.6836 14.5385 20.7994 14.6019C20.9446 14.6662 21.0815 14.6809 21.1955 14.6258C21.3012 14.5743 21.3958 14.4604 21.4712 14.2665H21.4703ZM21.8811 13.9402L21.7184 14.3519C21.7184 14.3519 21.7175 14.3547 21.7166 14.3556C21.6724 14.5146 21.677 14.6387 21.7166 14.7315C21.7551 14.8197 21.8296 14.8831 21.9279 14.9208C21.9417 14.9263 21.9564 14.9318 21.972 14.9364L21.9766 14.9383C21.9932 14.9438 22.0097 14.9484 22.0263 14.953C22.1411 14.9824 22.2468 14.9787 22.3341 14.9291C22.4251 14.8776 22.5032 14.7728 22.5593 14.6037C22.5685 14.5752 22.5768 14.5477 22.5841 14.5219L23.0758 12.4587L23.0785 12.4477C23.0877 12.4201 23.0712 12.3806 23.0445 12.3411C22.9958 12.2694 22.9232 12.2115 22.8782 12.1968C22.835 12.183 22.7449 12.1867 22.6641 12.2161C22.6181 12.2327 22.5804 12.2556 22.5712 12.2832L22.5676 12.2924L21.8792 13.9402H21.8811ZM27.2334 13.8446L27.3575 14.1405V14.1433C27.375 14.1847 27.3878 14.2251 27.3989 14.2628C27.3989 14.2637 27.3989 14.2655 27.3998 14.2665C27.4751 14.4594 27.5698 14.5734 27.6755 14.6249C27.7895 14.6809 27.9264 14.6653 28.0716 14.601C28.1846 14.5385 28.2646 14.4466 28.2866 14.3234C28.3087 14.203 28.2793 14.0477 28.1791 13.8547L27.1039 12.0433L27.0993 12.0351C27.0873 12.0121 27.045 11.9955 26.9954 11.9864C26.9109 11.9698 26.8236 11.9753 26.7923 11.9946L26.784 12.0001C26.739 12.0222 26.6756 12.0875 26.6379 12.1637C26.6159 12.2078 26.6048 12.2529 26.6186 12.2841L26.6214 12.2896L27.2344 13.8455L27.2334 13.8446ZM25.1096 14.2848L25.1353 14.5973C25.1372 14.6249 25.1381 14.6506 25.139 14.6754C25.1583 14.8684 25.2144 14.998 25.2943 15.0761C25.3844 15.1634 25.514 15.1919 25.6628 15.1781C25.7961 15.1542 25.9073 15.0917 25.9661 14.9787C26.0222 14.8712 26.0378 14.7159 25.9918 14.5026L25.5195 12.4606V12.4569C25.5112 12.4211 25.479 12.3907 25.4386 12.3659C25.366 12.3218 25.2759 12.3007 25.2226 12.2979C25.1767 12.3099 25.1004 12.3549 25.0416 12.4165C25.0057 12.4541 24.98 12.4964 24.9828 12.5313V12.535L25.1096 14.2848ZM23.7329 14.6745C23.7329 14.6488 23.7347 14.624 23.7366 14.5991V14.5973L23.7614 14.2858L23.8873 12.535V12.5313C23.8919 12.4955 23.8661 12.4541 23.8303 12.4165C23.7715 12.354 23.6952 12.3099 23.6483 12.2979C23.5932 12.3007 23.4967 12.3218 23.4223 12.3668C23.3855 12.3898 23.357 12.4165 23.3542 12.4431L23.3515 12.4597L22.8791 14.5017C22.8332 14.7149 22.8488 14.8712 22.9048 14.9778C22.9637 15.0908 23.0749 15.1542 23.2081 15.1772C23.357 15.191 23.4866 15.1625 23.5767 15.0752C23.6575 14.9971 23.7136 14.8666 23.732 14.6727L23.7329 14.6745ZM27.1149 14.2407L26.3016 12.2933L26.2979 12.2841C26.2887 12.2556 26.251 12.2327 26.2051 12.217C26.1242 12.1876 26.0332 12.1839 25.9909 12.1977C25.9468 12.2124 25.8742 12.2703 25.8246 12.342C25.7979 12.3815 25.7814 12.4211 25.7906 12.4486L25.7933 12.4597L26.285 14.5229V14.5247C26.2933 14.5615 26.3034 14.5982 26.3153 14.635C26.3659 14.7857 26.4385 14.8804 26.5249 14.9291C26.6094 14.9769 26.7114 14.9842 26.8208 14.9594C26.8419 14.9548 26.8658 14.9474 26.8916 14.9392H26.8962L27.114 14.2416L27.1149 14.2407ZM26.8971 14.9364C26.9118 14.9318 26.9256 14.9272 26.9403 14.9217C27.0386 14.8831 27.114 14.8206 27.1517 14.7315C27.193 14.635 27.1958 14.5045 27.1471 14.3372C27.1379 14.306 27.1268 14.2738 27.1149 14.2416V14.2398C27.1149 14.2398 27.1149 14.2407 27.1149 14.2416L26.8971 14.9364ZM24.8734 14.7682C24.8762 14.7223 24.8752 14.6727 24.8716 14.6184L24.7015 12.5176V12.5074C24.7015 12.4734 24.6721 12.4376 24.6335 12.4064C24.5646 12.3503 24.4782 12.3172 24.435 12.3172C24.3918 12.3172 24.3064 12.3512 24.2365 12.4073C24.1979 12.4376 24.1685 12.4744 24.1685 12.5084V12.5185L23.9985 14.6194C23.9966 14.6524 23.9948 14.6819 23.9948 14.7067C23.9948 14.8859 24.038 15.0109 24.1097 15.0899C24.1786 15.1653 24.2806 15.2048 24.4001 15.213C24.4203 15.2149 24.4378 15.2149 24.4534 15.2149H24.4608L24.8725 14.7682H24.8734ZM24.4617 15.2149C24.4819 15.2158 24.503 15.2158 24.5242 15.2149C24.6151 15.2085 24.6969 15.1726 24.7567 15.1064C24.821 15.0338 24.8642 14.9226 24.8734 14.7692L24.4617 15.2149Z" fill="white"/>
<path fill-rule="evenodd" clip-rule="evenodd" d="M18.7756 9.65074C18.397 9.85936 17.3181 10.1617 17.0157 9.46142C16.5801 9.68842 15.6905 9.85936 15.2558 9.29141C14.5362 9.46142 13.7229 9.82168 13.4196 8.98905C12.7763 9.15907 11.1863 9.557 11.0163 8.51575C10.0697 8.64809 8.70682 8.74275 8.5175 7.74009C7.70417 7.74009 6.30358 7.60775 6.30358 6.68046C5.48932 6.68046 4.07035 6.1318 4.24037 5.46919C3.5024 5.39383 2.51812 4.61725 2.51812 4.10628C1.79853 3.87928 0.985193 3.33062 1.15521 2.59265C0.719595 2.32613 0 2.02285 0 1.58816C0 1.15346 0.340958 0.8125 0.719595 0.8125C1.11661 0.8125 2.57418 1.0395 3.08516 1.0395C3.59614 1.0395 9.80414 0.907159 11.2617 0.982519C12.7193 1.07718 14.5739 1.0395 15.4635 0.944839C16.3724 0.869479 20.2139 0.660861 20.7442 1.72141C21.1228 2.49707 20.8388 2.76267 20.4979 3.06503C20.1385 3.3683 18.9833 3.91696 18.9833 5.73387C18.9833 7.55078 19.2103 8.47807 18.7756 9.65166V9.65074Z" fill="black"/>
<path fill-rule="evenodd" clip-rule="evenodd" d="M1.36294 1.24824C2.68817 1.24824 5.77333 1.3429 6.37897 1.3429C6.9846 1.3429 11.2241 1.81619 11.8867 2.02389C12.1899 2.11855 12.2653 2.42183 11.8867 2.44021C11.5273 2.45951 7.15462 2.51649 6.5113 2.51649C5.86799 2.51649 1.4576 2.59185 0.87126 1.81619C0.435644 1.24824 0.985219 1.26754 1.36294 1.24824ZM18.2077 6.01797C17.9991 5.86633 17.6021 6.30195 17.4504 6.54824C17.3181 6.81292 17.4128 6.96456 17.5644 7.03992C17.716 7.0969 17.9807 6.94526 18.0377 6.81292C18.0947 6.66128 18.4163 6.22659 18.2077 6.01797ZM18.0938 8.06187C17.8098 8.42121 17.5258 8.68681 17.3558 8.91381C17.1858 9.12151 17.3935 9.34942 17.5644 9.40549C17.7537 9.46246 18.0754 9.65178 18.454 8.87521L18.0947 8.06096L18.0938 8.06187ZM16.9018 5.94169C16.7125 6.15031 16.2585 6.47196 16.5994 6.71734C16.9018 6.92596 17.0727 6.71734 17.2244 6.56571C17.3567 6.41407 17.8677 5.90309 17.6784 5.67609C17.489 5.46747 17.0727 5.84611 16.9027 5.94077L16.9018 5.94169ZM15.9175 5.77167C15.2926 6.16869 15.9929 6.50964 16.3908 6.16869C16.5994 5.99867 17.0341 5.65771 16.8448 5.41141C16.6748 5.20279 16.1068 5.67609 15.9175 5.77075V5.77167ZM15.9929 5.01439C15.6905 5.14673 14.7439 5.46839 15.0463 5.88471C15.2163 6.07403 15.5196 5.90401 15.6326 5.82773C15.7649 5.75237 16.4276 5.29745 16.2575 5.03277C16.2006 4.93812 16.0489 4.9758 15.9929 5.01348V5.01439ZM14.346 4.86367C14.0813 5.03369 14.2136 5.69631 14.8193 5.39395C15.4442 5.09067 15.8789 4.78831 15.7842 4.56132C15.6896 4.3527 14.9893 4.52364 14.346 4.86459V4.86367ZM14.6116 3.91708C14.3469 4.01174 14.0629 4.14408 13.8543 4.27642C13.6457 4.40876 13.4757 4.90135 14.2899 4.69274C15.1226 4.46574 15.1602 4.18176 15.0472 3.99244C14.9332 3.80312 14.6686 3.89778 14.6116 3.91708ZM13.5896 3.57612C13.381 3.59542 13.1926 3.76544 13.2487 3.95476C13.324 4.18176 13.8166 4.25712 14.346 3.99244C14.8946 3.70846 14.857 3.65148 14.8 3.50076C14.743 3.34912 14.175 3.46308 13.5887 3.57612H13.5896ZM13.0593 2.89513C12.7377 2.95211 12.7377 3.08445 12.7754 3.19841C12.813 3.31144 12.984 3.52006 13.5326 3.4254C14.1006 3.35004 14.403 3.12213 14.403 2.93373C14.403 2.74533 13.4003 2.85745 13.0593 2.89605V2.89513ZM12.984 2.23251C12.416 2.23251 12.3976 2.83815 13.041 2.80047C13.5519 2.78209 14.1576 2.64883 14.1576 2.45951C14.1383 2.25089 13.4003 2.23251 12.984 2.23251ZM14.8193 2.36485C15.2733 2.36485 16.9202 2.32717 17.3935 2.42183C17.8668 2.49719 18.4531 2.63045 18.6994 3.06515C18.9264 3.42448 18.567 4.01174 18.3961 4.25712C18.2068 4.48412 17.7151 4.95741 17.5258 5.12743C17.3558 5.25977 17.0341 5.05207 17.3172 4.7295C16.9578 4.93812 16.5029 4.90044 16.7115 4.38854C16.3899 4.65322 15.8596 4.67252 16.1813 4.0099C15.9726 4.17992 15.367 4.16154 15.7456 3.65056C15.424 3.74522 15.0647 3.5559 15.2917 3.23425C14.8937 3.29123 14.6483 2.98795 15.083 2.76095C14.686 2.87491 14.5721 2.40161 14.8184 2.36301L14.8193 2.36485ZM9.76648 1.17288C10.3344 1.17288 12.2083 1.28684 12.9086 1.28684C13.6089 1.28684 15.1795 1.24916 15.7475 1.21148C16.3338 1.1738 17.8484 1.13612 18.454 1.21148C19.0596 1.26846 20.3849 1.36312 20.6119 1.98713C20.8582 2.61207 20.3472 2.95211 20.0255 3.19841C19.7039 3.4254 18.7003 4.01174 18.6626 5.52629C18.4163 5.41233 18.0377 5.35627 18.3033 4.8067C18.4549 4.50434 19.1736 3.52006 19.0036 3.06515C18.8336 2.61115 18.284 2.25089 17.0167 2.19483C15.7484 2.15715 13.9692 2.19483 13.3452 2.10017C12.7202 1.98621 10.3354 1.38058 9.84368 1.3236C9.61668 1.28592 9.61668 1.19126 9.76832 1.17196L9.76648 1.17288ZM17.2234 7.5316C16.8825 7.87256 16.3715 8.44051 16.0122 8.74287C15.7659 8.96987 15.9368 9.40549 16.3531 9.21617C16.7501 9.02685 17.489 8.34585 17.6967 7.68324C17.5451 7.64556 17.3751 7.58858 17.2234 7.5316ZM16.2575 7.20994C15.7089 7.58858 14.4599 8.42121 14.2513 8.57285C13.9673 8.76217 13.8157 9.08383 14.3837 9.04615C14.9323 8.98917 15.9736 8.59215 16.7869 7.39926C16.6729 7.36158 16.389 7.26692 16.2566 7.20994H16.2575ZM15.2742 6.6429C14.9525 6.85152 12.8516 7.94883 11.8867 8.23281C11.565 8.34677 11.7167 8.64913 12.0383 8.68681C12.36 8.74379 13.1742 8.74379 14.1392 8.15653C14.7255 7.81558 15.5775 7.19156 15.8421 6.96456C15.7098 6.90758 15.4258 6.73756 15.2742 6.6429ZM14.3846 5.90401C13.8929 6.15031 10.8831 7.39926 9.7288 7.66394C9.40715 7.7393 9.23713 7.9856 9.61485 8.11793C10.0119 8.23189 10.9015 8.17491 11.4511 8.02328C11.9813 7.87164 14.1576 7.17134 14.9902 6.35801C14.8202 6.28265 14.4223 5.99867 14.3846 5.90401ZM7.28696 6.81292C7.81724 6.69896 12.1697 5.71469 13.4196 5.24231C13.7789 5.12835 13.9113 5.24231 13.9683 5.37465C14.0436 5.50699 14.0629 5.69631 13.8166 5.81027C13.5896 5.90493 10.2398 7.28622 8.64987 7.38088C8.08192 7.38088 7.60862 7.17226 7.34394 7.05922C7.17392 6.96456 7.24928 6.96456 7.28696 6.81292ZM5.26143 5.69631C6.01871 5.60165 11.0154 4.8067 12.359 4.44736C12.9077 4.31502 13.154 4.37108 13.2294 4.52272C13.2863 4.67436 13.2863 4.93903 12.9077 5.07137C12.5107 5.20371 8.1003 6.22567 7.28696 6.28265C6.47271 6.32033 5.50773 6.13101 5.24305 5.92331C4.99675 5.73399 5.26235 5.69631 5.26235 5.69631H5.26143ZM3.65314 4.35178C4.2018 4.35178 10.5238 3.87848 11.8481 3.5945C12.3021 3.55682 12.6053 3.53752 12.643 3.72684C12.6807 3.91616 12.6623 4.01082 12.2837 4.12478C11.8858 4.21944 7.1923 5.10905 4.82674 5.14673C4.03178 5.12743 3.10449 4.37108 3.65314 4.35178ZM2.15789 2.93281C2.93355 2.95211 6.79528 2.97049 7.24928 2.95211C7.6849 2.93281 11.1864 2.74349 11.5834 2.72511C11.9997 2.68743 12.3783 2.80047 12.3783 2.93373C12.3783 3.06698 12.303 3.18002 11.8297 3.27468C11.3564 3.38864 7.0039 3.88032 3.71012 3.82334C3.08519 3.84264 2.25255 3.52006 2.02555 3.2177C1.81694 2.91443 2.04485 2.93373 2.15789 2.93373V2.93281ZM19.5945 1.78679C19.3988 1.68845 19.5385 1.40631 19.7351 1.50465C19.8941 1.5846 20.0641 1.67926 20.2002 1.78219C20.3564 1.90074 20.4731 2.03584 20.5007 2.18564L20.5034 2.20035C20.5154 2.34188 20.497 2.47881 20.418 2.62402C20.3454 2.75727 20.2222 2.89329 20.0219 3.04033C19.8454 3.17083 19.6598 2.91627 19.8362 2.78668C19.9961 2.66905 20.0899 2.56796 20.1404 2.47513C20.1845 2.39426 20.1946 2.31431 20.1882 2.22976C20.1707 2.17278 20.1018 2.10477 20.009 2.034C19.8895 1.94302 19.7379 1.85847 19.5945 1.78679Z" fill="white"/>
<path fill-rule="evenodd" clip-rule="evenodd" d="M30.3965 9.6489C30.7752 9.85752 31.8541 10.1599 32.1565 9.45959C32.5728 9.68658 33.4817 9.85752 33.9164 9.28957C34.636 9.45959 35.4493 9.81984 35.7526 8.98721C36.3959 9.15723 37.9858 9.55516 38.1559 8.51391C39.1025 8.64625 40.4654 8.74091 40.6354 7.73826C41.4487 7.73826 42.8686 7.60592 42.8686 6.67862C43.6819 6.67862 45.1018 6.12997 44.9318 5.46735C45.6514 5.39199 46.6348 4.61542 46.6348 4.10444C47.3727 3.87744 48.187 3.32878 48.0161 2.59081C48.4517 2.32613 49.1703 2.02285 49.1703 1.58816C49.1703 1.15346 48.8294 0.8125 48.4508 0.8125C48.0528 0.8125 46.5962 1.0395 46.0852 1.0395C45.5742 1.0395 39.3469 0.907159 37.8903 0.982519C36.4327 1.07718 34.5974 1.0395 33.6885 0.944839C32.7989 0.869479 28.9564 0.660861 28.4271 1.72141C28.0291 2.49707 28.3324 2.76267 28.6734 3.06503C29.0143 3.3683 30.1686 3.91696 30.1686 5.73387C30.1686 7.55078 29.96 8.47807 30.3956 9.65166L30.3965 9.6489Z" fill="black"/>
<path fill-rule="evenodd" clip-rule="evenodd" d="M47.809 1.24824C46.4654 1.24824 43.3802 1.3429 42.7929 1.3429C42.2057 1.3429 37.9478 1.81619 37.2669 2.02389C36.9829 2.11855 36.9075 2.42183 37.2669 2.44021C37.6455 2.45951 42.0173 2.51649 42.6606 2.51649C43.3039 2.51649 47.695 2.59185 48.3006 1.81619C48.717 1.24824 48.1876 1.26754 47.809 1.24824ZM30.9642 6.01797C31.1535 5.86633 31.5698 6.30195 31.7022 6.54824C31.8538 6.81292 31.7398 6.96456 31.5891 7.03992C31.4568 7.0969 31.1921 6.94526 31.1351 6.81292C31.0782 6.66128 30.7565 6.22659 30.9651 6.01797H30.9642ZM31.0782 8.06187C31.3621 8.42121 31.6461 8.68681 31.8161 8.91381C31.9861 9.12151 31.7591 9.34942 31.5891 9.40549C31.4191 9.46246 31.0975 9.65178 30.7188 8.87521L31.0782 8.06096V8.06187ZM32.2701 5.94169C32.4594 6.15031 32.9134 6.47196 32.5541 6.71734C32.2701 6.92596 32.0808 6.71734 31.9485 6.56571C31.8161 6.41407 31.3052 5.90309 31.4945 5.67609C31.6838 5.46747 32.1001 5.84611 32.2701 5.94077V5.94169ZM33.2544 5.77167C33.86 6.16869 33.1597 6.50964 32.7811 6.16869C32.5541 5.99867 32.1185 5.65771 32.3271 5.41141C32.4971 5.20279 33.0651 5.67609 33.2544 5.77075V5.77167ZM33.179 5.01439C33.4814 5.14673 34.428 5.46839 34.1256 5.88471C33.9556 6.07403 33.6523 5.90401 33.5393 5.82773C33.407 5.75237 32.725 5.29745 32.896 5.03277C32.9713 4.93812 33.123 4.9758 33.18 5.01348L33.179 5.01439ZM34.8066 4.86367C35.0906 5.03369 34.9583 5.69631 34.3333 5.39395C33.7277 5.09067 33.2921 4.78831 33.3867 4.56132C33.4814 4.3527 34.1817 4.52364 34.8066 4.86459V4.86367ZM34.5603 3.91708C34.825 4.01174 35.0906 4.14408 35.3176 4.27642C35.5262 4.40876 35.6962 4.90135 34.8636 4.69274C34.0494 4.46574 34.0117 4.18176 34.1256 3.99244C34.2396 3.80312 34.485 3.89778 34.5612 3.91708H34.5603ZM35.5639 3.57612C35.7909 3.59542 35.9802 3.76544 35.9232 3.95476C35.8479 4.18176 35.3553 4.25712 34.8259 3.99244C34.2773 3.70846 34.315 3.65148 34.3719 3.50076C34.4289 3.34912 34.9776 3.46308 35.5648 3.57612H35.5639ZM36.1126 2.89513C36.4342 2.95211 36.4342 3.08445 36.3965 3.19841C36.3396 3.31144 36.1695 3.52006 35.6209 3.4254C35.0722 3.35004 34.7689 3.12213 34.7689 2.93373C34.7689 2.74533 35.7725 2.85745 36.1126 2.89605V2.89513ZM36.1879 2.23251C36.7559 2.23251 36.7559 2.83815 36.1126 2.80047C35.6209 2.78209 35.0143 2.64883 35.0143 2.45951C35.0336 2.25089 35.7716 2.23251 36.1879 2.23251ZM34.3333 2.36485C33.8793 2.36485 32.2324 2.32717 31.7591 2.42183C31.2859 2.49719 30.6995 2.63045 30.4532 3.06515C30.2446 3.42448 30.6049 4.01174 30.7749 4.25712C30.9449 4.48412 31.4375 4.95741 31.6452 5.12743C31.8152 5.25977 32.1369 5.05207 31.8538 4.7295C32.2131 4.93812 32.6681 4.90044 32.4594 4.38854C32.7811 4.65322 33.3114 4.67252 32.9897 4.0099C33.1983 4.17992 33.804 4.16154 33.4253 3.65056C33.747 3.74522 34.1063 3.5559 33.861 3.23425C34.2773 3.29123 34.5043 2.98795 34.088 2.76095C34.4859 2.87491 34.5989 2.40161 34.3342 2.36301L34.3333 2.36485ZM39.4054 1.17288C38.8375 1.17288 36.9452 1.28684 36.2633 1.28684C35.5814 1.28684 33.9924 1.24916 33.4244 1.21148C32.8381 1.1738 31.3235 1.13612 30.7179 1.21148C30.1123 1.26846 28.787 1.36312 28.5407 1.98713C28.3137 2.61207 28.8247 2.95211 29.1464 3.19841C29.468 3.4254 30.4523 4.01174 30.49 5.52629C30.7547 5.41233 31.1149 5.35627 30.8686 4.8067C30.717 4.50434 29.979 3.52006 30.149 3.06515C30.319 2.61115 30.887 2.25089 32.1552 2.19483C33.4235 2.15715 35.2027 2.19483 35.8084 2.10017C36.4333 1.98621 38.8365 1.38058 39.3291 1.3236C39.5378 1.28592 39.5378 1.19126 39.4045 1.17196L39.4054 1.17288ZM31.9301 7.5316C32.271 7.87256 32.8004 8.44051 33.1607 8.74287C33.3877 8.96987 33.2176 9.40549 32.8197 9.21617C32.4034 9.02685 31.6654 8.34585 31.4761 7.68324C31.6277 7.64556 31.7977 7.58858 31.9301 7.5316ZM32.8951 7.20994C33.4437 7.58858 34.712 8.42121 34.9206 8.57285C35.2046 8.76217 35.3369 9.08383 34.7882 9.04615C34.2396 8.98917 33.1983 8.59215 32.385 7.39926C32.499 7.36158 32.7829 7.26692 32.896 7.20994H32.8951ZM33.8793 6.6429C34.201 6.85152 36.3019 7.94883 37.2669 8.23281C37.5885 8.34677 37.4369 8.64913 37.1152 8.68681C36.8129 8.74379 35.9793 8.74379 35.0143 8.15653C34.4464 7.81558 33.5954 7.19156 33.3298 6.96456C33.4621 6.90758 33.7461 6.73756 33.8784 6.6429H33.8793ZM34.7873 5.90401C35.279 6.15031 38.2888 7.39926 39.4431 7.66394C39.7648 7.7393 39.9348 7.9856 39.5378 8.11793C39.1591 8.23189 38.2695 8.17491 37.7208 8.02328C37.1906 7.87164 35.0143 7.17134 34.1817 6.35801C34.3517 6.28265 34.7496 5.99867 34.7873 5.90401ZM41.8849 6.81292C41.3547 6.69896 37.0022 5.71469 35.7523 5.24231C35.393 5.12835 35.2606 5.24231 35.2036 5.37465C35.1283 5.50699 35.109 5.69631 35.336 5.81027C35.5823 5.90493 38.9321 7.28622 40.5027 7.38088C41.0891 7.38088 41.5624 7.17226 41.828 7.05922C41.998 6.96456 41.9226 6.96456 41.8849 6.81292ZM43.8912 5.69631C43.1532 5.60165 38.1565 4.8067 36.8129 4.44736C36.2642 4.31502 36.0179 4.37108 35.9425 4.52272C35.8856 4.67436 35.8856 4.93903 36.2642 5.07137C36.6621 5.20371 41.0716 6.22567 41.8859 6.28265C42.6992 6.32033 43.6651 6.13101 43.9298 5.92331C44.1761 5.73399 43.8921 5.69631 43.8921 5.69631H43.8912ZM45.5004 4.35178C44.9701 4.35178 38.6491 3.87848 37.3238 3.5945C36.8698 3.55682 36.5666 3.53752 36.5289 3.72684C36.4912 3.91616 36.5096 4.01082 36.8882 4.12478C37.2669 4.21944 41.9603 5.10905 44.3452 5.14673C45.1401 5.12743 46.0674 4.37108 45.4995 4.35178H45.5004ZM47.014 2.93281C46.2384 2.95211 42.3775 2.97049 41.9226 2.95211C41.4686 2.93281 37.9855 2.74349 37.5692 2.72511C37.1722 2.68743 36.7743 2.80047 36.7743 2.93373C36.7743 3.06698 36.8689 3.18002 37.3422 3.27468C37.8155 3.38864 42.1689 3.88032 45.4618 3.82334C46.0867 3.84264 46.9193 3.52006 47.127 3.2177C47.354 2.91443 47.1077 2.93373 47.0131 2.93373L47.014 2.93281ZM29.4175 1.50465C29.6132 1.40631 29.7538 1.68845 29.5581 1.78679C29.4138 1.85939 29.2612 1.94394 29.1464 2.03308C29.0535 2.10477 28.9874 2.17369 28.9819 2.227H28.9828C28.9754 2.31431 28.9828 2.3961 29.0241 2.47697C29.0719 2.56887 29.1647 2.66813 29.332 2.78484C29.5121 2.91075 29.3302 3.169 29.151 3.04309C28.9396 2.89513 28.8146 2.75727 28.7448 2.62218C28.6685 2.47605 28.6556 2.34004 28.6676 2.20035H28.6685C28.6823 2.04503 28.7962 1.90534 28.9534 1.78403C29.0894 1.67926 29.2585 1.58368 29.4166 1.50465H29.4175Z" fill="white"/>
<path fill-rule="evenodd" clip-rule="evenodd" d="M24.4357 12.4896C28.0511 12.4896 30.9846 10.3133 30.9846 7.60681C30.9846 4.90028 28.0511 2.76172 24.4357 2.76172C20.8202 2.76172 17.8867 4.93796 17.8867 7.60681C17.8867 10.2756 20.8202 12.4896 24.4357 12.4896Z" fill="black"/>
<path d="M24.4349 11.9524C26.0607 11.9524 27.5311 11.4608 28.5944 10.6667C29.6449 9.88096 30.2946 8.79927 30.2946 7.60729C30.2946 6.41532 29.6421 5.35753 28.5889 4.57636C27.5265 3.78875 26.0579 3.29983 24.4349 3.29983C22.8119 3.29983 21.3433 3.78967 20.2809 4.57636C19.2277 5.35753 18.5752 6.43094 18.5752 7.60729C18.5752 8.78364 19.225 9.88187 20.2754 10.6667C21.3378 11.4617 22.8092 11.9524 24.4349 11.9524ZM28.7617 10.891C27.6524 11.7199 26.1222 12.2327 24.4349 12.2327C22.7476 12.2327 21.2174 11.7199 20.1082 10.891C18.9879 10.0537 18.2949 8.89301 18.2949 7.60729C18.2949 6.32158 18.9906 5.18567 20.1146 4.35211C21.2229 3.53051 22.7513 3.01953 24.4349 3.01953C26.1186 3.01953 27.6469 3.53051 28.7552 4.35211C29.8792 5.18475 30.5749 6.33812 30.5749 7.60729C30.5749 8.87646 29.882 10.0537 28.7617 10.891Z" fill="white"/>
<path fill-rule="evenodd" clip-rule="evenodd" d="M27.3115 5.84448C27.3115 5.12581 26.5543 4.04688 24.378 4.04688C23.0914 4.04688 22.0125 4.36853 21.3691 4.97417C21.5208 5.10651 21.6908 5.29583 21.6908 5.52283V9.44062C21.6715 9.68692 21.5585 9.87624 21.3875 10.0839C21.9932 10.5756 23.0151 11.0112 24.605 10.9735C26.1949 10.9359 27.6709 10.4249 27.6709 8.94802C27.6709 8.32309 27.0845 7.69907 26.4403 7.49045C26.2703 7.43347 26.308 7.26346 26.4403 7.20648C26.5726 7.1495 27.3106 6.58154 27.3106 5.84356L27.3115 5.84448ZM24.5857 10.1271C25.2327 10.1271 25.7428 9.59777 25.7428 8.93056C25.7428 8.26335 25.2327 7.73399 24.5857 7.73399C23.9387 7.73399 23.4287 8.26335 23.4287 8.93056C23.4287 9.59777 23.9387 10.1271 24.5857 10.1271ZM24.4534 7.07506C25.002 7.07506 25.456 6.58338 25.456 5.97774C25.456 5.37211 25.002 4.87951 24.4534 4.87951C23.9047 4.87951 23.4507 5.37119 23.4507 5.97774C23.4507 6.5843 23.9047 7.07506 24.4534 7.07506Z" fill="white"/>
</svg>
