<svg width="20" height="19" viewBox="0 0 20 19" fill="none" xmlns="http://www.w3.org/2000/svg">
<path d="M19.4628 0.0282581C19.106 -0.132566 18.5783 0.442883 18.3999 0.503193C17.8669 0.607965 17.374 0.860485 16.9776 1.23193C16.2891 1.91041 11.9719 8.4012 10.9366 9.60738C10.3838 10.2532 9.93146 10.8286 9.79074 10.8286C9.65002 10.8286 9.1977 10.2532 8.64487 9.60738C7.60956 8.39868 3.2874 1.91041 2.60138 1.23193C2.20497 0.860485 1.71212 0.607965 1.17909 0.503193C1.00067 0.442883 0.475482 -0.132566 0.11614 0.0282581C-0.157772 0.153902 0.138756 0.734378 0.138756 0.734378C0.261887 1.09623 1.76459 4.63187 3.2673 7.90867C4.62425 10.8638 5.9008 13.4119 6.40086 14.407C8.41117 18.3974 9.51684 18.8121 9.78572 18.8171C10.0546 18.8171 11.1728 18.4 13.1706 14.407C13.6731 13.4018 14.9497 10.8638 16.3067 7.90867C17.8144 4.64192 19.3221 1.09623 19.4302 0.734378C19.4377 0.734378 19.7367 0.153902 19.4628 0.0282581ZM18.9603 0.852483C18.2994 1.60384 13.6254 11.3086 12.57 13.1028C11.5146 14.897 10.1677 17.1234 9.79326 17.1234C9.42135 17.1058 8.08701 14.9045 7.02908 13.1028C5.97116 11.3011 1.29217 1.60384 0.631281 0.852483C0.457892 0.64894 0.0307018 0.251904 0.183988 0.166467C0.407634 0.0433354 0.937853 0.636375 1.24945 0.716788C1.68564 0.783796 2.08705 0.994235 2.3903 1.31485C2.9557 1.85261 3.99352 3.54631 5.82792 6.28284C6.9738 7.99662 7.9287 9.31589 8.46394 9.98934C9.12985 10.8337 9.58971 11.2458 9.79074 11.2458C9.99177 11.2458 10.4491 10.8412 11.115 9.98934C11.6503 9.3184 12.6052 7.99914 13.751 6.28284C15.5855 3.54631 16.6208 1.85261 17.1912 1.31485C17.4941 0.99377 17.8956 0.783241 18.332 0.716788C18.6487 0.636375 19.1739 0.0433354 19.395 0.166467C19.5558 0.251904 19.1286 0.64894 18.9502 0.852483H18.9603Z" fill="black"/>
<path d="M17.8997 1.38173C17.6484 1.79384 16.6683 3.71871 15.4169 5.99035C14.0273 8.53088 12.3663 11.4031 12.0346 11.9635C11.4139 13.0114 10.1776 14.798 9.79059 14.8106C9.40611 14.7955 8.16978 13.0114 7.54909 11.961C7.2199 11.4031 5.56894 8.53088 4.16926 5.99035C2.91282 3.72876 1.92275 1.79384 1.68654 1.38173C1.45032 0.969615 1.5232 0.828893 2.01321 1.38173C2.74446 2.22857 4.49845 5.27921 4.49845 5.27921C4.49845 5.27921 7.52396 10.3251 7.99639 10.9935C8.46881 11.6619 9.43627 12.9108 9.78556 12.9234C10.1399 12.9108 11.13 11.6268 11.5772 10.9935C12.0245 10.3603 15.0802 5.27921 15.0802 5.27921C15.0802 5.27921 16.8392 2.23611 17.5705 1.39681C18.0605 0.828893 18.1384 0.934435 17.8997 1.38173Z" fill="black"/>
</svg>
