<svg width="25" height="24" viewBox="0 0 25 24" fill="none" xmlns="http://www.w3.org/2000/svg">
<path d="M24.7899 11.4083C24.0841 11.4083 22.4435 11.4109 21.4591 11.4109C21.1101 11.4109 21.0086 11.349 20.7898 11.117C20.5711 10.885 19.4825 9.72994 19.4825 9.72994C18.0997 8.25524 14.7272 4.99645 13.4954 3.96777C13.0319 3.58105 12.5084 3.59394 12.5006 3.59394C12.4928 3.59394 11.9693 3.58105 11.5058 3.96777C10.274 4.99645 6.90155 8.25524 5.51871 9.72994C5.51871 9.72994 4.43015 10.885 4.2114 11.117C3.99264 11.349 3.89108 11.4109 3.54212 11.4109C2.55512 11.4109 0.917069 11.4083 0.211327 11.4083C0.0394494 11.4083 -0.0673233 11.2021 0.0498662 11.0706C1.46395 9.62681 9.11513 1.81502 10.5474 0.688366C11.0475 0.291331 11.6907 0 12.5006 0C13.3079 0 13.9538 0.291331 14.4538 0.688366C15.8861 1.81502 23.5373 9.62681 24.9513 11.0706C25.0659 11.2021 24.9644 11.4083 24.7899 11.4083ZM0.208723 12.5917C0.914465 12.5917 2.55512 12.5891 3.53951 12.5891C3.88848 12.5891 3.99004 12.6484 4.20879 12.8804C4.42755 13.1125 5.51611 14.2675 5.51611 14.2675C6.89895 15.7422 10.2714 19.001 11.5032 20.0296C11.9667 20.4164 12.4902 20.4035 12.498 20.4035C12.5058 20.4035 13.0293 20.4164 13.4928 20.0296C14.7246 19.0035 18.0971 15.7448 19.4799 14.2675C19.4799 14.2675 20.5685 13.1125 20.7872 12.8804C21.006 12.6484 21.1075 12.5891 21.4565 12.5891C22.4435 12.5891 24.0815 12.5917 24.7873 12.5917C24.9592 12.5917 25.0659 12.7979 24.9487 12.9294C23.5347 14.3732 15.8861 22.1824 14.4512 23.3116C13.9538 23.7087 13.3079 24 12.498 24C11.6907 24 11.0475 23.7087 10.5474 23.3116C9.11253 22.1824 1.46395 14.3732 0.0498662 12.9294C-0.0673233 12.7979 0.0368452 12.5917 0.208723 12.5917ZM11.8964 15.2626V18.4982C11.8964 18.6503 11.748 18.7174 11.623 18.6091C10.2167 17.32 7.08384 14.2469 6.03174 13.0558C5.53173 12.5272 5.57601 11.9936 5.57601 11.9936C5.57601 11.9936 5.52913 11.4547 6.03174 10.9288C7.08384 9.73767 10.2167 6.66452 11.623 5.37544C11.7428 5.26458 11.8964 5.34708 11.8964 5.47599V8.7193C11.8964 9.01321 11.8339 9.16275 11.5761 9.39994C10.9459 9.97228 9.83389 11.0371 9.41982 11.5166C9.23232 11.728 9.24534 11.991 9.24534 11.991C9.24534 11.991 9.23232 12.2565 9.41982 12.4679C9.83389 12.9449 10.9459 14.0122 11.5761 14.582C11.8339 14.8192 11.8964 14.9687 11.8964 15.2626ZM13.4251 14.5846C14.0553 14.0148 15.1673 12.9475 15.5814 12.4705C15.7689 12.2591 15.7559 11.9936 15.7559 11.9936C15.7559 11.9936 15.7689 11.7306 15.5814 11.5192C15.1673 11.0396 14.0553 9.97486 13.4251 9.40251C13.1673 9.16532 13.1048 9.01579 13.1048 8.72188V5.48888C13.1048 5.33677 13.2532 5.26716 13.3782 5.37544C14.7845 6.66452 17.9174 9.73767 18.9669 10.9288C19.4695 11.4573 19.4226 11.9936 19.4226 11.9936C19.4226 11.9936 19.4695 12.5298 18.9669 13.0583C17.9174 14.2494 14.7845 17.3226 13.3782 18.6117C13.2532 18.7199 13.1048 18.6529 13.1048 18.4982V15.2652C13.1074 14.9713 13.1673 14.8218 13.4251 14.5846Z" fill="black"/>
</svg>
