<svg width="37" height="10" viewBox="0 0 37 10" fill="none" xmlns="http://www.w3.org/2000/svg">
<path d="M11.9174 0.233678H18.0402V2.08731H13.8972V3.76237H17.7929V5.58981H13.8972V7.41725H18.2496L18.25 9.25415H11.9178L11.9174 0.233678Z" fill="black"/>
<path d="M34.7137 2.42391C34.3962 2.01805 33.762 1.82749 33.2797 1.82749C32.7215 1.82749 31.9472 2.08133 31.9472 2.75412C31.9472 4.391 36.084 3.33781 36.084 6.48501C36.084 8.48993 34.4726 9.44165 32.62 9.44165C31.4654 9.44165 30.45 9.09907 29.5997 8.31209L31.0082 6.76395C31.4145 7.29709 32.0742 7.61421 32.7339 7.61421C33.3812 7.61421 34.1045 7.30982 34.1045 6.67521C34.1045 5.0256 29.8918 5.91369 29.8918 2.91886C29.8918 1.00269 31.5541 4.75979e-05 33.3179 4.75979e-05C34.3329 4.75979e-05 35.3101 0.266619 36.0713 0.939044L34.7137 2.42391Z" fill="black"/>
<path fill-rule="evenodd" clip-rule="evenodd" d="M24.0999 0.0205204C22.1016 0.0205204 21.3281 1.64758 21.2077 4.04998C21.4957 2.75532 22.6173 1.94215 24.0847 1.94215C25.5284 1.94215 26.6358 2.72913 26.946 3.98707C26.8366 1.5723 26.1158 0.0205204 24.0999 0.0205204ZM26.9413 5.48139C26.6245 6.72769 25.5208 7.50667 24.0847 7.50667C22.6104 7.50667 21.4848 6.68659 21.2033 5.38102C21.307 7.8547 22.0739 9.42212 24.0999 9.42212C26.063 9.42212 26.814 7.84015 26.9413 5.48139ZM25.8085 0.158715C27.2304 0.840596 28.1127 2.42293 28.1127 4.54385C28.1127 6.79097 27.2981 8.58895 25.7423 9.3112C27.7101 8.69223 28.9004 6.94953 28.9004 4.72459C28.9004 2.52439 27.737 0.795501 25.8085 0.158715ZM20.0392 4.93989C20.0392 2.61785 20.9273 0.810048 22.5245 0.107437C20.4985 0.698402 19.269 2.46256 19.269 4.72459C19.269 6.98007 20.492 8.7406 22.5082 9.33666C20.9975 8.68496 20.0392 7.07681 20.0392 4.93989Z" fill="black"/>
<path d="M3.53543 9.25415V9.00831H4.20131V0.492611H3.53543V0.233678H5.2665L9.39453 7.58563V0.492611H8.27587V0.233678H10.127V0.492611H9.70074V9.25415H9.2876L4.50752 0.557346V9.00831H5.58617V9.25415H3.53543Z" fill="black"/>
<path d="M0.000508834 9.25415V9.00831H0.679847V0.491519H0.000508834V0.234405H2.25781V0.491519H1.57192V9.00831H2.25781V9.25415H0.000508834Z" fill="black"/>
</svg>
