<svg width="43" height="5" viewBox="0 0 43 5" fill="none" xmlns="http://www.w3.org/2000/svg">
<path d="M27.3793 4.2476V2.15084C27.3731 2.1498 27.3668 2.14876 27.3616 2.14772C27.3106 2.26941 27.2597 2.39109 27.2087 2.51278C26.9789 3.06505 26.748 3.61732 26.5212 4.17167C26.4942 4.2372 26.4609 4.25696 26.3923 4.25696C26.0262 4.25384 25.659 4.25384 25.2929 4.25696C25.2274 4.25696 25.1962 4.23824 25.1712 4.17584C24.8977 3.5102 24.62 2.84664 24.3444 2.18204C24.3392 2.16852 24.333 2.155 24.309 2.14356V4.24968H21.9023V0.00208012H22.0001C22.9538 0.00208012 23.9076 0.00312018 24.8603 0C24.9362 0 24.9664 0.0260015 24.9965 0.0915251C25.2597 0.683318 25.528 1.27407 25.7942 1.86482C25.8078 1.89499 25.8234 1.92411 25.8442 1.96779C25.866 1.92411 25.8837 1.89291 25.8982 1.86066C26.1666 1.26679 26.4349 0.673958 26.7012 0.0790444C26.723 0.0291216 26.7438 0.00104006 26.8073 0.00104006C27.7828 0.00312018 28.7574 0.00312018 29.7329 0.00312018C29.7485 0.00312018 29.7641 0.00520029 29.786 0.00728041V4.24864H27.3793V4.2476Z" fill="black"/>
<path d="M21.3696 4.24968H18.9712V2.14668C18.965 2.14564 18.9598 2.14356 18.9535 2.14252C18.94 2.17164 18.9255 2.20076 18.913 2.22989C18.6446 2.8768 18.3742 3.52372 18.109 4.17271C18.084 4.23408 18.0528 4.25488 17.9863 4.25384C17.6264 4.25072 17.2655 4.24968 16.9057 4.25384C16.8225 4.25488 16.7819 4.232 16.7497 4.15191C16.4855 3.50604 16.2171 2.86224 15.9488 2.2174C15.9374 2.18932 15.9249 2.16124 15.8968 2.13524V4.24448H13.4922V0.00208012H13.5879C14.5406 0.00208012 15.4943 0.00312018 16.448 0C16.5229 0 16.5541 0.0249614 16.5843 0.0904851C16.8485 0.682278 17.1158 1.27303 17.382 1.86378C17.3955 1.89499 17.4111 1.92515 17.4319 1.97091C17.4517 1.93035 17.4663 1.90123 17.4798 1.87211C17.7502 1.27303 18.0216 0.673958 18.291 0.0738442C18.3118 0.0280816 18.3305 0 18.3898 0C19.3685 0.00208012 20.3472 0.00208012 21.3259 0.00208012C21.3384 0.00208012 21.3498 0.00416023 21.3706 0.00520029V4.24968H21.3696Z" fill="black"/>
<path d="M3.75253 4.24709V2.65476H2.54814V4.24917H0V0.0078125H2.5419V1.55646H3.74733V0.00885256H6.29651V4.24709H3.75149H3.75253Z" fill="black"/>
<path d="M41.3112 2.66671C41.3466 2.65631 41.3643 2.65111 41.3819 2.64591C41.6888 2.55854 41.9592 2.40566 42.1911 2.1862C42.5645 1.83466 42.6654 1.40304 42.5437 0.917332C42.4282 0.455546 42.0892 0.227773 41.6544 0.110246C41.331 0.0228813 40.9992 0.00312018 40.6664 0.00208012C39.2373 0 37.8093 0.00104006 36.3803 0H36.2773V4.24344H38.8276V2.75719C38.8348 2.75407 38.8411 2.74991 38.8484 2.74679C38.8733 2.77384 38.8983 2.80088 38.9233 2.82792C39.359 3.28346 39.7938 3.73901 40.2327 4.19248C40.2628 4.22368 40.3159 4.2476 40.3585 4.24864C41.2124 4.25176 42.0663 4.25072 42.9202 4.25072C42.9431 4.25072 42.9649 4.24656 43.0003 4.2424C42.4324 3.71301 41.876 3.19298 41.3091 2.66463L41.3112 2.66671ZM40.2431 1.63185C40.2004 1.7421 40.1245 1.82218 40.0164 1.86482C39.9331 1.89707 39.8447 1.91683 39.7574 1.93451C39.7002 1.94595 39.6399 1.94283 39.5816 1.94283C39.3341 1.94283 39.0865 1.94283 38.8317 1.94283V0.875729C39.1614 0.875729 39.4859 0.854928 39.8052 0.88093C40.1942 0.912131 40.3866 1.26575 40.2431 1.63185Z" fill="black"/>
<path d="M6.77385 0.0078125H9.31991V0.130539C9.31991 1.00939 9.31991 1.88824 9.31991 2.76813C9.31991 2.81493 9.31991 2.86173 9.32407 2.9075C9.34175 3.12383 9.44056 3.24343 9.65169 3.29128C9.8233 3.32976 9.99803 3.32976 10.1676 3.28192C10.3288 3.23615 10.4276 3.12903 10.4494 2.9595C10.4567 2.90126 10.4619 2.84197 10.4619 2.78373C10.4619 1.89864 10.4619 1.01355 10.4619 0.128459V0.00989262H13.0007C13.0028 0.0410944 13.0059 0.0733362 13.0059 0.105578C13.0059 1.01563 13.01 1.92568 13.0028 2.83573C13.0017 3.02294 12.9809 3.21535 12.931 3.39528C12.8124 3.82275 12.4879 4.04428 12.0885 4.17741C11.7474 4.29077 11.3938 4.33758 11.037 4.36254C10.2736 4.41558 9.51024 4.41558 8.74684 4.36254C8.37138 4.33654 8.00007 4.28661 7.64229 4.15973C7.07442 3.95899 6.78217 3.56377 6.77697 2.96054C6.77073 2.17113 6.77489 1.38277 6.77385 0.593365C6.77385 0.400955 6.77385 0.208544 6.77385 0.0078125Z" fill="black"/>
<path d="M35.796 0.0078125V1.02291H32.8786V1.65839H35.7928V2.58924H32.8807V3.22575H35.7908V4.24397H30.3242V0.0078125H35.7949H35.796Z" fill="black"/>
</svg>
