<svg width="49" height="27" viewBox="0 0 49 27" fill="none" xmlns="http://www.w3.org/2000/svg">
<path fill-rule="evenodd" clip-rule="evenodd" d="M24.3044 0C37.6866 0 48.6017 5.95269 48.6017 13.254C48.6017 20.5553 37.6866 26.5009 24.3044 26.5009C10.9222 26.5009 0 20.5472 0 13.254C0 5.96077 10.9151 0 24.3044 0Z" fill="black"/>
<path fill-rule="evenodd" clip-rule="evenodd" d="M13.3877 12.7619H15.5197L16.09 11.6424H18.0433L18.0221 12.7619H19.8754L20.3246 7.72171L20.4962 5.83203H18.2644L17.8575 6.40943L15.0271 10.4301L13.6007 12.455L13.3867 12.7619H13.3877ZM17.8575 8.99058L18.5419 7.93571H18.5843L18.3774 9.93239L17.8565 9.90413L17.2862 9.87587L17.8565 8.99159L17.8575 8.99058Z" fill="white"/>
<path fill-rule="evenodd" clip-rule="evenodd" d="M26.6211 12.7609H28.1756C29.2668 12.7609 30.1723 12.5973 30.9062 12.2834C31.0132 12.241 31.1131 12.1905 31.2131 12.1411C31.7975 11.8483 32.2609 11.4849 32.6101 11.0569C33.024 10.5512 33.3591 9.96571 33.6297 9.30351C33.8578 8.72611 33.986 8.22643 34.0001 7.79944C34.0143 7.37143 33.9214 7.00803 33.7225 6.7163C33.5156 6.42357 33.2017 6.2025 32.7747 6.0531C32.3679 5.91077 31.848 5.8391 31.2131 5.83203H29.4233L27.677 10.1525L26.6221 12.7619L26.6211 12.7609ZM30.6569 7.97003C30.8779 7.97003 31.0637 7.99123 31.2131 8.02757C31.4059 8.07704 31.5411 8.15577 31.6047 8.27691C31.7259 8.47678 31.7047 8.79071 31.526 9.21771C31.4331 9.45997 31.3261 9.66691 31.212 9.84558C31.0697 10.0596 30.9193 10.2231 30.7487 10.3372C30.4489 10.5512 30.0572 10.6511 29.5727 10.6511L30.6569 7.97003Z" fill="white"/>
<path fill-rule="evenodd" clip-rule="evenodd" d="M37.6851 9.51255L35.9883 10.1041L35.639 10.2323L35.8308 10.6098L35.9883 10.5533L39.0176 9.51255V8.25781H35.9883H35.5391V9.51255H35.9883H37.6851Z" fill="white"/>
<path fill-rule="evenodd" clip-rule="evenodd" d="M20.1602 12.7619H20.3247H21.2796H21.9852L23.4832 9.09052L23.9395 12.7619H25.9281L27.6755 8.44145L28.7303 5.83203H27.6755H26.7841L25.8353 8.16385L25.379 9.46805L24.7663 5.83203H22.9553L21.2796 9.98892L20.3247 12.3419L20.1602 12.7619Z" fill="white"/>
<path fill-rule="evenodd" clip-rule="evenodd" d="M13.4681 10.9227H11.7349L13.6034 6.35997L13.8174 5.83203H13.6034H11.9135L9.11133 12.7619H12.7403L13.4681 10.9227Z" fill="white"/>
<path fill-rule="evenodd" clip-rule="evenodd" d="M8.29832 16.1061L8.70513 15.9627L10.3445 15.3853L10.1517 15.0078L8.70513 15.5065L6.96484 16.1061V17.3608H8.70513H10.4444V16.1061H8.70513H8.29832Z" fill="white"/>
<path fill-rule="evenodd" clip-rule="evenodd" d="M41.7492 13.8743C41.4423 13.7108 41.0224 13.625 40.4803 13.625H37.8497L35.9893 18.1453L34.998 20.5548H37.1159L38.0567 18.2806L38.1637 20.5548H40.5661L40.1381 17.7314C41.0224 17.4538 41.6422 16.8754 42.0066 15.9992C42.2348 15.4501 42.3206 15.0009 42.2772 14.6445C42.2277 14.2953 42.0561 14.0389 41.7492 13.8743ZM39.9453 16.0345C39.803 16.3909 39.5961 16.619 39.3397 16.7189C39.2468 16.7543 39.1539 16.7694 39.0469 16.7694H38.6765L39.2397 15.4006H39.6819C39.8383 15.4006 39.9383 15.4652 39.9817 15.5863C40.0311 15.7145 40.017 15.865 39.9463 16.0356L39.9453 16.0345Z" fill="white"/>
<path fill-rule="evenodd" clip-rule="evenodd" d="M39.3408 3.59431C38.3 3.13097 37.1805 2.7171 35.9904 2.36076C34.4934 1.89743 32.8965 1.52696 31.2137 1.25542C30.073 1.06968 28.89 0.927353 27.6776 0.834484C26.5723 0.748682 25.4528 0.699219 24.3051 0.699219C23.2785 0.699219 22.2731 0.734549 21.2818 0.80622C20.9608 0.827418 20.6469 0.855683 20.3269 0.884957C19.4931 0.956627 18.6653 1.05555 17.8598 1.17669C16.8897 1.32608 15.9489 1.50476 15.0293 1.71169C14.5448 1.82576 14.0744 1.94689 13.6029 2.06803C11.8273 2.55256 10.188 3.15217 8.70512 3.8507C3.80124 6.14618 0.699219 9.51167 0.699219 13.2547C0.699219 16.9977 3.80023 20.3551 8.70512 22.6587C10.188 23.3501 11.8273 23.9487 13.6029 24.4343C14.0733 24.5625 14.5438 24.6766 15.0293 24.7906C15.9489 24.9976 16.8897 25.1752 17.8598 25.3256C18.6653 25.4468 19.492 25.5467 20.3269 25.6254C20.6479 25.6537 20.9618 25.6749 21.2818 25.6971C22.2731 25.7688 23.2785 25.8041 24.3051 25.8041C25.4528 25.8041 26.5723 25.7546 27.6776 25.6759C28.89 25.583 30.073 25.4407 31.2137 25.2479C32.8965 24.9774 34.4934 24.6059 35.9904 24.1496C37.1805 23.7862 38.3 23.3723 39.3408 22.909C44.5666 20.6065 47.9029 17.1269 47.9029 13.2557C47.9029 9.38448 44.5666 5.89786 39.3408 3.59531V3.59431ZM39.3408 22.1731C38.3071 22.6435 37.1805 23.0645 35.9904 23.4279C34.5005 23.8912 32.8965 24.2687 31.2137 24.5473C30.073 24.7331 28.89 24.8754 27.6776 24.9683C26.5723 25.0541 25.4528 25.0965 24.3051 25.0965C23.2785 25.0965 22.2731 25.0611 21.2818 24.9965C20.9608 24.9753 20.6398 24.9471 20.3269 24.9178C19.4931 24.8391 18.6653 24.7391 17.8598 24.618C16.8897 24.4686 15.9418 24.2899 15.0293 24.083C14.5448 23.9689 14.0663 23.8478 13.6029 23.7196C11.8203 23.228 10.1739 22.6213 8.70512 21.9087C4.2141 19.7484 1.39775 16.6616 1.39775 13.2537C1.39775 9.84579 4.2141 6.75891 8.70512 4.59164C10.1739 3.88603 11.8203 3.27229 13.6029 2.78069C14.0663 2.65249 14.5438 2.53136 15.0293 2.42436C15.9418 2.21036 16.8897 2.03269 17.8598 1.88229C18.6653 1.76115 19.492 1.66122 20.3269 1.58248C20.6408 1.55422 20.9618 1.53302 21.2818 1.50375C22.2731 1.43914 23.2785 1.40381 24.3051 1.40381C25.4528 1.40381 26.5723 1.44621 27.6776 1.53201C28.89 1.62488 30.073 1.76721 31.2137 1.96001C32.8965 2.23055 34.5005 2.60909 35.9904 3.07242C37.1805 3.43582 38.3071 3.86383 39.3408 4.33423C44.1528 6.50857 47.2043 9.70245 47.2043 13.2527C47.2043 16.8029 44.1528 19.9968 39.3408 22.1711V22.1731Z" fill="white"/>
<path fill-rule="evenodd" clip-rule="evenodd" d="M33.3079 17.9596H35.0119L35.7467 16.1839H34.0347L34.3062 15.5207H35.989H36.203L36.9793 13.625H35.989H32.9728L31.2123 17.895L30.1211 20.5548H31.2123H34.1639L34.9331 18.6864H33.0081L33.3079 17.9596Z" fill="white"/>
<path fill-rule="evenodd" clip-rule="evenodd" d="M32.3033 13.625H31.2131H30.0149L28.2897 16.191L27.677 17.2105L27.3267 17.7879H27.2843L27.6689 16.1486L27.677 16.1062L28.0757 13.625H27.677H25.752L25.1816 20.5548H27.1702L27.677 19.8704L31.2131 15.1008L32.3033 13.625Z" fill="white"/>
<path fill-rule="evenodd" clip-rule="evenodd" d="M23.9271 13.7622C23.6202 13.5765 23.2356 13.4766 22.7793 13.4766C22.3231 13.4766 21.8739 13.5694 21.4105 13.7542C21.3681 13.7754 21.3247 13.7895 21.2823 13.8107C20.9543 13.953 20.6403 14.1317 20.3274 14.3457C20.2416 14.4103 20.1639 14.4739 20.0781 14.5385C19.643 14.8736 19.2584 15.2653 18.9091 15.7074C18.5528 16.1496 18.2813 16.62 18.0824 17.1045C17.9895 17.3256 17.9189 17.5466 17.8613 17.7606C17.7614 18.1664 17.7261 18.552 17.7614 18.9225C17.7826 19.0931 17.8119 19.2577 17.8613 19.407C17.9683 19.7422 18.147 20.0198 18.3963 20.2409C18.7527 20.5619 19.2231 20.7254 19.7934 20.7254C19.9721 20.7254 20.1497 20.7113 20.3284 20.683C20.6423 20.6254 20.9563 20.5336 21.2833 20.3902C21.3903 20.3479 21.4903 20.2974 21.5973 20.2409C22.2322 19.9128 22.8026 19.4777 23.3154 18.9215C23.8362 18.3653 24.2279 17.7596 24.4984 17.1035C24.6983 16.619 24.8053 16.1486 24.8265 15.6994C24.8406 15.2502 24.777 14.8656 24.6196 14.5375C24.4631 14.2094 24.235 13.946 23.9281 13.7602L23.9271 13.7622ZM22.3009 17.1277C22.1515 17.4982 21.9233 17.8051 21.6165 18.0615C21.5024 18.1543 21.3883 18.2331 21.2813 18.2896C21.0956 18.3895 20.9109 18.439 20.7393 18.439C20.5676 18.439 20.4324 18.3895 20.3254 18.2967C20.2608 18.2321 20.2113 18.1543 20.176 18.0544C20.076 17.798 20.1043 17.4911 20.2547 17.1277C20.2759 17.0702 20.2971 17.0137 20.3264 16.9561C20.4758 16.6644 20.6827 16.414 20.9391 16.193C21.0532 16.1001 21.1673 16.0214 21.2813 15.9578C21.4671 15.8578 21.6447 15.8084 21.8234 15.8084C22.0939 15.8084 22.2867 15.9366 22.3867 16.1859C22.4866 16.4423 22.4583 16.7562 22.3009 17.1267V17.1277Z" fill="white"/>
<path fill-rule="evenodd" clip-rule="evenodd" d="M17.9595 14.6445C17.9454 14.5163 17.9101 14.4023 17.8596 14.2953C17.7738 14.1166 17.6315 13.9743 17.4387 13.8743C17.1318 13.7108 16.7048 13.625 16.1627 13.625H13.5392L10.6875 20.5548H12.8053L13.6038 18.6086L13.7391 18.2806L13.8461 20.5548H16.2485L15.8205 17.7314C16.7119 17.4538 17.3317 16.8754 17.6961 15.9992C17.7607 15.8357 17.8172 15.6782 17.8596 15.5288C17.9595 15.1866 17.9949 14.8949 17.9595 14.6445ZM15.6358 16.0345C15.4864 16.3909 15.2865 16.619 15.0301 16.7189C14.9373 16.7543 14.8373 16.7694 14.7303 16.7694H14.3599L14.9231 15.4006H15.3723C15.5217 15.4006 15.6217 15.4652 15.6721 15.5863C15.7216 15.7145 15.7075 15.865 15.6368 16.0356L15.6358 16.0345Z" fill="white"/>
</svg>
