<svg width="54" height="21" viewBox="0 0 54 21" fill="none" xmlns="http://www.w3.org/2000/svg">
<path d="M26.7822 20.5042C22.287 19.8007 13.2512 17.9805 9.2813 17.0392C6.20835 16.3082 5.84844 15.3052 5.47677 13.5956L5.46244 13.5294C5.34841 13.006 4.38469 7.81041 3.98446 5.62523L0 -1.54589e-05H53.7262L49.7418 5.62523C49.3624 7.69669 48.378 13.0014 48.2639 13.5288L48.2495 13.5956C47.8779 15.3052 47.5179 16.3082 44.4453 17.0391C40.4866 17.9778 31.4502 19.7974 26.9381 20.5042L26.8601 20.5164L26.7822 20.5042Z" fill="white"/>
<path d="M52.7525 0.501872L49.2666 5.42304C48.8843 7.51301 47.8853 12.8964 47.7719 13.4204C47.4439 14.9271 47.2866 15.8435 44.3291 16.5472C40.3914 17.4808 31.3848 19.2959 26.8605 20.0046C22.3378 19.2968 13.3356 17.4808 9.39796 16.5472C6.44039 15.8435 6.28322 14.9271 5.95503 13.4204C5.84169 12.8998 4.8426 7.51301 4.46035 5.42304L0.974609 0.501872H52.7525Z" fill="black"/>
<path d="M50.0034 1.4294H3.72656L6.47539 5.35423C7.16254 9.43609 7.58771 12.0604 7.76384 12.9752C8.06965 14.5669 8.12374 15.2533 9.76796 15.6965C13.0372 16.4696 22.512 18.4178 26.8663 19.075C31.2205 18.4178 40.6962 16.4722 43.9672 15.6965C45.6113 15.2533 45.6654 14.5669 45.9712 12.9752C46.1431 12.0604 46.5725 9.43609 47.2598 5.35423L50.0034 1.4294Z" fill="white"/>
<path d="M12.288 9.35229H7.84354L7.5 7.31564H26.5834V9.35229H26.068V7.79321H12.1265L12.288 9.35229Z" fill="black"/>
<path d="M7.42016 6.85229H26.5758V5.35942H7.17188L7.42016 6.85229Z" fill="black"/>
<path d="M19.4023 11.8601H26.5792V10.7907H19.4049L19.4023 11.8601Z" fill="black"/>
<path d="M6.98436 4.88354H11.5242L10.6652 3.38977H26.0662V4.87749H26.5815V2.87348H5.57812L6.98436 4.88354Z" fill="black"/>
<path d="M34.3889 2.87133H27.1484V5.87183H34.3923L34.3889 2.87133Z" fill="black"/>
<path d="M8.877 14.4418C8.99467 14.6204 9.21282 14.8284 9.93703 15.0251C10.2875 15.111 10.6775 15.1969 11.2169 15.3171H18.9023V14.258H8.77734C8.80413 14.3222 8.83701 14.3838 8.8753 14.4418H8.877Z" fill="black"/>
<path d="M8.43632 12.825H18.9007V9.83303H7.92188L8.43632 12.825Z" fill="black"/>
<path d="M19.4023 17.0237C22.0824 17.551 24.7024 18.0381 26.5836 18.3328V13.3119H19.4023V17.0237Z" fill="black"/>
<path d="M34.8848 9.35229H45.8868L46.3893 6.3509H34.8848V9.35229Z" fill="black"/>
<path d="M34.8848 3.82617V4.89136L46.7183 4.88703L47.4604 3.82617H34.8848Z" fill="black"/>
<path d="M27.1484 11.8598H27.6638V10.3488H41.3545C41.3365 10.4957 41.2085 11.5085 41.1424 11.864H45.4657L45.8093 9.83251H27.1484L27.1484 11.8598Z" fill="black"/>
<path d="M27.1484 13.8171H45.1016L45.3918 12.3302H27.1484V13.8171Z" fill="black"/>
<path d="M34.3924 7.31633H27.1484V8.38745H34.3924V7.31633Z" fill="black"/>
<path d="M31.2072 17.0927C30.4916 17.2293 28.485 17.5789 27.6639 17.7276V14.7734H40.3504C39.743 15.4881 38.4932 15.7003 31.2072 17.0927ZM27.1484 14.2589V18.3289C31.7124 17.5824 40.5746 15.8249 43.7993 15.0226C44.5277 14.8413 44.7433 14.6214 44.861 14.4427C44.8998 14.3852 44.9322 14.3236 44.9573 14.2589H27.1484Z" fill="black"/>
</svg>
