<svg width="21" height="20" viewBox="0 0 21 20" fill="none" xmlns="http://www.w3.org/2000/svg">
<path d="M15.6631 10C15.6631 11.6177 15.0372 13.0548 14.0394 14.0953C13.0374 15.1338 11.701 15.7505 10.2129 15.7529C8.72384 15.7505 7.3888 15.1338 6.3854 14.0953C5.38814 13.0548 4.76266 11.6177 4.76172 10H15.6631Z" fill="#ACAEAF"/>
<path d="M20.4252 9.9997C20.4271 7.22184 19.2574 4.69437 17.4065 2.90185C15.5575 1.10363 13.0031 -0.000474937 10.2126 1.53391e-07C7.42159 -0.000474937 4.86821 1.10268 3.01824 2.90185C1.1678 4.69437 -0.00141595 7.22184 1.28695e-06 9.9997H4.76191C4.76239 8.38059 5.38833 6.94344 6.38512 5.90394C7.38853 4.86635 8.72356 4.24826 10.2126 4.24588C11.7007 4.24826 13.0376 4.86587 14.0396 5.90394C15.0369 6.94344 15.6628 8.38154 15.6628 9.9997H20.4252Z" fill="#ACAEAF"/>
<path d="M2.28612e-06 10C-0.00188736 12.7769 1.1678 15.3034 3.01824 17.0983C4.86774 18.8961 7.42159 19.9992 10.2126 19.9992H10.214C13.0041 19.9992 15.5561 18.8946 17.406 17.0983C19.2574 15.3034 20.4271 12.7769 20.4257 10H15.6623C15.6623 11.6177 15.0369 13.0548 14.0391 14.0953C13.0372 15.1338 11.7007 15.7505 10.2126 15.7529C8.72356 15.7505 7.38852 15.1338 6.38465 14.0953C5.38786 13.0548 4.76239 11.6177 4.76191 10H2.28612e-06Z" fill="#6A6B71"/>
</svg>
