<svg width="57" height="17" viewBox="0 0 57 17" fill="none" xmlns="http://www.w3.org/2000/svg">
<path fill-rule="evenodd" clip-rule="evenodd" d="M56.3434 7.40868C56.3434 7.40868 55.5776 3.77202 48.9807 0.779567L49.2038 1.77254C49.2038 1.77254 48.4475 1.69689 47.8153 1.35767C47.8153 1.35767 45.0006 0.0127406 43.4259 0C43.4259 0 43.5241 0.885474 43.7841 1.50738C43.7841 1.50738 42.4018 1.31069 39.8047 2.83479C39.6712 2.92955 39.6798 3.00201 39.7929 2.96538C39.7929 2.96538 43.6058 1.47871 45.3116 3.29345C45.3116 3.29345 44.2741 1.03199 44.4712 0.823363C44.4712 0.823363 45.6367 1.04792 48.3587 2.5314C48.3587 2.5314 53.231 3.16844 55.0491 7.11883C55.0491 7.11883 55.6813 8.28698 54.8119 8.2408C54.4577 8.22248 53.2318 8.07915 52.159 7.39753C51.0862 6.7159 50.5011 5.41795 48.42 5.28656C48.42 5.28656 49.3239 7.77099 51.1082 8.80139L51.1019 8.40324C51.1019 8.40324 51.3619 7.96926 54.453 8.75042C54.453 8.75042 55.7653 8.88818 55.8337 10.6313C55.8337 10.6313 54.5975 10.9147 52.8698 10.1336C52.8698 10.1336 52.5815 10.0739 53.9795 11.5589L54.3541 12.0057C54.3541 12.0057 54.5465 12.2079 53.6237 12.5089C53.6237 12.5089 53.0433 12.7781 52.4386 12.1856C52.4386 12.1856 50.3873 10.2729 49.8469 9.8501C49.06 9.1629 48.1993 9.22581 48.1993 9.22581C47.3998 9.12548 47.2757 9.50929 47.2757 9.50929C46.0144 11.9388 47.0283 15.1518 47.0283 15.1518C47.0943 15.3978 47.2844 15.2991 47.2844 15.2991C48.0501 15.1375 49.3592 15.4329 49.3592 15.4329C49.3592 15.4329 48.6948 16.4768 45.8385 16.2825C45.8385 16.2825 44.9503 16.1328 45.2464 15.6734C45.2464 15.6734 46.9003 13.294 45.6202 10.1869C45.6202 10.1869 45.2597 9.1629 44.0244 7.86575C44.0244 7.86575 43.6906 7.7471 44.6197 7.35373C44.6197 7.35373 46.8461 6.52241 49.3522 8.41359C49.3522 8.41359 49.2493 8.14285 48.7907 7.74949C47.5192 6.65857 44.5082 4.93301 41.011 7.78532C42.0806 8.07676 44.143 9.22262 44.9432 11.0286C45.6351 12.5901 45.1678 15.3923 43.4754 16.5859C43.9074 16.8025 46.2807 17.1783 48.3548 16.7348C49.8579 16.4131 51.1436 15.5834 50.915 13.9852C50.915 13.9852 50.6488 14.4439 50.3684 14.5936C50.3684 14.5936 49.9506 14.9838 49.6561 14.0641C49.6561 14.0641 49.4849 13.7416 49.77 13.1929C49.77 13.1929 49.3663 13.2654 49.4378 12.7502C49.4378 12.7502 49.4378 12.2979 49.803 11.8695C49.803 11.8695 49.4849 11.8169 49.6176 11.59L49.7598 11.2046C49.7598 11.2046 49.1912 11.5629 49.1284 13.1364C49.1284 13.1364 49.06 14.7385 49.4755 14.8659L49.8281 15.0793L48.5888 14.8484C48.5888 14.8484 48.4011 14.8253 48.566 14.6008C48.566 14.6008 49.1456 13.9263 48.987 13.4883C48.987 13.4883 48.4184 14.2265 47.4972 14.3069C47.4972 14.3069 47.2074 14.3937 47.1391 13.9032L47.0707 13.4828C47.0707 13.4828 46.9851 13.3848 47.3433 13.1141L47.7297 12.7685L47.2467 12.4978C47.2467 12.4978 47.0307 12.4285 47.1273 12.0542C47.2239 11.6792 47.5082 11.3798 47.6613 11.2993C47.6613 11.2993 47.8207 11.2189 47.542 11.1035C47.542 11.1035 47.2749 10.988 47.377 10.8041C47.377 10.8041 47.7179 10.0603 47.9283 9.93371C47.9283 9.93371 48.0705 9.7203 48.9744 9.93928C48.9744 9.93928 49.9239 10.1177 49.9011 10.6543L49.964 11.4674C49.964 11.4674 49.9695 11.6346 50.1744 11.508L50.4697 11.3463C50.4697 11.3463 50.6229 11.277 50.5891 11.1385C50.5553 10.9999 50.5553 10.8908 50.5553 10.8908C50.5553 10.8908 51.0839 11.2595 51.1012 11.5534C51.1012 11.5534 51.1522 11.6457 51.0611 11.6744L50.9307 11.7317L50.9417 12.6307C50.9417 12.6307 50.9417 12.9532 51.1922 12.7231L51.8119 12.2103C51.8119 12.2103 52.0334 12.4524 52.0844 12.5909C52.0844 12.5909 52.2093 12.7462 51.9933 12.9023L51.6352 14.3778C51.6352 14.3778 52.8635 13.6054 53.0111 13.2073C53.0111 13.2073 53.0567 13.0456 53.3637 13.0806C53.6708 13.1149 54.5292 13.1037 54.5292 13.1037L54.8363 13.2017L54.4891 13.38C54.4891 13.38 54.2842 13.4318 54.2614 13.7893C54.2386 14.1469 54.1986 14.5442 54.1986 14.5442C54.1986 14.5442 55.3507 13.6365 55.8902 12.6729C55.8902 12.6729 56.4462 11.727 56.2444 10.7101L56.1211 9.0777C56.1211 9.0777 56.1737 8.75679 56.341 8.47093C56.5083 8.18585 56.5169 7.88247 56.341 7.40947L56.3434 7.40868ZM49.7551 1.87447L49.6506 1.49941C49.6506 1.49941 50.6268 2.09583 50.6449 2.22244C50.3637 2.04965 49.7543 1.87447 49.7543 1.87447H49.7551ZM51.7765 7.52414C51.7059 7.52016 51.0195 7.41266 50.6912 7.15466C50.3621 6.89666 50.143 6.36554 50.143 6.36554C50.143 6.36554 50.0401 6.17522 50.2137 6.23654C50.3873 6.29785 50.7768 6.49692 50.9425 6.7159C51.2174 7.04318 51.5323 7.31551 51.6705 7.40549C51.8087 7.49547 51.8472 7.52732 51.7765 7.52414ZM55.4755 12.4086C55.43 12.5654 55.3067 12.7335 55.2462 12.6801C55.1865 12.6268 55.1543 12.5511 55.031 12.3512C54.9077 12.1514 55.0593 12.1012 55.0593 12.1012C55.3271 11.969 55.7041 11.5335 55.7041 11.5335C55.7677 11.6943 55.5211 12.2517 55.4748 12.4086H55.4755ZM12.3945 5.36858L12.389 5.36619C12.2884 5.34071 8.26668 4.41383 8.26668 4.41383C8.22113 4.40109 8.18893 4.37481 8.18893 4.34376C8.18893 4.30155 8.2494 4.26652 8.32322 4.26652L15.422 4.26333C15.6529 4.26333 15.8202 4.22113 15.9788 4.07302C16.1257 3.93526 16.3432 3.72106 16.4508 3.61754C16.6047 3.47023 16.6503 3.42803 16.6291 3.37149C16.6079 3.31575 16.4767 3.32769 16.3479 3.32769L5.87686 3.3253C4.73418 3.3253 3.80826 3.85723 3.80826 4.51337C3.80826 4.97601 4.31245 5.44582 4.97921 5.65525C5.14492 5.70701 5.3177 5.75956 5.3177 5.75956C5.3177 5.75956 8.46851 6.50011 8.66564 6.54868C8.7159 6.56063 8.75124 6.5885 8.75124 6.62194C8.75124 6.66574 8.69862 6.70077 8.58474 6.70077C8.37741 6.70077 1.17969 6.69759 1.17969 6.69759C0.948802 6.69759 0.78702 6.74616 0.622882 6.8879C0.534923 6.96435 0.436755 7.06149 0.359791 7.14351C0.359791 7.14351 0.161883 7.34099 0.0676409 7.42938C0.0629288 7.43495 -0.0328837 7.52016 0.0118812 7.60854C0.0535046 7.69056 0.121045 7.6826 0.171307 7.6826H11.6044C12.7589 7.6826 13.695 7.1451 13.695 6.48179C13.695 5.97854 13.1578 5.54854 12.3953 5.37018L12.3945 5.36858ZM42.511 4.33739C42.6021 4.26254 43.2241 3.62391 43.2681 3.57932C43.2924 3.55464 43.338 3.49332 43.2987 3.42325C43.2665 3.36353 43.2068 3.35158 43.1534 3.35158H31.3135C31.1737 3.35158 31.1549 3.3484 31.0638 3.43997C31.0638 3.43997 30.2816 4.23387 30.2753 4.24024C30.2706 4.24502 30.2062 4.30155 30.2462 4.38198C30.2706 4.43055 30.3271 4.46161 30.3625 4.46161C30.4056 4.46161 34.8358 4.45922 34.8978 4.45922C34.9481 4.45922 34.956 4.47355 34.9685 4.49028C34.9685 4.49028 34.9834 4.52531 34.9622 4.54681C34.8806 4.62644 32.0745 7.45247 32.0745 7.45247C32.0274 7.5098 32.0243 7.57749 32.0525 7.62288C32.0643 7.64199 32.1028 7.6834 32.1672 7.6834C32.1672 7.6834 34.6709 7.6818 34.7259 7.6818C34.9732 7.68499 35.0973 7.65712 35.212 7.59899C35.2882 7.56156 35.3832 7.47716 35.5081 7.35134C35.6667 7.19208 35.8143 7.04079 35.9015 6.9524C36.6248 6.21822 38.267 4.55557 38.2803 4.54124C38.296 4.52372 38.3188 4.5062 38.3322 4.49266C38.3502 4.47515 38.3785 4.4624 38.4091 4.4624H42.2C42.3139 4.4624 42.4262 4.40826 42.511 4.33898V4.33739ZM28.3041 3.33725C27.8407 3.33645 27.7386 3.33247 26.9823 3.32769C25.7344 3.31973 23.9666 3.31495 23.3532 3.31495C22.3684 3.31495 19.2011 3.34123 19.2011 3.34123C18.8406 3.34123 18.5665 3.41608 18.3113 3.63825C18.1731 3.75689 18.0129 3.91695 17.8935 4.04515C17.7804 4.16619 14.5597 7.42062 14.5487 7.43256C14.5267 7.45805 14.4756 7.52732 14.4961 7.59103C14.5181 7.66269 14.5832 7.6826 14.6272 7.6826C14.6586 7.6826 17.0877 7.6826 17.0877 7.6826C17.6131 7.6826 17.8581 7.45406 18.1118 7.20323C18.3851 6.93329 20.4388 4.83985 20.4388 4.83985C20.7655 4.50859 21.0796 4.4417 21.5673 4.4417H25.1203C25.4399 4.4417 25.597 4.45842 25.6519 4.58185C25.6896 4.66705 25.6488 4.75942 25.5129 4.91629C25.3975 5.05086 25.1988 5.25551 25.0229 5.41317C24.8061 5.60667 24.5273 5.78663 24.1684 5.89732C23.7671 6.01995 23.2142 6.02632 23.1082 6.02632L20.3116 6.02473C20.2158 6.02473 20.1294 6.14576 20.2244 6.24211C20.2244 6.24211 23.1514 9.3556 23.1977 9.40497C23.2433 9.45434 23.5825 9.76967 23.9941 9.76967C24.3781 9.76967 25.9425 9.76808 26.1726 9.76808H26.3022C26.4239 9.76808 26.4546 9.61917 26.376 9.53955C26.3705 9.53318 26.3195 9.47903 26.3108 9.47027C26.0619 9.2067 24.0113 7.09892 24.0003 7.08777C23.9721 7.0591 23.9391 7.02805 23.9469 7.00257C23.9556 6.9739 23.9854 6.96753 24.0003 6.96753C24.0231 6.96753 24.7998 6.96753 24.7998 6.96753C25.1328 6.96753 25.7501 6.91816 26.1216 6.80668C26.8567 6.58611 27.1677 6.35041 27.4457 6.12824C27.6082 5.99765 27.8014 5.82884 28.3849 5.2786C28.7258 4.9577 29.1836 4.42418 29.2653 4.292C29.3399 4.17176 29.4499 3.96313 29.3831 3.77043C29.3054 3.54747 29.098 3.33884 28.3033 3.33725H28.3041Z" fill="#1D1D1B"/>
</svg>
