<svg width="27" height="38" viewBox="0 0 27 38" fill="none" xmlns="http://www.w3.org/2000/svg">
<path d="M9.73047 34.9419V33.5117H17.076V34.9419H9.73047Z" fill="black"/>
<path d="M13.4205 37.9278H15.7336V35.7031H11.1074V37.9278H13.4205Z" fill="black"/>
<path d="M11.0883 32.7721C11.0883 31.5366 10.7526 30.3358 9.78125 29.5234H17.0205C16.0313 30.3358 15.7135 31.5366 15.7135 32.7721H11.0873H11.0883Z" fill="black"/>
<path d="M4.96289 27.1574V26.0977H21.8787V27.1574H4.96289Z" fill="black"/>
<path d="M5.7217 30.9715C6.71088 30.7599 7.76964 30.2127 8.4758 29.5234H5.54492C5.59758 30.0002 5.65117 30.4948 5.7217 30.9715Z" fill="black"/>
<path d="M21.1018 30.9715C20.1126 30.7599 19.0538 30.2127 18.3477 29.5234H21.2785C21.2259 30.0002 21.1723 30.4948 21.1018 30.9715Z" fill="black"/>
<path d="M4.67887 23.7648C3.76115 18.2735 1.95956 12.5697 0 8.80859C2.11847 9.95668 4.37892 11.7752 6.8152 14.2641C5.8091 13.999 4.80205 13.7874 3.79594 13.6285C5.20825 16.9477 6.35634 20.3384 7.41605 23.7639H4.67887V23.7648Z" fill="black"/>
<path d="M22.1434 23.7678C23.0611 18.2765 24.8627 12.5737 26.8223 8.8125C24.7038 9.96059 22.4434 11.7791 20.0071 14.268C21.0132 14.0029 22.0202 13.7913 23.0264 13.6324C21.614 16.9516 20.466 20.3423 19.4062 23.7678H22.1434Z" fill="black"/>
<path d="M4.0625 25.5493V24.4727H22.7432V25.5493H4.0625Z" fill="black"/>
<path d="M10.2601 8.22846C11.7082 5.75644 12.9437 2.93182 13.4204 0C13.8972 2.93088 15.1327 5.75644 16.5638 8.22846C16.0514 7.99903 15.5041 7.75173 14.9042 7.48657C14.3748 7.25714 14.1623 7.39818 14.1802 7.92756C14.357 13.2073 15.1336 19.1932 17.8877 23.7658H14.639C14.1266 22.5472 13.7213 21.3464 13.4204 20.1635C13.1205 21.3464 12.7143 22.5472 12.2018 23.7658H8.95312C11.7072 19.1922 12.4848 13.2073 12.6607 7.92756C12.6785 7.39818 12.4491 7.2562 11.9367 7.48657C11.3189 7.75173 10.7716 7.99903 10.2592 8.22846H10.2601Z" fill="black"/>
<path d="M4.0625 28.7798V27.7031H22.7432V28.7798H4.0625Z" fill="black"/>
</svg>
