<svg width="44" height="42" viewBox="0 0 44 42" fill="none" xmlns="http://www.w3.org/2000/svg">
<path d="M31.8829 18.0118L31.9332 16.8684L28.7754 19.8094L28.7251 20.9141L26.3183 23.157L25.5117 26.7265L28.5973 23.8371L28.5457 24.9895L31.6984 22.0485L31.7564 20.896L34.1787 18.6854L34.9866 15.1172L31.8842 18.0118H31.8829ZM33.2844 18.9048L31.2893 20.7141L31.2402 21.7916L29.0709 23.8177L29.1187 22.7363L26.77 24.9263L27.1855 22.9647L29.1922 21.1077L29.2374 20.0779L31.4041 18.0634L31.3564 19.1487L33.7103 16.9265L33.2831 18.9035L33.2844 18.9048Z" fill="black"/>
<path d="M39.212 9.48187C39.212 9.48187 39.2029 9.68577 39.2068 9.67932C39.3268 9.42122 39.7359 8.50625 39.9243 8.61336C39.9243 8.61336 40.2173 8.76435 40.1566 9.89999L39.9037 10.1452C39.8766 10.1736 39.8508 10.2175 39.8482 10.2484L39.8275 10.4846C39.825 10.5143 39.8469 10.5169 39.874 10.4898L40.1244 10.2484C40.1127 10.4046 40.0198 10.6704 39.8598 10.9053C39.8327 10.9453 39.8404 11.0627 39.8495 11.0718C39.8533 11.0782 39.9347 10.9995 39.9592 10.9866C40.0831 11.0176 40.1437 11.357 40.1437 11.357C40.1437 11.357 40.1566 11.3466 40.1682 11.335H40.1695C40.1811 11.3234 40.194 11.3105 40.1953 11.3066C40.1953 11.3066 40.4018 10.5852 40.4831 10.4807C40.5102 10.4446 40.5915 10.3646 40.598 10.3478C40.607 10.322 40.6418 10.1633 40.616 10.1736C40.4728 10.2329 40.4134 10.1129 40.4276 9.95419L40.6767 9.71158C40.7051 9.68448 40.7296 9.63931 40.7322 9.60963L40.7528 9.37476C40.7554 9.34508 40.7361 9.3425 40.7077 9.36831L40.4534 9.6135C40.5954 8.40043 40.958 7.58096 40.958 7.58096C41.3039 6.96798 41.5233 7.34222 41.6162 7.39255C41.62 7.39255 41.6226 7.39126 41.6239 7.39126C41.6446 7.38094 41.6588 7.35255 41.6562 7.32415C41.6446 7.05573 41.6536 6.4763 41.3697 6.52663C41.3697 6.52663 41.1026 6.4892 40.6857 7.59387C40.8806 6.85183 40.9399 6.33176 40.9399 6.33176C40.9399 6.33176 40.9774 5.81427 40.7748 5.49681C40.7619 5.47745 40.7193 5.43099 40.6741 5.47616C40.6289 5.51875 40.5709 5.66715 40.5489 5.7149C40.2431 6.40145 40.2057 6.9512 40.2057 6.9512C40.2057 6.9512 40.1695 7.53838 40.2586 8.00812C39.9876 7.62355 39.683 8.02231 39.683 8.02231C39.23 8.63788 39.2029 9.16054 39.1849 9.47413C39.1758 9.51155 39.1862 9.51671 39.2107 9.48445" fill="black"/>
<path d="M43.8834 0.00485896C43.8073 -0.020951 43.7183 0.0642219 43.7118 0.0693839C43.7118 0.0693839 36.3353 6.76966 34.206 8.74928C33.9337 8.99448 33.8847 9.27581 33.8847 9.27581L33.5685 10.938L36.6837 9.34937L21.9785 22.044V22.0414L7.27068 9.34937L10.3872 10.938L10.0711 9.27581C10.0711 9.27581 10.022 8.99448 9.74973 8.74928C7.61911 6.76966 0.241323 0.0693839 0.241323 0.0693839C0.234871 0.0642219 0.145826 -0.0196605 0.0709775 0.00485896C-0.0012905 0.0293785 0.0012905 0.106808 0 0.139071C0 0.139071 0.301977 3.08528 0.535557 5.84437C0.810434 9.08739 1.00143 10.4334 1.00272 10.445C1.11886 11.2038 1.56409 12.4543 2.44033 13.479C2.60294 13.67 5.80338 17.4666 5.83693 17.5053L5.86016 17.5337L6.05115 18.8462C6.23182 20.0037 6.74931 21.049 7.58685 21.955C7.69654 22.0737 7.99594 22.4002 8.42438 22.8673C10.5318 25.1631 15.5673 30.6426 17.0862 32.2067C17.2966 32.4235 17.5714 32.7706 17.6592 32.9139C17.747 33.0558 17.9405 33.4985 17.9921 33.7166C18.1612 34.4225 18.6103 35.9595 19.0852 37.5855L19.1884 37.9404C19.1884 37.9404 19.3123 38.3198 19.373 38.454C19.5691 38.885 19.7717 39.116 19.7756 39.1212L21.8856 41.6093C21.9075 41.6338 21.9398 41.6493 21.9746 41.6493H21.9772C22.0121 41.6493 22.0443 41.6338 22.0663 41.6093L24.1762 39.1212C24.1762 39.1212 24.384 38.885 24.5789 38.454C24.6395 38.3198 24.7621 37.9443 24.7634 37.9404L24.8666 37.5855C25.3415 35.9595 25.7906 34.4225 25.9597 33.7166C26.0126 33.4985 26.2062 33.0571 26.2926 32.9139C26.3804 32.7706 26.6553 32.4235 26.8656 32.2067C28.3858 30.6439 33.4201 25.1631 35.5275 22.8673C35.9559 22.4002 36.2553 22.075 36.365 21.955C37.2038 21.049 37.72 20.0037 37.9007 18.8462L38.0917 17.5337L38.1162 17.5053C38.1498 17.4666 41.3502 13.67 41.5128 13.479C42.3878 12.453 42.833 11.2038 42.9504 10.445C42.9517 10.4334 43.1427 9.08739 43.4176 5.84437C43.6512 3.08657 43.9518 0.139071 43.9518 0.139071C43.9505 0.106808 43.9531 0.028088 43.8809 0.00356846M5.46269 7.7556C5.46269 7.7556 5.18394 7.7143 5.19813 8.00596C5.19942 8.04338 5.20846 8.17114 5.22136 8.3673L5.77628 15.154C4.2651 13.5667 3.00557 12.1846 2.77328 11.9226C2.08545 11.1509 1.99769 10.2385 1.99769 10.2385L1.20662 1.97416C1.20662 1.97416 4.64193 5.16815 8.11337 8.3944L8.12757 8.39956L5.46398 7.7556H5.46269ZM20.4144 37.4268C20.4144 37.4268 20.3434 37.3261 20.3254 37.2874C20.3073 37.2474 20.2905 37.1958 20.275 37.1183C20.075 36.0898 19.2697 32.0209 19.16 31.6298C19.1136 31.4621 19.08 31.3201 18.9845 31.124C18.8336 30.8142 18.6116 30.5987 18.6116 30.5987C18.6116 30.5987 8.71604 20.7922 7.99852 20.0463C6.99064 18.9997 6.93773 17.6744 6.93773 17.6744L6.24215 9.70167C6.24215 9.70167 18.4696 20.4115 19.5975 21.4142C20.0015 21.773 20.2738 22.1266 20.4402 22.4725C20.7396 23.0958 20.7267 23.6287 20.7267 23.6287L21.3952 38.6979L20.4144 37.4268ZM37.0154 17.6744C37.0154 17.6744 36.9625 18.9997 35.9559 20.0463C35.2384 20.7922 25.3441 30.5987 25.3441 30.5987C25.3441 30.5987 25.1209 30.8142 24.9712 31.124C24.8757 31.3201 24.8421 31.4621 24.7957 31.6298C24.686 32.0209 23.8807 36.0898 23.6807 37.1183C23.6665 37.1958 23.6484 37.2474 23.6303 37.2874C23.6123 37.3261 23.5426 37.4268 23.5426 37.4268L22.5618 38.6979L23.2303 23.6287C23.2303 23.6287 23.2161 23.0971 23.5155 22.4725C23.682 22.1266 23.9543 21.773 24.3582 21.4142C25.4861 20.4115 37.7136 9.70167 37.7136 9.70167L37.0167 17.6744H37.0154ZM41.9554 10.2398C41.9554 10.2398 41.8677 11.1522 41.1798 11.9239C40.9476 12.1859 39.6893 13.568 38.1769 15.1553L38.7318 8.36859C38.7447 8.17114 38.7524 8.04338 38.7537 8.00596C38.7679 7.71301 38.4904 7.7556 38.4904 7.7556L35.8269 8.39956L35.8398 8.3944C39.3099 5.16815 42.7465 1.97416 42.7465 1.97416L41.9554 10.2398Z" fill="black"/>
<path d="M15.7965 18.4212L15.9604 21.5261L11.2295 17.1991L11.0423 14.2619L15.7953 18.4212H15.7965ZM7.03147 16.1912L6.76562 13.1211L11.2295 17.2017L11.4256 20.295L7.03018 16.1912H7.03147ZM11.6231 23.3406L11.4282 20.3001L16.1192 24.684L16.2882 27.9722L11.6231 23.3406ZM16.1205 24.6827L15.9617 21.53L20.5443 25.7177L20.6927 28.9581L16.1205 24.6827Z" fill="black"/>
<path d="M5.1203 11.6093L2.08891 8.66046L1.76758 5.64844L4.96027 8.61788L5.22999 11.7435L5.1203 11.6093Z" fill="black"/>
<path d="M5 5.84375L7.29709 7.97566L5.12518 7.45042L5 5.84375Z" fill="black"/>
</svg>
